solid BuildPlateMountBridge2
facet normal 0.0 0.0 -1.0
  outer loop
    vertex 3.4062223866230372 46.07294857558084 0.0
    vertex 3.3536835180351376 3.6101909307104645 0.0
    vertex 3.35 46.5 0.0
  endloop
endfacet
facet normal 0.0 0.0 -1.0
  outer loop
    vertex 3.3536835180351376 3.6101909307104645 0.0
    vertex 3.4062223866230372 46.07294857558084 0.0
    vertex 3.438299903290219 4.032534325594755 0.0
  endloop
endfacet
facet normal 0.0 0.0 -1.0
  outer loop
    vertex 3.438299903290219 4.032534325594755 0.0
    vertex 3.4062223866230372 46.07294857558084 0.0
    vertex 3.5710580837556756 45.675000000000004 0.0
  endloop
endfacet
facet normal 0.0 0.0 -1.0
  outer loop
    vertex 3.438299903290219 4.032534325594755 0.0
    vertex 3.5710580837556756 45.675000000000004 0.0
    vertex 3.629343569304636 4.418586386244344 0.0
  endloop
endfacet
facet normal 0.0 0.0 -1.0
  outer loop
    vertex 3.629343569304636 4.418586386244344 0.0
    vertex 3.5710580837556756 45.675000000000004 0.0
    vertex 3.8332738110421967 45.3332738110422 0.0
  endloop
endfacet
facet normal 0.0 0.0 -1.0
  outer loop
    vertex 3.629343569304636 4.418586386244344 0.0
    vertex 3.8332738110421967 45.3332738110422 0.0
    vertex 3.913795205954093 4.7420383027071615 0.0
  endloop
endfacet
facet normal 0.0 0.0 -1.0
  outer loop
    vertex 3.913795205954093 4.7420383027071615 0.0
    vertex 3.8332738110421967 45.3332738110422 0.0
    vertex 4.175 45.07105808375567 0.0
  endloop
endfacet
facet normal 0.0 0.0 -1.0
  outer loop
    vertex 3.913795205954093 4.7420383027071615 0.0
    vertex 4.175 45.07105808375567 0.0
    vertex 4.272269904279483 4.9808473614058295 0.0
  endloop
endfacet
facet normal 0.0 0.0 -1.0
  outer loop
    vertex 4.272269904279483 4.9808473614058295 0.0
    vertex 4.175 45.07105808375567 0.0
    vertex 4.572948575580839 44.906222386623035 0.0
  endloop
endfacet
facet normal 0.0 0.0 -1.0
  outer loop
    vertex 4.272269904279483 4.9808473614058295 0.0
    vertex 4.572948575580839 44.906222386623035 0.0
    vertex 4.680338205997382 5.118739119640662 0.0
  endloop
endfacet
facet normal 0.0 0.0 -1.0
  outer loop
    vertex 4.680338205997382 5.118739119640662 0.0
    vertex 4.572948575580839 44.906222386623035 0.0
    vertex 5.0 44.85 0.0
  endloop
endfacet
facet normal 0.0 0.0 -1.0
  outer loop
    vertex 4.680338205997382 5.118739119640662 0.0
    vertex 5.0 44.85 0.0
    vertex 5.110190930710465 5.146316481964862 0.0
  endloop
endfacet
facet normal 0.0 0.0 -1.0
  outer loop
    vertex 5.110190930710465 5.146316481964862 0.0
    vertex 5.0 44.85 0.0
    vertex 5.427051424419159 44.906222386623035 0.0
  endloop
endfacet
facet normal 0.0 0.0 -1.0
  outer loop
    vertex 5.110190930710465 5.146316481964862 0.0
    vertex 5.427051424419159 44.906222386623035 0.0
    vertex 5.532534325594756 5.06170009670978 0.0
  endloop
endfacet
facet normal 0.0 0.0 -1.0
  outer loop
    vertex 5.532534325594756 5.06170009670978 0.0
    vertex 5.427051424419159 44.906222386623035 0.0
    vertex 5.825 45.07105808375567 0.0
  endloop
endfacet
facet normal 0.0 0.0 -1.0
  outer loop
    vertex 5.532534325594756 5.06170009670978 0.0
    vertex 5.825 45.07105808375567 0.0
    vertex 5.918586386244345 4.870656430695363 0.0
  endloop
endfacet
facet normal 0.0 0.0 -1.0
  outer loop
    vertex 5.918586386244345 4.870656430695363 0.0
    vertex 5.825 45.07105808375567 0.0
    vertex 6.166726188957804 45.3332738110422 0.0
  endloop
endfacet
facet normal 0.0 0.0 -1.0
  outer loop
    vertex 5.918586386244345 4.870656430695363 0.0
    vertex 6.166726188957804 45.3332738110422 0.0
    vertex 6.2420383027071615 4.586204794045908 0.0
  endloop
endfacet
facet normal 0.0 0.0 -1.0
  outer loop
    vertex 6.2420383027071615 4.586204794045908 0.0
    vertex 6.166726188957804 45.3332738110422 0.0
    vertex 6.428941916244324 45.675000000000004 0.0
  endloop
endfacet
facet normal 0.0 0.0 -1.0
  outer loop
    vertex 6.2420383027071615 4.586204794045908 0.0
    vertex 6.428941916244324 45.675000000000004 0.0
    vertex 6.4808473614058295 4.227730095720516 0.0
  endloop
endfacet
facet normal 0.0 0.0 -1.0
  outer loop
    vertex 6.4808473614058295 4.227730095720516 0.0
    vertex 6.428941916244324 45.675000000000004 0.0
    vertex 6.593777613376962 46.07294857558084 0.0
  endloop
endfacet
facet normal 0.0 0.0 -1.0
  outer loop
    vertex 6.4808473614058295 4.227730095720516 0.0
    vertex 6.593777613376962 46.07294857558084 0.0
    vertex 6.618739119640662 3.8196617940026187 0.0
  endloop
endfacet
facet normal 0.0 0.0 -1.0
  outer loop
    vertex 6.618739119640662 3.8196617940026187 0.0
    vertex 6.593777613376962 46.07294857558084 0.0
    vertex 6.6499999999999995 46.5 0.0
  endloop
endfacet
facet normal 0.0 0.0 -1.0
  outer loop
    vertex 6.618739119640662 3.8196617940026187 0.0
    vertex 6.6499999999999995 46.5 0.0
    vertex 6.646316481964862 3.3898090692895337 0.0
  endloop
endfacet
facet normal 0.0 0.0 -1.0
  outer loop
    vertex 0.08075674811299666 48.85987804071866 0.0
    vertex 0.0 1.6499999999999984 0.0
    vertex 0.0 48.35 0.0
  endloop
endfacet
facet normal 0.0 0.0 -1.0
  outer loop
    vertex 0.0 1.6499999999999984 0.0
    vertex 0.08075674811299666 48.85987804071866 0.0
    vertex 0.08075674811299666 1.1401219592813354 0.0
  endloop
endfacet
facet normal 0.0 0.0 -1.0
  outer loop
    vertex 0.08075674811299666 1.1401219592813354 0.0
    vertex 0.08075674811299666 48.85987804071866 0.0
    vertex 0.3151219592813368 49.31984566628258 0.0
  endloop
endfacet
facet normal 0.0 0.0 -1.0
  outer loop
    vertex 0.08075674811299666 1.1401219592813354 0.0
    vertex 0.3151219592813368 49.31984566628258 0.0
    vertex 0.3151219592813368 0.6801543337174184 0.0
  endloop
endfacet
facet normal 0.0 0.0 -1.0
  outer loop
    vertex 0.3151219592813368 0.6801543337174184 0.0
    vertex 0.3151219592813368 49.31984566628258 0.0
    vertex 0.6801543337174193 49.684878040718665 0.0
  endloop
endfacet
facet normal 0.0 0.0 -1.0
  outer loop
    vertex 0.3151219592813368 0.6801543337174184 0.0
    vertex 0.6801543337174193 49.684878040718665 0.0
    vertex 0.6801543337174193 0.31512195928133646 0.0
  endloop
endfacet
facet normal 0.0 0.0 -1.0
  outer loop
    vertex 0.6801543337174193 0.31512195928133646 0.0
    vertex 0.6801543337174193 49.684878040718665 0.0
    vertex 1.1401219592813365 49.919243251887 0.0
  endloop
endfacet
facet normal 0.0 0.0 -1.0
  outer loop
    vertex 0.6801543337174193 0.31512195928133646 0.0
    vertex 1.1401219592813365 49.919243251887 0.0
    vertex 1.1401219592813365 0.08075674811299666 0.0
  endloop
endfacet
facet normal 0.0 0.0 -1.0
  outer loop
    vertex 1.1401219592813365 0.08075674811299666 0.0
    vertex 1.1401219592813365 49.919243251887 0.0
    vertex 1.6499999999999997 50.0 0.0
  endloop
endfacet
facet normal 0.0 0.0 -1.0
  outer loop
    vertex 1.1401219592813365 0.08075674811299666 0.0
    vertex 1.6499999999999997 50.0 0.0
    vertex 1.6499999999999997 0.0 0.0
  endloop
endfacet
facet normal 0.0 0.0 -1.0
  outer loop
    vertex 1.6499999999999997 0.0 0.0
    vertex 1.6499999999999997 50.0 0.0
    vertex 3.35 46.5 0.0
  endloop
endfacet
facet normal 0.0 0.0 -1.0
  outer loop
    vertex 3.35 46.5 0.0
    vertex 1.6499999999999997 50.0 0.0
    vertex 3.406222386623038 46.927051424419155 0.0
  endloop
endfacet
facet normal 0.0 0.0 -1.0
  outer loop
    vertex 3.406222386623038 46.927051424419155 0.0
    vertex 1.6499999999999997 50.0 0.0
    vertex 3.571058083755677 47.324999999999996 0.0
  endloop
endfacet
facet normal 0.0 0.0 -1.0
  outer loop
    vertex 3.571058083755677 47.324999999999996 0.0
    vertex 1.6499999999999997 50.0 0.0
    vertex 3.8332738110421976 47.6667261889578 0.0
  endloop
endfacet
facet normal 0.0 0.0 -1.0
  outer loop
    vertex 3.8332738110421976 47.6667261889578 0.0
    vertex 1.6499999999999997 50.0 0.0
    vertex 4.175000000000001 47.92894191624433 0.0
  endloop
endfacet
facet normal 0.0 0.0 -1.0
  outer loop
    vertex 4.175000000000001 47.92894191624433 0.0
    vertex 1.6499999999999997 50.0 0.0
    vertex 8.7 50.0 0.0
  endloop
endfacet
facet normal 0.0 0.0 -1.0
  outer loop
    vertex 4.175000000000001 47.92894191624433 0.0
    vertex 8.7 50.0 0.0
    vertex 4.572948575580841 48.093777613376965 0.0
  endloop
endfacet
facet normal 0.0 0.0 -1.0
  outer loop
    vertex 4.572948575580841 48.093777613376965 0.0
    vertex 8.7 50.0 0.0
    vertex 5.0 48.15 0.0
  endloop
endfacet
facet normal 0.0 0.0 -1.0
  outer loop
    vertex 5.0 48.15 0.0
    vertex 8.7 50.0 0.0
    vertex 5.427051424419159 48.093777613376965 0.0
  endloop
endfacet
facet normal 0.0 0.0 -1.0
  outer loop
    vertex 5.427051424419159 48.093777613376965 0.0
    vertex 8.7 50.0 0.0
    vertex 5.825 47.92894191624433 0.0
  endloop
endfacet
facet normal 0.0 0.0 -1.0
  outer loop
    vertex 5.825 47.92894191624433 0.0
    vertex 8.7 50.0 0.0
    vertex 6.166726188957804 47.6667261889578 0.0
  endloop
endfacet
facet normal 0.0 0.0 -1.0
  outer loop
    vertex 6.166726188957804 47.6667261889578 0.0
    vertex 8.7 50.0 0.0
    vertex 6.428941916244324 47.324999999999996 0.0
  endloop
endfacet
facet normal 0.0 0.0 -1.0
  outer loop
    vertex 6.428941916244324 47.324999999999996 0.0
    vertex 8.7 50.0 0.0
    vertex 6.593777613376962 46.927051424419155 0.0
  endloop
endfacet
facet normal 0.0 0.0 -1.0
  outer loop
    vertex 6.593777613376962 46.927051424419155 0.0
    vertex 8.7 50.0 0.0
    vertex 6.6499999999999995 46.5 0.0
  endloop
endfacet
facet normal 0.0 0.0 -1.0
  outer loop
    vertex 6.6499999999999995 46.5 0.0
    vertex 8.7 50.0 0.0
    vertex 8.35 0.0 0.0
  endloop
endfacet
facet normal 0.0 0.0 -1.0
  outer loop
    vertex 8.35 0.0 0.0
    vertex 8.7 50.0 0.0
    vertex 8.859878040718664 0.08075674811299666 0.0
  endloop
endfacet
facet normal 0.0 0.0 -1.0
  outer loop
    vertex 8.859878040718664 0.08075674811299666 0.0
    vertex 8.7 50.0 0.0
    vertex 9.101722092687432 49.9363734711837 0.0
  endloop
endfacet
facet normal 0.0 0.0 -1.0
  outer loop
    vertex 8.859878040718664 0.08075674811299666 0.0
    vertex 9.101722092687432 49.9363734711837 0.0
    vertex 9.319845666282582 0.3151219592813368 0.0
  endloop
endfacet
facet normal 0.0 0.0 -1.0
  outer loop
    vertex 9.319845666282582 0.3151219592813368 0.0
    vertex 9.101722092687432 49.9363734711837 0.0
    vertex 9.464120827980215 49.75172209268743 0.0
  endloop
endfacet
facet normal 0.0 0.0 -1.0
  outer loop
    vertex 9.319845666282582 0.3151219592813368 0.0
    vertex 9.464120827980215 49.75172209268743 0.0
    vertex 9.684878040718663 0.6801543337174193 0.0
  endloop
endfacet
facet normal 0.0 0.0 -1.0
  outer loop
    vertex 9.684878040718663 0.6801543337174193 0.0
    vertex 9.464120827980215 49.75172209268743 0.0
    vertex 9.75172209268743 49.46412082798022 0.0
  endloop
endfacet
facet normal 0.0 0.0 -1.0
  outer loop
    vertex 9.684878040718663 0.6801543337174193 0.0
    vertex 9.75172209268743 49.46412082798022 0.0
    vertex 9.919243251887004 1.1401219592813365 0.0
  endloop
endfacet
facet normal 0.0 0.0 -1.0
  outer loop
    vertex 9.919243251887004 1.1401219592813365 0.0
    vertex 9.75172209268743 49.46412082798022 0.0
    vertex 9.9363734711837 49.10172209268743 0.0
  endloop
endfacet
facet normal 0.0 0.0 -1.0
  outer loop
    vertex 9.919243251887004 1.1401219592813365 0.0
    vertex 9.9363734711837 49.10172209268743 0.0
    vertex 10.0 1.6499999999999997 0.0
  endloop
endfacet
facet normal 0.0 0.0 -1.0
  outer loop
    vertex 10.0 1.6499999999999997 0.0
    vertex 9.9363734711837 49.10172209268743 0.0
    vertex 10.0 48.7 0.0
  endloop
endfacet
facet normal 0.0 0.0 -1.0
  outer loop
    vertex 1.6499999999999997 0.0 0.0
    vertex 4.081413613755655 2.1293435693046363 0.0
    vertex 8.35 0.0 0.0
  endloop
endfacet
facet normal 0.0 0.0 -1.0
  outer loop
    vertex 4.081413613755655 2.1293435693046363 0.0
    vertex 1.6499999999999997 0.0 0.0
    vertex 3.7579616972928385 2.4137952059540924 0.0
  endloop
endfacet
facet normal 0.0 0.0 -1.0
  outer loop
    vertex 3.7579616972928385 2.4137952059540924 0.0
    vertex 1.6499999999999997 0.0 0.0
    vertex 3.519152638594171 2.7722699042794825 0.0
  endloop
endfacet
facet normal 0.0 0.0 -1.0
  outer loop
    vertex 3.519152638594171 2.7722699042794825 0.0
    vertex 1.6499999999999997 0.0 0.0
    vertex 3.381260880359338 3.180338205997381 0.0
  endloop
endfacet
facet normal 0.0 0.0 -1.0
  outer loop
    vertex 3.381260880359338 3.180338205997381 0.0
    vertex 1.6499999999999997 0.0 0.0
    vertex 3.3536835180351376 3.6101909307104645 0.0
  endloop
endfacet
facet normal 0.0 0.0 -1.0
  outer loop
    vertex 3.3536835180351376 3.6101909307104645 0.0
    vertex 1.6499999999999997 0.0 0.0
    vertex 3.35 46.5 0.0
  endloop
endfacet
facet normal 0.0 0.0 -1.0
  outer loop
    vertex 8.35 0.0 0.0
    vertex 4.081413613755655 2.1293435693046363 0.0
    vertex 4.467465674405245 1.938299903290219 0.0
  endloop
endfacet
facet normal 0.0 0.0 -1.0
  outer loop
    vertex 8.35 0.0 0.0
    vertex 4.467465674405245 1.938299903290219 0.0
    vertex 4.8898090692895355 1.8536835180351376 0.0
  endloop
endfacet
facet normal 0.0 0.0 -1.0
  outer loop
    vertex 8.35 0.0 0.0
    vertex 4.8898090692895355 1.8536835180351376 0.0
    vertex 5.319661794002619 1.8812608803593378 0.0
  endloop
endfacet
facet normal 0.0 0.0 -1.0
  outer loop
    vertex 8.35 0.0 0.0
    vertex 5.319661794002619 1.8812608803593378 0.0
    vertex 5.727730095720517 2.019152638594171 0.0
  endloop
endfacet
facet normal 0.0 0.0 -1.0
  outer loop
    vertex 8.35 0.0 0.0
    vertex 5.727730095720517 2.019152638594171 0.0
    vertex 6.086204794045908 2.2579616972928385 0.0
  endloop
endfacet
facet normal 0.0 0.0 -1.0
  outer loop
    vertex 8.35 0.0 0.0
    vertex 6.086204794045908 2.2579616972928385 0.0
    vertex 6.370656430695363 2.5814136137556547 0.0
  endloop
endfacet
facet normal 0.0 0.0 -1.0
  outer loop
    vertex 8.35 0.0 0.0
    vertex 6.370656430695363 2.5814136137556547 0.0
    vertex 6.561700096709781 2.9674656744052452 0.0
  endloop
endfacet
facet normal 0.0 0.0 -1.0
  outer loop
    vertex 8.35 0.0 0.0
    vertex 6.561700096709781 2.9674656744052452 0.0
    vertex 6.646316481964862 3.3898090692895337 0.0
  endloop
endfacet
facet normal 0.0 0.0 -1.0
  outer loop
    vertex 8.35 0.0 0.0
    vertex 6.646316481964862 3.3898090692895337 0.0
    vertex 6.6499999999999995 46.5 0.0
  endloop
endfacet
facet normal -0.8974832493368664 -0.44104854286091894 0.0
  outer loop
    vertex 6.4808473614058295 4.227730095720516 10.0
    vertex 6.618739119640662 3.8196617940026187 0.0
    vertex 6.618739119640662 3.8196617940026187 10.0
  endloop
endfacet
facet normal -0.981054011903432 -0.1937344206076472 0.0
  outer loop
    vertex 6.618739119640662 3.8196617940026187 0.0
    vertex 6.4808473614058295 4.227730095720516 10.0
    vertex 6.4808473614058295 4.227730095720516 0.0
  endloop
endfacet
facet normal -0.752750486489189 -0.6583059357853985 0.0
  outer loop
    vertex 6.2420383027071615 4.586204794045908 10.0
    vertex 6.4808473614058295 4.227730095720516 0.0
    vertex 6.4808473614058295 4.227730095720516 10.0
  endloop
endfacet
facet normal -0.8974832493368664 -0.44104854286091894 0.0
  outer loop
    vertex 6.4808473614058295 4.227730095720516 0.0
    vertex 6.2420383027071615 4.586204794045908 10.0
    vertex 6.2420383027071615 4.586204794045908 0.0
  endloop
endfacet
facet normal -0.752750486489189 -0.6583059357853985 0.0
  outer loop
    vertex 6.2420383027071615 4.586204794045908 10.0
    vertex 5.918586386244345 4.870656430695363 0.0
    vertex 6.2420383027071615 4.586204794045908 0.0
  endloop
endfacet
facet normal -0.5567190219662697 -0.8307008670880993 0.0
  outer loop
    vertex 5.918586386244345 4.870656430695363 0.0
    vertex 6.2420383027071615 4.586204794045908 10.0
    vertex 5.918586386244345 4.870656430695363 10.0
  endloop
endfacet
facet normal -0.5567190219662697 -0.8307008670880993 0.0
  outer loop
    vertex 5.918586386244345 4.870656430695363 10.0
    vertex 5.532534325594756 5.06170009670978 0.0
    vertex 5.918586386244345 4.870656430695363 0.0
  endloop
endfacet
facet normal -0.3227480761180332 -0.9464849070968371 0.0
  outer loop
    vertex 5.532534325594756 5.06170009670978 0.0
    vertex 5.918586386244345 4.870656430695363 10.0
    vertex 5.532534325594756 5.06170009670978 10.0
  endloop
endfacet
facet normal -0.3227480761180332 -0.9464849070968371 0.0
  outer loop
    vertex 5.532534325594756 5.06170009670978 10.0
    vertex 5.110190930710465 5.146316481964862 0.0
    vertex 5.532534325594756 5.06170009670978 0.0
  endloop
endfacet
facet normal -0.06678238224876723 -0.9977675648271893 0.0
  outer loop
    vertex 5.110190930710465 5.146316481964862 0.0
    vertex 5.532534325594756 5.06170009670978 10.0
    vertex 5.110190930710465 5.146316481964862 10.0
  endloop
endfacet
facet normal -0.06678238224876723 -0.9977675648271893 0.0
  outer loop
    vertex 5.110190930710465 5.146316481964862 10.0
    vertex 4.680338205997382 5.118739119640662 0.0
    vertex 5.110190930710465 5.146316481964862 0.0
  endloop
endfacet
facet normal 0.19373442060764726 -0.9810540119034319 0.0
  outer loop
    vertex 4.680338205997382 5.118739119640662 0.0
    vertex 5.110190930710465 5.146316481964862 10.0
    vertex 4.680338205997382 5.118739119640662 10.0
  endloop
endfacet
facet normal 0.19373442060764726 -0.9810540119034319 0.0
  outer loop
    vertex 4.680338205997382 5.118739119640662 10.0
    vertex 4.272269904279483 4.9808473614058295 0.0
    vertex 4.680338205997382 5.118739119640662 0.0
  endloop
endfacet
facet normal 0.44104854286091894 -0.8974832493368664 0.0
  outer loop
    vertex 4.272269904279483 4.9808473614058295 0.0
    vertex 4.680338205997382 5.118739119640662 10.0
    vertex 4.272269904279483 4.9808473614058295 10.0
  endloop
endfacet
facet normal 0.44104854286091894 -0.8974832493368664 0.0
  outer loop
    vertex 4.272269904279483 4.9808473614058295 10.0
    vertex 3.913795205954093 4.7420383027071615 0.0
    vertex 4.272269904279483 4.9808473614058295 0.0
  endloop
endfacet
facet normal 0.6583059357853984 -0.7527504864891892 0.0
  outer loop
    vertex 3.913795205954093 4.7420383027071615 0.0
    vertex 4.272269904279483 4.9808473614058295 10.0
    vertex 3.913795205954093 4.7420383027071615 10.0
  endloop
endfacet
facet normal 0.6583059357853984 -0.7527504864891892 0.0
  outer loop
    vertex 3.913795205954093 4.7420383027071615 0.0
    vertex 3.629343569304636 4.418586386244344 10.0
    vertex 3.629343569304636 4.418586386244344 0.0
  endloop
endfacet
facet normal 0.8307008670880993 -0.5567190219662698 0.0
  outer loop
    vertex 3.629343569304636 4.418586386244344 10.0
    vertex 3.913795205954093 4.7420383027071615 0.0
    vertex 3.913795205954093 4.7420383027071615 10.0
  endloop
endfacet
facet normal 0.8307008670880993 -0.5567190219662698 0.0
  outer loop
    vertex 3.629343569304636 4.418586386244344 0.0
    vertex 3.438299903290219 4.032534325594755 10.0
    vertex 3.438299903290219 4.032534325594755 0.0
  endloop
endfacet
facet normal 0.9464849070968373 -0.3227480761180324 0.0
  outer loop
    vertex 3.438299903290219 4.032534325594755 10.0
    vertex 3.629343569304636 4.418586386244344 0.0
    vertex 3.629343569304636 4.418586386244344 10.0
  endloop
endfacet
facet normal 0.9464849070968373 -0.3227480761180324 0.0
  outer loop
    vertex 3.438299903290219 4.032534325594755 0.0
    vertex 3.3536835180351376 3.6101909307104645 10.0
    vertex 3.3536835180351376 3.6101909307104645 0.0
  endloop
endfacet
facet normal 0.9977675648271895 -0.06678238224876647 0.0
  outer loop
    vertex 3.3536835180351376 3.6101909307104645 10.0
    vertex 3.438299903290219 4.032534325594755 0.0
    vertex 3.438299903290219 4.032534325594755 10.0
  endloop
endfacet
facet normal 0.9977675648271895 -0.06678238224876647 0.0
  outer loop
    vertex 3.3536835180351376 3.6101909307104645 0.0
    vertex 3.381260880359338 3.180338205997381 10.0
    vertex 3.381260880359338 3.180338205997381 0.0
  endloop
endfacet
facet normal 0.9810540119034318 0.193734420607648 0.0
  outer loop
    vertex 3.381260880359338 3.180338205997381 10.0
    vertex 3.3536835180351376 3.6101909307104645 0.0
    vertex 3.3536835180351376 3.6101909307104645 10.0
  endloop
endfacet
facet normal 0.9810540119034318 0.193734420607648 0.0
  outer loop
    vertex 3.381260880359338 3.180338205997381 0.0
    vertex 3.519152638594171 2.7722699042794825 10.0
    vertex 3.519152638594171 2.7722699042794825 0.0
  endloop
endfacet
facet normal 0.8974832493368664 0.4410485428609193 0.0
  outer loop
    vertex 3.519152638594171 2.7722699042794825 10.0
    vertex 3.381260880359338 3.180338205997381 0.0
    vertex 3.381260880359338 3.180338205997381 10.0
  endloop
endfacet
facet normal 0.8974832493368664 0.4410485428609193 0.0
  outer loop
    vertex 3.519152638594171 2.7722699042794825 0.0
    vertex 3.7579616972928385 2.4137952059540924 10.0
    vertex 3.7579616972928385 2.4137952059540924 0.0
  endloop
endfacet
facet normal 0.7527504864891887 0.6583059357853989 0.0
  outer loop
    vertex 3.7579616972928385 2.4137952059540924 10.0
    vertex 3.519152638594171 2.7722699042794825 0.0
    vertex 3.519152638594171 2.7722699042794825 10.0
  endloop
endfacet
facet normal 0.7527504864891887 0.6583059357853989 0.0
  outer loop
    vertex 3.7579616972928385 2.4137952059540924 10.0
    vertex 4.081413613755655 2.1293435693046363 0.0
    vertex 3.7579616972928385 2.4137952059540924 0.0
  endloop
endfacet
facet normal 0.5567190219662697 0.8307008670880995 0.0
  outer loop
    vertex 4.081413613755655 2.1293435693046363 0.0
    vertex 3.7579616972928385 2.4137952059540924 10.0
    vertex 4.081413613755655 2.1293435693046363 10.0
  endloop
endfacet
facet normal 0.5567190219662697 0.8307008670880995 0.0
  outer loop
    vertex 4.081413613755655 2.1293435693046363 10.0
    vertex 4.467465674405245 1.938299903290219 0.0
    vertex 4.081413613755655 2.1293435693046363 0.0
  endloop
endfacet
facet normal 0.32274807611803313 0.9464849070968371 0.0
  outer loop
    vertex 4.467465674405245 1.938299903290219 0.0
    vertex 4.081413613755655 2.1293435693046363 10.0
    vertex 4.467465674405245 1.938299903290219 10.0
  endloop
endfacet
facet normal 0.32274807611803313 0.9464849070968371 0.0
  outer loop
    vertex 4.467465674405245 1.938299903290219 10.0
    vertex 4.8898090692895355 1.8536835180351376 0.0
    vertex 4.467465674405245 1.938299903290219 0.0
  endloop
endfacet
facet normal 0.06678238224876647 0.9977675648271895 0.0
  outer loop
    vertex 4.8898090692895355 1.8536835180351376 0.0
    vertex 4.467465674405245 1.938299903290219 10.0
    vertex 4.8898090692895355 1.8536835180351376 10.0
  endloop
endfacet
facet normal 0.06678238224876647 0.9977675648271895 0.0
  outer loop
    vertex 4.8898090692895355 1.8536835180351376 10.0
    vertex 5.319661794002619 1.8812608803593378 0.0
    vertex 4.8898090692895355 1.8536835180351376 0.0
  endloop
endfacet
facet normal -0.193734420607648 0.9810540119034318 0.0
  outer loop
    vertex 5.319661794002619 1.8812608803593378 0.0
    vertex 4.8898090692895355 1.8536835180351376 10.0
    vertex 5.319661794002619 1.8812608803593378 10.0
  endloop
endfacet
facet normal -0.193734420607648 0.9810540119034318 0.0
  outer loop
    vertex 5.319661794002619 1.8812608803593378 10.0
    vertex 5.727730095720517 2.019152638594171 0.0
    vertex 5.319661794002619 1.8812608803593378 0.0
  endloop
endfacet
facet normal -0.4410485428609194 0.8974832493368662 0.0
  outer loop
    vertex 5.727730095720517 2.019152638594171 0.0
    vertex 5.319661794002619 1.8812608803593378 10.0
    vertex 5.727730095720517 2.019152638594171 10.0
  endloop
endfacet
facet normal -0.4410485428609194 0.8974832493368662 0.0
  outer loop
    vertex 5.727730095720517 2.019152638594171 10.0
    vertex 6.086204794045908 2.2579616972928385 0.0
    vertex 5.727730095720517 2.019152638594171 0.0
  endloop
endfacet
facet normal -0.658305935785399 0.7527504864891887 0.0
  outer loop
    vertex 6.086204794045908 2.2579616972928385 0.0
    vertex 5.727730095720517 2.019152638594171 10.0
    vertex 6.086204794045908 2.2579616972928385 10.0
  endloop
endfacet
facet normal -0.8307008670880992 0.5567190219662701 0.0
  outer loop
    vertex 6.370656430695363 2.5814136137556547 10.0
    vertex 6.086204794045908 2.2579616972928385 0.0
    vertex 6.086204794045908 2.2579616972928385 10.0
  endloop
endfacet
facet normal -0.658305935785399 0.7527504864891887 0.0
  outer loop
    vertex 6.086204794045908 2.2579616972928385 0.0
    vertex 6.370656430695363 2.5814136137556547 10.0
    vertex 6.370656430695363 2.5814136137556547 0.0
  endloop
endfacet
facet normal -0.9464849070968367 0.32274807611803397 0.0
  outer loop
    vertex 6.561700096709781 2.9674656744052452 10.0
    vertex 6.370656430695363 2.5814136137556547 0.0
    vertex 6.370656430695363 2.5814136137556547 10.0
  endloop
endfacet
facet normal -0.8307008670880992 0.5567190219662701 0.0
  outer loop
    vertex 6.370656430695363 2.5814136137556547 0.0
    vertex 6.561700096709781 2.9674656744052452 10.0
    vertex 6.561700096709781 2.9674656744052452 0.0
  endloop
endfacet
facet normal -0.9977675648271893 0.06678238224876681 0.0
  outer loop
    vertex 6.646316481964862 3.3898090692895337 10.0
    vertex 6.561700096709781 2.9674656744052452 0.0
    vertex 6.561700096709781 2.9674656744052452 10.0
  endloop
endfacet
facet normal -0.9464849070968367 0.32274807611803397 0.0
  outer loop
    vertex 6.561700096709781 2.9674656744052452 0.0
    vertex 6.646316481964862 3.3898090692895337 10.0
    vertex 6.646316481964862 3.3898090692895337 0.0
  endloop
endfacet
facet normal -0.981054011903432 -0.1937344206076472 0.0
  outer loop
    vertex 6.618739119640662 3.8196617940026187 10.0
    vertex 6.646316481964862 3.3898090692895337 0.0
    vertex 6.646316481964862 3.3898090692895337 10.0
  endloop
endfacet
facet normal -0.9977675648271893 0.06678238224876681 0.0
  outer loop
    vertex 6.646316481964862 3.3898090692895337 0.0
    vertex 6.618739119640662 3.8196617940026187 10.0
    vertex 6.618739119640662 3.8196617940026187 0.0
  endloop
endfacet
facet normal 0.9659258262890684 0.2588190451025204 0.0
  outer loop
    vertex 3.4062223866230372 46.07294857558084 0.0
    vertex 3.5710580837556756 45.675000000000004 10.0
    vertex 3.5710580837556756 45.675000000000004 0.0
  endloop
endfacet
facet normal 0.8660254037844393 0.4999999999999991 0.0
  outer loop
    vertex 3.5710580837556756 45.675000000000004 10.0
    vertex 3.4062223866230372 46.07294857558084 0.0
    vertex 3.4062223866230372 46.07294857558084 10.0
  endloop
endfacet
facet normal 0.8660254037844393 0.4999999999999991 0.0
  outer loop
    vertex 3.5710580837556756 45.675000000000004 0.0
    vertex 3.8332738110421967 45.3332738110422 10.0
    vertex 3.8332738110421967 45.3332738110422 0.0
  endloop
endfacet
facet normal 0.7071067811865483 0.7071067811865466 0.0
  outer loop
    vertex 3.8332738110421967 45.3332738110422 10.0
    vertex 3.5710580837556756 45.675000000000004 0.0
    vertex 3.5710580837556756 45.675000000000004 10.0
  endloop
endfacet
facet normal 0.7071067811865483 0.7071067811865466 0.0
  outer loop
    vertex 3.8332738110421967 45.3332738110422 10.0
    vertex 4.175 45.07105808375567 0.0
    vertex 3.8332738110421967 45.3332738110422 0.0
  endloop
endfacet
facet normal 0.5000000000000001 0.8660254037844385 0.0
  outer loop
    vertex 4.175 45.07105808375567 0.0
    vertex 3.8332738110421967 45.3332738110422 10.0
    vertex 4.175 45.07105808375567 10.0
  endloop
endfacet
facet normal 0.5000000000000001 0.8660254037844385 0.0
  outer loop
    vertex 4.175 45.07105808375567 10.0
    vertex 4.572948575580839 44.906222386623035 0.0
    vertex 4.175 45.07105808375567 0.0
  endloop
endfacet
facet normal 0.25881904510251696 0.9659258262890694 0.0
  outer loop
    vertex 4.572948575580839 44.906222386623035 0.0
    vertex 4.175 45.07105808375567 10.0
    vertex 4.572948575580839 44.906222386623035 10.0
  endloop
endfacet
facet normal 0.25881904510251696 0.9659258262890694 0.0
  outer loop
    vertex 4.572948575580839 44.906222386623035 10.0
    vertex 5.0 44.85 0.0
    vertex 4.572948575580839 44.906222386623035 0.0
  endloop
endfacet
facet normal -2.2277774739117245e-16 1.0 0.0
  outer loop
    vertex 5.0 44.85 0.0
    vertex 4.572948575580839 44.906222386623035 10.0
    vertex 5.0 44.85 10.0
  endloop
endfacet
facet normal -2.2277774739117245e-16 1.0 0.0
  outer loop
    vertex 5.0 44.85 10.0
    vertex 5.427051424419159 44.906222386623035 0.0
    vertex 5.0 44.85 0.0
  endloop
endfacet
facet normal -0.2588190451025169 0.9659258262890694 0.0
  outer loop
    vertex 5.427051424419159 44.906222386623035 0.0
    vertex 5.0 44.85 10.0
    vertex 5.427051424419159 44.906222386623035 10.0
  endloop
endfacet
facet normal -0.2588190451025169 0.9659258262890694 0.0
  outer loop
    vertex 5.427051424419159 44.906222386623035 10.0
    vertex 5.825 45.07105808375567 0.0
    vertex 5.427051424419159 44.906222386623035 0.0
  endloop
endfacet
facet normal -0.4999999999999995 0.8660254037844389 0.0
  outer loop
    vertex 5.825 45.07105808375567 0.0
    vertex 5.427051424419159 44.906222386623035 10.0
    vertex 5.825 45.07105808375567 10.0
  endloop
endfacet
facet normal -0.4999999999999995 0.8660254037844389 0.0
  outer loop
    vertex 5.825 45.07105808375567 10.0
    vertex 6.166726188957804 45.3332738110422 0.0
    vertex 5.825 45.07105808375567 0.0
  endloop
endfacet
facet normal -0.7071067811865488 0.7071067811865465 0.0
  outer loop
    vertex 6.166726188957804 45.3332738110422 0.0
    vertex 5.825 45.07105808375567 10.0
    vertex 6.166726188957804 45.3332738110422 10.0
  endloop
endfacet
facet normal -0.8660254037844397 0.4999999999999985 0.0
  outer loop
    vertex 6.428941916244324 45.675000000000004 10.0
    vertex 6.166726188957804 45.3332738110422 0.0
    vertex 6.166726188957804 45.3332738110422 10.0
  endloop
endfacet
facet normal -0.7071067811865488 0.7071067811865465 0.0
  outer loop
    vertex 6.166726188957804 45.3332738110422 0.0
    vertex 6.428941916244324 45.675000000000004 10.0
    vertex 6.428941916244324 45.675000000000004 0.0
  endloop
endfacet
facet normal -0.9659258262890684 0.2588190451025204 0.0
  outer loop
    vertex 6.593777613376962 46.07294857558084 10.0
    vertex 6.428941916244324 45.675000000000004 0.0
    vertex 6.428941916244324 45.675000000000004 10.0
  endloop
endfacet
facet normal -0.8660254037844397 0.4999999999999985 0.0
  outer loop
    vertex 6.428941916244324 45.675000000000004 0.0
    vertex 6.593777613376962 46.07294857558084 10.0
    vertex 6.593777613376962 46.07294857558084 0.0
  endloop
endfacet
facet normal -1.0 0.0 0.0
  outer loop
    vertex 6.6499999999999995 46.5 10.0
    vertex 6.593777613376962 46.07294857558084 0.0
    vertex 6.593777613376962 46.07294857558084 10.0
  endloop
endfacet
facet normal -0.9659258262890684 0.2588190451025204 0.0
  outer loop
    vertex 6.593777613376962 46.07294857558084 0.0
    vertex 6.6499999999999995 46.5 10.0
    vertex 6.6499999999999995 46.5 0.0
  endloop
endfacet
facet normal -0.9659258262890684 -0.2588190451025204 0.0
  outer loop
    vertex 6.593777613376962 46.927051424419155 10.0
    vertex 6.6499999999999995 46.5 0.0
    vertex 6.6499999999999995 46.5 10.0
  endloop
endfacet
facet normal -1.0 0.0 0.0
  outer loop
    vertex 6.6499999999999995 46.5 0.0
    vertex 6.593777613376962 46.927051424419155 10.0
    vertex 6.593777613376962 46.927051424419155 0.0
  endloop
endfacet
facet normal -0.8660254037844397 -0.4999999999999985 0.0
  outer loop
    vertex 6.428941916244324 47.324999999999996 10.0
    vertex 6.593777613376962 46.927051424419155 0.0
    vertex 6.593777613376962 46.927051424419155 10.0
  endloop
endfacet
facet normal -0.9659258262890684 -0.2588190451025204 0.0
  outer loop
    vertex 6.593777613376962 46.927051424419155 0.0
    vertex 6.428941916244324 47.324999999999996 10.0
    vertex 6.428941916244324 47.324999999999996 0.0
  endloop
endfacet
facet normal -0.707106781186549 -0.7071067811865462 0.0
  outer loop
    vertex 6.166726188957804 47.6667261889578 10.0
    vertex 6.428941916244324 47.324999999999996 0.0
    vertex 6.428941916244324 47.324999999999996 10.0
  endloop
endfacet
facet normal -0.8660254037844397 -0.4999999999999985 0.0
  outer loop
    vertex 6.428941916244324 47.324999999999996 0.0
    vertex 6.166726188957804 47.6667261889578 10.0
    vertex 6.166726188957804 47.6667261889578 0.0
  endloop
endfacet
facet normal -0.707106781186549 -0.7071067811865462 0.0
  outer loop
    vertex 6.166726188957804 47.6667261889578 10.0
    vertex 5.825 47.92894191624433 0.0
    vertex 6.166726188957804 47.6667261889578 0.0
  endloop
endfacet
facet normal -0.49999999999999967 -0.8660254037844389 0.0
  outer loop
    vertex 5.825 47.92894191624433 0.0
    vertex 6.166726188957804 47.6667261889578 10.0
    vertex 5.825 47.92894191624433 10.0
  endloop
endfacet
facet normal -0.49999999999999967 -0.8660254037844389 0.0
  outer loop
    vertex 5.825 47.92894191624433 10.0
    vertex 5.427051424419159 48.093777613376965 0.0
    vertex 5.825 47.92894191624433 0.0
  endloop
endfacet
facet normal -0.2588190451025166 -0.9659258262890694 0.0
  outer loop
    vertex 5.427051424419159 48.093777613376965 0.0
    vertex 5.825 47.92894191624433 10.0
    vertex 5.427051424419159 48.093777613376965 10.0
  endloop
endfacet
facet normal -0.2588190451025166 -0.9659258262890694 0.0
  outer loop
    vertex 5.427051424419159 48.093777613376965 10.0
    vertex 5.0 48.15 0.0
    vertex 5.427051424419159 48.093777613376965 0.0
  endloop
endfacet
facet normal 1.0693331874776277e-16 -1.0 0.0
  outer loop
    vertex 5.0 48.15 0.0
    vertex 5.427051424419159 48.093777613376965 10.0
    vertex 5.0 48.15 10.0
  endloop
endfacet
facet normal 1.0693331874776277e-16 -1.0 0.0
  outer loop
    vertex 5.0 48.15 10.0
    vertex 4.572948575580841 48.093777613376965 0.0
    vertex 5.0 48.15 0.0
  endloop
endfacet
facet normal 0.25881904510251696 -0.9659258262890694 0.0
  outer loop
    vertex 4.572948575580841 48.093777613376965 0.0
    vertex 5.0 48.15 10.0
    vertex 4.572948575580841 48.093777613376965 10.0
  endloop
endfacet
facet normal 0.25881904510251696 -0.9659258262890694 0.0
  outer loop
    vertex 4.572948575580841 48.093777613376965 10.0
    vertex 4.175000000000001 47.92894191624433 0.0
    vertex 4.572948575580841 48.093777613376965 0.0
  endloop
endfacet
facet normal 0.4999999999999995 -0.8660254037844389 0.0
  outer loop
    vertex 4.175000000000001 47.92894191624433 0.0
    vertex 4.572948575580841 48.093777613376965 10.0
    vertex 4.175000000000001 47.92894191624433 10.0
  endloop
endfacet
facet normal 0.4999999999999995 -0.8660254037844389 0.0
  outer loop
    vertex 4.175000000000001 47.92894191624433 10.0
    vertex 3.8332738110421976 47.6667261889578 0.0
    vertex 4.175000000000001 47.92894191624433 0.0
  endloop
endfacet
facet normal 0.7071067811865488 -0.7071067811865465 0.0
  outer loop
    vertex 3.8332738110421976 47.6667261889578 0.0
    vertex 4.175000000000001 47.92894191624433 10.0
    vertex 3.8332738110421976 47.6667261889578 10.0
  endloop
endfacet
facet normal 0.7071067811865488 -0.7071067811865465 0.0
  outer loop
    vertex 3.8332738110421976 47.6667261889578 0.0
    vertex 3.571058083755677 47.324999999999996 10.0
    vertex 3.571058083755677 47.324999999999996 0.0
  endloop
endfacet
facet normal 0.8660254037844392 -0.49999999999999906 0.0
  outer loop
    vertex 3.571058083755677 47.324999999999996 10.0
    vertex 3.8332738110421976 47.6667261889578 0.0
    vertex 3.8332738110421976 47.6667261889578 10.0
  endloop
endfacet
facet normal 0.8660254037844392 -0.49999999999999906 0.0
  outer loop
    vertex 3.571058083755677 47.324999999999996 0.0
    vertex 3.406222386623038 46.927051424419155 10.0
    vertex 3.406222386623038 46.927051424419155 0.0
  endloop
endfacet
facet normal 0.9659258262890679 -0.25881904510252196 0.0
  outer loop
    vertex 3.406222386623038 46.927051424419155 10.0
    vertex 3.571058083755677 47.324999999999996 0.0
    vertex 3.571058083755677 47.324999999999996 10.0
  endloop
endfacet
facet normal 0.9659258262890679 -0.25881904510252196 0.0
  outer loop
    vertex 3.406222386623038 46.927051424419155 0.0
    vertex 3.35 46.5 10.0
    vertex 3.35 46.5 0.0
  endloop
endfacet
facet normal 1.0 -7.930887807125746e-16 0.0
  outer loop
    vertex 3.35 46.5 10.0
    vertex 3.406222386623038 46.927051424419155 0.0
    vertex 3.406222386623038 46.927051424419155 10.0
  endloop
endfacet
facet normal 1.0 -7.930887807125746e-16 0.0
  outer loop
    vertex 3.35 46.5 0.0
    vertex 3.4062223866230372 46.07294857558084 10.0
    vertex 3.4062223866230372 46.07294857558084 0.0
  endloop
endfacet
facet normal 0.9659258262890684 0.2588190451025204 0.0
  outer loop
    vertex 3.4062223866230372 46.07294857558084 10.0
    vertex 3.35 46.5 0.0
    vertex 3.35 46.5 10.0
  endloop
endfacet
facet normal -0.0 -0.0 1.0
  outer loop
    vertex 0.08075674811299666 1.1401219592813354 10.0
    vertex 0.0 48.35 10.0
    vertex 0.0 1.6499999999999984 10.0
  endloop
endfacet
facet normal -0.0 -0.0 1.0
  outer loop
    vertex 0.0 48.35 10.0
    vertex 0.08075674811299666 1.1401219592813354 10.0
    vertex 0.08075674811299666 48.85987804071866 10.0
  endloop
endfacet
facet normal -0.0 -0.0 1.0
  outer loop
    vertex 0.08075674811299666 48.85987804071866 10.0
    vertex 0.08075674811299666 1.1401219592813354 10.0
    vertex 0.3151219592813368 0.6801543337174184 10.0
  endloop
endfacet
facet normal -0.0 -0.0 1.0
  outer loop
    vertex 0.08075674811299666 48.85987804071866 10.0
    vertex 0.3151219592813368 0.6801543337174184 10.0
    vertex 0.3151219592813368 49.31984566628258 10.0
  endloop
endfacet
facet normal -0.0 -0.0 1.0
  outer loop
    vertex 0.3151219592813368 49.31984566628258 10.0
    vertex 0.3151219592813368 0.6801543337174184 10.0
    vertex 0.6801543337174193 0.31512195928133646 10.0
  endloop
endfacet
facet normal -0.0 -0.0 1.0
  outer loop
    vertex 0.3151219592813368 49.31984566628258 10.0
    vertex 0.6801543337174193 0.31512195928133646 10.0
    vertex 0.6801543337174193 49.684878040718665 10.0
  endloop
endfacet
facet normal -0.0 -0.0 1.0
  outer loop
    vertex 0.6801543337174193 49.684878040718665 10.0
    vertex 0.6801543337174193 0.31512195928133646 10.0
    vertex 1.1401219592813365 0.08075674811299666 10.0
  endloop
endfacet
facet normal -0.0 -0.0 1.0
  outer loop
    vertex 0.6801543337174193 49.684878040718665 10.0
    vertex 1.1401219592813365 0.08075674811299666 10.0
    vertex 1.1401219592813365 49.919243251887 10.0
  endloop
endfacet
facet normal -0.0 -0.0 1.0
  outer loop
    vertex 1.1401219592813365 49.919243251887 10.0
    vertex 1.1401219592813365 0.08075674811299666 10.0
    vertex 1.6499999999999997 0.0 10.0
  endloop
endfacet
facet normal -0.0 -0.0 1.0
  outer loop
    vertex 1.1401219592813365 49.919243251887 10.0
    vertex 1.6499999999999997 0.0 10.0
    vertex 1.6499999999999997 50.0 10.0
  endloop
endfacet
facet normal -0.0 -0.0 1.0
  outer loop
    vertex 1.6499999999999997 50.0 10.0
    vertex 1.6499999999999997 0.0 10.0
    vertex 3.3536835180351376 3.6101909307104645 10.0
  endloop
endfacet
facet normal -0.0 -0.0 1.0
  outer loop
    vertex 3.3536835180351376 3.6101909307104645 10.0
    vertex 1.6499999999999997 0.0 10.0
    vertex 3.381260880359338 3.180338205997381 10.0
  endloop
endfacet
facet normal -0.0 -0.0 1.0
  outer loop
    vertex 3.381260880359338 3.180338205997381 10.0
    vertex 1.6499999999999997 0.0 10.0
    vertex 3.519152638594171 2.7722699042794825 10.0
  endloop
endfacet
facet normal -0.0 -0.0 1.0
  outer loop
    vertex 3.519152638594171 2.7722699042794825 10.0
    vertex 1.6499999999999997 0.0 10.0
    vertex 3.7579616972928385 2.4137952059540924 10.0
  endloop
endfacet
facet normal -0.0 -0.0 1.0
  outer loop
    vertex 3.7579616972928385 2.4137952059540924 10.0
    vertex 1.6499999999999997 0.0 10.0
    vertex 4.081413613755655 2.1293435693046363 10.0
  endloop
endfacet
facet normal -0.0 -0.0 1.0
  outer loop
    vertex 4.081413613755655 2.1293435693046363 10.0
    vertex 1.6499999999999997 0.0 10.0
    vertex 8.35 0.0 10.0
  endloop
endfacet
facet normal -0.0 -0.0 1.0
  outer loop
    vertex 1.6499999999999997 50.0 10.0
    vertex 3.3536835180351376 3.6101909307104645 10.0
    vertex 3.35 46.5 10.0
  endloop
endfacet
facet normal -0.0 -0.0 1.0
  outer loop
    vertex 4.081413613755655 2.1293435693046363 10.0
    vertex 8.35 0.0 10.0
    vertex 4.467465674405245 1.938299903290219 10.0
  endloop
endfacet
facet normal -0.0 -0.0 1.0
  outer loop
    vertex 4.467465674405245 1.938299903290219 10.0
    vertex 8.35 0.0 10.0
    vertex 4.8898090692895355 1.8536835180351376 10.0
  endloop
endfacet
facet normal -0.0 -0.0 1.0
  outer loop
    vertex 4.8898090692895355 1.8536835180351376 10.0
    vertex 8.35 0.0 10.0
    vertex 5.319661794002619 1.8812608803593378 10.0
  endloop
endfacet
facet normal -0.0 -0.0 1.0
  outer loop
    vertex 5.319661794002619 1.8812608803593378 10.0
    vertex 8.35 0.0 10.0
    vertex 5.727730095720517 2.019152638594171 10.0
  endloop
endfacet
facet normal -0.0 -0.0 1.0
  outer loop
    vertex 5.727730095720517 2.019152638594171 10.0
    vertex 8.35 0.0 10.0
    vertex 6.086204794045908 2.2579616972928385 10.0
  endloop
endfacet
facet normal -0.0 -0.0 1.0
  outer loop
    vertex 6.086204794045908 2.2579616972928385 10.0
    vertex 8.35 0.0 10.0
    vertex 6.370656430695363 2.5814136137556547 10.0
  endloop
endfacet
facet normal -0.0 -0.0 1.0
  outer loop
    vertex 6.370656430695363 2.5814136137556547 10.0
    vertex 8.35 0.0 10.0
    vertex 6.561700096709781 2.9674656744052452 10.0
  endloop
endfacet
facet normal -0.0 -0.0 1.0
  outer loop
    vertex 6.561700096709781 2.9674656744052452 10.0
    vertex 8.35 0.0 10.0
    vertex 6.646316481964862 3.3898090692895337 10.0
  endloop
endfacet
facet normal -0.0 -0.0 1.0
  outer loop
    vertex 6.646316481964862 3.3898090692895337 10.0
    vertex 8.35 0.0 10.0
    vertex 6.6499999999999995 46.5 10.0
  endloop
endfacet
facet normal -0.0 -0.0 1.0
  outer loop
    vertex 1.6499999999999997 50.0 10.0
    vertex 4.175000000000001 47.92894191624433 10.0
    vertex 8.7 50.0 10.0
  endloop
endfacet
facet normal -0.0 -0.0 1.0
  outer loop
    vertex 4.175000000000001 47.92894191624433 10.0
    vertex 1.6499999999999997 50.0 10.0
    vertex 3.8332738110421976 47.6667261889578 10.0
  endloop
endfacet
facet normal -0.0 -0.0 1.0
  outer loop
    vertex 3.8332738110421976 47.6667261889578 10.0
    vertex 1.6499999999999997 50.0 10.0
    vertex 3.571058083755677 47.324999999999996 10.0
  endloop
endfacet
facet normal -0.0 -0.0 1.0
  outer loop
    vertex 3.571058083755677 47.324999999999996 10.0
    vertex 1.6499999999999997 50.0 10.0
    vertex 3.406222386623038 46.927051424419155 10.0
  endloop
endfacet
facet normal -0.0 -0.0 1.0
  outer loop
    vertex 3.406222386623038 46.927051424419155 10.0
    vertex 1.6499999999999997 50.0 10.0
    vertex 3.35 46.5 10.0
  endloop
endfacet
facet normal -0.0 -0.0 1.0
  outer loop
    vertex 8.7 50.0 10.0
    vertex 4.175000000000001 47.92894191624433 10.0
    vertex 4.572948575580841 48.093777613376965 10.0
  endloop
endfacet
facet normal -0.0 -0.0 1.0
  outer loop
    vertex 8.7 50.0 10.0
    vertex 4.572948575580841 48.093777613376965 10.0
    vertex 5.0 48.15 10.0
  endloop
endfacet
facet normal -0.0 -0.0 1.0
  outer loop
    vertex 8.7 50.0 10.0
    vertex 5.0 48.15 10.0
    vertex 5.427051424419159 48.093777613376965 10.0
  endloop
endfacet
facet normal -0.0 -0.0 1.0
  outer loop
    vertex 8.7 50.0 10.0
    vertex 5.427051424419159 48.093777613376965 10.0
    vertex 5.825 47.92894191624433 10.0
  endloop
endfacet
facet normal -0.0 -0.0 1.0
  outer loop
    vertex 8.7 50.0 10.0
    vertex 5.825 47.92894191624433 10.0
    vertex 6.166726188957804 47.6667261889578 10.0
  endloop
endfacet
facet normal -0.0 -0.0 1.0
  outer loop
    vertex 8.7 50.0 10.0
    vertex 6.166726188957804 47.6667261889578 10.0
    vertex 6.428941916244324 47.324999999999996 10.0
  endloop
endfacet
facet normal -0.0 -0.0 1.0
  outer loop
    vertex 8.7 50.0 10.0
    vertex 6.428941916244324 47.324999999999996 10.0
    vertex 6.593777613376962 46.927051424419155 10.0
  endloop
endfacet
facet normal -0.0 -0.0 1.0
  outer loop
    vertex 8.7 50.0 10.0
    vertex 6.593777613376962 46.927051424419155 10.0
    vertex 6.6499999999999995 46.5 10.0
  endloop
endfacet
facet normal -0.0 -0.0 1.0
  outer loop
    vertex 8.7 50.0 10.0
    vertex 6.6499999999999995 46.5 10.0
    vertex 8.35 0.0 10.0
  endloop
endfacet
facet normal -0.0 -0.0 1.0
  outer loop
    vertex 8.7 50.0 10.0
    vertex 8.35 0.0 10.0
    vertex 8.859878040718664 0.08075674811299666 10.0
  endloop
endfacet
facet normal -0.0 -0.0 1.0
  outer loop
    vertex 8.7 50.0 10.0
    vertex 8.859878040718664 0.08075674811299666 10.0
    vertex 9.101722092687432 49.9363734711837 10.0
  endloop
endfacet
facet normal -0.0 -0.0 1.0
  outer loop
    vertex 9.101722092687432 49.9363734711837 10.0
    vertex 8.859878040718664 0.08075674811299666 10.0
    vertex 9.319845666282582 0.3151219592813368 10.0
  endloop
endfacet
facet normal -0.0 -0.0 1.0
  outer loop
    vertex 9.101722092687432 49.9363734711837 10.0
    vertex 9.319845666282582 0.3151219592813368 10.0
    vertex 9.464120827980215 49.75172209268743 10.0
  endloop
endfacet
facet normal -0.0 -0.0 1.0
  outer loop
    vertex 9.464120827980215 49.75172209268743 10.0
    vertex 9.319845666282582 0.3151219592813368 10.0
    vertex 9.684878040718663 0.6801543337174193 10.0
  endloop
endfacet
facet normal -0.0 -0.0 1.0
  outer loop
    vertex 9.464120827980215 49.75172209268743 10.0
    vertex 9.684878040718663 0.6801543337174193 10.0
    vertex 9.75172209268743 49.46412082798022 10.0
  endloop
endfacet
facet normal -0.0 -0.0 1.0
  outer loop
    vertex 9.75172209268743 49.46412082798022 10.0
    vertex 9.684878040718663 0.6801543337174193 10.0
    vertex 9.919243251887004 1.1401219592813365 10.0
  endloop
endfacet
facet normal -0.0 -0.0 1.0
  outer loop
    vertex 9.75172209268743 49.46412082798022 10.0
    vertex 9.919243251887004 1.1401219592813365 10.0
    vertex 9.9363734711837 49.10172209268743 10.0
  endloop
endfacet
facet normal -0.0 -0.0 1.0
  outer loop
    vertex 9.9363734711837 49.10172209268743 10.0
    vertex 9.919243251887004 1.1401219592813365 10.0
    vertex 10.0 1.6499999999999997 10.0
  endloop
endfacet
facet normal -0.0 -0.0 1.0
  outer loop
    vertex 9.9363734711837 49.10172209268743 10.0
    vertex 10.0 1.6499999999999997 10.0
    vertex 10.0 48.7 10.0
  endloop
endfacet
facet normal -0.0 -0.0 1.0
  outer loop
    vertex 3.3536835180351376 3.6101909307104645 10.0
    vertex 3.4062223866230372 46.07294857558084 10.0
    vertex 3.35 46.5 10.0
  endloop
endfacet
facet normal -0.0 -0.0 1.0
  outer loop
    vertex 3.4062223866230372 46.07294857558084 10.0
    vertex 3.3536835180351376 3.6101909307104645 10.0
    vertex 3.438299903290219 4.032534325594755 10.0
  endloop
endfacet
facet normal -0.0 -0.0 1.0
  outer loop
    vertex 3.4062223866230372 46.07294857558084 10.0
    vertex 3.438299903290219 4.032534325594755 10.0
    vertex 3.5710580837556756 45.675000000000004 10.0
  endloop
endfacet
facet normal -0.0 -0.0 1.0
  outer loop
    vertex 3.5710580837556756 45.675000000000004 10.0
    vertex 3.438299903290219 4.032534325594755 10.0
    vertex 3.629343569304636 4.418586386244344 10.0
  endloop
endfacet
facet normal -0.0 -0.0 1.0
  outer loop
    vertex 3.5710580837556756 45.675000000000004 10.0
    vertex 3.629343569304636 4.418586386244344 10.0
    vertex 3.8332738110421967 45.3332738110422 10.0
  endloop
endfacet
facet normal -0.0 -0.0 1.0
  outer loop
    vertex 3.8332738110421967 45.3332738110422 10.0
    vertex 3.629343569304636 4.418586386244344 10.0
    vertex 3.913795205954093 4.7420383027071615 10.0
  endloop
endfacet
facet normal -0.0 -0.0 1.0
  outer loop
    vertex 3.8332738110421967 45.3332738110422 10.0
    vertex 3.913795205954093 4.7420383027071615 10.0
    vertex 4.175 45.07105808375567 10.0
  endloop
endfacet
facet normal -0.0 -0.0 1.0
  outer loop
    vertex 4.175 45.07105808375567 10.0
    vertex 3.913795205954093 4.7420383027071615 10.0
    vertex 4.272269904279483 4.9808473614058295 10.0
  endloop
endfacet
facet normal -0.0 -0.0 1.0
  outer loop
    vertex 4.175 45.07105808375567 10.0
    vertex 4.272269904279483 4.9808473614058295 10.0
    vertex 4.572948575580839 44.906222386623035 10.0
  endloop
endfacet
facet normal -0.0 -0.0 1.0
  outer loop
    vertex 4.572948575580839 44.906222386623035 10.0
    vertex 4.272269904279483 4.9808473614058295 10.0
    vertex 4.680338205997382 5.118739119640662 10.0
  endloop
endfacet
facet normal -0.0 -0.0 1.0
  outer loop
    vertex 4.572948575580839 44.906222386623035 10.0
    vertex 4.680338205997382 5.118739119640662 10.0
    vertex 5.0 44.85 10.0
  endloop
endfacet
facet normal -0.0 -0.0 1.0
  outer loop
    vertex 5.0 44.85 10.0
    vertex 4.680338205997382 5.118739119640662 10.0
    vertex 5.110190930710465 5.146316481964862 10.0
  endloop
endfacet
facet normal -0.0 -0.0 1.0
  outer loop
    vertex 5.0 44.85 10.0
    vertex 5.110190930710465 5.146316481964862 10.0
    vertex 5.427051424419159 44.906222386623035 10.0
  endloop
endfacet
facet normal -0.0 -0.0 1.0
  outer loop
    vertex 5.427051424419159 44.906222386623035 10.0
    vertex 5.110190930710465 5.146316481964862 10.0
    vertex 5.532534325594756 5.06170009670978 10.0
  endloop
endfacet
facet normal -0.0 -0.0 1.0
  outer loop
    vertex 5.427051424419159 44.906222386623035 10.0
    vertex 5.532534325594756 5.06170009670978 10.0
    vertex 5.825 45.07105808375567 10.0
  endloop
endfacet
facet normal -0.0 -0.0 1.0
  outer loop
    vertex 5.825 45.07105808375567 10.0
    vertex 5.532534325594756 5.06170009670978 10.0
    vertex 5.918586386244345 4.870656430695363 10.0
  endloop
endfacet
facet normal -0.0 -0.0 1.0
  outer loop
    vertex 5.825 45.07105808375567 10.0
    vertex 5.918586386244345 4.870656430695363 10.0
    vertex 6.166726188957804 45.3332738110422 10.0
  endloop
endfacet
facet normal -0.0 -0.0 1.0
  outer loop
    vertex 6.166726188957804 45.3332738110422 10.0
    vertex 5.918586386244345 4.870656430695363 10.0
    vertex 6.2420383027071615 4.586204794045908 10.0
  endloop
endfacet
facet normal -0.0 -0.0 1.0
  outer loop
    vertex 6.166726188957804 45.3332738110422 10.0
    vertex 6.2420383027071615 4.586204794045908 10.0
    vertex 6.428941916244324 45.675000000000004 10.0
  endloop
endfacet
facet normal -0.0 -0.0 1.0
  outer loop
    vertex 6.428941916244324 45.675000000000004 10.0
    vertex 6.2420383027071615 4.586204794045908 10.0
    vertex 6.4808473614058295 4.227730095720516 10.0
  endloop
endfacet
facet normal -0.0 -0.0 1.0
  outer loop
    vertex 6.428941916244324 45.675000000000004 10.0
    vertex 6.4808473614058295 4.227730095720516 10.0
    vertex 6.593777613376962 46.07294857558084 10.0
  endloop
endfacet
facet normal -0.0 -0.0 1.0
  outer loop
    vertex 6.593777613376962 46.07294857558084 10.0
    vertex 6.4808473614058295 4.227730095720516 10.0
    vertex 6.618739119640662 3.8196617940026187 10.0
  endloop
endfacet
facet normal -0.0 -0.0 1.0
  outer loop
    vertex 6.593777613376962 46.07294857558084 10.0
    vertex 6.618739119640662 3.8196617940026187 10.0
    vertex 6.6499999999999995 46.5 10.0
  endloop
endfacet
facet normal -0.0 -0.0 1.0
  outer loop
    vertex 6.6499999999999995 46.5 10.0
    vertex 6.618739119640662 3.8196617940026187 10.0
    vertex 6.646316481964862 3.3898090692895337 10.0
  endloop
endfacet
facet normal -1.0 0.0 0.0
  outer loop
    vertex 0.0 48.35 10.0
    vertex 0.0 1.6499999999999984 0.0
    vertex 0.0 1.6499999999999984 10.0
  endloop
endfacet
facet normal -1.0 0.0 0.0
  outer loop
    vertex 0.0 1.6499999999999984 0.0
    vertex 0.0 48.35 10.0
    vertex 0.0 48.35 0.0
  endloop
endfacet
facet normal 1.0 -0.0 -0.0
  outer loop
    vertex 10.0 48.7 0.0
    vertex 10.0 1.6499999999999997 10.0
    vertex 10.0 1.6499999999999997 0.0
  endloop
endfacet
facet normal 1.0 -0.0 -0.0
  outer loop
    vertex 10.0 1.6499999999999997 10.0
    vertex 10.0 48.7 0.0
    vertex 10.0 48.7 10.0
  endloop
endfacet
facet normal 0.0 -1.0 0.0
  outer loop
    vertex 8.35 0.0 10.0
    vertex 1.6499999999999997 0.0 0.0
    vertex 8.35 0.0 0.0
  endloop
endfacet
facet normal 0.0 -1.0 0.0
  outer loop
    vertex 1.6499999999999997 0.0 0.0
    vertex 8.35 0.0 10.0
    vertex 1.6499999999999997 0.0 10.0
  endloop
endfacet
facet normal -0.45399049973954636 -0.891006524188368 0.0
  outer loop
    vertex 1.1401219592813365 0.08075674811299666 10.0
    vertex 0.6801543337174193 0.31512195928133646 0.0
    vertex 1.1401219592813365 0.08075674811299666 0.0
  endloop
endfacet
facet normal -0.45399049973954636 -0.891006524188368 0.0
  outer loop
    vertex 0.6801543337174193 0.31512195928133646 0.0
    vertex 1.1401219592813365 0.08075674811299666 10.0
    vertex 0.6801543337174193 0.31512195928133646 10.0
  endloop
endfacet
facet normal -0.8910065241883685 0.45399049973954547 0.0
  outer loop
    vertex 0.3151219592813368 49.31984566628258 10.0
    vertex 0.08075674811299666 48.85987804071866 0.0
    vertex 0.08075674811299666 48.85987804071866 10.0
  endloop
endfacet
facet normal -0.8910065241883685 0.45399049973954547 0.0
  outer loop
    vertex 0.08075674811299666 48.85987804071866 0.0
    vertex 0.3151219592813368 49.31984566628258 10.0
    vertex 0.3151219592813368 49.31984566628258 0.0
  endloop
endfacet
facet normal -0.15643446504023098 0.9876883405951375 -0.0
  outer loop
    vertex 1.1401219592813365 49.919243251887 10.0
    vertex 1.6499999999999997 50.0 0.0
    vertex 1.1401219592813365 49.919243251887 0.0
  endloop
endfacet
facet normal -0.15643446504023098 0.9876883405951375 -0.0
  outer loop
    vertex 1.6499999999999997 50.0 0.0
    vertex 1.1401219592813365 49.919243251887 10.0
    vertex 1.6499999999999997 50.0 10.0
  endloop
endfacet
facet normal -0.4539904997395462 0.8910065241883682 -0.0
  outer loop
    vertex 0.6801543337174193 49.684878040718665 10.0
    vertex 1.1401219592813365 49.919243251887 0.0
    vertex 0.6801543337174193 49.684878040718665 0.0
  endloop
endfacet
facet normal -0.4539904997395462 0.8910065241883682 -0.0
  outer loop
    vertex 1.1401219592813365 49.919243251887 0.0
    vertex 0.6801543337174193 49.684878040718665 10.0
    vertex 1.1401219592813365 49.919243251887 10.0
  endloop
endfacet
facet normal 0.8910065241883682 -0.4539904997395462 -0.0
  outer loop
    vertex 9.919243251887004 1.1401219592813365 0.0
    vertex 9.684878040718663 0.6801543337174193 10.0
    vertex 9.684878040718663 0.6801543337174193 0.0
  endloop
endfacet
facet normal 0.8910065241883682 -0.4539904997395462 -0.0
  outer loop
    vertex 9.684878040718663 0.6801543337174193 10.0
    vertex 9.919243251887004 1.1401219592813365 0.0
    vertex 9.919243251887004 1.1401219592813365 10.0
  endloop
endfacet
facet normal -0.9876883405951375 0.1564344650402313 0.0
  outer loop
    vertex 0.08075674811299666 48.85987804071866 10.0
    vertex 0.0 48.35 0.0
    vertex 0.0 48.35 10.0
  endloop
endfacet
facet normal -0.9876883405951375 0.1564344650402313 0.0
  outer loop
    vertex 0.0 48.35 0.0
    vertex 0.08075674811299666 48.85987804071866 10.0
    vertex 0.08075674811299666 48.85987804071866 0.0
  endloop
endfacet
facet normal -0.8910065241883677 -0.4539904997395471 0.0
  outer loop
    vertex 0.08075674811299666 1.1401219592813354 10.0
    vertex 0.3151219592813368 0.6801543337174184 0.0
    vertex 0.3151219592813368 0.6801543337174184 10.0
  endloop
endfacet
facet normal -0.8910065241883677 -0.4539904997395471 0.0
  outer loop
    vertex 0.3151219592813368 0.6801543337174184 0.0
    vertex 0.08075674811299666 1.1401219592813354 10.0
    vertex 0.08075674811299666 1.1401219592813354 0.0
  endloop
endfacet
facet normal 0.4539904997395467 -0.8910065241883679 0.0
  outer loop
    vertex 9.319845666282582 0.3151219592813368 10.0
    vertex 8.859878040718664 0.08075674811299666 0.0
    vertex 9.319845666282582 0.3151219592813368 0.0
  endloop
endfacet
facet normal 0.4539904997395467 -0.8910065241883679 0.0
  outer loop
    vertex 8.859878040718664 0.08075674811299666 0.0
    vertex 9.319845666282582 0.3151219592813368 10.0
    vertex 8.859878040718664 0.08075674811299666 10.0
  endloop
endfacet
facet normal -0.9876883405951375 -0.15643446504023106 0.0
  outer loop
    vertex 0.0 1.6499999999999984 10.0
    vertex 0.08075674811299666 1.1401219592813354 0.0
    vertex 0.08075674811299666 1.1401219592813354 10.0
  endloop
endfacet
facet normal -0.9876883405951375 -0.15643446504023106 0.0
  outer loop
    vertex 0.08075674811299666 1.1401219592813354 0.0
    vertex 0.0 1.6499999999999984 10.0
    vertex 0.0 1.6499999999999984 0.0
  endloop
endfacet
facet normal -0.7071067811865447 0.7071067811865505 -0.0
  outer loop
    vertex 0.3151219592813368 49.31984566628258 10.0
    vertex 0.6801543337174193 49.684878040718665 0.0
    vertex 0.3151219592813368 49.31984566628258 0.0
  endloop
endfacet
facet normal -0.7071067811865447 0.7071067811865505 -0.0
  outer loop
    vertex 0.6801543337174193 49.684878040718665 0.0
    vertex 0.3151219592813368 49.31984566628258 10.0
    vertex 0.6801543337174193 49.684878040718665 10.0
  endloop
endfacet
facet normal 0.1564344650402309 -0.9876883405951378 0.0
  outer loop
    vertex 8.859878040718664 0.08075674811299666 10.0
    vertex 8.35 0.0 0.0
    vertex 8.859878040718664 0.08075674811299666 0.0
  endloop
endfacet
facet normal 0.1564344650402309 -0.9876883405951378 0.0
  outer loop
    vertex 8.35 0.0 0.0
    vertex 8.859878040718664 0.08075674811299666 10.0
    vertex 8.35 0.0 10.0
  endloop
endfacet
facet normal 0.9876883405951375 -0.15643446504023098 -0.0
  outer loop
    vertex 10.0 1.6499999999999997 0.0
    vertex 9.919243251887004 1.1401219592813365 10.0
    vertex 9.919243251887004 1.1401219592813365 0.0
  endloop
endfacet
facet normal 0.9876883405951375 -0.15643446504023098 -0.0
  outer loop
    vertex 9.919243251887004 1.1401219592813365 10.0
    vertex 10.0 1.6499999999999997 0.0
    vertex 10.0 1.6499999999999997 10.0
  endloop
endfacet
facet normal -0.707106781186547 -0.707106781186548 0.0
  outer loop
    vertex 0.6801543337174193 0.31512195928133646 10.0
    vertex 0.3151219592813368 0.6801543337174184 0.0
    vertex 0.6801543337174193 0.31512195928133646 0.0
  endloop
endfacet
facet normal -0.707106781186547 -0.707106781186548 0.0
  outer loop
    vertex 0.3151219592813368 0.6801543337174184 0.0
    vertex 0.6801543337174193 0.31512195928133646 10.0
    vertex 0.3151219592813368 0.6801543337174184 10.0
  endloop
endfacet
facet normal 0.7071067811865477 -0.7071067811865474 -0.0
  outer loop
    vertex 9.684878040718663 0.6801543337174193 0.0
    vertex 9.319845666282582 0.3151219592813368 10.0
    vertex 9.319845666282582 0.3151219592813368 0.0
  endloop
endfacet
facet normal 0.7071067811865477 -0.7071067811865474 -0.0
  outer loop
    vertex 9.319845666282582 0.3151219592813368 10.0
    vertex 9.684878040718663 0.6801543337174193 0.0
    vertex 9.684878040718663 0.6801543337174193 10.0
  endloop
endfacet
facet normal -0.15643446504023098 -0.9876883405951375 0.0
  outer loop
    vertex 1.6499999999999997 0.0 10.0
    vertex 1.1401219592813365 0.08075674811299666 0.0
    vertex 1.6499999999999997 0.0 0.0
  endloop
endfacet
facet normal -0.15643446504023098 -0.9876883405951375 0.0
  outer loop
    vertex 1.1401219592813365 0.08075674811299666 0.0
    vertex 1.6499999999999997 0.0 10.0
    vertex 1.1401219592813365 0.08075674811299666 10.0
  endloop
endfacet
facet normal -0.0 1.0 -0.0
  outer loop
    vertex 1.6499999999999997 50.0 10.0
    vertex 8.7 50.0 0.0
    vertex 1.6499999999999997 50.0 0.0
  endloop
endfacet
facet normal -0.0 1.0 -0.0
  outer loop
    vertex 8.7 50.0 0.0
    vertex 1.6499999999999997 50.0 10.0
    vertex 8.7 50.0 10.0
  endloop
endfacet
facet normal 0.891006524188368 0.4539904997395466 -0.0
  outer loop
    vertex 9.75172209268743 49.46412082798022 0.0
    vertex 9.9363734711837 49.10172209268743 10.0
    vertex 9.9363734711837 49.10172209268743 0.0
  endloop
endfacet
facet normal 0.891006524188368 0.4539904997395466 -0.0
  outer loop
    vertex 9.9363734711837 49.10172209268743 10.0
    vertex 9.75172209268743 49.46412082798022 0.0
    vertex 9.75172209268743 49.46412082798022 10.0
  endloop
endfacet
facet normal 0.9876883405951375 0.1564344650402321 -0.0
  outer loop
    vertex 9.9363734711837 49.10172209268743 0.0
    vertex 10.0 48.7 10.0
    vertex 10.0 48.7 0.0
  endloop
endfacet
facet normal 0.9876883405951375 0.1564344650402321 -0.0
  outer loop
    vertex 10.0 48.7 10.0
    vertex 9.9363734711837 49.10172209268743 0.0
    vertex 9.9363734711837 49.10172209268743 10.0
  endloop
endfacet
facet normal 0.4539904997395466 0.8910065241883679 -0.0
  outer loop
    vertex 9.101722092687432 49.9363734711837 10.0
    vertex 9.464120827980215 49.75172209268743 0.0
    vertex 9.101722092687432 49.9363734711837 0.0
  endloop
endfacet
facet normal 0.4539904997395466 0.8910065241883679 -0.0
  outer loop
    vertex 9.464120827980215 49.75172209268743 0.0
    vertex 9.101722092687432 49.9363734711837 10.0
    vertex 9.464120827980215 49.75172209268743 10.0
  endloop
endfacet
facet normal 0.15643446504023154 0.9876883405951375 -0.0
  outer loop
    vertex 8.7 50.0 10.0
    vertex 9.101722092687432 49.9363734711837 0.0
    vertex 8.7 50.0 0.0
  endloop
endfacet
facet normal 0.15643446504023154 0.9876883405951375 -0.0
  outer loop
    vertex 9.101722092687432 49.9363734711837 0.0
    vertex 8.7 50.0 10.0
    vertex 9.101722092687432 49.9363734711837 10.0
  endloop
endfacet
facet normal 0.7071067811865459 0.7071067811865492 -0.0
  outer loop
    vertex 9.464120827980215 49.75172209268743 10.0
    vertex 9.75172209268743 49.46412082798022 0.0
    vertex 9.464120827980215 49.75172209268743 0.0
  endloop
endfacet
facet normal 0.7071067811865459 0.7071067811865492 -0.0
  outer loop
    vertex 9.75172209268743 49.46412082798022 0.0
    vertex 9.464120827980215 49.75172209268743 10.0
    vertex 9.75172209268743 49.46412082798022 10.0
  endloop
endfacet
endsolid BuildPlateMountBridge2
