# Alias OBJ Model File
# Exported from SketchUp, (c) 2000-2012 Trimble Navigation Limited
# File units = millimeters

mtllib PSU-TardisMount-Spacer.mtl

g Mesh1 Model

usemtl FrontColor
v 24 0 -0
vt -0.944882 0
vn 0 -1 -0
v 1 0 -0
vt -0.0393701 0
v 0.5 0 -0.133975
vt -0.019685 0.00527459
v 0.133975 0 -0.5
vt -0.00527459 0.019685
v 0 0 -1
vt 0 0.0393701
v 0 0 -26.5
vt 0 1.04331
v 0.133975 0 -27
vt -0.00527459 1.06299
v 0.5 0 -27.366
vt -0.019685 1.0774
v 1 0 -27.5
vt -0.0393701 1.08268
v 24 0 -27.5
vt -0.944882 1.08268
v 24.5 0 -27.366
vt -0.964567 1.0774
v 24.866 0 -27
vt -0.978977 1.06299
v 25 0 -26.5
vt -0.984252 1.04331
v 25 0 -1
vt -0.984252 0.0393701
v 24.866 0 -0.5
vt -0.978977 0.019685
v 24.5 0 -0.133975
vt -0.964567 0.00527459
f 1/1/1 2/2/1 3/3/1 4/4/1 5/5/1 6/6/1 7/7/1 8/8/1 9/9/1 10/10/1 11/11/1 12/12/1 13/13/1 14/14/1 15/15/1 16/16/1 

vt 0.0393701 0
vn 0 0 1
vt 0.944882 0
v 24 7.8 -0
vt 0.944882 0.307087
v 23.5 7.8 -0
vt 0.925197 0.307087
v 23.5 4.8 -0
vt 0.925197 0.188976
v 1.5 4.8 -0
vt 0.0590551 0.188976
v 1.5 7.8 -0
vt 0.0590551 0.307087
v 1 7.8 -0
vt 0.0393701 0.307087
f 2/17/2 1/18/2 17/19/2 18/20/2 19/21/2 20/22/2 21/23/2 22/24/2 

vt 0.933065 -2.71585e-18
vn 0.258819 1.11054e-17 0.965926
v 24.5 7.8 -0.133975
vt 0.933065 0.307087
vt 0.912686 0.307087
vt 0.912686 -2.71585e-18
f 16/25/3 23/26/3 17/27/3 1/28/3 

vt 0.706161 -1.65436e-17
vn 0.707107 2.4389e-17 0.707107
v 24.866 7.8 -0.5
vt 0.706161 0.307087
vt 0.685782 0.307087
vt 0.685782 -1.65436e-17
f 15/29/4 24/30/4 23/31/4 16/32/4 

vt 0.292772 -1.39935e-17
vn 0.965926 1.48783e-17 0.258819
v 25 7.8 -1
vt 0.292772 0.307087
vt 0.272392 0.307087
vt 0.272392 -1.39935e-17
f 14/33/5 25/34/5 24/35/5 15/36/5 

vn 1 0 -0
vt 1.04331 0
v 25 7.8 -26.5
vt 1.04331 0.307087
f 14/17/6 13/37/6 26/38/6 25/24/6 

vt 0.753014 0.307087
vn 0.965926 0 -0.258819
vt 0.753014 0
vt 0.773394 0
v 24.866 7.8 -27
vt 0.773394 0.307087
f 26/39/7 13/40/7 12/41/7 27/42/7 

vt 0.0594074 0.307087
vn 0.707107 0 -0.707107
vt 0.0594074 0
vt 0.0797869 0
v 24.5 7.8 -27.366
vt 0.0797869 0.307087
f 27/43/8 12/44/8 11/45/8 28/46/8 

vt -0.652848 0.307087
vn 0.258819 0 -0.965926
vt -0.652848 0
vt -0.632468 0
v 24 7.8 -27.5
vt -0.632468 0.307087
f 28/47/9 11/48/9 10/49/9 29/50/9 

vn 0 0 -1
v 1 7.8 -27.5
vt -0.0393701 0.307087
vt -0.944882 0.307087
f 10/1/10 9/2/10 30/51/10 29/52/10 

vt -0.297867 1.84896e-17
vn -0.258819 -1.7854e-17 -0.965926
v 0.5 7.8 -27.366
vt -0.297867 0.307087
vt -0.318246 0.307087
vt -0.318246 1.84896e-17
f 8/53/11 31/54/11 30/55/11 9/56/11 

vt -0.755379 1.09446e-17
vn -0.707107 -1.46334e-17 -0.707107
v 0.133975 7.8 -27
vt -0.755379 0.307087
vt -0.775758 0.307087
vt -0.775758 1.09446e-17
f 7/57/12 32/58/12 31/59/12 8/60/12 

vt -1.00776 0
vn -0.965926 0 -0.258819
v 0 7.8 -26.5
vt -1.00776 0.307087
vt -1.02814 0.307087
vt -1.02814 0
f 6/61/13 33/62/13 32/63/13 7/64/13 

vt -1.04331 0
vn -1 0 -0
v 0 7.8 -1
vt -1.04331 0.307087
f 6/65/14 5/2/14 34/51/14 33/66/14 

vt -0.0176491 4.70951e-19
vn -0.965926 4.62183e-17 0.258819
v 0.133975 7.8 -0.5
vt -0.0176491 0.307087
vt -0.0380286 0.307087
vt -0.0380286 4.70951e-19
f 4/67/15 35/68/15 34/69/15 5/70/15 

vt 0.0101897 9.4698e-19
vn -0.707107 5.36559e-17 0.707107
v 0.5 7.8 -0.133975
vt 0.0101897 0.307087
vt -0.0101897 0.307087
vt -0.0101897 9.4698e-19
f 3/71/16 36/72/16 35/73/16 4/74/16 

vt 0.0380286 1.25289e-19
vn -0.258819 1.22956e-17 0.965926
vt 0.0380286 0.307087
vt 0.0176491 0.307087
vt 0.0176491 1.25289e-19
f 2/75/17 22/76/17 36/77/17 3/78/17 

vt 0.0380286 0.299844
vn -0.250563 0.250563 0.935113
v 1 8.3 -0.133975
vt 0.0366634 0.320178
v 0.566987 8.3 -0.25
vt 0.0190143 0.320178
vt 0.0176491 0.299844
f 22/79/18 37/80/18 38/81/18 36/82/18 

v 2 8.3 -0.133975
vt 0.0787402 0.317002
vn -3.06494e-16 0.258819 0.965926
vt 0.0393701 0.317002
vt 0.0393701 0.296623
vt 0.0590551 0.296623
f 39/83/19 37/84/19 22/85/19 21/86/19 

v 2.36603 8.66603 -0.5
vt 0.0931506 0.255172
vn -3.95642e-16 0.707107 0.707107
v 1 8.66603 -0.5
vt 0.0393701 0.255172
vt 0.0393701 0.234792
vt 0.0787402 0.234792
f 40/87/20 41/88/20 37/89/20 39/90/20 

v 2.5 8.8 -1
vt 0.0984252 0.127698
vn -6.14065e-17 0.965926 0.258819
v 1 8.8 -1
vt 0.0393701 0.127698
vt 0.0393701 0.107319
vt 0.0931506 0.107319
f 42/91/21 43/92/21 41/93/21 40/94/21 

v 22.5 8.8 -25
vt 0.885827 0.984252
vn 0 1 -0
v 22.5 8.8 -1
vt 0.885827 0.0393701
v 24 8.8 -1
vt 0.944882 0.0393701
v 24 8.8 -26.5
vt 0.944882 1.04331
v 1 8.8 -26.5
vt 0.0393701 1.04331
vt 0.0393701 0.0393701
vt 0.0984252 0.0393701
v 2.5 8.8 -25
vt 0.0984252 0.984252
f 44/95/22 45/96/22 46/97/22 47/98/22 48/99/22 43/100/22 42/101/22 49/102/22 

v 22.5 5.8 -25
vt -0.984252 0.228346
vn -1 -1.29774e-47 -1.17499e-16
v 22.5 5.8 -1
vt -0.0393701 0.228346
vt -0.0393701 0.346457
vt -0.984252 0.346457
f 50/103/23 51/104/23 45/105/23 44/106/23 

v 2.5 5.8 -25
v 2.5 5.8 -1
f 52/102/22 53/101/22 51/96/22 50/95/22 

vt 0.984252 0.346457
vn 1 -5.87493e-17 7.34366e-18
vt 0.0393701 0.346457
vt 0.0393701 0.228346
vt 0.984252 0.228346
f 49/107/24 42/108/24 53/109/24 52/110/24 

vt 0.0635029 0.228346
vn 0.965926 -5.528e-17 0.258819
vt 0.0635029 0.346457
vt 0.0431234 0.341182
v 2.36603 5.66603 -0.5
vt 0.0431234 0.223072
f 53/111/25 42/112/25 40/113/25 54/114/25 

vt 0.0797869 0.223072
vn 0.707107 -4.03818e-17 0.707107
vt 0.0797869 0.341182
vt 0.0594074 0.326772
v 2 5.3 -0.133975
vt 0.0594074 0.208661
f 54/115/26 40/116/26 39/117/26 55/118/26 

vt 0.0774223 0.208661
vn 0.258819 -1.41895e-17 0.965926
vt 0.0774223 0.326772
vt 0.0570429 0.307087
vt 0.0570429 0.188976
f 55/119/27 39/120/27 21/121/27 20/122/27 

v 23 5.3 -0.133975
vt 0.905512 0.202917
vn 0 0.258819 0.965926
vt 0.0787402 0.202917
vt 0.0590551 0.182537
vt 0.925197 0.182537
f 56/123/28 55/124/28 20/125/28 19/126/28 

v 22.634 5.66603 -0.5
vt 0.891101 0.171655
vn -3.15296e-33 0.707107 0.707107
vt 0.0931506 0.171655
vt 0.0787402 0.151276
vt 0.905512 0.151276
f 57/127/29 54/128/29 55/129/29 56/130/29 

vt 0.885827 0.097129
vn -3.57261e-19 0.965926 0.258819
vt 0.0984252 0.097129
vt 0.0931506 0.0767495
vt 0.891101 0.0767495
f 51/131/30 53/132/30 54/133/30 57/134/30 

vt 0.19124 0.346457
vn -0.965926 -5.9123e-19 0.258819
vt 0.19124 0.228346
vt 0.21162 0.223072
v 22.634 8.66603 -0.5
vt 0.21162 0.341182
f 45/135/31 51/136/31 57/137/31 58/138/31 

vt 0.616184 0.341182
vn -0.707107 6.46108e-18 0.707107
vt 0.616184 0.223072
vt 0.636564 0.208661
v 23 8.3 -0.133975
vt 0.636564 0.326772
f 58/139/32 57/140/32 56/141/32 59/142/32 

vt 0.873292 0.326772
vn -0.258819 -2.36492e-18 0.965926
vt 0.873292 0.208661
vt 0.893672 0.188976
vt 0.893672 0.307087
f 59/143/33 56/144/33 19/145/33 18/146/33 

v 24 8.3 -0.133975
vt 0.944882 0.317002
vn 2.89466e-16 0.258819 0.965926
vt 0.905512 0.317002
vt 0.925197 0.296623
vt 0.944882 0.296623
f 60/147/34 59/148/34 18/149/34 17/150/34 

v 24 8.66603 -0.5
vt 0.944882 0.255172
vn 4.10859e-16 0.707107 0.707107
vt 0.891101 0.255172
vt 0.905512 0.234792
vt 0.944882 0.234792
f 61/151/35 58/152/35 59/153/35 60/154/35 

vt 0.944882 0.127698
vn 6.46384e-17 0.965926 0.258819
vt 0.885827 0.127698
vt 0.891101 0.107319
vt 0.944882 0.107319
f 46/155/36 45/156/36 58/157/36 61/158/36 

v 24.25 8.66603 -0.566987
vt 0.92797 -0.126132
vn 0.0691842 0.963611 0.258199
vt 0.922876 -0.106399
vt 0.917781 -0.126132
f 62/159/37 46/160/37 61/161/37

v 24.433 8.66603 -0.75
vt 0.701066 -0.544116
vn 0.189015 0.963611 0.189015
vt 0.695971 -0.524384
vt 0.690876 -0.544116
f 63/162/38 46/163/38 62/164/38

v 24.5 8.66603 -1
vt 0.287677 -0.796777
vn 0.258199 0.963611 0.0691842
vt 0.282582 -0.777045
vt 0.277487 -0.796777
f 64/165/39 46/166/39 63/167/39

vt 1.04331 -0.823016
vn 0.258819 0.965926 -2.22732e-19
vt 0.0393701 -0.823016
vt 0.0393701 -0.843396
v 24.5 8.66603 -26.5
vt 1.04331 -0.843396
f 47/168/40 46/169/40 64/170/40 65/171/40 

vt 1.04331 -0.4408
vn 0.707107 0.707107 -5.52017e-33
vt 0.0393701 -0.4408
v 24.866 8.3 -1
vt 0.0393701 -0.461179
v 24.866 8.3 -26.5
vt 1.04331 -0.461179
f 65/172/41 64/173/41 66/174/41 67/175/41 

vt 0.291407 -0.414855
vn 0.694747 0.694747 0.186157
vt 0.287677 -0.394819
vt 0.277487 -0.394819
v 24.75 8.3 -0.566987
vt 0.273757 -0.414855
f 66/176/42 64/177/42 63/178/42 68/179/42 

vt 0.704796 -0.23269
vn 0.50859 0.694747 0.50859
vt 0.701066 -0.212655
vt 0.690876 -0.212655
v 24.433 8.3 -0.25
vt 0.687147 -0.23269
f 68/180/43 63/181/43 62/182/43 69/183/43 

vt 0.9317 0.068669
vn 0.186157 0.694747 0.694747
vt 0.92797 0.0887042
vt 0.917781 0.0887042
vt 0.914051 0.068669
f 69/184/44 62/185/44 61/186/44 60/187/44 

vt 0.933065 0.236015
vn 0.250563 0.250563 0.935113
vt 0.9317 0.256348
vt 0.914051 0.256348
vt 0.912686 0.236015
f 23/188/45 69/189/45 60/190/45 17/191/45 

vt 0.706161 0.127328
vn 0.68455 0.250563 0.68455
vt 0.704796 0.147662
vt 0.687147 0.147662
vt 0.685782 0.127328
f 24/192/46 68/193/46 69/194/46 23/195/46 

vt 0.292772 0.0616302
vn 0.935113 0.250563 0.250563
vt 0.291407 0.0819638
vt 0.273757 0.0819638
vt 0.272392 0.0616302
f 25/196/47 66/197/47 68/198/47 24/199/47 

vt 1.04331 0.0622592
vn 0.965926 0.258819 -1.18128e-32
vt 0.0393701 0.0622592
vt 0.0393701 0.0418797
vt 1.04331 0.0418797
f 67/200/48 66/201/48 25/202/48 26/203/48 

vt 0.754379 0.0117518
vn 0.935113 0.250563 -0.250563
vt 0.753014 -0.00858192
vt 0.773394 -0.00858192
v 24.75 8.3 -26.933
vt 0.772028 0.0117518
f 67/204/49 26/205/49 27/206/49 70/207/49 

vt 0.0607726 -0.0441609
vn 0.68455 0.250563 -0.68455
vt 0.0594074 -0.0644946
vt 0.0797869 -0.0644946
v 24.433 8.3 -27.25
vt 0.0784217 -0.0441609
f 70/208/50 27/209/50 28/210/50 71/211/50 

vt -0.651483 -0.00568669
vn 0.250563 0.250563 -0.935113
vt -0.652848 -0.0260204
vt -0.632468 -0.0260204
v 24 8.3 -27.366
vt -0.633834 -0.00568669
f 71/212/51 28/213/51 29/214/51 72/215/51 

v 1 8.3 -27.366
vt -0.0393701 0.0367849
vn -1.45203e-32 0.258819 -0.965926
vt -0.944882 0.0367849
vt -0.944882 0.0164054
vt -0.0393701 0.0164054
f 73/216/52 72/217/52 29/218/52 30/219/52 

v 1 8.66603 -27
vt -0.0393701 -0.510397
vn 3.73996e-19 0.707107 -0.707107
v 24 8.66603 -27
vt -0.944882 -0.510397
vt -0.944882 -0.530776
vt -0.0393701 -0.530776
f 74/220/53 75/221/53 72/222/53 73/223/53 

vt -0.0393701 -0.918088
vn 7.26016e-33 0.965926 -0.258819
vt -0.944882 -0.918088
vt -0.944882 -0.938467
vt -0.0393701 -0.938467
f 48/224/54 47/225/54 75/226/54 74/227/54 

vt -0.642658 -1.11413
vn 0.0691842 0.963611 -0.258199
v 24.25 8.66603 -26.933
vt -0.647753 -1.13386
vt -0.637563 -1.13386
f 47/228/55 76/229/55 75/230/55

vt 0.0695971 -1.26209
vn 0.189015 0.963611 -0.189015
v 24.433 8.66603 -26.75
vt 0.0645023 -1.28183
vt 0.074692 -1.28183
f 47/231/56 77/232/56 76/233/56

vt 0.763204 -1.04707
vn 0.258199 0.963611 -0.0691842
vt 0.758109 -1.0668
vt 0.768299 -1.0668
f 47/234/57 65/235/57 77/236/57

vt 0.758109 -0.5895
vn 0.694747 0.694747 -0.186157
vt 0.754379 -0.609535
vt 0.772028 -0.609535
vt 0.768299 -0.5895
f 65/237/58 67/238/58 70/239/58 77/240/58 

vt 0.0645023 -0.744531
vn 0.50859 0.694747 -0.50859
vt 0.0607726 -0.764566
vt 0.0784217 -0.764566
vt 0.074692 -0.744531
f 77/241/59 70/242/59 71/243/59 76/244/59 

vt -0.647753 -0.637852
vn 0.186157 0.694747 -0.694747
vt -0.651483 -0.657887
vt -0.633834 -0.657887
vt -0.637563 -0.637852
f 76/245/60 71/246/60 72/247/60 75/248/60 

v 0.75 8.66603 -26.933
vt -0.302961 -0.888389
vn -0.0691842 0.963611 -0.258199
vt -0.308056 -0.868657
vt -0.313151 -0.888389
f 78/249/61 48/250/61 74/251/61

v 0.566987 8.66603 -26.75
vt -0.760474 -0.611181
vn -0.189015 0.963611 -0.189015
vt -0.765568 -0.591448
vt -0.770663 -0.611181
f 79/252/62 48/253/62 78/254/62

v 0.5 8.66603 -26.5
vt -1.01285 -0.150679
vn -0.258199 0.963611 -0.0691842
vt -1.01795 -0.130947
vt -1.02304 -0.150679
f 80/255/63 48/256/63 79/257/63

vt -0.0393701 0.127698
vn -0.258819 0.965926 8.9093e-19
vt -1.04331 0.127698
vt -1.04331 0.107319
v 0.5 8.66603 -1
vt -0.0393701 0.107319
f 43/258/64 48/259/64 80/260/64 81/261/64 

vt -0.0393701 0.255172
vn -0.707107 0.707107 3.04258e-19
vt -1.04331 0.255172
v 0.133975 8.3 -26.5
vt -1.04331 0.234792
v 0.133975 8.3 -1
vt -0.0393701 0.234792
f 81/262/65 80/263/65 82/264/65 83/265/65 

vt -1.00912 0.0509708
vn -0.694747 0.694747 -0.186157
vt -1.01285 0.0710061
vt -1.02304 0.0710061
v 0.25 8.3 -26.933
vt -1.02677 0.0509708
f 82/266/66 80/267/66 79/268/66 84/269/66 

vt -0.756744 -0.281043
vn -0.50859 0.694747 -0.50859
vt -0.760474 -0.261007
vt -0.770663 -0.261007
v 0.566987 8.3 -27.25
vt -0.774393 -0.281043
f 84/270/67 79/271/67 78/272/67 85/273/67 

vt -0.299232 -0.480905
vn -0.186157 0.694747 -0.694747
vt -0.302961 -0.46087
vt -0.313151 -0.46087
vt -0.316881 -0.480905
f 85/274/68 78/275/68 74/276/68 73/277/68 

vt -0.297867 0.0378088
vn -0.250563 0.250563 -0.935113
vt -0.299232 0.0581425
vt -0.316881 0.0581425
vt -0.318246 0.0378088
f 31/278/69 85/279/69 73/280/69 30/281/69 

vt -0.755379 0.10989
vn -0.68455 0.250563 -0.68455
vt -0.756744 0.130224
vt -0.774393 0.130224
vt -0.775758 0.10989
f 32/282/70 84/283/70 85/284/70 31/285/70 

vt -1.00776 0.229632
vn -0.935113 0.250563 -0.250563
vt -1.00912 0.249965
vt -1.02677 0.249965
vt -1.02814 0.229632
f 33/286/71 82/287/71 84/288/71 32/289/71 

vt -0.0393701 0.317002
vn -0.965926 0.258819 -0
vt -1.04331 0.317002
vt -1.04331 0.296623
vt -0.0393701 0.296623
f 83/290/72 82/291/72 33/292/72 34/293/72 

vt -0.0176491 0.299844
vn -0.935113 0.250563 0.250563
v 0.25 8.3 -0.566987
vt -0.0190143 0.320178
vt -0.0366634 0.320178
vt -0.0380286 0.299844
f 35/294/73 86/295/73 83/296/73 34/297/73 

vt 0.0101897 0.301713
vn -0.68455 0.250563 0.68455
vt 0.00882456 0.322047
vt -0.00882456 0.322047
vt -0.0101897 0.301713
f 36/298/74 38/299/74 86/300/74 35/301/74 

vt 0.00882456 0.250833
vn -0.50859 0.694747 0.50859
v 0.75 8.66603 -0.566987
vt 0.00509486 0.270869
v 0.566987 8.66603 -0.75
vt -0.00509486 0.270869
vt -0.00882456 0.250833
f 38/302/75 87/303/75 88/304/75 86/305/75 

vt 0.0366634 0.245651
vn -0.186157 0.694747 0.694747
vt 0.0329337 0.265686
vt 0.022744 0.265686
vt 0.0190143 0.245651
f 37/306/76 41/307/76 87/308/76 38/309/76 

vt 0.0329337 0.119342
vn -0.0691842 0.963611 0.258199
vt 0.0278388 0.139074
vt 0.022744 0.119342
f 41/310/77 43/311/77 87/312/77

vt 0.00509486 0.12653
vn -0.189015 0.963611 0.189015
vt -3.46945e-18 0.146262
vt -0.00509486 0.12653
f 87/313/78 43/314/78 88/315/78

vt -0.022744 0.119342
vn -0.258199 0.963611 0.0691842
vt -0.0278388 0.139074
vt -0.0329337 0.119342
f 88/316/79 43/317/79 81/318/79

vt -0.0190143 0.245651
vn -0.694747 0.694747 0.186157
vt -0.022744 0.265686
vt -0.0329337 0.265686
vt -0.0366634 0.245651
f 86/319/80 88/320/80 81/321/80 83/322/80 

vt 0.0984252 0.228346
vt 0.885827 0.228346
vt 0.885827 0.346457
vt 0.0984252 0.346457
f 52/323/2 50/324/2 44/325/2 49/326/2 

