solid PSU-TardisMount-Spacer
facet normal 0.0 0.0 -1.0
  outer loop
    vertex 0.1339745962155613 27.0 0.0
    vertex 0.0 0.999999999999999 0.0
    vertex 0.0 26.500000000000004 0.0
  endloop
endfacet
facet normal 0.0 0.0 -1.0
  outer loop
    vertex 0.0 0.999999999999999 0.0
    vertex 0.1339745962155613 27.0 0.0
    vertex 0.1339745962155613 0.49999999999999944 0.0
  endloop
endfacet
facet normal 0.0 0.0 -1.0
  outer loop
    vertex 0.1339745962155613 0.49999999999999944 0.0
    vertex 0.1339745962155613 27.0 0.0
    vertex 0.5000000000000001 27.36602540378444 0.0
  endloop
endfacet
facet normal 0.0 0.0 -1.0
  outer loop
    vertex 0.1339745962155613 0.49999999999999944 0.0
    vertex 0.5000000000000001 27.36602540378444 0.0
    vertex 0.49999999999999994 0.13397459621556113 0.0
  endloop
endfacet
facet normal 0.0 0.0 -1.0
  outer loop
    vertex 0.49999999999999994 0.13397459621556113 0.0
    vertex 0.5000000000000001 27.36602540378444 0.0
    vertex 0.9999999999999999 0.0 0.0
  endloop
endfacet
facet normal 0.0 0.0 -1.0
  outer loop
    vertex 0.9999999999999999 0.0 0.0
    vertex 0.5000000000000001 27.36602540378444 0.0
    vertex 1.0000000000000004 27.5 0.0
  endloop
endfacet
facet normal 0.0 0.0 -1.0
  outer loop
    vertex 0.9999999999999999 0.0 0.0
    vertex 1.0000000000000004 27.5 0.0
    vertex 24.0 0.0 0.0
  endloop
endfacet
facet normal 0.0 0.0 -1.0
  outer loop
    vertex 24.0 0.0 0.0
    vertex 1.0000000000000004 27.5 0.0
    vertex 24.0 27.5 0.0
  endloop
endfacet
facet normal 0.0 0.0 -1.0
  outer loop
    vertex 24.0 0.0 0.0
    vertex 24.0 27.5 0.0
    vertex 24.5 27.36602540378444 0.0
  endloop
endfacet
facet normal 0.0 0.0 -1.0
  outer loop
    vertex 24.0 0.0 0.0
    vertex 24.5 27.36602540378444 0.0
    vertex 24.5 0.1339745962155613 0.0
  endloop
endfacet
facet normal 0.0 0.0 -1.0
  outer loop
    vertex 24.5 0.1339745962155613 0.0
    vertex 24.5 27.36602540378444 0.0
    vertex 24.866025403784437 27.0 0.0
  endloop
endfacet
facet normal 0.0 0.0 -1.0
  outer loop
    vertex 24.5 0.1339745962155613 0.0
    vertex 24.866025403784437 27.0 0.0
    vertex 24.866025403784437 0.49999999999999994 0.0
  endloop
endfacet
facet normal 0.0 0.0 -1.0
  outer loop
    vertex 24.866025403784437 0.49999999999999994 0.0
    vertex 24.866025403784437 27.0 0.0
    vertex 25.0 26.500000000000004 0.0
  endloop
endfacet
facet normal 0.0 0.0 -1.0
  outer loop
    vertex 24.866025403784437 0.49999999999999994 0.0
    vertex 25.0 26.500000000000004 0.0
    vertex 25.0 0.9999999999999999 0.0
  endloop
endfacet
facet normal 1.0 -0.0 -0.0
  outer loop
    vertex 25.0 26.500000000000004 0.0
    vertex 25.0 1.0000000000000004 7.800000000000002
    vertex 25.0 0.9999999999999999 0.0
  endloop
endfacet
facet normal 1.0 -0.0 -0.0
  outer loop
    vertex 25.0 1.0000000000000004 7.800000000000002
    vertex 25.0 26.500000000000004 0.0
    vertex 25.0 26.500000000000004 7.800000000000002
  endloop
endfacet
facet normal -1.0 0.0 0.0
  outer loop
    vertex 0.0 1.0000000000000004 7.800000000000002
    vertex 0.0 26.500000000000004 0.0
    vertex 0.0 0.999999999999999 0.0
  endloop
endfacet
facet normal -1.0 0.0 0.0
  outer loop
    vertex 0.0 26.500000000000004 0.0
    vertex 0.0 1.0000000000000004 7.800000000000002
    vertex 0.0 26.500000000000004 7.800000000000002
  endloop
endfacet
facet normal -1.0 1.1749860343949574e-16 -1.2977412255176957e-47
  outer loop
    vertex 22.5 25.0 8.8
    vertex 22.499999999999996 0.9999999999999999 5.8
    vertex 22.499999999999996 0.9999999999999999 8.8
  endloop
endfacet
facet normal -1.0 1.1749860343949574e-16 -1.2977412255176957e-47
  outer loop
    vertex 22.499999999999996 0.9999999999999999 5.8
    vertex 22.5 25.0 8.8
    vertex 22.5 25.0 5.8
  endloop
endfacet
facet normal -0.0 -0.0 1.0
  outer loop
    vertex 24.0 1.0000000000000004 8.8
    vertex 22.5 25.0 8.8
    vertex 22.499999999999996 0.9999999999999999 8.8
  endloop
endfacet
facet normal -0.0 -0.0 1.0
  outer loop
    vertex 0.9999999999999998 26.500000000000004 8.8
    vertex 2.5 25.0 8.8
    vertex 24.0 26.500000000000004 8.8
  endloop
endfacet
facet normal -0.0 -0.0 1.0
  outer loop
    vertex 2.5 25.0 8.8
    vertex 0.9999999999999998 26.500000000000004 8.8
    vertex 0.9999999999999999 1.0000000000000004 8.8
  endloop
endfacet
facet normal -0.0 -0.0 1.0
  outer loop
    vertex 2.5 25.0 8.8
    vertex 0.9999999999999999 1.0000000000000004 8.8
    vertex 2.5 0.9999999999999999 8.8
  endloop
endfacet
facet normal -0.0 -0.0 1.0
  outer loop
    vertex 24.0 26.500000000000004 8.8
    vertex 2.5 25.0 8.8
    vertex 22.5 25.0 8.8
  endloop
endfacet
facet normal -0.0 -0.0 1.0
  outer loop
    vertex 24.0 26.500000000000004 8.8
    vertex 22.5 25.0 8.8
    vertex 24.0 1.0000000000000004 8.8
  endloop
endfacet
facet normal -0.0 -0.0 1.0
  outer loop
    vertex 22.499999999999996 0.9999999999999999 5.8
    vertex 2.5 25.0 5.8
    vertex 2.4999999999999996 0.9999999999999999 5.8
  endloop
endfacet
facet normal -0.0 -0.0 1.0
  outer loop
    vertex 2.5 25.0 5.8
    vertex 22.499999999999996 0.9999999999999999 5.8
    vertex 22.5 25.0 5.8
  endloop
endfacet
facet normal 0.0 -1.0 0.0
  outer loop
    vertex 22.5 25.0 8.8
    vertex 2.5 25.0 5.8
    vertex 22.5 25.0 5.8
  endloop
endfacet
facet normal 0.0 -1.0 0.0
  outer loop
    vertex 2.5 25.0 5.8
    vertex 22.5 25.0 8.8
    vertex 2.5 25.0 8.8
  endloop
endfacet
facet normal 0.0 -1.0 0.0
  outer loop
    vertex 24.0 0.0 0.0
    vertex 23.499999999999996 0.0 4.8
    vertex 0.9999999999999999 0.0 0.0
  endloop
endfacet
facet normal 0.0 -1.0 0.0
  outer loop
    vertex 23.499999999999996 0.0 4.8
    vertex 24.0 0.0 0.0
    vertex 24.0 0.0 7.800000000000002
  endloop
endfacet
facet normal 0.0 -1.0 0.0
  outer loop
    vertex 23.499999999999996 0.0 4.8
    vertex 24.0 0.0 7.800000000000002
    vertex 23.499999999999996 0.0 7.800000000000002
  endloop
endfacet
facet normal 0.0 -1.0 0.0
  outer loop
    vertex 0.9999999999999999 0.0 0.0
    vertex 1.5 0.0 4.8
    vertex 0.9999999999999999 0.0 7.800000000000002
  endloop
endfacet
facet normal 0.0 -1.0 0.0
  outer loop
    vertex 1.5 0.0 4.8
    vertex 0.9999999999999999 0.0 0.0
    vertex 23.499999999999996 0.0 4.8
  endloop
endfacet
facet normal 0.0 -1.0 0.0
  outer loop
    vertex 0.9999999999999999 0.0 7.800000000000002
    vertex 1.5 0.0 4.8
    vertex 1.5 0.0 7.800000000000002
  endloop
endfacet
facet normal -0.0 1.0 -0.0
  outer loop
    vertex 0.9999999999999998 27.5 7.800000000000002
    vertex 24.0 27.5 0.0
    vertex 1.0000000000000004 27.5 0.0
  endloop
endfacet
facet normal -0.0 1.0 -0.0
  outer loop
    vertex 24.0 27.5 0.0
    vertex 0.9999999999999998 27.5 7.800000000000002
    vertex 24.0 27.5 7.800000000000002
  endloop
endfacet
facet normal 1.0 -7.343662714968483e-18 -5.874930171974784e-17
  outer loop
    vertex 2.5 25.0 5.8
    vertex 2.5 0.9999999999999999 8.8
    vertex 2.4999999999999996 0.9999999999999999 5.8
  endloop
endfacet
facet normal 1.0 -7.343662714968483e-18 -5.874930171974784e-17
  outer loop
    vertex 2.5 0.9999999999999999 8.8
    vertex 2.5 25.0 5.8
    vertex 2.5 25.0 8.8
  endloop
endfacet
facet normal 0.2505628070857312 -0.9351131265310293 0.2505628070857323
  outer loop
    vertex 24.433012701892217 0.25000000000000006 8.3
    vertex 24.0 0.0 7.800000000000002
    vertex 24.5 0.13397459621556146 7.800000000000002
  endloop
endfacet
facet normal 0.2505628070857312 -0.9351131265310293 0.2505628070857323
  outer loop
    vertex 24.0 0.0 7.800000000000002
    vertex 24.433012701892217 0.25000000000000006 8.3
    vertex 24.0 0.1339745962155613 8.3
  endloop
endfacet
facet normal 3.7399606075897116e-19 0.7071067811865461 0.7071067811865489
  outer loop
    vertex 24.0 27.0 8.666025403784438
    vertex 0.9999999999999998 27.36602540378444 8.3
    vertex 0.9999999999999998 27.0 8.666025403784438
  endloop
endfacet
facet normal 3.7399606075897116e-19 0.7071067811865461 0.7071067811865489
  outer loop
    vertex 0.9999999999999998 27.36602540378444 8.3
    vertex 24.0 27.0 8.666025403784438
    vertex 24.0 27.36602540378444 8.3
  endloop
endfacet
facet normal 0.06918418399436396 -0.2581988897471618 0.9636113749942801
  outer loop
    vertex 24.25 0.5669872981077809 8.666025403784438
    vertex 24.0 1.0000000000000004 8.8
    vertex 24.0 0.5000000000000001 8.666025403784438
  endloop
endfacet
facet normal 0.5085898027094807 -0.5085898027094801 0.6947465906068656
  outer loop
    vertex 24.433012701892217 0.25000000000000006 8.3
    vertex 24.433012701892217 0.7500000000000003 8.666025403784438
    vertex 24.25 0.5669872981077809 8.666025403784438
  endloop
endfacet
facet normal 0.5085898027094807 -0.5085898027094801 0.6947465906068656
  outer loop
    vertex 24.433012701892217 0.7500000000000003 8.666025403784438
    vertex 24.433012701892217 0.25000000000000006 8.3
    vertex 24.75 0.5669872981077809 8.3
  endloop
endfacet
facet normal 0.965925826289068 1.1812758085297597e-32 0.258819045102522
  outer loop
    vertex 25.0 26.500000000000004 7.800000000000002
    vertex 24.866025403784437 1.0000000000000004 8.3
    vertex 25.0 1.0000000000000004 7.800000000000002
  endloop
endfacet
facet normal 0.965925826289068 1.1812758085297597e-32 0.258819045102522
  outer loop
    vertex 24.866025403784437 1.0000000000000004 8.3
    vertex 25.0 26.500000000000004 7.800000000000002
    vertex 24.866025403784437 26.500000000000004 8.3
  endloop
endfacet
facet normal -3.9564193099869337e-16 -0.7071067811865467 0.7071067811865485
  outer loop
    vertex 2.0 0.1339745962155613 8.300000000000002
    vertex 0.9999999999999999 0.5000000000000001 8.666025403784438
    vertex 0.9999999999999999 0.1339745962155613 8.3
  endloop
endfacet
facet normal -3.9564193099869337e-16 -0.7071067811865467 0.7071067811865485
  outer loop
    vertex 0.9999999999999999 0.5000000000000001 8.666025403784438
    vertex 2.0 0.1339745962155613 8.300000000000002
    vertex 2.3660254037844384 0.49999999999999994 8.666025403784438
  endloop
endfacet
facet normal -3.064936333448306e-16 -0.9659258262890682 0.2588190451025209
  outer loop
    vertex 2.0 0.1339745962155613 8.300000000000002
    vertex 0.9999999999999999 0.0 7.800000000000002
    vertex 1.5 0.0 7.800000000000002
  endloop
endfacet
facet normal -3.064936333448306e-16 -0.9659258262890682 0.2588190451025209
  outer loop
    vertex 0.9999999999999999 0.0 7.800000000000002
    vertex 2.0 0.1339745962155613 8.300000000000002
    vertex 0.9999999999999999 0.1339745962155613 8.3
  endloop
endfacet
facet normal -0.2581988897471619 -0.06918418399436452 0.9636113749942801
  outer loop
    vertex 0.9999999999999999 1.0000000000000004 8.8
    vertex 0.4999999999999998 1.0000000000000004 8.666025403784438
    vertex 0.5669872981077805 0.7500000000000001 8.666025403784438
  endloop
endfacet
facet normal 0.7071067811865477 -0.7071067811865474 -4.038176015116041e-17
  outer loop
    vertex 2.3660254037844384 0.49999999999999994 5.666025403784439
    vertex 2.0 0.1339745962155613 8.300000000000002
    vertex 1.9999999999999998 0.1339745962155613 5.3
  endloop
endfacet
facet normal 0.7071067811865477 -0.7071067811865474 -4.038176015116041e-17
  outer loop
    vertex 2.0 0.1339745962155613 8.300000000000002
    vertex 2.3660254037844384 0.49999999999999994 5.666025403784439
    vertex 2.3660254037844384 0.49999999999999994 8.666025403784438
  endloop
endfacet
facet normal 0.6845503194452988 0.6845503194452958 0.25056280708573475
  outer loop
    vertex 24.866025403784437 27.0 7.800000000000002
    vertex 24.433012701892217 27.25 8.3
    vertex 24.75 26.93301270189222 8.3
  endloop
endfacet
facet normal 0.6845503194452988 0.6845503194452958 0.25056280708573475
  outer loop
    vertex 24.433012701892217 27.25 8.3
    vertex 24.866025403784437 27.0 7.800000000000002
    vertex 24.5 27.36602540378444 7.800000000000002
  endloop
endfacet
facet normal 0.9659258262890682 -0.25881904510252157 1.487834880259356e-17
  outer loop
    vertex 25.0 0.9999999999999999 0.0
    vertex 24.866025403784437 0.5000000000000003 7.800000000000002
    vertex 24.866025403784437 0.49999999999999994 0.0
  endloop
endfacet
facet normal 0.9659258262890682 -0.25881904510252157 1.487834880259356e-17
  outer loop
    vertex 24.866025403784437 0.5000000000000003 7.800000000000002
    vertex 25.0 0.9999999999999999 0.0
    vertex 25.0 1.0000000000000004 7.800000000000002
  endloop
endfacet
facet normal 2.894662092701158e-16 -0.9659258262890682 0.25881904510252096
  outer loop
    vertex 24.0 0.1339745962155613 8.3
    vertex 23.499999999999996 0.0 7.800000000000002
    vertex 24.0 0.0 7.800000000000002
  endloop
endfacet
facet normal 2.894662092701158e-16 -0.9659258262890682 0.25881904510252096
  outer loop
    vertex 23.499999999999996 0.0 7.800000000000002
    vertex 24.0 0.1339745962155613 8.3
    vertex 22.999999999999993 0.1339745962155613 8.300000000000002
  endloop
endfacet
facet normal 0.6845503194452981 -0.6845503194452972 0.2505628070857325
  outer loop
    vertex 24.866025403784437 0.5000000000000003 7.800000000000002
    vertex 24.433012701892217 0.25000000000000006 8.3
    vertex 24.5 0.13397459621556146 7.800000000000002
  endloop
endfacet
facet normal 0.6845503194452981 -0.6845503194452972 0.2505628070857325
  outer loop
    vertex 24.433012701892217 0.25000000000000006 8.3
    vertex 24.866025403784437 0.5000000000000003 7.800000000000002
    vertex 24.75 0.5669872981077809 8.3
  endloop
endfacet
facet normal 0.6947465906068659 -0.18615678789738543 0.6947465906068657
  outer loop
    vertex 24.866025403784437 1.0000000000000004 8.3
    vertex 24.433012701892217 0.7500000000000003 8.666025403784438
    vertex 24.75 0.5669872981077809 8.3
  endloop
endfacet
facet normal 0.6947465906068659 -0.18615678789738543 0.6947465906068657
  outer loop
    vertex 24.433012701892217 0.7500000000000003 8.666025403784438
    vertex 24.866025403784437 1.0000000000000004 8.3
    vertex 24.5 1.0000000000000004 8.666025403784438
  endloop
endfacet
facet normal -0.7071067811865478 -3.0425823320490867e-19 0.7071067811865474
  outer loop
    vertex 0.4999999999999998 26.500000000000004 8.666025403784438
    vertex 0.1339745962155613 1.0000000000000004 8.3
    vertex 0.4999999999999998 1.0000000000000004 8.666025403784438
  endloop
endfacet
facet normal -0.7071067811865478 -3.0425823320490867e-19 0.7071067811865474
  outer loop
    vertex 0.1339745962155613 1.0000000000000004 8.3
    vertex 0.4999999999999998 26.500000000000004 8.666025403784438
    vertex 0.1339745962155613 26.500000000000004 8.3
  endloop
endfacet
facet normal -0.25881904510252046 -0.9659258262890684 1.2295618637009592e-17
  outer loop
    vertex 0.9999999999999999 0.0 7.800000000000002
    vertex 0.49999999999999994 0.13397459621556113 0.0
    vertex 0.9999999999999999 0.0 0.0
  endloop
endfacet
facet normal -0.25881904510252046 -0.9659258262890684 1.2295618637009592e-17
  outer loop
    vertex 0.49999999999999994 0.13397459621556113 0.0
    vertex 0.9999999999999999 0.0 7.800000000000002
    vertex 0.5 0.1339745962155613 7.800000000000002
  endloop
endfacet
facet normal -0.7071067811865489 -0.7071067811865461 6.461081624185677e-18
  outer loop
    vertex 22.63397459621556 0.49999999999999994 8.666025403784438
    vertex 22.999999999999993 0.1339745962155613 5.3
    vertex 22.999999999999993 0.1339745962155613 8.300000000000002
  endloop
endfacet
facet normal -0.7071067811865489 -0.7071067811865461 6.461081624185677e-18
  outer loop
    vertex 22.999999999999993 0.1339745962155613 5.3
    vertex 22.63397459621556 0.49999999999999994 8.666025403784438
    vertex 22.63397459621556 0.49999999999999994 5.666025403784439
  endloop
endfacet
facet normal -0.7071067811865475 -0.7071067811865476 5.36558944170705e-17
  outer loop
    vertex 0.5 0.1339745962155613 7.800000000000002
    vertex 0.1339745962155613 0.49999999999999944 0.0
    vertex 0.49999999999999994 0.13397459621556113 0.0
  endloop
endfacet
facet normal -0.7071067811865475 -0.7071067811865476 5.36558944170705e-17
  outer loop
    vertex 0.1339745962155613 0.49999999999999944 0.0
    vertex 0.5 0.1339745962155613 7.800000000000002
    vertex 0.13397459621556146 0.5000000000000001 7.800000000000002
  endloop
endfacet
facet normal -0.9659258262890682 -0.25881904510252085 4.62182539069228e-17
  outer loop
    vertex 0.13397459621556146 0.5000000000000001 7.800000000000002
    vertex 0.0 0.999999999999999 0.0
    vertex 0.1339745962155613 0.49999999999999944 0.0
  endloop
endfacet
facet normal -0.9659258262890682 -0.25881904510252085 4.62182539069228e-17
  outer loop
    vertex 0.0 0.999999999999999 0.0
    vertex 0.13397459621556146 0.5000000000000001 7.800000000000002
    vertex 0.0 1.0000000000000004 7.800000000000002
  endloop
endfacet
facet normal -0.18901470575279897 0.1890147057527953 0.9636113749942801
  outer loop
    vertex 0.9999999999999998 26.500000000000004 8.8
    vertex 0.7499999999999999 26.933012701892224 8.666025403784438
    vertex 0.5669872981077804 26.75 8.666025403784438
  endloop
endfacet
facet normal -0.9659258262890682 0.258819045102521 0.0
  outer loop
    vertex 0.1339745962155613 27.0 7.800000000000002
    vertex 0.0 26.500000000000004 0.0
    vertex 0.0 26.500000000000004 7.800000000000002
  endloop
endfacet
facet normal -0.9659258262890682 0.258819045102521 0.0
  outer loop
    vertex 0.0 26.500000000000004 0.0
    vertex 0.1339745962155613 27.0 7.800000000000002
    vertex 0.1339745962155613 27.0 0.0
  endloop
endfacet
facet normal 0.2505628070857303 0.9351131265310296 0.25056280708573203
  outer loop
    vertex 24.0 27.36602540378444 8.3
    vertex 24.5 27.36602540378444 7.800000000000002
    vertex 24.0 27.5 7.800000000000002
  endloop
endfacet
facet normal 0.2505628070857303 0.9351131265310296 0.25056280708573203
  outer loop
    vertex 24.5 27.36602540378444 7.800000000000002
    vertex 24.0 27.36602540378444 8.3
    vertex 24.433012701892217 27.25 8.3
  endloop
endfacet
facet normal -0.7071067811865489 0.7071067811865462 -1.4633425750110165e-17
  outer loop
    vertex 0.4999999999999998 27.36602540378444 7.800000000000002
    vertex 0.1339745962155613 27.0 0.0
    vertex 0.1339745962155613 27.0 7.800000000000002
  endloop
endfacet
facet normal -0.7071067811865489 0.7071067811865462 -1.4633425750110165e-17
  outer loop
    vertex 0.1339745962155613 27.0 0.0
    vertex 0.4999999999999998 27.36602540378444 7.800000000000002
    vertex 0.5000000000000001 27.36602540378444 0.0
  endloop
endfacet
facet normal -0.6947465906068659 -0.18615678789738535 0.6947465906068655
  outer loop
    vertex 0.5669872981077805 0.7500000000000001 8.666025403784438
    vertex 0.1339745962155613 1.0000000000000004 8.3
    vertex 0.24999999999999997 0.5669872981077807 8.3
  endloop
endfacet
facet normal -0.6947465906068659 -0.18615678789738535 0.6947465906068655
  outer loop
    vertex 0.1339745962155613 1.0000000000000004 8.3
    vertex 0.5669872981077805 0.7500000000000001 8.666025403784438
    vertex 0.4999999999999998 1.0000000000000004 8.666025403784438
  endloop
endfacet
facet normal -6.140652724753072e-17 -0.2588190451025215 0.9659258262890682
  outer loop
    vertex 2.3660254037844384 0.49999999999999994 8.666025403784438
    vertex 0.9999999999999999 1.0000000000000004 8.8
    vertex 0.9999999999999999 0.5000000000000001 8.666025403784438
  endloop
endfacet
facet normal -6.140652724753072e-17 -0.2588190451025215 0.9659258262890682
  outer loop
    vertex 0.9999999999999999 1.0000000000000004 8.8
    vertex 2.3660254037844384 0.49999999999999994 8.666025403784438
    vertex 2.5 0.9999999999999999 8.8
  endloop
endfacet
facet normal -0.6947465906068659 0.18615678789738624 0.6947465906068653
  outer loop
    vertex 0.5669872981077804 26.75 8.666025403784438
    vertex 0.1339745962155613 26.500000000000004 8.3
    vertex 0.4999999999999998 26.500000000000004 8.666025403784438
  endloop
endfacet
facet normal -0.6947465906068659 0.18615678789738624 0.6947465906068653
  outer loop
    vertex 0.1339745962155613 26.500000000000004 8.3
    vertex 0.5669872981077804 26.75 8.666025403784438
    vertex 0.2499999999999998 26.93301270189222 8.3
  endloop
endfacet
facet normal 0.6947465906068658 0.1861567878973865 0.6947465906068654
  outer loop
    vertex 24.75 26.93301270189222 8.3
    vertex 24.5 26.500000000000004 8.666025403784438
    vertex 24.866025403784437 26.500000000000004 8.3
  endloop
endfacet
facet normal 0.6947465906068658 0.1861567878973865 0.6947465906068654
  outer loop
    vertex 24.5 26.500000000000004 8.666025403784438
    vertex 24.75 26.93301270189222 8.3
    vertex 24.433012701892217 26.75 8.666025403784438
  endloop
endfacet
facet normal 0.25819888974716104 0.06918418399436617 0.9636113749942803
  outer loop
    vertex 24.5 26.500000000000004 8.666025403784438
    vertex 24.433012701892217 26.75 8.666025403784438
    vertex 24.0 26.500000000000004 8.8
  endloop
endfacet
facet normal 0.965925826289068 0.25881904510252207 -0.0
  outer loop
    vertex 24.866025403784437 27.0 0.0
    vertex 25.0 26.500000000000004 7.800000000000002
    vertex 25.0 26.500000000000004 0.0
  endloop
endfacet
facet normal 0.965925826289068 0.25881904510252207 -0.0
  outer loop
    vertex 25.0 26.500000000000004 7.800000000000002
    vertex 24.866025403784437 27.0 0.0
    vertex 24.866025403784437 27.0 7.800000000000002
  endloop
endfacet
facet normal 0.25881904510252074 -0.9659258262890684 -1.4189520062260646e-17
  outer loop
    vertex 1.9999999999999998 0.1339745962155613 5.3
    vertex 1.5 0.0 7.800000000000002
    vertex 1.5 0.0 4.8
  endloop
endfacet
facet normal 0.25881904510252074 -0.9659258262890684 -1.4189520062260646e-17
  outer loop
    vertex 1.5 0.0 7.800000000000002
    vertex 1.9999999999999998 0.1339745962155613 5.3
    vertex 2.0 0.1339745962155613 8.300000000000002
  endloop
endfacet
facet normal -0.06918418399436065 0.25819888974716254 0.9636113749942803
  outer loop
    vertex 0.9999999999999998 27.0 8.666025403784438
    vertex 0.7499999999999999 26.933012701892224 8.666025403784438
    vertex 0.9999999999999998 26.500000000000004 8.8
  endloop
endfacet
facet normal 0.18615678789738496 0.6947465906068677 0.694746590606864
  outer loop
    vertex 24.0 27.0 8.666025403784438
    vertex 24.433012701892217 27.25 8.3
    vertex 24.0 27.36602540378444 8.3
  endloop
endfacet
facet normal 0.18615678789738496 0.6947465906068677 0.694746590606864
  outer loop
    vertex 24.433012701892217 27.25 8.3
    vertex 24.0 27.0 8.666025403784438
    vertex 24.25 26.933012701892224 8.666025403784438
  endloop
endfacet
facet normal 0.18615678789738532 -0.694746590606866 0.6947465906068655
  outer loop
    vertex 24.25 0.5669872981077809 8.666025403784438
    vertex 24.0 0.1339745962155613 8.3
    vertex 24.433012701892217 0.25000000000000006 8.3
  endloop
endfacet
facet normal 0.18615678789738532 -0.694746590606866 0.6947465906068655
  outer loop
    vertex 24.0 0.1339745962155613 8.3
    vertex 24.25 0.5669872981077809 8.666025403784438
    vertex 24.0 0.5000000000000001 8.666025403784438
  endloop
endfacet
facet normal 0.9351131265310293 0.25056280708573214 0.25056280708573214
  outer loop
    vertex 24.866025403784437 27.0 7.800000000000002
    vertex 24.866025403784437 26.500000000000004 8.3
    vertex 25.0 26.500000000000004 7.800000000000002
  endloop
endfacet
facet normal 0.9351131265310293 0.25056280708573214 0.25056280708573214
  outer loop
    vertex 24.866025403784437 26.500000000000004 8.3
    vertex 24.866025403784437 27.0 7.800000000000002
    vertex 24.75 26.93301270189222 8.3
  endloop
endfacet
facet normal -0.9351131265310291 0.25056280708573225 0.2505628070857323
  outer loop
    vertex 0.2499999999999998 26.93301270189222 8.3
    vertex 0.0 26.500000000000004 7.800000000000002
    vertex 0.1339745962155613 26.500000000000004 8.3
  endloop
endfacet
facet normal -0.9351131265310291 0.25056280708573225 0.2505628070857323
  outer loop
    vertex 0.0 26.500000000000004 7.800000000000002
    vertex 0.2499999999999998 26.93301270189222 8.3
    vertex 0.1339745962155613 27.0 7.800000000000002
  endloop
endfacet
facet normal 0.7071067811865489 -0.7071067811865461 2.4389042916850176e-17
  outer loop
    vertex 24.866025403784437 0.49999999999999994 0.0
    vertex 24.5 0.13397459621556146 7.800000000000002
    vertex 24.5 0.1339745962155613 0.0
  endloop
endfacet
facet normal 0.7071067811865489 -0.7071067811865461 2.4389042916850176e-17
  outer loop
    vertex 24.5 0.13397459621556146 7.800000000000002
    vertex 24.866025403784437 0.49999999999999994 0.0
    vertex 24.866025403784437 0.5000000000000003 7.800000000000002
  endloop
endfacet
facet normal 6.463844973424262e-17 -0.2588190451025215 0.9659258262890682
  outer loop
    vertex 22.63397459621556 0.49999999999999994 8.666025403784438
    vertex 24.0 1.0000000000000004 8.8
    vertex 22.499999999999996 0.9999999999999999 8.8
  endloop
endfacet
facet normal 6.463844973424262e-17 -0.2588190451025215 0.9659258262890682
  outer loop
    vertex 24.0 1.0000000000000004 8.8
    vertex 22.63397459621556 0.49999999999999994 8.666025403784438
    vertex 24.0 0.5000000000000001 8.666025403784438
  endloop
endfacet
facet normal -0.18615678789738546 0.6947465906068674 0.6947465906068642
  outer loop
    vertex 0.7499999999999999 26.933012701892224 8.666025403784438
    vertex 0.9999999999999998 27.36602540378444 8.3
    vertex 0.5669872981077805 27.25 8.3
  endloop
endfacet
facet normal -0.18615678789738546 0.6947465906068674 0.6947465906068642
  outer loop
    vertex 0.9999999999999998 27.36602540378444 8.3
    vertex 0.7499999999999999 26.933012701892224 8.666025403784438
    vertex 0.9999999999999998 27.0 8.666025403784438
  endloop
endfacet
facet normal -0.18615678789738552 -0.6947465906068656 0.6947465906068658
  outer loop
    vertex 0.9999999999999999 0.1339745962155613 8.3
    vertex 0.75 0.5669872981077808 8.666025403784438
    vertex 0.5669872981077807 0.24999999999999997 8.3
  endloop
endfacet
facet normal -0.18615678789738552 -0.6947465906068656 0.6947465906068658
  outer loop
    vertex 0.75 0.5669872981077808 8.666025403784438
    vertex 0.9999999999999999 0.1339745962155613 8.3
    vertex 0.9999999999999999 0.5000000000000001 8.666025403784438
  endloop
endfacet
facet normal -0.2505628070857316 -0.9351131265310293 0.25056280708573203
  outer loop
    vertex 0.9999999999999999 0.1339745962155613 8.3
    vertex 0.5 0.1339745962155613 7.800000000000002
    vertex 0.9999999999999999 0.0 7.800000000000002
  endloop
endfacet
facet normal -0.2505628070857316 -0.9351131265310293 0.25056280708573203
  outer loop
    vertex 0.5 0.1339745962155613 7.800000000000002
    vertex 0.9999999999999999 0.1339745962155613 8.3
    vertex 0.5669872981077807 0.24999999999999997 8.3
  endloop
endfacet
facet normal 0.25881904510252074 2.2273248532711504e-19 0.9659258262890684
  outer loop
    vertex 24.5 1.0000000000000004 8.666025403784438
    vertex 24.0 26.500000000000004 8.8
    vertex 24.0 1.0000000000000004 8.8
  endloop
endfacet
facet normal 0.25881904510252074 2.2273248532711504e-19 0.9659258262890684
  outer loop
    vertex 24.0 26.500000000000004 8.8
    vertex 24.5 1.0000000000000004 8.666025403784438
    vertex 24.5 26.500000000000004 8.666025403784438
  endloop
endfacet
facet normal -0.2505628070857309 0.9351131265310296 0.25056280708573164
  outer loop
    vertex 0.5669872981077805 27.25 8.3
    vertex 0.9999999999999998 27.5 7.800000000000002
    vertex 0.4999999999999998 27.36602540378444 7.800000000000002
  endloop
endfacet
facet normal -0.2505628070857309 0.9351131265310296 0.25056280708573164
  outer loop
    vertex 0.9999999999999998 27.5 7.800000000000002
    vertex 0.5669872981077805 27.25 8.3
    vertex 0.9999999999999998 27.36602540378444 8.3
  endloop
endfacet
facet normal -0.25881904510251647 0.9659258262890694 -1.7854018563111916e-17
  outer loop
    vertex 0.4999999999999998 27.36602540378444 7.800000000000002
    vertex 1.0000000000000004 27.5 0.0
    vertex 0.5000000000000001 27.36602540378444 0.0
  endloop
endfacet
facet normal -0.25881904510251647 0.9659258262890694 -1.7854018563111916e-17
  outer loop
    vertex 1.0000000000000004 27.5 0.0
    vertex 0.4999999999999998 27.36602540378444 7.800000000000002
    vertex 0.9999999999999998 27.5 7.800000000000002
  endloop
endfacet
facet normal 0.9659258262890684 -0.25881904510252063 -5.528000524255714e-17
  outer loop
    vertex 2.4999999999999996 0.9999999999999999 5.8
    vertex 2.3660254037844384 0.49999999999999994 8.666025403784438
    vertex 2.3660254037844384 0.49999999999999994 5.666025403784439
  endloop
endfacet
facet normal 0.9659258262890684 -0.25881904510252063 -5.528000524255714e-17
  outer loop
    vertex 2.3660254037844384 0.49999999999999994 8.666025403784438
    vertex 2.4999999999999996 0.9999999999999999 5.8
    vertex 2.5 0.9999999999999999 8.8
  endloop
endfacet
facet normal 0.2588190451025156 0.9659258262890696 -0.0
  outer loop
    vertex 24.0 27.5 7.800000000000002
    vertex 24.5 27.36602540378444 0.0
    vertex 24.0 27.5 0.0
  endloop
endfacet
facet normal 0.2588190451025156 0.9659258262890696 -0.0
  outer loop
    vertex 24.5 27.36602540378444 0.0
    vertex 24.0 27.5 7.800000000000002
    vertex 24.5 27.36602540378444 7.800000000000002
  endloop
endfacet
facet normal -1.4520313695585586e-32 0.9659258262890694 0.258819045102517
  outer loop
    vertex 0.9999999999999998 27.36602540378444 8.3
    vertex 24.0 27.5 7.800000000000002
    vertex 0.9999999999999998 27.5 7.800000000000002
  endloop
endfacet
facet normal -1.4520313695585586e-32 0.9659258262890694 0.258819045102517
  outer loop
    vertex 24.0 27.5 7.800000000000002
    vertex 0.9999999999999998 27.36602540378444 8.3
    vertex 24.0 27.36602540378444 8.3
  endloop
endfacet
facet normal -0.9659258262890682 -0.2588190451025216 -5.912300025941938e-19
  outer loop
    vertex 22.499999999999996 0.9999999999999999 8.8
    vertex 22.63397459621556 0.49999999999999994 5.666025403784439
    vertex 22.63397459621556 0.49999999999999994 8.666025403784438
  endloop
endfacet
facet normal -0.9659258262890682 -0.2588190451025216 -5.912300025941938e-19
  outer loop
    vertex 22.63397459621556 0.49999999999999994 5.666025403784439
    vertex 22.499999999999996 0.9999999999999999 8.8
    vertex 22.499999999999996 0.9999999999999999 5.8
  endloop
endfacet
facet normal 0.0 -0.9659258262890684 0.2588190451025204
  outer loop
    vertex 22.999999999999993 0.1339745962155613 5.3
    vertex 1.5 0.0 4.8
    vertex 23.499999999999996 0.0 4.8
  endloop
endfacet
facet normal 0.0 -0.9659258262890684 0.2588190451025204
  outer loop
    vertex 1.5 0.0 4.8
    vertex 22.999999999999993 0.1339745962155613 5.3
    vertex 1.9999999999999998 0.1339745962155613 5.3
  endloop
endfacet
facet normal -3.152963044130111e-33 -0.7071067811865476 0.7071067811865475
  outer loop
    vertex 22.63397459621556 0.49999999999999994 5.666025403784439
    vertex 1.9999999999999998 0.1339745962155613 5.3
    vertex 22.999999999999993 0.1339745962155613 5.3
  endloop
endfacet
facet normal -3.152963044130111e-33 -0.7071067811865476 0.7071067811865475
  outer loop
    vertex 1.9999999999999998 0.1339745962155613 5.3
    vertex 22.63397459621556 0.49999999999999994 5.666025403784439
    vertex 2.3660254037844384 0.49999999999999994 5.666025403784439
  endloop
endfacet
facet normal 4.1085892834479507e-16 -0.7071067811865467 0.7071067811865485
  outer loop
    vertex 22.999999999999993 0.1339745962155613 8.300000000000002
    vertex 24.0 0.5000000000000001 8.666025403784438
    vertex 22.63397459621556 0.49999999999999994 8.666025403784438
  endloop
endfacet
facet normal 4.1085892834479507e-16 -0.7071067811865467 0.7071067811865485
  outer loop
    vertex 24.0 0.5000000000000001 8.666025403784438
    vertex 22.999999999999993 0.1339745962155613 8.300000000000002
    vertex 24.0 0.1339745962155613 8.3
  endloop
endfacet
facet normal -0.25819888974716193 0.06918418399436456 0.9636113749942801
  outer loop
    vertex 0.9999999999999998 26.500000000000004 8.8
    vertex 0.5669872981077804 26.75 8.666025403784438
    vertex 0.4999999999999998 26.500000000000004 8.666025403784438
  endloop
endfacet
facet normal -3.572610433215825e-19 -0.25881904510252035 0.9659258262890684
  outer loop
    vertex 22.63397459621556 0.49999999999999994 5.666025403784439
    vertex 2.4999999999999996 0.9999999999999999 5.8
    vertex 2.3660254037844384 0.49999999999999994 5.666025403784439
  endloop
endfacet
facet normal -3.572610433215825e-19 -0.25881904510252035 0.9659258262890684
  outer loop
    vertex 2.4999999999999996 0.9999999999999999 5.8
    vertex 22.63397459621556 0.49999999999999994 5.666025403784439
    vertex 22.499999999999996 0.9999999999999999 5.8
  endloop
endfacet
facet normal 0.2588190451025199 -0.9659258262890685 1.1105350732802114e-17
  outer loop
    vertex 24.5 0.13397459621556146 7.800000000000002
    vertex 24.0 0.0 0.0
    vertex 24.5 0.1339745962155613 0.0
  endloop
endfacet
facet normal 0.2588190451025199 -0.9659258262890685 1.1105350732802114e-17
  outer loop
    vertex 24.0 0.0 0.0
    vertex 24.5 0.13397459621556146 7.800000000000002
    vertex 24.0 0.0 7.800000000000002
  endloop
endfacet
facet normal 0.7071067811865489 5.52016930136099e-33 0.7071067811865461
  outer loop
    vertex 24.866025403784437 26.500000000000004 8.3
    vertex 24.5 1.0000000000000004 8.666025403784438
    vertex 24.866025403784437 1.0000000000000004 8.3
  endloop
endfacet
facet normal 0.7071067811865489 5.52016930136099e-33 0.7071067811865461
  outer loop
    vertex 24.5 1.0000000000000004 8.666025403784438
    vertex 24.866025403784437 26.500000000000004 8.3
    vertex 24.5 26.500000000000004 8.666025403784438
  endloop
endfacet
facet normal 0.25819888974716104 -0.06918418399436597 0.9636113749942803
  outer loop
    vertex 24.5 1.0000000000000004 8.666025403784438
    vertex 24.0 1.0000000000000004 8.8
    vertex 24.433012701892217 0.7500000000000003 8.666025403784438
  endloop
endfacet
facet normal -0.2588190451025197 -0.9659258262890685 -2.3649200103767564e-18
  outer loop
    vertex 23.499999999999996 0.0 7.800000000000002
    vertex 22.999999999999993 0.1339745962155613 5.3
    vertex 23.499999999999996 0.0 4.8
  endloop
endfacet
facet normal -0.2588190451025197 -0.9659258262890685 -2.3649200103767564e-18
  outer loop
    vertex 22.999999999999993 0.1339745962155613 5.3
    vertex 23.499999999999996 0.0 7.800000000000002
    vertex 22.999999999999993 0.1339745962155613 8.300000000000002
  endloop
endfacet
facet normal 0.7071067811865502 0.7071067811865448 -0.0
  outer loop
    vertex 24.5 27.36602540378444 0.0
    vertex 24.866025403784437 27.0 7.800000000000002
    vertex 24.866025403784437 27.0 0.0
  endloop
endfacet
facet normal 0.7071067811865502 0.7071067811865448 -0.0
  outer loop
    vertex 24.866025403784437 27.0 7.800000000000002
    vertex 24.5 27.36602540378444 0.0
    vertex 24.5 27.36602540378444 7.800000000000002
  endloop
endfacet
facet normal 0.1890147057527983 -0.18901470575279591 0.9636113749942803
  outer loop
    vertex 24.433012701892217 0.7500000000000003 8.666025403784438
    vertex 24.0 1.0000000000000004 8.8
    vertex 24.25 0.5669872981077809 8.666025403784438
  endloop
endfacet
facet normal -0.25881904510252157 -8.909299413085349e-19 0.9659258262890682
  outer loop
    vertex 0.9999999999999999 1.0000000000000004 8.8
    vertex 0.4999999999999998 26.500000000000004 8.666025403784438
    vertex 0.4999999999999998 1.0000000000000004 8.666025403784438
  endloop
endfacet
facet normal -0.25881904510252157 -8.909299413085349e-19 0.9659258262890682
  outer loop
    vertex 0.4999999999999998 26.500000000000004 8.666025403784438
    vertex 0.9999999999999999 1.0000000000000004 8.8
    vertex 0.9999999999999998 26.500000000000004 8.8
  endloop
endfacet
facet normal 7.260156847792782e-33 0.25881904510252207 0.965925826289068
  outer loop
    vertex 24.0 26.500000000000004 8.8
    vertex 0.9999999999999998 27.0 8.666025403784438
    vertex 0.9999999999999998 26.500000000000004 8.8
  endloop
endfacet
facet normal 7.260156847792782e-33 0.25881904510252207 0.965925826289068
  outer loop
    vertex 0.9999999999999998 27.0 8.666025403784438
    vertex 24.0 26.500000000000004 8.8
    vertex 24.0 27.0 8.666025403784438
  endloop
endfacet
facet normal -0.5085898027094838 0.5085898027094801 0.6947465906068633
  outer loop
    vertex 0.5669872981077804 26.75 8.666025403784438
    vertex 0.5669872981077805 27.25 8.3
    vertex 0.2499999999999998 26.93301270189222 8.3
  endloop
endfacet
facet normal -0.5085898027094838 0.5085898027094801 0.6947465906068633
  outer loop
    vertex 0.5669872981077805 27.25 8.3
    vertex 0.5669872981077804 26.75 8.666025403784438
    vertex 0.7499999999999999 26.933012701892224 8.666025403784438
  endloop
endfacet
facet normal 0.1890147057527998 0.18901470575279375 0.9636113749942803
  outer loop
    vertex 24.433012701892217 26.75 8.666025403784438
    vertex 24.25 26.933012701892224 8.666025403784438
    vertex 24.0 26.500000000000004 8.8
  endloop
endfacet
facet normal 0.5085898027094841 0.5085898027094802 0.6947465906068631
  outer loop
    vertex 24.433012701892217 26.75 8.666025403784438
    vertex 24.433012701892217 27.25 8.3
    vertex 24.25 26.933012701892224 8.666025403784438
  endloop
endfacet
facet normal 0.5085898027094841 0.5085898027094802 0.6947465906068631
  outer loop
    vertex 24.433012701892217 27.25 8.3
    vertex 24.433012701892217 26.75 8.666025403784438
    vertex 24.75 26.93301270189222 8.3
  endloop
endfacet
facet normal 0.06918418399436004 0.2581988897471625 0.9636113749942803
  outer loop
    vertex 24.25 26.933012701892224 8.666025403784438
    vertex 24.0 27.0 8.666025403784438
    vertex 24.0 26.500000000000004 8.8
  endloop
endfacet
facet normal -0.6845503194452979 -0.6845503194452977 0.2505628070857319
  outer loop
    vertex 0.5669872981077807 0.24999999999999997 8.3
    vertex 0.13397459621556146 0.5000000000000001 7.800000000000002
    vertex 0.5 0.1339745962155613 7.800000000000002
  endloop
endfacet
facet normal -0.6845503194452979 -0.6845503194452977 0.2505628070857319
  outer loop
    vertex 0.13397459621556146 0.5000000000000001 7.800000000000002
    vertex 0.5669872981077807 0.24999999999999997 8.3
    vertex 0.24999999999999997 0.5669872981077807 8.3
  endloop
endfacet
facet normal -0.9351131265310293 -0.25056280708573153 0.2505628070857318
  outer loop
    vertex 0.24999999999999997 0.5669872981077807 8.3
    vertex 0.0 1.0000000000000004 7.800000000000002
    vertex 0.13397459621556146 0.5000000000000001 7.800000000000002
  endloop
endfacet
facet normal -0.9351131265310293 -0.25056280708573153 0.2505628070857318
  outer loop
    vertex 0.0 1.0000000000000004 7.800000000000002
    vertex 0.24999999999999997 0.5669872981077807 8.3
    vertex 0.1339745962155613 1.0000000000000004 8.3
  endloop
endfacet
facet normal -0.06918418399436446 -0.2581988897471618 0.9636113749942801
  outer loop
    vertex 0.9999999999999999 1.0000000000000004 8.8
    vertex 0.75 0.5669872981077808 8.666025403784438
    vertex 0.9999999999999999 0.5000000000000001 8.666025403784438
  endloop
endfacet
facet normal -0.18901470575279733 -0.1890147057527974 0.9636113749942801
  outer loop
    vertex 0.9999999999999999 1.0000000000000004 8.8
    vertex 0.5669872981077805 0.7500000000000001 8.666025403784438
    vertex 0.75 0.5669872981077808 8.666025403784438
  endloop
endfacet
facet normal -0.5085898027094802 -0.5085898027094805 0.6947465906068657
  outer loop
    vertex 0.5669872981077807 0.24999999999999997 8.3
    vertex 0.5669872981077805 0.7500000000000001 8.666025403784438
    vertex 0.24999999999999997 0.5669872981077807 8.3
  endloop
endfacet
facet normal -0.5085898027094802 -0.5085898027094805 0.6947465906068657
  outer loop
    vertex 0.5669872981077805 0.7500000000000001 8.666025403784438
    vertex 0.5669872981077807 0.24999999999999997 8.3
    vertex 0.75 0.5669872981077808 8.666025403784438
  endloop
endfacet
facet normal 0.9351131265310296 -0.25056280708573125 0.25056280708573164
  outer loop
    vertex 25.0 1.0000000000000004 7.800000000000002
    vertex 24.75 0.5669872981077809 8.3
    vertex 24.866025403784437 0.5000000000000003 7.800000000000002
  endloop
endfacet
facet normal 0.9351131265310296 -0.25056280708573125 0.25056280708573164
  outer loop
    vertex 24.75 0.5669872981077809 8.3
    vertex 25.0 1.0000000000000004 7.800000000000002
    vertex 24.866025403784437 1.0000000000000004 8.3
  endloop
endfacet
facet normal -0.9659258262890682 0.0 0.2588190451025211
  outer loop
    vertex 0.1339745962155613 26.500000000000004 8.3
    vertex 0.0 1.0000000000000004 7.800000000000002
    vertex 0.1339745962155613 1.0000000000000004 8.3
  endloop
endfacet
facet normal -0.9659258262890682 0.0 0.2588190451025211
  outer loop
    vertex 0.0 1.0000000000000004 7.800000000000002
    vertex 0.1339745962155613 26.500000000000004 8.3
    vertex 0.0 26.500000000000004 7.800000000000002
  endloop
endfacet
facet normal -0.6845503194452988 0.684550319445296 0.2505628070857343
  outer loop
    vertex 0.5669872981077805 27.25 8.3
    vertex 0.1339745962155613 27.0 7.800000000000002
    vertex 0.2499999999999998 26.93301270189222 8.3
  endloop
endfacet
facet normal -0.6845503194452988 0.684550319445296 0.2505628070857343
  outer loop
    vertex 0.1339745962155613 27.0 7.800000000000002
    vertex 0.5669872981077805 27.25 8.3
    vertex 0.4999999999999998 27.36602540378444 7.800000000000002
  endloop
endfacet
endsolid PSU-TardisMount-Spacer
