solid FrameMount-6mmStandoff
facet normal 0.0 0.0 -1.0
  outer loop
    vertex -1.5999999999999996 2.7712812921102046 0.0
    vertex -1.7999999999999998 2.2043642384652356e-16 0.0
    vertex -2.2627416997969525 2.2627416997969525 0.0
  endloop
endfacet
facet normal 0.0 0.0 -1.0
  outer loop
    vertex -1.7999999999999998 2.2043642384652356e-16 0.0
    vertex -1.5999999999999996 2.7712812921102046 0.0
    vertex -1.7386664873203226 0.4658742811845378 0.0
  endloop
endfacet
facet normal 0.0 0.0 -1.0
  outer loop
    vertex -1.7386664873203226 0.4658742811845378 0.0
    vertex -1.5999999999999996 2.7712812921102046 0.0
    vertex -1.5588457268119893 0.9000000000000005 0.0
  endloop
endfacet
facet normal 0.0 0.0 -1.0
  outer loop
    vertex -1.5588457268119893 0.9000000000000005 0.0
    vertex -1.5999999999999996 2.7712812921102046 0.0
    vertex -0.8282209443280661 3.090962644125019 0.0
  endloop
endfacet
facet normal 0.0 0.0 -1.0
  outer loop
    vertex -1.5588457268119893 0.9000000000000005 0.0
    vertex -0.8282209443280661 3.090962644125019 0.0
    vertex -1.2727922061357853 1.2727922061357857 0.0
  endloop
endfacet
facet normal 0.0 0.0 -1.0
  outer loop
    vertex -1.2727922061357853 1.2727922061357857 0.0
    vertex -0.8282209443280661 3.090962644125019 0.0
    vertex -0.8999999999999996 1.5588457268119897 0.0
  endloop
endfacet
facet normal 0.0 0.0 -1.0
  outer loop
    vertex -0.8999999999999996 1.5588457268119897 0.0
    vertex -0.8282209443280661 3.090962644125019 0.0
    vertex -0.46587428118453716 1.738666487320323 0.0
  endloop
endfacet
facet normal 0.0 0.0 -1.0
  outer loop
    vertex -0.46587428118453716 1.738666487320323 0.0
    vertex -0.8282209443280661 3.090962644125019 0.0
    vertex 1.9594348786357655e-16 3.2000000000000006 0.0
  endloop
endfacet
facet normal 0.0 0.0 -1.0
  outer loop
    vertex -0.46587428118453716 1.738666487320323 0.0
    vertex 1.9594348786357655e-16 3.2000000000000006 0.0
    vertex 1.1021821192326178e-16 1.7999999999999998 0.0
  endloop
endfacet
facet normal 0.0 0.0 -1.0
  outer loop
    vertex 1.1021821192326178e-16 1.7999999999999998 0.0
    vertex 1.9594348786357655e-16 3.2000000000000006 0.0
    vertex 0.46587428118453766 1.7386664873203226 0.0
  endloop
endfacet
facet normal 0.0 0.0 -1.0
  outer loop
    vertex 0.46587428118453766 1.7386664873203226 0.0
    vertex 1.9594348786357655e-16 3.2000000000000006 0.0
    vertex 0.8282209443280671 3.090962644125019 0.0
  endloop
endfacet
facet normal 0.0 0.0 -1.0
  outer loop
    vertex 0.46587428118453766 1.7386664873203226 0.0
    vertex 0.8282209443280671 3.090962644125019 0.0
    vertex 0.9000000000000001 1.5588457268119895 0.0
  endloop
endfacet
facet normal 0.0 0.0 -1.0
  outer loop
    vertex 0.9000000000000001 1.5588457268119895 0.0
    vertex 0.8282209443280671 3.090962644125019 0.0
    vertex 1.6000000000000005 2.7712812921102037 0.0
  endloop
endfacet
facet normal 0.0 0.0 -1.0
  outer loop
    vertex 0.9000000000000001 1.5588457268119895 0.0
    vertex 1.6000000000000005 2.7712812921102037 0.0
    vertex 1.2727922061357857 1.2727922061357853 0.0
  endloop
endfacet
facet normal 0.0 0.0 -1.0
  outer loop
    vertex 1.2727922061357857 1.2727922061357853 0.0
    vertex 1.6000000000000005 2.7712812921102037 0.0
    vertex 1.5588457268119895 0.8999999999999998 0.0
  endloop
endfacet
facet normal 0.0 0.0 -1.0
  outer loop
    vertex 1.5588457268119895 0.8999999999999998 0.0
    vertex 1.6000000000000005 2.7712812921102037 0.0
    vertex 1.738666487320323 0.46587428118453733 0.0
  endloop
endfacet
facet normal 0.0 0.0 -1.0
  outer loop
    vertex 1.738666487320323 0.46587428118453733 0.0
    vertex 1.6000000000000005 2.7712812921102037 0.0
    vertex 2.2627416997969525 2.2627416997969525 0.0
  endloop
endfacet
facet normal 0.0 0.0 -1.0
  outer loop
    vertex 1.738666487320323 0.46587428118453733 0.0
    vertex 2.2627416997969525 2.2627416997969525 0.0
    vertex 1.7999999999999998 0.0 0.0
  endloop
endfacet
facet normal 0.0 0.0 -1.0
  outer loop
    vertex 1.7999999999999998 0.0 0.0
    vertex 2.2627416997969525 2.2627416997969525 0.0
    vertex 2.2627416997969525 -2.262741699796953 0.0
  endloop
endfacet
facet normal 0.0 0.0 -1.0
  outer loop
    vertex 2.2627416997969525 -2.262741699796953 0.0
    vertex 2.2627416997969525 2.2627416997969525 0.0
    vertex 2.7712812921102032 -1.6000000000000016 0.0
  endloop
endfacet
facet normal 0.0 0.0 -1.0
  outer loop
    vertex 2.7712812921102032 -1.6000000000000016 0.0
    vertex 2.2627416997969525 2.2627416997969525 0.0
    vertex 2.771281292110204 1.5999999999999999 0.0
  endloop
endfacet
facet normal 0.0 0.0 -1.0
  outer loop
    vertex 2.7712812921102032 -1.6000000000000016 0.0
    vertex 2.771281292110204 1.5999999999999999 0.0
    vertex 3.0909626441250184 -0.8282209443280689 0.0
  endloop
endfacet
facet normal 0.0 0.0 -1.0
  outer loop
    vertex 3.0909626441250184 -0.8282209443280689 0.0
    vertex 2.771281292110204 1.5999999999999999 0.0
    vertex 3.090962644125019 0.8282209443280665 0.0
  endloop
endfacet
facet normal 0.0 0.0 -1.0
  outer loop
    vertex 3.0909626441250184 -0.8282209443280689 0.0
    vertex 3.090962644125019 0.8282209443280665 0.0
    vertex 3.2000000000000006 0.0 0.0
  endloop
endfacet
facet normal 0.0 0.0 -1.0
  outer loop
    vertex -3.090962644125019 0.8282209443280674 0.0
    vertex -3.0909626441250193 -0.8282209443280653 0.0
    vertex -3.2000000000000006 3.918869757271531e-16 0.0
  endloop
endfacet
facet normal 0.0 0.0 -1.0
  outer loop
    vertex -3.0909626441250193 -0.8282209443280653 0.0
    vertex -3.090962644125019 0.8282209443280674 0.0
    vertex -2.7712812921102046 -1.5999999999999996 0.0
  endloop
endfacet
facet normal 0.0 0.0 -1.0
  outer loop
    vertex -2.7712812921102046 -1.5999999999999996 0.0
    vertex -3.090962644125019 0.8282209443280674 0.0
    vertex -2.7712812921102032 1.6000000000000012 0.0
  endloop
endfacet
facet normal 0.0 0.0 -1.0
  outer loop
    vertex -2.7712812921102046 -1.5999999999999996 0.0
    vertex -2.7712812921102032 1.6000000000000012 0.0
    vertex -2.262741699796954 -2.262741699796951 0.0
  endloop
endfacet
facet normal 0.0 0.0 -1.0
  outer loop
    vertex -2.262741699796954 -2.262741699796951 0.0
    vertex -2.7712812921102032 1.6000000000000012 0.0
    vertex -2.2627416997969525 2.2627416997969525 0.0
  endloop
endfacet
facet normal 0.0 0.0 -1.0
  outer loop
    vertex -2.262741699796954 -2.262741699796951 0.0
    vertex -2.2627416997969525 2.2627416997969525 0.0
    vertex -1.6000000000000016 -2.7712812921102032 0.0
  endloop
endfacet
facet normal 0.0 0.0 -1.0
  outer loop
    vertex -1.6000000000000016 -2.7712812921102032 0.0
    vertex -2.2627416997969525 2.2627416997969525 0.0
    vertex -1.7999999999999998 2.2043642384652356e-16 0.0
  endloop
endfacet
facet normal 0.0 0.0 -1.0
  outer loop
    vertex -1.6000000000000016 -2.7712812921102032 0.0
    vertex -1.7999999999999998 2.2043642384652356e-16 0.0
    vertex -1.738666487320323 -0.4658742811845366 0.0
  endloop
endfacet
facet normal 0.0 0.0 -1.0
  outer loop
    vertex -1.6000000000000016 -2.7712812921102032 0.0
    vertex -1.738666487320323 -0.4658742811845366 0.0
    vertex -1.5588457268119897 -0.8999999999999996 0.0
  endloop
endfacet
facet normal 0.0 0.0 -1.0
  outer loop
    vertex -1.6000000000000016 -2.7712812921102032 0.0
    vertex -1.5588457268119897 -0.8999999999999996 0.0
    vertex -0.8282209443280688 -3.0909626441250184 0.0
  endloop
endfacet
facet normal 0.0 0.0 -1.0
  outer loop
    vertex -0.8282209443280688 -3.0909626441250184 0.0
    vertex -1.5588457268119897 -0.8999999999999996 0.0
    vertex -1.2727922061357861 -1.2727922061357848 0.0
  endloop
endfacet
facet normal 0.0 0.0 -1.0
  outer loop
    vertex -0.8282209443280688 -3.0909626441250184 0.0
    vertex -1.2727922061357861 -1.2727922061357848 0.0
    vertex -0.9000000000000008 -1.5588457268119889 0.0
  endloop
endfacet
facet normal 0.0 0.0 -1.0
  outer loop
    vertex -0.8282209443280688 -3.0909626441250184 0.0
    vertex -0.9000000000000008 -1.5588457268119889 0.0
    vertex -0.46587428118453866 -1.7386664873203226 0.0
  endloop
endfacet
facet normal 0.0 0.0 -1.0
  outer loop
    vertex -0.8282209443280688 -3.0909626441250184 0.0
    vertex -0.46587428118453866 -1.7386664873203226 0.0
    vertex -5.878304635907295e-16 -3.2000000000000006 0.0
  endloop
endfacet
facet normal 0.0 0.0 -1.0
  outer loop
    vertex -5.878304635907295e-16 -3.2000000000000006 0.0
    vertex -0.46587428118453866 -1.7386664873203226 0.0
    vertex -3.306546357697853e-16 -1.7999999999999998 0.0
  endloop
endfacet
facet normal 0.0 0.0 -1.0
  outer loop
    vertex -5.878304635907295e-16 -3.2000000000000006 0.0
    vertex -3.306546357697853e-16 -1.7999999999999998 0.0
    vertex 0.828220944328065 -3.0909626441250193 0.0
  endloop
endfacet
facet normal 0.0 0.0 -1.0
  outer loop
    vertex 0.828220944328065 -3.0909626441250193 0.0
    vertex -3.306546357697853e-16 -1.7999999999999998 0.0
    vertex 0.4658742811845365 -1.738666487320323 0.0
  endloop
endfacet
facet normal 0.0 0.0 -1.0
  outer loop
    vertex 0.828220944328065 -3.0909626441250193 0.0
    vertex 0.4658742811845365 -1.738666487320323 0.0
    vertex 0.8999999999999987 -1.5588457268119902 0.0
  endloop
endfacet
facet normal 0.0 0.0 -1.0
  outer loop
    vertex 0.828220944328065 -3.0909626441250193 0.0
    vertex 0.8999999999999987 -1.5588457268119902 0.0
    vertex 1.5999999999999979 -2.771281292110205 0.0
  endloop
endfacet
facet normal 0.0 0.0 -1.0
  outer loop
    vertex 1.5999999999999979 -2.771281292110205 0.0
    vertex 0.8999999999999987 -1.5588457268119902 0.0
    vertex 1.2727922061357853 -1.2727922061357857 0.0
  endloop
endfacet
facet normal 0.0 0.0 -1.0
  outer loop
    vertex 1.5999999999999979 -2.771281292110205 0.0
    vertex 1.2727922061357853 -1.2727922061357857 0.0
    vertex 1.5588457268119889 -0.9000000000000008 0.0
  endloop
endfacet
facet normal 0.0 0.0 -1.0
  outer loop
    vertex 1.5999999999999979 -2.771281292110205 0.0
    vertex 1.5588457268119889 -0.9000000000000008 0.0
    vertex 1.7386664873203226 -0.4658742811845387 0.0
  endloop
endfacet
facet normal 0.0 0.0 -1.0
  outer loop
    vertex 1.5999999999999979 -2.771281292110205 0.0
    vertex 1.7386664873203226 -0.4658742811845387 0.0
    vertex 2.2627416997969525 -2.262741699796953 0.0
  endloop
endfacet
facet normal 0.0 0.0 -1.0
  outer loop
    vertex 2.2627416997969525 -2.262741699796953 0.0
    vertex 1.7386664873203226 -0.4658742811845387 0.0
    vertex 1.7999999999999998 0.0 0.0
  endloop
endfacet
facet normal -0.0 -0.0 1.0
  outer loop
    vertex -3.0909626441250193 -0.8282209443280653 6.0
    vertex -3.090962644125019 0.8282209443280674 6.0
    vertex -3.2000000000000006 3.918869757271531e-16 6.0
  endloop
endfacet
facet normal -0.0 -0.0 1.0
  outer loop
    vertex -3.090962644125019 0.8282209443280674 6.0
    vertex -3.0909626441250193 -0.8282209443280653 6.0
    vertex -2.7712812921102046 -1.5999999999999996 6.0
  endloop
endfacet
facet normal -0.0 -0.0 1.0
  outer loop
    vertex -3.090962644125019 0.8282209443280674 6.0
    vertex -2.7712812921102046 -1.5999999999999996 6.0
    vertex -2.7712812921102032 1.6000000000000012 6.0
  endloop
endfacet
facet normal -0.0 -0.0 1.0
  outer loop
    vertex -2.7712812921102032 1.6000000000000012 6.0
    vertex -2.7712812921102046 -1.5999999999999996 6.0
    vertex -2.262741699796954 -2.262741699796951 6.0
  endloop
endfacet
facet normal -0.0 -0.0 1.0
  outer loop
    vertex -2.7712812921102032 1.6000000000000012 6.0
    vertex -2.262741699796954 -2.262741699796951 6.0
    vertex -2.2627416997969525 2.2627416997969525 6.0
  endloop
endfacet
facet normal -0.0 -0.0 1.0
  outer loop
    vertex -2.2627416997969525 2.2627416997969525 6.0
    vertex -2.262741699796954 -2.262741699796951 6.0
    vertex -1.6000000000000016 -2.7712812921102032 6.0
  endloop
endfacet
facet normal -0.0 -0.0 1.0
  outer loop
    vertex -2.2627416997969525 2.2627416997969525 6.0
    vertex -1.6000000000000016 -2.7712812921102032 6.0
    vertex -1.7999999999999998 2.2043642384652356e-16 6.0
  endloop
endfacet
facet normal -0.0 -0.0 1.0
  outer loop
    vertex -1.7999999999999998 2.2043642384652356e-16 6.0
    vertex -1.6000000000000016 -2.7712812921102032 6.0
    vertex -1.738666487320323 -0.4658742811845366 6.0
  endloop
endfacet
facet normal -0.0 -0.0 1.0
  outer loop
    vertex -1.738666487320323 -0.4658742811845366 6.0
    vertex -1.6000000000000016 -2.7712812921102032 6.0
    vertex -1.5588457268119897 -0.8999999999999996 6.0
  endloop
endfacet
facet normal -0.0 -0.0 1.0
  outer loop
    vertex -1.5588457268119897 -0.8999999999999996 6.0
    vertex -1.6000000000000016 -2.7712812921102032 6.0
    vertex -0.8282209443280688 -3.0909626441250184 6.0
  endloop
endfacet
facet normal -0.0 -0.0 1.0
  outer loop
    vertex -1.5588457268119897 -0.8999999999999996 6.0
    vertex -0.8282209443280688 -3.0909626441250184 6.0
    vertex -1.2727922061357861 -1.2727922061357848 6.0
  endloop
endfacet
facet normal -0.0 -0.0 1.0
  outer loop
    vertex -1.2727922061357861 -1.2727922061357848 6.0
    vertex -0.8282209443280688 -3.0909626441250184 6.0
    vertex -0.9000000000000008 -1.5588457268119889 6.0
  endloop
endfacet
facet normal -0.0 -0.0 1.0
  outer loop
    vertex -0.9000000000000008 -1.5588457268119889 6.0
    vertex -0.8282209443280688 -3.0909626441250184 6.0
    vertex -0.46587428118453866 -1.7386664873203226 6.0
  endloop
endfacet
facet normal -0.0 -0.0 1.0
  outer loop
    vertex -0.46587428118453866 -1.7386664873203226 6.0
    vertex -0.8282209443280688 -3.0909626441250184 6.0
    vertex -5.878304635907295e-16 -3.2000000000000006 6.0
  endloop
endfacet
facet normal -0.0 -0.0 1.0
  outer loop
    vertex -0.46587428118453866 -1.7386664873203226 6.0
    vertex -5.878304635907295e-16 -3.2000000000000006 6.0
    vertex -3.306546357697853e-16 -1.7999999999999998 6.0
  endloop
endfacet
facet normal -0.0 -0.0 1.0
  outer loop
    vertex -3.306546357697853e-16 -1.7999999999999998 6.0
    vertex -5.878304635907295e-16 -3.2000000000000006 6.0
    vertex 0.828220944328065 -3.0909626441250193 6.0
  endloop
endfacet
facet normal -0.0 -0.0 1.0
  outer loop
    vertex -3.306546357697853e-16 -1.7999999999999998 6.0
    vertex 0.828220944328065 -3.0909626441250193 6.0
    vertex 0.4658742811845365 -1.738666487320323 6.0
  endloop
endfacet
facet normal -0.0 -0.0 1.0
  outer loop
    vertex 0.4658742811845365 -1.738666487320323 6.0
    vertex 0.828220944328065 -3.0909626441250193 6.0
    vertex 0.8999999999999987 -1.5588457268119902 6.0
  endloop
endfacet
facet normal -0.0 -0.0 1.0
  outer loop
    vertex 0.8999999999999987 -1.5588457268119902 6.0
    vertex 0.828220944328065 -3.0909626441250193 6.0
    vertex 1.5999999999999979 -2.771281292110205 6.0
  endloop
endfacet
facet normal -0.0 -0.0 1.0
  outer loop
    vertex 0.8999999999999987 -1.5588457268119902 6.0
    vertex 1.5999999999999979 -2.771281292110205 6.0
    vertex 1.2727922061357853 -1.2727922061357857 6.0
  endloop
endfacet
facet normal -0.0 -0.0 1.0
  outer loop
    vertex 1.2727922061357853 -1.2727922061357857 6.0
    vertex 1.5999999999999979 -2.771281292110205 6.0
    vertex 1.5588457268119889 -0.9000000000000008 6.0
  endloop
endfacet
facet normal -0.0 -0.0 1.0
  outer loop
    vertex 1.5588457268119889 -0.9000000000000008 6.0
    vertex 1.5999999999999979 -2.771281292110205 6.0
    vertex 1.7386664873203226 -0.4658742811845387 6.0
  endloop
endfacet
facet normal -0.0 -0.0 1.0
  outer loop
    vertex 1.7386664873203226 -0.4658742811845387 6.0
    vertex 1.5999999999999979 -2.771281292110205 6.0
    vertex 2.2627416997969525 -2.262741699796953 6.0
  endloop
endfacet
facet normal -0.0 -0.0 1.0
  outer loop
    vertex 1.7386664873203226 -0.4658742811845387 6.0
    vertex 2.2627416997969525 -2.262741699796953 6.0
    vertex 1.7999999999999998 0.0 6.0
  endloop
endfacet
facet normal -0.0 -0.0 1.0
  outer loop
    vertex -1.7999999999999998 2.2043642384652356e-16 6.0
    vertex -1.5999999999999996 2.7712812921102046 6.0
    vertex -2.2627416997969525 2.2627416997969525 6.0
  endloop
endfacet
facet normal -0.0 -0.0 1.0
  outer loop
    vertex -1.5999999999999996 2.7712812921102046 6.0
    vertex -1.7999999999999998 2.2043642384652356e-16 6.0
    vertex -1.7386664873203226 0.4658742811845378 6.0
  endloop
endfacet
facet normal -0.0 -0.0 1.0
  outer loop
    vertex -1.5999999999999996 2.7712812921102046 6.0
    vertex -1.7386664873203226 0.4658742811845378 6.0
    vertex -1.5588457268119893 0.9000000000000005 6.0
  endloop
endfacet
facet normal -0.0 -0.0 1.0
  outer loop
    vertex -1.5999999999999996 2.7712812921102046 6.0
    vertex -1.5588457268119893 0.9000000000000005 6.0
    vertex -0.8282209443280661 3.090962644125019 6.0
  endloop
endfacet
facet normal -0.0 -0.0 1.0
  outer loop
    vertex -0.8282209443280661 3.090962644125019 6.0
    vertex -1.5588457268119893 0.9000000000000005 6.0
    vertex -1.2727922061357853 1.2727922061357857 6.0
  endloop
endfacet
facet normal -0.0 -0.0 1.0
  outer loop
    vertex -0.8282209443280661 3.090962644125019 6.0
    vertex -1.2727922061357853 1.2727922061357857 6.0
    vertex -0.8999999999999996 1.5588457268119897 6.0
  endloop
endfacet
facet normal -0.0 -0.0 1.0
  outer loop
    vertex -0.8282209443280661 3.090962644125019 6.0
    vertex -0.8999999999999996 1.5588457268119897 6.0
    vertex -0.46587428118453716 1.738666487320323 6.0
  endloop
endfacet
facet normal -0.0 -0.0 1.0
  outer loop
    vertex -0.8282209443280661 3.090962644125019 6.0
    vertex -0.46587428118453716 1.738666487320323 6.0
    vertex 1.9594348786357655e-16 3.2000000000000006 6.0
  endloop
endfacet
facet normal -0.0 -0.0 1.0
  outer loop
    vertex 1.9594348786357655e-16 3.2000000000000006 6.0
    vertex -0.46587428118453716 1.738666487320323 6.0
    vertex 1.1021821192326178e-16 1.7999999999999998 6.0
  endloop
endfacet
facet normal -0.0 -0.0 1.0
  outer loop
    vertex 1.9594348786357655e-16 3.2000000000000006 6.0
    vertex 1.1021821192326178e-16 1.7999999999999998 6.0
    vertex 0.46587428118453766 1.7386664873203226 6.0
  endloop
endfacet
facet normal -0.0 -0.0 1.0
  outer loop
    vertex 1.9594348786357655e-16 3.2000000000000006 6.0
    vertex 0.46587428118453766 1.7386664873203226 6.0
    vertex 0.8282209443280671 3.090962644125019 6.0
  endloop
endfacet
facet normal -0.0 -0.0 1.0
  outer loop
    vertex 0.8282209443280671 3.090962644125019 6.0
    vertex 0.46587428118453766 1.7386664873203226 6.0
    vertex 0.9000000000000001 1.5588457268119895 6.0
  endloop
endfacet
facet normal -0.0 -0.0 1.0
  outer loop
    vertex 0.8282209443280671 3.090962644125019 6.0
    vertex 0.9000000000000001 1.5588457268119895 6.0
    vertex 1.6000000000000005 2.7712812921102037 6.0
  endloop
endfacet
facet normal -0.0 -0.0 1.0
  outer loop
    vertex 1.6000000000000005 2.7712812921102037 6.0
    vertex 0.9000000000000001 1.5588457268119895 6.0
    vertex 1.2727922061357857 1.2727922061357853 6.0
  endloop
endfacet
facet normal -0.0 -0.0 1.0
  outer loop
    vertex 1.6000000000000005 2.7712812921102037 6.0
    vertex 1.2727922061357857 1.2727922061357853 6.0
    vertex 1.5588457268119895 0.8999999999999998 6.0
  endloop
endfacet
facet normal -0.0 -0.0 1.0
  outer loop
    vertex 1.6000000000000005 2.7712812921102037 6.0
    vertex 1.5588457268119895 0.8999999999999998 6.0
    vertex 1.738666487320323 0.46587428118453733 6.0
  endloop
endfacet
facet normal -0.0 -0.0 1.0
  outer loop
    vertex 1.6000000000000005 2.7712812921102037 6.0
    vertex 1.738666487320323 0.46587428118453733 6.0
    vertex 2.2627416997969525 2.2627416997969525 6.0
  endloop
endfacet
facet normal -0.0 -0.0 1.0
  outer loop
    vertex 2.2627416997969525 2.2627416997969525 6.0
    vertex 1.738666487320323 0.46587428118453733 6.0
    vertex 1.7999999999999998 0.0 6.0
  endloop
endfacet
facet normal -0.0 -0.0 1.0
  outer loop
    vertex 2.2627416997969525 2.2627416997969525 6.0
    vertex 1.7999999999999998 0.0 6.0
    vertex 2.2627416997969525 -2.262741699796953 6.0
  endloop
endfacet
facet normal -0.0 -0.0 1.0
  outer loop
    vertex 2.2627416997969525 2.2627416997969525 6.0
    vertex 2.2627416997969525 -2.262741699796953 6.0
    vertex 2.7712812921102032 -1.6000000000000016 6.0
  endloop
endfacet
facet normal -0.0 -0.0 1.0
  outer loop
    vertex 2.2627416997969525 2.2627416997969525 6.0
    vertex 2.7712812921102032 -1.6000000000000016 6.0
    vertex 2.771281292110204 1.5999999999999999 6.0
  endloop
endfacet
facet normal -0.0 -0.0 1.0
  outer loop
    vertex 2.771281292110204 1.5999999999999999 6.0
    vertex 2.7712812921102032 -1.6000000000000016 6.0
    vertex 3.0909626441250184 -0.8282209443280689 6.0
  endloop
endfacet
facet normal -0.0 -0.0 1.0
  outer loop
    vertex 2.771281292110204 1.5999999999999999 6.0
    vertex 3.0909626441250184 -0.8282209443280689 6.0
    vertex 3.090962644125019 0.8282209443280665 6.0
  endloop
endfacet
facet normal -0.0 -0.0 1.0
  outer loop
    vertex 3.090962644125019 0.8282209443280665 6.0
    vertex 3.0909626441250184 -0.8282209443280689 6.0
    vertex 3.2000000000000006 0.0 6.0
  endloop
endfacet
facet normal -0.25881904510252135 -0.9659258262890681 0.0
  outer loop
    vertex -0.8282209443280688 -3.0909626441250184 6.0
    vertex -1.6000000000000016 -2.7712812921102032 0.0
    vertex -0.8282209443280688 -3.0909626441250184 0.0
  endloop
endfacet
facet normal -0.5000000000000004 -0.8660254037844384 0.0
  outer loop
    vertex -1.6000000000000016 -2.7712812921102032 0.0
    vertex -0.8282209443280688 -3.0909626441250184 6.0
    vertex -1.6000000000000016 -2.7712812921102032 6.0
  endloop
endfacet
facet normal -0.5000000000000004 -0.8660254037844384 0.0
  outer loop
    vertex -1.6000000000000016 -2.7712812921102032 6.0
    vertex -2.262741699796954 -2.262741699796951 0.0
    vertex -1.6000000000000016 -2.7712812921102032 0.0
  endloop
endfacet
facet normal -0.7071067811865479 -0.7071067811865471 0.0
  outer loop
    vertex -2.262741699796954 -2.262741699796951 0.0
    vertex -1.6000000000000016 -2.7712812921102032 6.0
    vertex -2.262741699796954 -2.262741699796951 6.0
  endloop
endfacet
facet normal -0.8660254037844389 -0.4999999999999997 0.0
  outer loop
    vertex -2.7712812921102046 -1.5999999999999996 6.0
    vertex -2.262741699796954 -2.262741699796951 0.0
    vertex -2.262741699796954 -2.262741699796951 6.0
  endloop
endfacet
facet normal -0.7071067811865479 -0.7071067811865471 0.0
  outer loop
    vertex -2.262741699796954 -2.262741699796951 0.0
    vertex -2.7712812921102046 -1.5999999999999996 6.0
    vertex -2.7712812921102046 -1.5999999999999996 0.0
  endloop
endfacet
facet normal -0.9659258262890684 -0.25881904510252046 0.0
  outer loop
    vertex -3.0909626441250193 -0.8282209443280653 6.0
    vertex -2.7712812921102046 -1.5999999999999996 0.0
    vertex -2.7712812921102046 -1.5999999999999996 6.0
  endloop
endfacet
facet normal -0.8660254037844389 -0.4999999999999997 0.0
  outer loop
    vertex -2.7712812921102046 -1.5999999999999996 0.0
    vertex -3.0909626441250193 -0.8282209443280653 6.0
    vertex -3.0909626441250193 -0.8282209443280653 0.0
  endloop
endfacet
facet normal -1.0 3.029777364519948e-16 0.0
  outer loop
    vertex -3.2000000000000006 3.918869757271531e-16 6.0
    vertex -3.0909626441250193 -0.8282209443280653 0.0
    vertex -3.0909626441250193 -0.8282209443280653 6.0
  endloop
endfacet
facet normal -0.9659258262890684 -0.25881904510252046 0.0
  outer loop
    vertex -3.0909626441250193 -0.8282209443280653 0.0
    vertex -3.2000000000000006 3.918869757271531e-16 6.0
    vertex -3.2000000000000006 3.918869757271531e-16 0.0
  endloop
endfacet
facet normal -0.9659258262890682 0.258819045102521 0.0
  outer loop
    vertex -3.090962644125019 0.8282209443280674 6.0
    vertex -3.2000000000000006 3.918869757271531e-16 0.0
    vertex -3.2000000000000006 3.918869757271531e-16 6.0
  endloop
endfacet
facet normal -1.0 3.029777364519948e-16 0.0
  outer loop
    vertex -3.2000000000000006 3.918869757271531e-16 0.0
    vertex -3.090962644125019 0.8282209443280674 6.0
    vertex -3.090962644125019 0.8282209443280674 0.0
  endloop
endfacet
facet normal -0.8660254037844386 0.5000000000000001 0.0
  outer loop
    vertex -2.7712812921102032 1.6000000000000012 6.0
    vertex -3.090962644125019 0.8282209443280674 0.0
    vertex -3.090962644125019 0.8282209443280674 6.0
  endloop
endfacet
facet normal -0.9659258262890682 0.258819045102521 0.0
  outer loop
    vertex -3.090962644125019 0.8282209443280674 0.0
    vertex -2.7712812921102032 1.6000000000000012 6.0
    vertex -2.7712812921102032 1.6000000000000012 0.0
  endloop
endfacet
facet normal -0.7071067811865475 0.7071067811865477 0.0
  outer loop
    vertex -2.2627416997969525 2.2627416997969525 6.0
    vertex -2.7712812921102032 1.6000000000000012 0.0
    vertex -2.7712812921102032 1.6000000000000012 6.0
  endloop
endfacet
facet normal -0.8660254037844386 0.5000000000000001 0.0
  outer loop
    vertex -2.7712812921102032 1.6000000000000012 0.0
    vertex -2.2627416997969525 2.2627416997969525 6.0
    vertex -2.2627416997969525 2.2627416997969525 0.0
  endloop
endfacet
facet normal -0.7071067811865475 0.7071067811865477 0.0
  outer loop
    vertex -2.2627416997969525 2.2627416997969525 6.0
    vertex -1.5999999999999996 2.7712812921102046 0.0
    vertex -2.2627416997969525 2.2627416997969525 0.0
  endloop
endfacet
facet normal -0.4999999999999997 0.8660254037844388 0.0
  outer loop
    vertex -1.5999999999999996 2.7712812921102046 0.0
    vertex -2.2627416997969525 2.2627416997969525 6.0
    vertex -1.5999999999999996 2.7712812921102046 6.0
  endloop
endfacet
facet normal -0.4999999999999997 0.8660254037844388 0.0
  outer loop
    vertex -1.5999999999999996 2.7712812921102046 6.0
    vertex -0.8282209443280661 3.090962644125019 0.0
    vertex -1.5999999999999996 2.7712812921102046 0.0
  endloop
endfacet
facet normal -0.2588190451025206 0.9659258262890682 0.0
  outer loop
    vertex -0.8282209443280661 3.090962644125019 0.0
    vertex -1.5999999999999996 2.7712812921102046 6.0
    vertex -0.8282209443280661 3.090962644125019 6.0
  endloop
endfacet
facet normal -0.2588190451025206 0.9659258262890682 0.0
  outer loop
    vertex -0.8282209443280661 3.090962644125019 6.0
    vertex 1.9594348786357655e-16 3.2000000000000006 0.0
    vertex -0.8282209443280661 3.090962644125019 0.0
  endloop
endfacet
facet normal 1.514888682259974e-16 1.0 0.0
  outer loop
    vertex 1.9594348786357655e-16 3.2000000000000006 0.0
    vertex -0.8282209443280661 3.090962644125019 6.0
    vertex 1.9594348786357655e-16 3.2000000000000006 6.0
  endloop
endfacet
facet normal 1.514888682259974e-16 1.0 0.0
  outer loop
    vertex 1.9594348786357655e-16 3.2000000000000006 6.0
    vertex 0.8282209443280671 3.090962644125019 0.0
    vertex 1.9594348786357655e-16 3.2000000000000006 0.0
  endloop
endfacet
facet normal 0.2588190451025209 0.9659258262890682 0.0
  outer loop
    vertex 0.8282209443280671 3.090962644125019 0.0
    vertex 1.9594348786357655e-16 3.2000000000000006 6.0
    vertex 0.8282209443280671 3.090962644125019 6.0
  endloop
endfacet
facet normal 0.2588190451025209 0.9659258262890682 0.0
  outer loop
    vertex 0.8282209443280671 3.090962644125019 6.0
    vertex 1.6000000000000005 2.7712812921102037 0.0
    vertex 0.8282209443280671 3.090962644125019 0.0
  endloop
endfacet
facet normal 0.49999999999999994 0.8660254037844387 0.0
  outer loop
    vertex 1.6000000000000005 2.7712812921102037 0.0
    vertex 0.8282209443280671 3.090962644125019 6.0
    vertex 1.6000000000000005 2.7712812921102037 6.0
  endloop
endfacet
facet normal 0.49999999999999994 0.8660254037844387 0.0
  outer loop
    vertex 1.6000000000000005 2.7712812921102037 6.0
    vertex 2.2627416997969525 2.2627416997969525 0.0
    vertex 1.6000000000000005 2.7712812921102037 0.0
  endloop
endfacet
facet normal 0.7071067811865476 0.7071067811865475 0.0
  outer loop
    vertex 2.2627416997969525 2.2627416997969525 0.0
    vertex 1.6000000000000005 2.7712812921102037 6.0
    vertex 2.2627416997969525 2.2627416997969525 6.0
  endloop
endfacet
facet normal 0.7071067811865476 0.7071067811865475 0.0
  outer loop
    vertex 2.2627416997969525 2.2627416997969525 0.0
    vertex 2.771281292110204 1.5999999999999999 6.0
    vertex 2.771281292110204 1.5999999999999999 0.0
  endloop
endfacet
facet normal 0.8660254037844387 0.4999999999999999 0.0
  outer loop
    vertex 2.771281292110204 1.5999999999999999 6.0
    vertex 2.2627416997969525 2.2627416997969525 0.0
    vertex 2.2627416997969525 2.2627416997969525 6.0
  endloop
endfacet
facet normal 0.8660254037844387 0.4999999999999999 0.0
  outer loop
    vertex 2.771281292110204 1.5999999999999999 0.0
    vertex 3.090962644125019 0.8282209443280665 6.0
    vertex 3.090962644125019 0.8282209443280665 0.0
  endloop
endfacet
facet normal 0.9659258262890682 0.2588190451025208 0.0
  outer loop
    vertex 3.090962644125019 0.8282209443280665 6.0
    vertex 2.771281292110204 1.5999999999999999 0.0
    vertex 2.771281292110204 1.5999999999999999 6.0
  endloop
endfacet
facet normal 0.9659258262890682 0.2588190451025208 0.0
  outer loop
    vertex 3.090962644125019 0.8282209443280665 0.0
    vertex 3.2000000000000006 0.0 6.0
    vertex 3.2000000000000006 0.0 0.0
  endloop
endfacet
facet normal 1.0 -2.0495552759987884e-16 0.0
  outer loop
    vertex 3.2000000000000006 0.0 6.0
    vertex 3.090962644125019 0.8282209443280665 0.0
    vertex 3.090962644125019 0.8282209443280665 6.0
  endloop
endfacet
facet normal 1.0 -2.0495552759987884e-16 0.0
  outer loop
    vertex 3.2000000000000006 0.0 0.0
    vertex 3.0909626441250184 -0.8282209443280689 6.0
    vertex 3.0909626441250184 -0.8282209443280689 0.0
  endloop
endfacet
facet normal 0.9659258262890681 -0.25881904510252135 0.0
  outer loop
    vertex 3.0909626441250184 -0.8282209443280689 6.0
    vertex 3.2000000000000006 0.0 0.0
    vertex 3.2000000000000006 0.0 6.0
  endloop
endfacet
facet normal 0.9659258262890681 -0.25881904510252135 0.0
  outer loop
    vertex 3.0909626441250184 -0.8282209443280689 0.0
    vertex 2.7712812921102032 -1.6000000000000016 6.0
    vertex 2.7712812921102032 -1.6000000000000016 0.0
  endloop
endfacet
facet normal 0.8660254037844386 -0.5000000000000001 0.0
  outer loop
    vertex 2.7712812921102032 -1.6000000000000016 6.0
    vertex 3.0909626441250184 -0.8282209443280689 0.0
    vertex 3.0909626441250184 -0.8282209443280689 6.0
  endloop
endfacet
facet normal 0.8660254037844386 -0.5000000000000001 0.0
  outer loop
    vertex 2.7712812921102032 -1.6000000000000016 0.0
    vertex 2.2627416997969525 -2.262741699796953 6.0
    vertex 2.2627416997969525 -2.262741699796953 0.0
  endloop
endfacet
facet normal 0.7071067811865471 -0.7071067811865478 0.0
  outer loop
    vertex 2.2627416997969525 -2.262741699796953 6.0
    vertex 2.7712812921102032 -1.6000000000000016 0.0
    vertex 2.7712812921102032 -1.6000000000000016 6.0
  endloop
endfacet
facet normal 0.7071067811865471 -0.7071067811865478 0.0
  outer loop
    vertex 2.2627416997969525 -2.262741699796953 6.0
    vertex 1.5999999999999979 -2.771281292110205 0.0
    vertex 2.2627416997969525 -2.262741699796953 0.0
  endloop
endfacet
facet normal 0.49999999999999933 -0.8660254037844392 0.0
  outer loop
    vertex 1.5999999999999979 -2.771281292110205 0.0
    vertex 2.2627416997969525 -2.262741699796953 6.0
    vertex 1.5999999999999979 -2.771281292110205 6.0
  endloop
endfacet
facet normal 0.49999999999999933 -0.8660254037844392 0.0
  outer loop
    vertex 1.5999999999999979 -2.771281292110205 6.0
    vertex 0.828220944328065 -3.0909626441250193 0.0
    vertex 1.5999999999999979 -2.771281292110205 0.0
  endloop
endfacet
facet normal 0.25881904510252046 -0.9659258262890684 0.0
  outer loop
    vertex 0.828220944328065 -3.0909626441250193 0.0
    vertex 1.5999999999999979 -2.771281292110205 6.0
    vertex 0.828220944328065 -3.0909626441250193 6.0
  endloop
endfacet
facet normal 0.25881904510252046 -0.9659258262890684 0.0
  outer loop
    vertex 0.828220944328065 -3.0909626441250193 6.0
    vertex -5.878304635907295e-16 -3.2000000000000006 0.0
    vertex 0.828220944328065 -3.0909626441250193 0.0
  endloop
endfacet
facet normal -4.0099994530411073e-16 -1.0 0.0
  outer loop
    vertex -5.878304635907295e-16 -3.2000000000000006 0.0
    vertex 0.828220944328065 -3.0909626441250193 6.0
    vertex -5.878304635907295e-16 -3.2000000000000006 6.0
  endloop
endfacet
facet normal -4.0099994530411073e-16 -1.0 0.0
  outer loop
    vertex -5.878304635907295e-16 -3.2000000000000006 6.0
    vertex -0.8282209443280688 -3.0909626441250184 0.0
    vertex -5.878304635907295e-16 -3.2000000000000006 0.0
  endloop
endfacet
facet normal -0.25881904510252135 -0.9659258262890681 0.0
  outer loop
    vertex -0.8282209443280688 -3.0909626441250184 0.0
    vertex -5.878304635907295e-16 -3.2000000000000006 6.0
    vertex -0.8282209443280688 -3.0909626441250184 6.0
  endloop
endfacet
facet normal -0.5 -0.8660254037844387 0.0
  outer loop
    vertex 0.9000000000000001 1.5588457268119895 6.0
    vertex 0.46587428118453766 1.7386664873203226 0.0
    vertex 0.9000000000000001 1.5588457268119895 0.0
  endloop
endfacet
facet normal -0.25881904510252074 -0.9659258262890682 0.0
  outer loop
    vertex 0.46587428118453766 1.7386664873203226 0.0
    vertex 0.9000000000000001 1.5588457268119895 6.0
    vertex 0.46587428118453766 1.7386664873203226 6.0
  endloop
endfacet
facet normal -0.25881904510252074 -0.9659258262890682 0.0
  outer loop
    vertex 0.46587428118453766 1.7386664873203226 6.0
    vertex 1.1021821192326178e-16 1.7999999999999998 0.0
    vertex 0.46587428118453766 1.7386664873203226 0.0
  endloop
endfacet
facet normal -3.2079995624328853e-16 -1.0 0.0
  outer loop
    vertex 1.1021821192326178e-16 1.7999999999999998 0.0
    vertex 0.46587428118453766 1.7386664873203226 6.0
    vertex 1.1021821192326178e-16 1.7999999999999998 6.0
  endloop
endfacet
facet normal -3.2079995624328853e-16 -1.0 0.0
  outer loop
    vertex 1.1021821192326178e-16 1.7999999999999998 6.0
    vertex -0.46587428118453716 1.738666487320323 0.0
    vertex 1.1021821192326178e-16 1.7999999999999998 0.0
  endloop
endfacet
facet normal 0.2588190451025205 -0.9659258262890683 0.0
  outer loop
    vertex -0.46587428118453716 1.738666487320323 0.0
    vertex 1.1021821192326178e-16 1.7999999999999998 6.0
    vertex -0.46587428118453716 1.738666487320323 6.0
  endloop
endfacet
facet normal 0.2588190451025205 -0.9659258262890683 0.0
  outer loop
    vertex -0.46587428118453716 1.738666487320323 6.0
    vertex -0.8999999999999996 1.5588457268119897 0.0
    vertex -0.46587428118453716 1.738666487320323 0.0
  endloop
endfacet
facet normal 0.4999999999999999 -0.8660254037844387 0.0
  outer loop
    vertex -0.8999999999999996 1.5588457268119897 0.0
    vertex -0.46587428118453716 1.738666487320323 6.0
    vertex -0.8999999999999996 1.5588457268119897 6.0
  endloop
endfacet
facet normal 0.4999999999999999 -0.8660254037844387 0.0
  outer loop
    vertex -0.8999999999999996 1.5588457268119897 6.0
    vertex -1.2727922061357853 1.2727922061357857 0.0
    vertex -0.8999999999999996 1.5588457268119897 0.0
  endloop
endfacet
facet normal 0.7071067811865475 -0.7071067811865476 0.0
  outer loop
    vertex -1.2727922061357853 1.2727922061357857 0.0
    vertex -0.8999999999999996 1.5588457268119897 6.0
    vertex -1.2727922061357853 1.2727922061357857 6.0
  endloop
endfacet
facet normal 0.7071067811865475 -0.7071067811865476 0.0
  outer loop
    vertex -1.2727922061357853 1.2727922061357857 0.0
    vertex -1.5588457268119893 0.9000000000000005 6.0
    vertex -1.5588457268119893 0.9000000000000005 0.0
  endloop
endfacet
facet normal 0.8660254037844386 -0.5 0.0
  outer loop
    vertex -1.5588457268119893 0.9000000000000005 6.0
    vertex -1.2727922061357853 1.2727922061357857 0.0
    vertex -1.2727922061357853 1.2727922061357857 6.0
  endloop
endfacet
facet normal 0.8660254037844386 -0.5 0.0
  outer loop
    vertex -1.5588457268119893 0.9000000000000005 0.0
    vertex -1.7386664873203226 0.4658742811845378 6.0
    vertex -1.7386664873203226 0.4658742811845378 0.0
  endloop
endfacet
facet normal 0.9659258262890682 -0.25881904510252085 0.0
  outer loop
    vertex -1.7386664873203226 0.4658742811845378 6.0
    vertex -1.5588457268119893 0.9000000000000005 0.0
    vertex -1.5588457268119893 0.9000000000000005 6.0
  endloop
endfacet
facet normal 0.9659258262890682 -0.25881904510252085 0.0
  outer loop
    vertex -1.7386664873203226 0.4658742811845378 0.0
    vertex -1.7999999999999998 2.2043642384652356e-16 6.0
    vertex -1.7999999999999998 2.2043642384652356e-16 0.0
  endloop
endfacet
facet normal 1.0 -2.7624440676505406e-16 0.0
  outer loop
    vertex -1.7999999999999998 2.2043642384652356e-16 6.0
    vertex -1.7386664873203226 0.4658742811845378 0.0
    vertex -1.7386664873203226 0.4658742811845378 6.0
  endloop
endfacet
facet normal 1.0 -2.7624440676505406e-16 0.0
  outer loop
    vertex -1.7999999999999998 2.2043642384652356e-16 0.0
    vertex -1.738666487320323 -0.4658742811845366 6.0
    vertex -1.738666487320323 -0.4658742811845366 0.0
  endloop
endfacet
facet normal 0.9659258262890683 0.25881904510252035 0.0
  outer loop
    vertex -1.738666487320323 -0.4658742811845366 6.0
    vertex -1.7999999999999998 2.2043642384652356e-16 0.0
    vertex -1.7999999999999998 2.2043642384652356e-16 6.0
  endloop
endfacet
facet normal 0.9659258262890683 0.25881904510252035 0.0
  outer loop
    vertex -1.738666487320323 -0.4658742811845366 0.0
    vertex -1.5588457268119897 -0.8999999999999996 6.0
    vertex -1.5588457268119897 -0.8999999999999996 0.0
  endloop
endfacet
facet normal 0.8660254037844389 0.49999999999999967 0.0
  outer loop
    vertex -1.5588457268119897 -0.8999999999999996 6.0
    vertex -1.738666487320323 -0.4658742811845366 0.0
    vertex -1.738666487320323 -0.4658742811845366 6.0
  endloop
endfacet
facet normal 0.8660254037844389 0.49999999999999967 0.0
  outer loop
    vertex -1.5588457268119897 -0.8999999999999996 0.0
    vertex -1.2727922061357861 -1.2727922061357848 6.0
    vertex -1.2727922061357861 -1.2727922061357848 0.0
  endloop
endfacet
facet normal 0.7071067811865478 0.7071067811865472 0.0
  outer loop
    vertex -1.2727922061357861 -1.2727922061357848 6.0
    vertex -1.5588457268119897 -0.8999999999999996 0.0
    vertex -1.5588457268119897 -0.8999999999999996 6.0
  endloop
endfacet
facet normal 0.7071067811865478 0.7071067811865472 0.0
  outer loop
    vertex -1.2727922061357861 -1.2727922061357848 6.0
    vertex -0.9000000000000008 -1.5588457268119889 0.0
    vertex -1.2727922061357861 -1.2727922061357848 0.0
  endloop
endfacet
facet normal 0.5000000000000007 0.8660254037844383 0.0
  outer loop
    vertex -0.9000000000000008 -1.5588457268119889 0.0
    vertex -1.2727922061357861 -1.2727922061357848 6.0
    vertex -0.9000000000000008 -1.5588457268119889 6.0
  endloop
endfacet
facet normal 0.5000000000000007 0.8660254037844383 0.0
  outer loop
    vertex -0.9000000000000008 -1.5588457268119889 6.0
    vertex -0.46587428118453866 -1.7386664873203226 0.0
    vertex -0.9000000000000008 -1.5588457268119889 0.0
  endloop
endfacet
facet normal 0.25881904510252135 0.9659258262890682 0.0
  outer loop
    vertex -0.46587428118453866 -1.7386664873203226 0.0
    vertex -0.9000000000000008 -1.5588457268119889 6.0
    vertex -0.46587428118453866 -1.7386664873203226 6.0
  endloop
endfacet
facet normal 0.25881904510252135 0.9659258262890682 0.0
  outer loop
    vertex -0.46587428118453866 -1.7386664873203226 6.0
    vertex -3.306546357697853e-16 -1.7999999999999998 0.0
    vertex -0.46587428118453866 -1.7386664873203226 0.0
  endloop
endfacet
facet normal 1.7822219791293813e-16 1.0 0.0
  outer loop
    vertex -3.306546357697853e-16 -1.7999999999999998 0.0
    vertex -0.46587428118453866 -1.7386664873203226 6.0
    vertex -3.306546357697853e-16 -1.7999999999999998 6.0
  endloop
endfacet
facet normal 1.7822219791293813e-16 1.0 0.0
  outer loop
    vertex -3.306546357697853e-16 -1.7999999999999998 6.0
    vertex 0.4658742811845365 -1.738666487320323 0.0
    vertex -3.306546357697853e-16 -1.7999999999999998 0.0
  endloop
endfacet
facet normal -0.25881904510252035 0.9659258262890685 0.0
  outer loop
    vertex 0.4658742811845365 -1.738666487320323 0.0
    vertex -3.306546357697853e-16 -1.7999999999999998 6.0
    vertex 0.4658742811845365 -1.738666487320323 6.0
  endloop
endfacet
facet normal -0.25881904510252035 0.9659258262890685 0.0
  outer loop
    vertex 0.4658742811845365 -1.738666487320323 6.0
    vertex 0.8999999999999987 -1.5588457268119902 0.0
    vertex 0.4658742811845365 -1.738666487320323 0.0
  endloop
endfacet
facet normal -0.49999999999999944 0.866025403784439 0.0
  outer loop
    vertex 0.8999999999999987 -1.5588457268119902 0.0
    vertex 0.4658742811845365 -1.738666487320323 6.0
    vertex 0.8999999999999987 -1.5588457268119902 6.0
  endloop
endfacet
facet normal -0.49999999999999944 0.866025403784439 0.0
  outer loop
    vertex 0.8999999999999987 -1.5588457268119902 6.0
    vertex 1.2727922061357853 -1.2727922061357857 0.0
    vertex 0.8999999999999987 -1.5588457268119902 0.0
  endloop
endfacet
facet normal -0.7071067811865472 0.7071067811865478 0.0
  outer loop
    vertex 1.2727922061357853 -1.2727922061357857 0.0
    vertex 0.8999999999999987 -1.5588457268119902 6.0
    vertex 1.2727922061357853 -1.2727922061357857 6.0
  endloop
endfacet
facet normal -0.8660254037844383 0.5000000000000006 0.0
  outer loop
    vertex 1.5588457268119889 -0.9000000000000008 6.0
    vertex 1.2727922061357853 -1.2727922061357857 0.0
    vertex 1.2727922061357853 -1.2727922061357857 6.0
  endloop
endfacet
facet normal -0.7071067811865472 0.7071067811865478 0.0
  outer loop
    vertex 1.2727922061357853 -1.2727922061357857 0.0
    vertex 1.5588457268119889 -0.9000000000000008 6.0
    vertex 1.5588457268119889 -0.9000000000000008 0.0
  endloop
endfacet
facet normal -0.9659258262890681 0.25881904510252135 0.0
  outer loop
    vertex 1.7386664873203226 -0.4658742811845387 6.0
    vertex 1.5588457268119889 -0.9000000000000008 0.0
    vertex 1.5588457268119889 -0.9000000000000008 6.0
  endloop
endfacet
facet normal -0.8660254037844383 0.5000000000000006 0.0
  outer loop
    vertex 1.5588457268119889 -0.9000000000000008 0.0
    vertex 1.7386664873203226 -0.4658742811845387 6.0
    vertex 1.7386664873203226 -0.4658742811845387 0.0
  endloop
endfacet
facet normal -1.0 1.6931108801729119e-16 0.0
  outer loop
    vertex 1.7999999999999998 0.0 6.0
    vertex 1.7386664873203226 -0.4658742811845387 0.0
    vertex 1.7386664873203226 -0.4658742811845387 6.0
  endloop
endfacet
facet normal -0.9659258262890681 0.25881904510252135 0.0
  outer loop
    vertex 1.7386664873203226 -0.4658742811845387 0.0
    vertex 1.7999999999999998 0.0 6.0
    vertex 1.7999999999999998 0.0 0.0
  endloop
endfacet
facet normal -0.9659258262890682 -0.25881904510252063 0.0
  outer loop
    vertex 1.738666487320323 0.46587428118453733 6.0
    vertex 1.7999999999999998 0.0 0.0
    vertex 1.7999999999999998 0.0 6.0
  endloop
endfacet
facet normal -1.0 1.6931108801729119e-16 0.0
  outer loop
    vertex 1.7999999999999998 0.0 0.0
    vertex 1.738666487320323 0.46587428118453733 6.0
    vertex 1.738666487320323 0.46587428118453733 0.0
  endloop
endfacet
facet normal -0.8660254037844386 -0.5 0.0
  outer loop
    vertex 1.5588457268119895 0.8999999999999998 6.0
    vertex 1.738666487320323 0.46587428118453733 0.0
    vertex 1.738666487320323 0.46587428118453733 6.0
  endloop
endfacet
facet normal -0.9659258262890682 -0.25881904510252063 0.0
  outer loop
    vertex 1.738666487320323 0.46587428118453733 0.0
    vertex 1.5588457268119895 0.8999999999999998 6.0
    vertex 1.5588457268119895 0.8999999999999998 0.0
  endloop
endfacet
facet normal -0.7071067811865477 -0.7071067811865475 0.0
  outer loop
    vertex 1.2727922061357857 1.2727922061357853 6.0
    vertex 1.5588457268119895 0.8999999999999998 0.0
    vertex 1.5588457268119895 0.8999999999999998 6.0
  endloop
endfacet
facet normal -0.8660254037844386 -0.5 0.0
  outer loop
    vertex 1.5588457268119895 0.8999999999999998 0.0
    vertex 1.2727922061357857 1.2727922061357853 6.0
    vertex 1.2727922061357857 1.2727922061357853 0.0
  endloop
endfacet
facet normal -0.7071067811865477 -0.7071067811865475 0.0
  outer loop
    vertex 1.2727922061357857 1.2727922061357853 6.0
    vertex 0.9000000000000001 1.5588457268119895 0.0
    vertex 1.2727922061357857 1.2727922061357853 0.0
  endloop
endfacet
facet normal -0.5 -0.8660254037844387 0.0
  outer loop
    vertex 0.9000000000000001 1.5588457268119895 0.0
    vertex 1.2727922061357857 1.2727922061357853 6.0
    vertex 0.9000000000000001 1.5588457268119895 6.0
  endloop
endfacet
endsolid FrameMount-6mmStandoff
