solid FrameMount-AxisSwitcher-Rounded
facet normal 0.0 0.0 -1.0
  outer loop
    vertex 1.3000000000000003 45.0 0.0
    vertex 5.857926095308584 40.43999237667428 0.0
    vertex 5.800000000000001 40.0 0.0
  endloop
endfacet
facet normal 0.0 0.0 -1.0
  outer loop
    vertex 5.857926095308584 40.43999237667428 0.0
    vertex 1.3000000000000003 45.0 0.0
    vertex 6.027756813566455 40.85 0.0
  endloop
endfacet
facet normal 0.0 0.0 -1.0
  outer loop
    vertex 6.027756813566455 40.85 0.0
    vertex 1.3000000000000003 45.0 0.0
    vertex 6.297918471982871 41.20208152801713 0.0
  endloop
endfacet
facet normal 0.0 0.0 -1.0
  outer loop
    vertex 6.297918471982871 41.20208152801713 0.0
    vertex 1.3000000000000003 45.0 0.0
    vertex 6.65 41.472243186433545 0.0
  endloop
endfacet
facet normal 0.0 0.0 -1.0
  outer loop
    vertex 6.65 41.472243186433545 0.0
    vertex 1.3000000000000003 45.0 0.0
    vertex 13.700000000000001 45.0 0.0
  endloop
endfacet
facet normal 0.0 0.0 -1.0
  outer loop
    vertex 6.65 41.472243186433545 0.0
    vertex 13.700000000000001 45.0 0.0
    vertex 7.060007623325715 41.642073904691415 0.0
  endloop
endfacet
facet normal 0.0 0.0 -1.0
  outer loop
    vertex 7.060007623325715 41.642073904691415 0.0
    vertex 13.700000000000001 45.0 0.0
    vertex 7.5 41.7 0.0
  endloop
endfacet
facet normal 0.0 0.0 -1.0
  outer loop
    vertex 7.5 41.7 0.0
    vertex 13.700000000000001 45.0 0.0
    vertex 7.939992376674286 41.642073904691415 0.0
  endloop
endfacet
facet normal 0.0 0.0 -1.0
  outer loop
    vertex 7.939992376674286 41.642073904691415 0.0
    vertex 13.700000000000001 45.0 0.0
    vertex 8.350000000000001 41.472243186433545 0.0
  endloop
endfacet
facet normal 0.0 0.0 -1.0
  outer loop
    vertex 8.350000000000001 41.472243186433545 0.0
    vertex 13.700000000000001 45.0 0.0
    vertex 8.702081528017132 41.20208152801713 0.0
  endloop
endfacet
facet normal 0.0 0.0 -1.0
  outer loop
    vertex 8.702081528017132 41.20208152801713 0.0
    vertex 13.700000000000001 45.0 0.0
    vertex 8.972243186433547 40.85 0.0
  endloop
endfacet
facet normal 0.0 0.0 -1.0
  outer loop
    vertex 8.972243186433547 40.85 0.0
    vertex 13.700000000000001 45.0 0.0
    vertex 9.142073904691417 40.43999237667428 0.0
  endloop
endfacet
facet normal 0.0 0.0 -1.0
  outer loop
    vertex 9.142073904691417 40.43999237667428 0.0
    vertex 13.700000000000001 45.0 0.0
    vertex 9.2 40.0 0.0
  endloop
endfacet
facet normal 0.0 0.0 -1.0
  outer loop
    vertex 0.06362652881630039 44.10172209268743 0.0
    vertex 0.0 0.0 0.0
    vertex 0.0 43.7 0.0
  endloop
endfacet
facet normal 0.0 0.0 -1.0
  outer loop
    vertex 0.0 0.0 0.0
    vertex 0.06362652881630039 44.10172209268743 0.0
    vertex 15.0 0.0 0.0
  endloop
endfacet
facet normal 0.0 0.0 -1.0
  outer loop
    vertex 15.0 0.0 0.0
    vertex 0.06362652881630039 44.10172209268743 0.0
    vertex 0.2482779073125683 44.46412082798022 0.0
  endloop
endfacet
facet normal 0.0 0.0 -1.0
  outer loop
    vertex 15.0 0.0 0.0
    vertex 0.2482779073125683 44.46412082798022 0.0
    vertex 0.5358791720197849 44.75172209268743 0.0
  endloop
endfacet
facet normal 0.0 0.0 -1.0
  outer loop
    vertex 15.0 0.0 0.0
    vertex 0.5358791720197849 44.75172209268743 0.0
    vertex 0.8982779073125685 44.9363734711837 0.0
  endloop
endfacet
facet normal 0.0 0.0 -1.0
  outer loop
    vertex 15.0 0.0 0.0
    vertex 0.8982779073125685 44.9363734711837 0.0
    vertex 1.3000000000000003 45.0 0.0
  endloop
endfacet
facet normal 0.0 0.0 -1.0
  outer loop
    vertex 15.0 0.0 0.0
    vertex 1.3000000000000003 45.0 0.0
    vertex 5.857926095308584 39.56000762332572 0.0
  endloop
endfacet
facet normal 0.0 0.0 -1.0
  outer loop
    vertex 5.857926095308584 39.56000762332572 0.0
    vertex 1.3000000000000003 45.0 0.0
    vertex 5.800000000000001 40.0 0.0
  endloop
endfacet
facet normal 0.0 0.0 -1.0
  outer loop
    vertex 15.0 0.0 0.0
    vertex 5.857926095308584 39.56000762332572 0.0
    vertex 6.027756813566454 39.15 0.0
  endloop
endfacet
facet normal 0.0 0.0 -1.0
  outer loop
    vertex 15.0 0.0 0.0
    vertex 6.027756813566454 39.15 0.0
    vertex 6.297918471982869 38.79791847198287 0.0
  endloop
endfacet
facet normal 0.0 0.0 -1.0
  outer loop
    vertex 15.0 0.0 0.0
    vertex 6.297918471982869 38.79791847198287 0.0
    vertex 6.6499999999999995 38.527756813566455 0.0
  endloop
endfacet
facet normal 0.0 0.0 -1.0
  outer loop
    vertex 15.0 0.0 0.0
    vertex 6.6499999999999995 38.527756813566455 0.0
    vertex 7.060007623325713 38.357926095308585 0.0
  endloop
endfacet
facet normal 0.0 0.0 -1.0
  outer loop
    vertex 15.0 0.0 0.0
    vertex 7.060007623325713 38.357926095308585 0.0
    vertex 7.5 38.3 0.0
  endloop
endfacet
facet normal 0.0 0.0 -1.0
  outer loop
    vertex 15.0 0.0 0.0
    vertex 7.5 38.3 0.0
    vertex 7.939992376674286 38.357926095308585 0.0
  endloop
endfacet
facet normal 0.0 0.0 -1.0
  outer loop
    vertex 15.0 0.0 0.0
    vertex 7.939992376674286 38.357926095308585 0.0
    vertex 8.35 38.527756813566455 0.0
  endloop
endfacet
facet normal 0.0 0.0 -1.0
  outer loop
    vertex 15.0 0.0 0.0
    vertex 8.35 38.527756813566455 0.0
    vertex 8.702081528017132 38.79791847198287 0.0
  endloop
endfacet
facet normal 0.0 0.0 -1.0
  outer loop
    vertex 15.0 0.0 0.0
    vertex 8.702081528017132 38.79791847198287 0.0
    vertex 8.972243186433547 39.15 0.0
  endloop
endfacet
facet normal 0.0 0.0 -1.0
  outer loop
    vertex 15.0 0.0 0.0
    vertex 8.972243186433547 39.15 0.0
    vertex 9.142073904691415 39.56000762332572 0.0
  endloop
endfacet
facet normal 0.0 0.0 -1.0
  outer loop
    vertex 15.0 0.0 0.0
    vertex 9.142073904691415 39.56000762332572 0.0
    vertex 9.2 40.0 0.0
  endloop
endfacet
facet normal 0.0 0.0 -1.0
  outer loop
    vertex 15.0 0.0 0.0
    vertex 9.2 40.0 0.0
    vertex 13.700000000000001 45.0 0.0
  endloop
endfacet
facet normal 0.0 0.0 -1.0
  outer loop
    vertex 15.0 0.0 0.0
    vertex 13.700000000000001 45.0 0.0
    vertex 14.101722092687433 44.9363734711837 0.0
  endloop
endfacet
facet normal 0.0 0.0 -1.0
  outer loop
    vertex 15.0 0.0 0.0
    vertex 14.101722092687433 44.9363734711837 0.0
    vertex 14.464120827980215 44.75172209268743 0.0
  endloop
endfacet
facet normal 0.0 0.0 -1.0
  outer loop
    vertex 15.0 0.0 0.0
    vertex 14.464120827980215 44.75172209268743 0.0
    vertex 14.751722092687432 44.46412082798022 0.0
  endloop
endfacet
facet normal 0.0 0.0 -1.0
  outer loop
    vertex 15.0 0.0 0.0
    vertex 14.751722092687432 44.46412082798022 0.0
    vertex 14.9363734711837 44.10172209268743 0.0
  endloop
endfacet
facet normal 0.0 0.0 -1.0
  outer loop
    vertex 15.0 0.0 0.0
    vertex 14.9363734711837 44.10172209268743 0.0
    vertex 15.0 43.7 0.0
  endloop
endfacet
facet normal 0.0 -1.0 0.0
  outer loop
    vertex 15.0 0.0 17.7
    vertex 0.0 0.0 0.0
    vertex 15.0 0.0 0.0
  endloop
endfacet
facet normal 0.0 -1.0 0.0
  outer loop
    vertex 0.0 0.0 0.0
    vertex 15.0 0.0 17.7
    vertex 8.614002878650767 0.022815999999997966 12.715866990394762
  endloop
endfacet
facet normal 0.0 -1.0 0.0
  outer loop
    vertex 0.0 0.0 0.0
    vertex 8.614002878650767 0.022815999999997966 12.715866990394762
    vertex 8.24368607171849 0.022815999999997966 12.471297600338142
  endloop
endfacet
facet normal 0.0 -1.0 0.0
  outer loop
    vertex 0.0 0.0 0.0
    vertex 8.24368607171849 0.022815999999997966 12.471297600338142
    vertex 7.82268828799794 0.022815999999997966 12.330906752518315
  endloop
endfacet
facet normal 0.0 -1.0 0.0
  outer loop
    vertex 0.0 0.0 0.0
    vertex 7.82268828799794 0.022815999999997966 12.330906752518315
    vertex 7.37969983071794 0.022815999999997966 12.304261851207354
  endloop
endfacet
facet normal 0.0 -1.0 0.0
  outer loop
    vertex 8.614002878650767 0.022815999999997966 12.715866990394762
    vertex 15.0 0.0 17.7
    vertex 8.908402230379798 0.022815999999997966 13.047947922925845
  endloop
endfacet
facet normal 0.0 -1.0 0.0
  outer loop
    vertex 8.908402230379798 0.022815999999997966 13.047947922925845
    vertex 15.0 0.0 17.7
    vertex 9.106821297603178 0.022815999999997966 13.44490963116908
  endloop
endfacet
facet normal 0.0 -1.0 0.0
  outer loop
    vertex 9.106821297603178 0.022815999999997966 13.44490963116908
    vertex 15.0 0.0 17.7
    vertex 9.195738148792646 0.022815999999997966 13.87969983071794
  endloop
endfacet
facet normal 0.0 -1.0 0.0
  outer loop
    vertex 9.195738148792646 0.022815999999997966 13.87969983071794
    vertex 15.0 0.0 17.7
    vertex 9.169093247481685 0.022815999999997966 14.322688287997938
  endloop
endfacet
facet normal 0.0 -1.0 0.0
  outer loop
    vertex 9.169093247481685 0.022815999999997966 14.322688287997938
    vertex 15.0 0.0 17.7
    vertex 9.028702399661858 0.022815999999997966 14.74368607171849
  endloop
endfacet
facet normal 0.0 -1.0 0.0
  outer loop
    vertex 9.028702399661858 0.022815999999997966 14.74368607171849
    vertex 15.0 0.0 17.7
    vertex 8.784133009605238 0.022815999999997966 15.114002878650766
  endloop
endfacet
facet normal 0.0 -1.0 0.0
  outer loop
    vertex 8.784133009605238 0.022815999999997966 15.114002878650766
    vertex 15.0 0.0 17.7
    vertex 8.452052077074157 0.022815999999997966 15.408402230379798
  endloop
endfacet
facet normal 0.0 -1.0 0.0
  outer loop
    vertex 8.452052077074157 0.022815999999997966 15.408402230379798
    vertex 15.0 0.0 17.7
    vertex 8.05509036883092 0.022815999999997966 15.606821297603176
  endloop
endfacet
facet normal 0.0 -1.0 0.0
  outer loop
    vertex 8.05509036883092 0.022815999999997966 15.606821297603176
    vertex 15.0 0.0 17.7
    vertex 7.620300169282062 0.022815999999997966 15.695738148792644
  endloop
endfacet
facet normal 0.0 -1.0 0.0
  outer loop
    vertex 0.0 0.0 0.0
    vertex 6.547947922925846 0.022815999999997966 12.591597769620202
    vertex 0.0 0.0 17.7
  endloop
endfacet
facet normal 0.0 -1.0 0.0
  outer loop
    vertex 6.547947922925846 0.022815999999997966 12.591597769620202
    vertex 0.0 0.0 0.0
    vertex 6.944909631169083 0.022815999999997966 12.393178702396822
  endloop
endfacet
facet normal 0.0 -1.0 0.0
  outer loop
    vertex 6.944909631169083 0.022815999999997966 12.393178702396822
    vertex 0.0 0.0 0.0
    vertex 7.37969983071794 0.022815999999997966 12.304261851207354
  endloop
endfacet
facet normal 0.0 -1.0 0.0
  outer loop
    vertex 0.0 0.0 17.7
    vertex 6.547947922925846 0.022815999999997966 12.591597769620202
    vertex 6.215866990394764 0.022815999999997966 12.885997121349233
  endloop
endfacet
facet normal 0.0 -1.0 0.0
  outer loop
    vertex 0.0 0.0 17.7
    vertex 6.215866990394764 0.022815999999997966 12.885997121349233
    vertex 5.971297600338143 0.022815999999997966 13.25631392828151
  endloop
endfacet
facet normal 0.0 -1.0 0.0
  outer loop
    vertex 0.0 0.0 17.7
    vertex 5.971297600338143 0.022815999999997966 13.25631392828151
    vertex 5.830906752518315 0.022815999999997966 13.67731171200206
  endloop
endfacet
facet normal 0.0 -1.0 0.0
  outer loop
    vertex 0.0 0.0 17.7
    vertex 5.830906752518315 0.022815999999997966 13.67731171200206
    vertex 5.804261851207355 0.022815999999997966 14.12030016928206
  endloop
endfacet
facet normal 0.0 -1.0 0.0
  outer loop
    vertex 0.0 0.0 17.7
    vertex 5.804261851207355 0.022815999999997966 14.12030016928206
    vertex 5.893178702396824 0.022815999999997966 14.555090368830916
  endloop
endfacet
facet normal 0.0 -1.0 0.0
  outer loop
    vertex 0.0 0.0 17.7
    vertex 5.893178702396824 0.022815999999997966 14.555090368830916
    vertex 6.091597769620204 0.022815999999997966 14.952052077074155
  endloop
endfacet
facet normal 0.0 -1.0 0.0
  outer loop
    vertex 0.0 0.0 17.7
    vertex 6.091597769620204 0.022815999999997966 14.952052077074155
    vertex 6.3859971213492335 0.022815999999997966 15.284133009605238
  endloop
endfacet
facet normal 0.0 -1.0 0.0
  outer loop
    vertex 0.0 0.0 17.7
    vertex 6.3859971213492335 0.022815999999997966 15.284133009605238
    vertex 6.756313928281511 0.022815999999997966 15.528702399661858
  endloop
endfacet
facet normal 0.0 -1.0 0.0
  outer loop
    vertex 0.0 0.0 17.7
    vertex 6.756313928281511 0.022815999999997966 15.528702399661858
    vertex 7.177311712002061 0.022815999999997966 15.669093247481685
  endloop
endfacet
facet normal 0.0 -1.0 0.0
  outer loop
    vertex 0.0 0.0 17.7
    vertex 7.177311712002061 0.022815999999997966 15.669093247481685
    vertex 7.620300169282062 0.022815999999997966 15.695738148792644
  endloop
endfacet
facet normal 0.0 -1.0 0.0
  outer loop
    vertex 0.0 0.0 17.7
    vertex 7.620300169282062 0.022815999999997966 15.695738148792644
    vertex 15.0 0.0 17.7
  endloop
endfacet
facet normal 0.0 -1.0 0.0
  outer loop
    vertex 0.0 0.0 17.7
    vertex 15.0 0.0 17.7
    vertex 14.9363734711837 0.0 18.10172209268743
  endloop
endfacet
facet normal 0.0 -1.0 0.0
  outer loop
    vertex 0.0 0.0 17.7
    vertex 14.9363734711837 0.0 18.10172209268743
    vertex 0.06362652881630039 0.0 18.10172209268743
  endloop
endfacet
facet normal 0.0 -1.0 0.0
  outer loop
    vertex 0.06362652881630039 0.0 18.10172209268743
    vertex 14.9363734711837 0.0 18.10172209268743
    vertex 14.751722092687432 0.0 18.464120827980214
  endloop
endfacet
facet normal 0.0 -1.0 0.0
  outer loop
    vertex 0.06362652881630039 0.0 18.10172209268743
    vertex 14.751722092687432 0.0 18.464120827980214
    vertex 0.2482779073125685 0.0 18.464120827980214
  endloop
endfacet
facet normal 0.0 -1.0 0.0
  outer loop
    vertex 0.2482779073125685 0.0 18.464120827980214
    vertex 14.751722092687432 0.0 18.464120827980214
    vertex 14.464120827980215 0.0 18.75172209268743
  endloop
endfacet
facet normal 0.0 -1.0 0.0
  outer loop
    vertex 0.2482779073125685 0.0 18.464120827980214
    vertex 14.464120827980215 0.0 18.75172209268743
    vertex 0.535879172019785 0.0 18.75172209268743
  endloop
endfacet
facet normal 0.0 -1.0 0.0
  outer loop
    vertex 0.535879172019785 0.0 18.75172209268743
    vertex 14.464120827980215 0.0 18.75172209268743
    vertex 14.101722092687433 0.0 18.9363734711837
  endloop
endfacet
facet normal 0.0 -1.0 0.0
  outer loop
    vertex 0.535879172019785 0.0 18.75172209268743
    vertex 14.101722092687433 0.0 18.9363734711837
    vertex 0.8982779073125685 0.0 18.9363734711837
  endloop
endfacet
facet normal 0.0 -1.0 0.0
  outer loop
    vertex 0.8982779073125685 0.0 18.9363734711837
    vertex 14.101722092687433 0.0 18.9363734711837
    vertex 13.700000000000001 0.0 19.0
  endloop
endfacet
facet normal 0.0 -1.0 0.0
  outer loop
    vertex 0.8982779073125685 0.0 18.9363734711837
    vertex 13.700000000000001 0.0 19.0
    vertex 1.3 0.0 19.0
  endloop
endfacet
facet normal 0.2588190451025218 0.9659258262890681 0.0
  outer loop
    vertex 7.060007623325713 38.357926095308585 3.9999999999999996
    vertex 7.5 38.3 0.0
    vertex 7.060007623325713 38.357926095308585 0.0
  endloop
endfacet
facet normal -2.1386663749552573e-16 1.0 0.0
  outer loop
    vertex 7.5 38.3 0.0
    vertex 7.060007623325713 38.357926095308585 3.9999999999999996
    vertex 7.5 38.3 3.9999999999999996
  endloop
endfacet
facet normal -2.1386663749552573e-16 1.0 0.0
  outer loop
    vertex 7.5 38.3 3.9999999999999996
    vertex 7.939992376674286 38.357926095308585 0.0
    vertex 7.5 38.3 0.0
  endloop
endfacet
facet normal -0.25881904510252196 0.9659258262890679 0.0
  outer loop
    vertex 7.939992376674286 38.357926095308585 0.0
    vertex 7.5 38.3 3.9999999999999996
    vertex 7.939992376674286 38.357926095308585 3.9999999999999996
  endloop
endfacet
facet normal -0.25881904510252196 0.9659258262890679 0.0
  outer loop
    vertex 7.939992376674286 38.357926095308585 3.9999999999999996
    vertex 8.35 38.527756813566455 0.0
    vertex 7.939992376674286 38.357926095308585 0.0
  endloop
endfacet
facet normal -0.49999999999999983 0.8660254037844388 0.0
  outer loop
    vertex 8.35 38.527756813566455 0.0
    vertex 7.939992376674286 38.357926095308585 3.9999999999999996
    vertex 8.35 38.527756813566455 3.9999999999999996
  endloop
endfacet
facet normal -0.49999999999999983 0.8660254037844388 0.0
  outer loop
    vertex 8.35 38.527756813566455 3.9999999999999996
    vertex 8.702081528017132 38.79791847198287 0.0
    vertex 8.35 38.527756813566455 0.0
  endloop
endfacet
facet normal -0.7071067811865488 0.7071067811865462 0.0
  outer loop
    vertex 8.702081528017132 38.79791847198287 0.0
    vertex 8.35 38.527756813566455 3.9999999999999996
    vertex 8.702081528017132 38.79791847198287 3.9999999999999996
  endloop
endfacet
facet normal -0.8660254037844402 0.49999999999999734 0.0
  outer loop
    vertex 8.972243186433547 39.15 3.9999999999999996
    vertex 8.702081528017132 38.79791847198287 0.0
    vertex 8.702081528017132 38.79791847198287 3.9999999999999996
  endloop
endfacet
facet normal -0.7071067811865488 0.7071067811865462 0.0
  outer loop
    vertex 8.702081528017132 38.79791847198287 0.0
    vertex 8.972243186433547 39.15 3.9999999999999996
    vertex 8.972243186433547 39.15 0.0
  endloop
endfacet
facet normal -0.9659258262890683 0.25881904510252113 0.0
  outer loop
    vertex 9.142073904691415 39.56000762332572 3.9999999999999996
    vertex 8.972243186433547 39.15 0.0
    vertex 8.972243186433547 39.15 3.9999999999999996
  endloop
endfacet
facet normal -0.8660254037844402 0.49999999999999734 0.0
  outer loop
    vertex 8.972243186433547 39.15 0.0
    vertex 9.142073904691415 39.56000762332572 3.9999999999999996
    vertex 9.142073904691415 39.56000762332572 0.0
  endloop
endfacet
facet normal -1.0 1.586177561425149e-15 0.0
  outer loop
    vertex 9.2 40.0 3.9999999999999996
    vertex 9.142073904691415 39.56000762332572 0.0
    vertex 9.142073904691415 39.56000762332572 3.9999999999999996
  endloop
endfacet
facet normal -0.9659258262890683 0.25881904510252113 0.0
  outer loop
    vertex 9.142073904691415 39.56000762332572 0.0
    vertex 9.2 40.0 3.9999999999999996
    vertex 9.2 40.0 0.0
  endloop
endfacet
facet normal -0.9659258262890683 -0.258819045102521 0.0
  outer loop
    vertex 9.142073904691417 40.43999237667428 3.9999999999999996
    vertex 9.2 40.0 0.0
    vertex 9.2 40.0 3.9999999999999996
  endloop
endfacet
facet normal -1.0 1.586177561425149e-15 0.0
  outer loop
    vertex 9.2 40.0 0.0
    vertex 9.142073904691417 40.43999237667428 3.9999999999999996
    vertex 9.142073904691417 40.43999237667428 0.0
  endloop
endfacet
facet normal -0.8660254037844394 -0.4999999999999986 0.0
  outer loop
    vertex 8.972243186433547 40.85 3.9999999999999996
    vertex 9.142073904691417 40.43999237667428 0.0
    vertex 9.142073904691417 40.43999237667428 3.9999999999999996
  endloop
endfacet
facet normal -0.9659258262890683 -0.258819045102521 0.0
  outer loop
    vertex 9.142073904691417 40.43999237667428 0.0
    vertex 8.972243186433547 40.85 3.9999999999999996
    vertex 8.972243186433547 40.85 0.0
  endloop
endfacet
facet normal -0.7071067811865496 -0.7071067811865456 0.0
  outer loop
    vertex 8.702081528017132 41.20208152801713 3.9999999999999996
    vertex 8.972243186433547 40.85 0.0
    vertex 8.972243186433547 40.85 3.9999999999999996
  endloop
endfacet
facet normal -0.8660254037844394 -0.4999999999999986 0.0
  outer loop
    vertex 8.972243186433547 40.85 0.0
    vertex 8.702081528017132 41.20208152801713 3.9999999999999996
    vertex 8.702081528017132 41.20208152801713 0.0
  endloop
endfacet
facet normal -0.7071067811865496 -0.7071067811865456 0.0
  outer loop
    vertex 8.702081528017132 41.20208152801713 3.9999999999999996
    vertex 8.350000000000001 41.472243186433545 0.0
    vertex 8.702081528017132 41.20208152801713 0.0
  endloop
endfacet
facet normal -0.5 -0.8660254037844386 0.0
  outer loop
    vertex 8.350000000000001 41.472243186433545 0.0
    vertex 8.702081528017132 41.20208152801713 3.9999999999999996
    vertex 8.350000000000001 41.472243186433545 3.9999999999999996
  endloop
endfacet
facet normal -0.5 -0.8660254037844386 0.0
  outer loop
    vertex 8.350000000000001 41.472243186433545 3.9999999999999996
    vertex 7.939992376674286 41.642073904691415 0.0
    vertex 8.350000000000001 41.472243186433545 0.0
  endloop
endfacet
facet normal -0.25881904510252135 -0.965925826289068 0.0
  outer loop
    vertex 7.939992376674286 41.642073904691415 0.0
    vertex 8.350000000000001 41.472243186433545 3.9999999999999996
    vertex 7.939992376674286 41.642073904691415 3.9999999999999996
  endloop
endfacet
facet normal -0.25881904510252135 -0.965925826289068 0.0
  outer loop
    vertex 7.939992376674286 41.642073904691415 3.9999999999999996
    vertex 7.5 41.7 0.0
    vertex 7.939992376674286 41.642073904691415 0.0
  endloop
endfacet
facet normal 0.0 -1.0 0.0
  outer loop
    vertex 7.5 41.7 0.0
    vertex 7.939992376674286 41.642073904691415 3.9999999999999996
    vertex 7.5 41.7 3.9999999999999996
  endloop
endfacet
facet normal 0.0 -1.0 0.0
  outer loop
    vertex 7.5 41.7 3.9999999999999996
    vertex 7.060007623325715 41.642073904691415 0.0
    vertex 7.5 41.7 0.0
  endloop
endfacet
facet normal 0.25881904510252196 -0.9659258262890679 0.0
  outer loop
    vertex 7.060007623325715 41.642073904691415 0.0
    vertex 7.5 41.7 3.9999999999999996
    vertex 7.060007623325715 41.642073904691415 3.9999999999999996
  endloop
endfacet
facet normal 0.25881904510252196 -0.9659258262890679 0.0
  outer loop
    vertex 7.060007623325715 41.642073904691415 3.9999999999999996
    vertex 6.65 41.472243186433545 0.0
    vertex 7.060007623325715 41.642073904691415 0.0
  endloop
endfacet
facet normal 0.5000000000000006 -0.8660254037844383 0.0
  outer loop
    vertex 6.65 41.472243186433545 0.0
    vertex 7.060007623325715 41.642073904691415 3.9999999999999996
    vertex 6.65 41.472243186433545 3.9999999999999996
  endloop
endfacet
facet normal 0.5000000000000006 -0.8660254037844383 0.0
  outer loop
    vertex 6.65 41.472243186433545 3.9999999999999996
    vertex 6.297918471982871 41.20208152801713 0.0
    vertex 6.65 41.472243186433545 0.0
  endloop
endfacet
facet normal 0.7071067811865492 -0.7071067811865459 0.0
  outer loop
    vertex 6.297918471982871 41.20208152801713 0.0
    vertex 6.65 41.472243186433545 3.9999999999999996
    vertex 6.297918471982871 41.20208152801713 3.9999999999999996
  endloop
endfacet
facet normal 0.7071067811865492 -0.7071067811865459 0.0
  outer loop
    vertex 6.297918471982871 41.20208152801713 0.0
    vertex 6.027756813566455 40.85 3.9999999999999996
    vertex 6.027756813566455 40.85 0.0
  endloop
endfacet
facet normal 0.8660254037844392 -0.4999999999999992 0.0
  outer loop
    vertex 6.027756813566455 40.85 3.9999999999999996
    vertex 6.297918471982871 41.20208152801713 0.0
    vertex 6.297918471982871 41.20208152801713 3.9999999999999996
  endloop
endfacet
facet normal 0.8660254037844392 -0.4999999999999992 0.0
  outer loop
    vertex 6.027756813566455 40.85 0.0
    vertex 5.857926095308584 40.43999237667428 3.9999999999999996
    vertex 5.857926095308584 40.43999237667428 0.0
  endloop
endfacet
facet normal 0.9659258262890681 -0.2588190451025218 0.0
  outer loop
    vertex 5.857926095308584 40.43999237667428 3.9999999999999996
    vertex 6.027756813566455 40.85 0.0
    vertex 6.027756813566455 40.85 3.9999999999999996
  endloop
endfacet
facet normal 0.9659258262890681 -0.2588190451025218 0.0
  outer loop
    vertex 5.857926095308584 40.43999237667428 0.0
    vertex 5.800000000000001 40.0 3.9999999999999996
    vertex 5.800000000000001 40.0 0.0
  endloop
endfacet
facet normal 1.0 -7.841776708169276e-16 0.0
  outer loop
    vertex 5.800000000000001 40.0 3.9999999999999996
    vertex 5.857926095308584 40.43999237667428 0.0
    vertex 5.857926095308584 40.43999237667428 3.9999999999999996
  endloop
endfacet
facet normal 1.0 -7.841776708169276e-16 0.0
  outer loop
    vertex 5.800000000000001 40.0 0.0
    vertex 5.857926095308584 39.56000762332572 3.9999999999999996
    vertex 5.857926095308584 39.56000762332572 0.0
  endloop
endfacet
facet normal 0.9659258262890684 0.2588190451025203 0.0
  outer loop
    vertex 5.857926095308584 39.56000762332572 3.9999999999999996
    vertex 5.800000000000001 40.0 0.0
    vertex 5.800000000000001 40.0 3.9999999999999996
  endloop
endfacet
facet normal 0.9659258262890684 0.2588190451025203 0.0
  outer loop
    vertex 5.857926095308584 39.56000762332572 0.0
    vertex 6.027756813566454 39.15 3.9999999999999996
    vertex 6.027756813566454 39.15 0.0
  endloop
endfacet
facet normal 0.8660254037844395 0.4999999999999985 0.0
  outer loop
    vertex 6.027756813566454 39.15 3.9999999999999996
    vertex 5.857926095308584 39.56000762332572 0.0
    vertex 5.857926095308584 39.56000762332572 3.9999999999999996
  endloop
endfacet
facet normal 0.8660254037844395 0.4999999999999985 0.0
  outer loop
    vertex 6.027756813566454 39.15 0.0
    vertex 6.297918471982869 38.79791847198287 3.9999999999999996
    vertex 6.297918471982869 38.79791847198287 0.0
  endloop
endfacet
facet normal 0.7071067811865492 0.7071067811865459 0.0
  outer loop
    vertex 6.297918471982869 38.79791847198287 3.9999999999999996
    vertex 6.027756813566454 39.15 0.0
    vertex 6.027756813566454 39.15 3.9999999999999996
  endloop
endfacet
facet normal 0.7071067811865492 0.7071067811865459 0.0
  outer loop
    vertex 6.297918471982869 38.79791847198287 3.9999999999999996
    vertex 6.6499999999999995 38.527756813566455 0.0
    vertex 6.297918471982869 38.79791847198287 0.0
  endloop
endfacet
facet normal 0.5000000000000006 0.8660254037844383 0.0
  outer loop
    vertex 6.6499999999999995 38.527756813566455 0.0
    vertex 6.297918471982869 38.79791847198287 3.9999999999999996
    vertex 6.6499999999999995 38.527756813566455 3.9999999999999996
  endloop
endfacet
facet normal 0.5000000000000006 0.8660254037844383 0.0
  outer loop
    vertex 6.6499999999999995 38.527756813566455 3.9999999999999996
    vertex 7.060007623325713 38.357926095308585 0.0
    vertex 6.6499999999999995 38.527756813566455 0.0
  endloop
endfacet
facet normal 0.2588190451025218 0.9659258262890681 0.0
  outer loop
    vertex 7.060007623325713 38.357926095308585 0.0
    vertex 6.6499999999999995 38.527756813566455 3.9999999999999996
    vertex 7.060007623325713 38.357926095308585 3.9999999999999996
  endloop
endfacet
facet normal -0.0 -0.0 1.0
  outer loop
    vertex 13.700000000000001 0.0 19.0
    vertex 1.3000000000000003 3.9999999999999996 19.0
    vertex 1.3 0.0 19.0
  endloop
endfacet
facet normal -0.0 -0.0 1.0
  outer loop
    vertex 1.3000000000000003 3.9999999999999996 19.0
    vertex 13.700000000000001 0.0 19.0
    vertex 13.700000000000001 3.9999999999999996 19.0
  endloop
endfacet
facet normal -0.0 1.0 -0.0
  outer loop
    vertex 0.0 3.9999999999999996 17.7
    vertex 15.0 3.9999999999999996 5.3
    vertex 0.0 3.9999999999999996 5.3
  endloop
endfacet
facet normal -0.0 1.0 -0.0
  outer loop
    vertex 15.0 3.9999999999999996 5.3
    vertex 0.0 3.9999999999999996 17.7
    vertex 6.547947922925846 3.9999999999999982 12.591597769620202
  endloop
endfacet
facet normal -0.0 1.0 -0.0
  outer loop
    vertex 15.0 3.9999999999999996 5.3
    vertex 6.547947922925846 3.9999999999999982 12.591597769620202
    vertex 6.944909631169083 3.9999999999999982 12.393178702396822
  endloop
endfacet
facet normal -0.0 1.0 -0.0
  outer loop
    vertex 15.0 3.9999999999999996 5.3
    vertex 6.944909631169083 3.9999999999999982 12.393178702396822
    vertex 7.37969983071794 3.9999999999999982 12.304261851207354
  endloop
endfacet
facet normal -0.0 1.0 -0.0
  outer loop
    vertex 6.547947922925846 3.9999999999999982 12.591597769620202
    vertex 0.0 3.9999999999999996 17.7
    vertex 6.215866990394764 3.9999999999999982 12.885997121349233
  endloop
endfacet
facet normal -0.0 1.0 -0.0
  outer loop
    vertex 6.215866990394764 3.9999999999999982 12.885997121349233
    vertex 0.0 3.9999999999999996 17.7
    vertex 5.971297600338143 3.9999999999999982 13.25631392828151
  endloop
endfacet
facet normal -0.0 1.0 -0.0
  outer loop
    vertex 5.971297600338143 3.9999999999999982 13.25631392828151
    vertex 0.0 3.9999999999999996 17.7
    vertex 5.830906752518315 3.9999999999999982 13.67731171200206
  endloop
endfacet
facet normal -0.0 1.0 -0.0
  outer loop
    vertex 5.830906752518315 3.9999999999999982 13.67731171200206
    vertex 0.0 3.9999999999999996 17.7
    vertex 5.804261851207355 3.9999999999999982 14.12030016928206
  endloop
endfacet
facet normal -0.0 1.0 -0.0
  outer loop
    vertex 5.804261851207355 3.9999999999999982 14.12030016928206
    vertex 0.0 3.9999999999999996 17.7
    vertex 5.893178702396824 3.9999999999999982 14.555090368830916
  endloop
endfacet
facet normal -0.0 1.0 -0.0
  outer loop
    vertex 5.893178702396824 3.9999999999999982 14.555090368830916
    vertex 0.0 3.9999999999999996 17.7
    vertex 6.091597769620204 3.9999999999999982 14.952052077074155
  endloop
endfacet
facet normal -0.0 1.0 -0.0
  outer loop
    vertex 6.091597769620204 3.9999999999999982 14.952052077074155
    vertex 0.0 3.9999999999999996 17.7
    vertex 6.3859971213492335 3.9999999999999982 15.284133009605238
  endloop
endfacet
facet normal -0.0 1.0 -0.0
  outer loop
    vertex 6.3859971213492335 3.9999999999999982 15.284133009605238
    vertex 0.0 3.9999999999999996 17.7
    vertex 6.756313928281511 3.9999999999999982 15.528702399661858
  endloop
endfacet
facet normal -0.0 1.0 -0.0
  outer loop
    vertex 6.756313928281511 3.9999999999999982 15.528702399661858
    vertex 0.0 3.9999999999999996 17.7
    vertex 7.177311712002061 3.9999999999999982 15.669093247481685
  endloop
endfacet
facet normal -0.0 1.0 -0.0
  outer loop
    vertex 7.177311712002061 3.9999999999999982 15.669093247481685
    vertex 0.0 3.9999999999999996 17.7
    vertex 7.620300169282062 3.9999999999999982 15.695738148792644
  endloop
endfacet
facet normal -0.0 1.0 -0.0
  outer loop
    vertex 15.0 3.9999999999999996 5.3
    vertex 8.614002878650767 3.9999999999999982 12.715866990394762
    vertex 15.0 3.9999999999999996 17.7
  endloop
endfacet
facet normal -0.0 1.0 -0.0
  outer loop
    vertex 8.614002878650767 3.9999999999999982 12.715866990394762
    vertex 15.0 3.9999999999999996 5.3
    vertex 8.24368607171849 3.9999999999999982 12.471297600338142
  endloop
endfacet
facet normal -0.0 1.0 -0.0
  outer loop
    vertex 8.24368607171849 3.9999999999999982 12.471297600338142
    vertex 15.0 3.9999999999999996 5.3
    vertex 7.82268828799794 3.9999999999999982 12.330906752518315
  endloop
endfacet
facet normal -0.0 1.0 -0.0
  outer loop
    vertex 7.82268828799794 3.9999999999999982 12.330906752518315
    vertex 15.0 3.9999999999999996 5.3
    vertex 7.37969983071794 3.9999999999999982 12.304261851207354
  endloop
endfacet
facet normal -0.0 1.0 -0.0
  outer loop
    vertex 15.0 3.9999999999999996 17.7
    vertex 8.614002878650767 3.9999999999999982 12.715866990394762
    vertex 8.908402230379798 3.9999999999999982 13.047947922925845
  endloop
endfacet
facet normal -0.0 1.0 -0.0
  outer loop
    vertex 15.0 3.9999999999999996 17.7
    vertex 8.908402230379798 3.9999999999999982 13.047947922925845
    vertex 9.106821297603178 3.9999999999999982 13.44490963116908
  endloop
endfacet
facet normal -0.0 1.0 -0.0
  outer loop
    vertex 15.0 3.9999999999999996 17.7
    vertex 9.106821297603178 3.9999999999999982 13.44490963116908
    vertex 9.195738148792646 3.9999999999999982 13.87969983071794
  endloop
endfacet
facet normal -0.0 1.0 -0.0
  outer loop
    vertex 15.0 3.9999999999999996 17.7
    vertex 9.195738148792646 3.9999999999999982 13.87969983071794
    vertex 9.169093247481685 3.9999999999999982 14.322688287997938
  endloop
endfacet
facet normal -0.0 1.0 -0.0
  outer loop
    vertex 15.0 3.9999999999999996 17.7
    vertex 9.169093247481685 3.9999999999999982 14.322688287997938
    vertex 9.028702399661858 3.9999999999999982 14.74368607171849
  endloop
endfacet
facet normal -0.0 1.0 -0.0
  outer loop
    vertex 15.0 3.9999999999999996 17.7
    vertex 9.028702399661858 3.9999999999999982 14.74368607171849
    vertex 8.784133009605238 3.9999999999999982 15.114002878650766
  endloop
endfacet
facet normal -0.0 1.0 -0.0
  outer loop
    vertex 15.0 3.9999999999999996 17.7
    vertex 8.784133009605238 3.9999999999999982 15.114002878650766
    vertex 8.452052077074157 3.9999999999999982 15.408402230379798
  endloop
endfacet
facet normal -0.0 1.0 -0.0
  outer loop
    vertex 15.0 3.9999999999999996 17.7
    vertex 8.452052077074157 3.9999999999999982 15.408402230379798
    vertex 8.05509036883092 3.9999999999999982 15.606821297603176
  endloop
endfacet
facet normal -0.0 1.0 -0.0
  outer loop
    vertex 15.0 3.9999999999999996 17.7
    vertex 8.05509036883092 3.9999999999999982 15.606821297603176
    vertex 7.620300169282062 3.9999999999999982 15.695738148792644
  endloop
endfacet
facet normal -0.0 1.0 -0.0
  outer loop
    vertex 15.0 3.9999999999999996 17.7
    vertex 7.620300169282062 3.9999999999999982 15.695738148792644
    vertex 0.0 3.9999999999999996 17.7
  endloop
endfacet
facet normal -0.0 1.0 -0.0
  outer loop
    vertex 15.0 3.9999999999999996 17.7
    vertex 0.0 3.9999999999999996 17.7
    vertex 0.06362652881630039 3.9999999999999996 18.10172209268743
  endloop
endfacet
facet normal -0.0 1.0 -0.0
  outer loop
    vertex 15.0 3.9999999999999996 17.7
    vertex 0.06362652881630039 3.9999999999999996 18.10172209268743
    vertex 14.9363734711837 3.9999999999999996 18.10172209268743
  endloop
endfacet
facet normal -0.0 1.0 -0.0
  outer loop
    vertex 14.9363734711837 3.9999999999999996 18.10172209268743
    vertex 0.06362652881630039 3.9999999999999996 18.10172209268743
    vertex 0.2482779073125685 3.9999999999999996 18.464120827980214
  endloop
endfacet
facet normal -0.0 1.0 -0.0
  outer loop
    vertex 14.9363734711837 3.9999999999999996 18.10172209268743
    vertex 0.2482779073125685 3.9999999999999996 18.464120827980214
    vertex 14.751722092687432 3.9999999999999996 18.464120827980214
  endloop
endfacet
facet normal -0.0 1.0 -0.0
  outer loop
    vertex 14.751722092687432 3.9999999999999996 18.464120827980214
    vertex 0.2482779073125685 3.9999999999999996 18.464120827980214
    vertex 0.535879172019785 3.9999999999999996 18.75172209268743
  endloop
endfacet
facet normal -0.0 1.0 -0.0
  outer loop
    vertex 14.751722092687432 3.9999999999999996 18.464120827980214
    vertex 0.535879172019785 3.9999999999999996 18.75172209268743
    vertex 14.464120827980215 3.9999999999999996 18.75172209268743
  endloop
endfacet
facet normal -0.0 1.0 -0.0
  outer loop
    vertex 14.464120827980215 3.9999999999999996 18.75172209268743
    vertex 0.535879172019785 3.9999999999999996 18.75172209268743
    vertex 0.8982779073125685 3.9999999999999996 18.9363734711837
  endloop
endfacet
facet normal -0.0 1.0 -0.0
  outer loop
    vertex 14.464120827980215 3.9999999999999996 18.75172209268743
    vertex 0.8982779073125685 3.9999999999999996 18.9363734711837
    vertex 14.101722092687433 3.9999999999999996 18.9363734711837
  endloop
endfacet
facet normal -0.0 1.0 -0.0
  outer loop
    vertex 14.101722092687433 3.9999999999999996 18.9363734711837
    vertex 0.8982779073125685 3.9999999999999996 18.9363734711837
    vertex 1.3000000000000003 3.9999999999999996 19.0
  endloop
endfacet
facet normal -0.0 1.0 -0.0
  outer loop
    vertex 14.101722092687433 3.9999999999999996 18.9363734711837
    vertex 1.3000000000000003 3.9999999999999996 19.0
    vertex 13.700000000000001 3.9999999999999996 19.0
  endloop
endfacet
facet normal 0.997493028701556 0.0 -0.07076480546003557
  outer loop
    vertex 5.804261851207355 3.9999999999999982 14.12030016928206
    vertex 5.893178702396824 0.022815999999997966 14.555090368830916
    vertex 5.804261851207355 0.022815999999997966 14.12030016928206
  endloop
endfacet
facet normal 0.9451889985901035 0.0 -0.32652374637112874
  outer loop
    vertex 5.893178702396824 0.022815999999997966 14.555090368830916
    vertex 5.804261851207355 3.9999999999999982 14.12030016928206
    vertex 5.893178702396824 3.9999999999999982 14.555090368830916
  endloop
endfacet
facet normal 0.9451889985901035 0.0 -0.32652374637112874
  outer loop
    vertex 5.893178702396824 3.9999999999999982 14.555090368830916
    vertex 6.091597769620204 0.022815999999997966 14.952052077074155
    vertex 5.893178702396824 0.022815999999997966 14.555090368830916
  endloop
endfacet
facet normal 0.8284719002234102 0.0 -0.5600306335730322
  outer loop
    vertex 6.091597769620204 0.022815999999997966 14.952052077074155
    vertex 5.893178702396824 3.9999999999999982 14.555090368830916
    vertex 6.091597769620204 3.9999999999999982 14.952052077074155
  endloop
endfacet
facet normal 0.8284719002234102 0.0 -0.5600306335730322
  outer loop
    vertex 6.091597769620204 3.9999999999999982 14.952052077074155
    vertex 6.3859971213492335 0.022815999999997966 15.284133009605238
    vertex 6.091597769620204 0.022815999999997966 14.952052077074155
  endloop
endfacet
facet normal 0.6552958109710406 0.0 -0.7553723585913151
  outer loop
    vertex 6.3859971213492335 0.022815999999997966 15.284133009605238
    vertex 6.091597769620204 3.9999999999999982 14.952052077074155
    vertex 6.3859971213492335 3.9999999999999982 15.284133009605238
  endloop
endfacet
facet normal 0.4374623951285228 0.0 -0.8992367056834457
  outer loop
    vertex 6.756313928281511 3.9999999999999982 15.528702399661858
    vertex 6.3859971213492335 0.022815999999997966 15.284133009605238
    vertex 6.3859971213492335 3.9999999999999982 15.284133009605238
  endloop
endfacet
facet normal 0.6552958109710406 0.0 -0.7553723585913151
  outer loop
    vertex 6.3859971213492335 0.022815999999997966 15.284133009605238
    vertex 6.756313928281511 3.9999999999999982 15.528702399661858
    vertex 6.756313928281511 0.022815999999997966 15.528702399661858
  endloop
endfacet
facet normal 0.18981663999878579 0.0 -0.9818195573421683
  outer loop
    vertex 7.177311712002061 3.9999999999999982 15.669093247481685
    vertex 6.756313928281511 0.022815999999997966 15.528702399661858
    vertex 6.756313928281511 3.9999999999999982 15.528702399661858
  endloop
endfacet
facet normal 0.4374623951285228 0.0 -0.8992367056834457
  outer loop
    vertex 6.756313928281511 0.022815999999997966 15.528702399661858
    vertex 7.177311712002061 3.9999999999999982 15.669093247481685
    vertex 7.177311712002061 0.022815999999997966 15.669093247481685
  endloop
endfacet
facet normal -0.0707648054600354 0.0 -0.9974930287015562
  outer loop
    vertex 7.620300169282062 3.9999999999999982 15.695738148792644
    vertex 7.177311712002061 0.022815999999997966 15.669093247481685
    vertex 7.177311712002061 3.9999999999999982 15.669093247481685
  endloop
endfacet
facet normal 0.18981663999878579 0.0 -0.9818195573421683
  outer loop
    vertex 7.177311712002061 0.022815999999997966 15.669093247481685
    vertex 7.620300169282062 3.9999999999999982 15.695738148792644
    vertex 7.620300169282062 0.022815999999997966 15.695738148792644
  endloop
endfacet
facet normal -0.3265237463711263 0.0 -0.9451889985901045
  outer loop
    vertex 8.05509036883092 3.9999999999999982 15.606821297603176
    vertex 7.620300169282062 0.022815999999997966 15.695738148792644
    vertex 7.620300169282062 3.9999999999999982 15.695738148792644
  endloop
endfacet
facet normal -0.0707648054600354 0.0 -0.9974930287015562
  outer loop
    vertex 7.620300169282062 0.022815999999997966 15.695738148792644
    vertex 8.05509036883092 3.9999999999999982 15.606821297603176
    vertex 8.05509036883092 0.022815999999997966 15.606821297603176
  endloop
endfacet
facet normal -0.5600306335730334 0.0 -0.8284719002234093
  outer loop
    vertex 8.452052077074157 3.9999999999999982 15.408402230379798
    vertex 8.05509036883092 0.022815999999997966 15.606821297603176
    vertex 8.05509036883092 3.9999999999999982 15.606821297603176
  endloop
endfacet
facet normal -0.3265237463711263 0.0 -0.9451889985901045
  outer loop
    vertex 8.05509036883092 0.022815999999997966 15.606821297603176
    vertex 8.452052077074157 3.9999999999999982 15.408402230379798
    vertex 8.452052077074157 0.022815999999997966 15.408402230379798
  endloop
endfacet
facet normal -0.7553723585913167 0.0 -0.6552958109710388
  outer loop
    vertex 8.784133009605238 3.9999999999999982 15.114002878650766
    vertex 8.452052077074157 0.022815999999997966 15.408402230379798
    vertex 8.452052077074157 3.9999999999999982 15.408402230379798
  endloop
endfacet
facet normal -0.5600306335730334 0.0 -0.8284719002234093
  outer loop
    vertex 8.452052077074157 0.022815999999997966 15.408402230379798
    vertex 8.784133009605238 3.9999999999999982 15.114002878650766
    vertex 8.784133009605238 0.022815999999997966 15.114002878650766
  endloop
endfacet
facet normal -0.7553723585913167 0.0 -0.6552958109710388
  outer loop
    vertex 8.784133009605238 3.9999999999999982 15.114002878650766
    vertex 9.028702399661858 0.022815999999997966 14.74368607171849
    vertex 8.784133009605238 0.022815999999997966 15.114002878650766
  endloop
endfacet
facet normal -0.8992367056834457 0.0 -0.4374623951285228
  outer loop
    vertex 9.028702399661858 0.022815999999997966 14.74368607171849
    vertex 8.784133009605238 3.9999999999999982 15.114002878650766
    vertex 9.028702399661858 3.9999999999999982 14.74368607171849
  endloop
endfacet
facet normal -0.8992367056834457 0.0 -0.4374623951285228
  outer loop
    vertex 9.028702399661858 3.9999999999999982 14.74368607171849
    vertex 9.169093247481685 0.022815999999997966 14.322688287997938
    vertex 9.028702399661858 0.022815999999997966 14.74368607171849
  endloop
endfacet
facet normal -0.9818195573421681 0.0 -0.18981663999878745
  outer loop
    vertex 9.169093247481685 0.022815999999997966 14.322688287997938
    vertex 9.028702399661858 3.9999999999999982 14.74368607171849
    vertex 9.169093247481685 3.9999999999999982 14.322688287997938
  endloop
endfacet
facet normal -0.9818195573421681 0.0 -0.18981663999878745
  outer loop
    vertex 9.169093247481685 3.9999999999999982 14.322688287997938
    vertex 9.195738148792646 0.022815999999997966 13.87969983071794
    vertex 9.169093247481685 0.022815999999997966 14.322688287997938
  endloop
endfacet
facet normal -0.9974930287015562 0.0 0.07076480546003494
  outer loop
    vertex 9.195738148792646 0.022815999999997966 13.87969983071794
    vertex 9.169093247481685 3.9999999999999982 14.322688287997938
    vertex 9.195738148792646 3.9999999999999982 13.87969983071794
  endloop
endfacet
facet normal -0.9974930287015562 0.0 0.07076480546003494
  outer loop
    vertex 9.195738148792646 3.9999999999999982 13.87969983071794
    vertex 9.106821297603178 0.022815999999997966 13.44490963116908
    vertex 9.195738148792646 0.022815999999997966 13.87969983071794
  endloop
endfacet
facet normal -0.9451889985901034 0.0 0.32652374637112946
  outer loop
    vertex 9.106821297603178 0.022815999999997966 13.44490963116908
    vertex 9.195738148792646 3.9999999999999982 13.87969983071794
    vertex 9.106821297603178 3.9999999999999982 13.44490963116908
  endloop
endfacet
facet normal -0.9451889985901034 0.0 0.32652374637112946
  outer loop
    vertex 9.106821297603178 3.9999999999999982 13.44490963116908
    vertex 8.908402230379798 0.022815999999997966 13.047947922925845
    vertex 9.106821297603178 0.022815999999997966 13.44490963116908
  endloop
endfacet
facet normal -0.8284719002234096 0.0 0.5600306335730334
  outer loop
    vertex 8.908402230379798 0.022815999999997966 13.047947922925845
    vertex 9.106821297603178 3.9999999999999982 13.44490963116908
    vertex 8.908402230379798 3.9999999999999982 13.047947922925845
  endloop
endfacet
facet normal -0.8284719002234096 0.0 0.5600306335730334
  outer loop
    vertex 8.908402230379798 3.9999999999999982 13.047947922925845
    vertex 8.614002878650767 0.022815999999997966 12.715866990394762
    vertex 8.908402230379798 0.022815999999997966 13.047947922925845
  endloop
endfacet
facet normal -0.6552958109710406 0.0 0.7553723585913151
  outer loop
    vertex 8.614002878650767 0.022815999999997966 12.715866990394762
    vertex 8.908402230379798 3.9999999999999982 13.047947922925845
    vertex 8.614002878650767 3.9999999999999982 12.715866990394762
  endloop
endfacet
facet normal -0.6552958109710406 0.0 0.7553723585913151
  outer loop
    vertex 8.614002878650767 0.022815999999997966 12.715866990394762
    vertex 8.24368607171849 3.9999999999999982 12.471297600338142
    vertex 8.24368607171849 0.022815999999997966 12.471297600338142
  endloop
endfacet
facet normal -0.4374623951285228 0.0 0.8992367056834457
  outer loop
    vertex 8.24368607171849 3.9999999999999982 12.471297600338142
    vertex 8.614002878650767 0.022815999999997966 12.715866990394762
    vertex 8.614002878650767 3.9999999999999982 12.715866990394762
  endloop
endfacet
facet normal -0.4374623951285228 0.0 0.8992367056834457
  outer loop
    vertex 8.24368607171849 0.022815999999997966 12.471297600338142
    vertex 7.82268828799794 3.9999999999999982 12.330906752518315
    vertex 7.82268828799794 0.022815999999997966 12.330906752518315
  endloop
endfacet
facet normal -0.18981663999878745 0.0 0.9818195573421681
  outer loop
    vertex 7.82268828799794 3.9999999999999982 12.330906752518315
    vertex 8.24368607171849 0.022815999999997966 12.471297600338142
    vertex 8.24368607171849 3.9999999999999982 12.471297600338142
  endloop
endfacet
facet normal -0.18981663999878745 0.0 0.9818195573421681
  outer loop
    vertex 7.82268828799794 0.022815999999997966 12.330906752518315
    vertex 7.37969983071794 3.9999999999999982 12.304261851207354
    vertex 7.37969983071794 0.022815999999997966 12.304261851207354
  endloop
endfacet
facet normal 0.07076480546003526 0.0 0.997493028701556
  outer loop
    vertex 7.37969983071794 3.9999999999999982 12.304261851207354
    vertex 7.82268828799794 0.022815999999997966 12.330906752518315
    vertex 7.82268828799794 3.9999999999999982 12.330906752518315
  endloop
endfacet
facet normal 0.07076480546003526 0.0 0.997493028701556
  outer loop
    vertex 7.37969983071794 0.022815999999997966 12.304261851207354
    vertex 6.944909631169083 3.9999999999999982 12.393178702396822
    vertex 6.944909631169083 0.022815999999997966 12.393178702396822
  endloop
endfacet
facet normal 0.3265237463711278 0.0 0.945188998590104
  outer loop
    vertex 6.944909631169083 3.9999999999999982 12.393178702396822
    vertex 7.37969983071794 0.022815999999997966 12.304261851207354
    vertex 7.37969983071794 3.9999999999999982 12.304261851207354
  endloop
endfacet
facet normal 0.3265237463711278 0.0 0.945188998590104
  outer loop
    vertex 6.944909631169083 0.022815999999997966 12.393178702396822
    vertex 6.547947922925846 3.9999999999999982 12.591597769620202
    vertex 6.547947922925846 0.022815999999997966 12.591597769620202
  endloop
endfacet
facet normal 0.5600306335730334 0.0 0.8284719002234093
  outer loop
    vertex 6.547947922925846 3.9999999999999982 12.591597769620202
    vertex 6.944909631169083 0.022815999999997966 12.393178702396822
    vertex 6.944909631169083 3.9999999999999982 12.393178702396822
  endloop
endfacet
facet normal 0.5600306335730334 0.0 0.8284719002234093
  outer loop
    vertex 6.547947922925846 0.022815999999997966 12.591597769620202
    vertex 6.215866990394764 3.9999999999999982 12.885997121349233
    vertex 6.215866990394764 0.022815999999997966 12.885997121349233
  endloop
endfacet
facet normal 0.7553723585913161 0.0 0.6552958109710395
  outer loop
    vertex 6.215866990394764 3.9999999999999982 12.885997121349233
    vertex 6.547947922925846 0.022815999999997966 12.591597769620202
    vertex 6.547947922925846 3.9999999999999982 12.591597769620202
  endloop
endfacet
facet normal 0.7553723585913161 0.0 0.6552958109710395
  outer loop
    vertex 6.215866990394764 3.9999999999999982 12.885997121349233
    vertex 5.971297600338143 0.022815999999997966 13.25631392828151
    vertex 6.215866990394764 0.022815999999997966 12.885997121349233
  endloop
endfacet
facet normal 0.8992367056834452 0.0 0.4374623951285241
  outer loop
    vertex 5.971297600338143 0.022815999999997966 13.25631392828151
    vertex 6.215866990394764 3.9999999999999982 12.885997121349233
    vertex 5.971297600338143 3.9999999999999982 13.25631392828151
  endloop
endfacet
facet normal 0.8992367056834452 0.0 0.4374623951285241
  outer loop
    vertex 5.971297600338143 3.9999999999999982 13.25631392828151
    vertex 5.830906752518315 0.022815999999997966 13.67731171200206
    vertex 5.971297600338143 0.022815999999997966 13.25631392828151
  endloop
endfacet
facet normal 0.9818195573421677 0.0 0.18981663999878814
  outer loop
    vertex 5.830906752518315 0.022815999999997966 13.67731171200206
    vertex 5.971297600338143 3.9999999999999982 13.25631392828151
    vertex 5.830906752518315 3.9999999999999982 13.67731171200206
  endloop
endfacet
facet normal 0.9818195573421677 0.0 0.18981663999878814
  outer loop
    vertex 5.830906752518315 3.9999999999999982 13.67731171200206
    vertex 5.804261851207355 0.022815999999997966 14.12030016928206
    vertex 5.830906752518315 0.022815999999997966 13.67731171200206
  endloop
endfacet
facet normal 0.997493028701556 0.0 -0.07076480546003557
  outer loop
    vertex 5.804261851207355 0.022815999999997966 14.12030016928206
    vertex 5.830906752518315 3.9999999999999982 13.67731171200206
    vertex 5.804261851207355 3.9999999999999982 14.12030016928206
  endloop
endfacet
facet normal -0.0 -0.0 1.0
  outer loop
    vertex 15.0 5.3 3.9999999999999996
    vertex 0.0 43.7 3.9999999999999996
    vertex 0.0 5.300000000000001 3.9999999999999996
  endloop
endfacet
facet normal -0.0 -0.0 1.0
  outer loop
    vertex 0.0 43.7 3.9999999999999996
    vertex 15.0 5.3 3.9999999999999996
    vertex 0.06362652881630039 44.10172209268743 3.9999999999999996
  endloop
endfacet
facet normal -0.0 -0.0 1.0
  outer loop
    vertex 0.06362652881630039 44.10172209268743 3.9999999999999996
    vertex 15.0 5.3 3.9999999999999996
    vertex 0.2482779073125683 44.46412082798022 3.9999999999999996
  endloop
endfacet
facet normal -0.0 -0.0 1.0
  outer loop
    vertex 0.2482779073125683 44.46412082798022 3.9999999999999996
    vertex 15.0 5.3 3.9999999999999996
    vertex 0.5358791720197849 44.75172209268743 3.9999999999999996
  endloop
endfacet
facet normal -0.0 -0.0 1.0
  outer loop
    vertex 0.5358791720197849 44.75172209268743 3.9999999999999996
    vertex 15.0 5.3 3.9999999999999996
    vertex 0.8982779073125685 44.9363734711837 3.9999999999999996
  endloop
endfacet
facet normal -0.0 -0.0 1.0
  outer loop
    vertex 0.8982779073125685 44.9363734711837 3.9999999999999996
    vertex 15.0 5.3 3.9999999999999996
    vertex 1.3000000000000003 45.0 3.9999999999999996
  endloop
endfacet
facet normal -0.0 -0.0 1.0
  outer loop
    vertex 1.3000000000000003 45.0 3.9999999999999996
    vertex 15.0 5.3 3.9999999999999996
    vertex 5.857926095308584 39.56000762332572 3.9999999999999996
  endloop
endfacet
facet normal -0.0 -0.0 1.0
  outer loop
    vertex 1.3000000000000003 45.0 3.9999999999999996
    vertex 5.857926095308584 39.56000762332572 3.9999999999999996
    vertex 5.800000000000001 40.0 3.9999999999999996
  endloop
endfacet
facet normal -0.0 -0.0 1.0
  outer loop
    vertex 5.857926095308584 39.56000762332572 3.9999999999999996
    vertex 15.0 5.3 3.9999999999999996
    vertex 6.027756813566454 39.15 3.9999999999999996
  endloop
endfacet
facet normal -0.0 -0.0 1.0
  outer loop
    vertex 6.027756813566454 39.15 3.9999999999999996
    vertex 15.0 5.3 3.9999999999999996
    vertex 6.297918471982869 38.79791847198287 3.9999999999999996
  endloop
endfacet
facet normal -0.0 -0.0 1.0
  outer loop
    vertex 6.297918471982869 38.79791847198287 3.9999999999999996
    vertex 15.0 5.3 3.9999999999999996
    vertex 6.6499999999999995 38.527756813566455 3.9999999999999996
  endloop
endfacet
facet normal -0.0 -0.0 1.0
  outer loop
    vertex 6.6499999999999995 38.527756813566455 3.9999999999999996
    vertex 15.0 5.3 3.9999999999999996
    vertex 7.060007623325713 38.357926095308585 3.9999999999999996
  endloop
endfacet
facet normal -0.0 -0.0 1.0
  outer loop
    vertex 7.060007623325713 38.357926095308585 3.9999999999999996
    vertex 15.0 5.3 3.9999999999999996
    vertex 7.5 38.3 3.9999999999999996
  endloop
endfacet
facet normal -0.0 -0.0 1.0
  outer loop
    vertex 7.5 38.3 3.9999999999999996
    vertex 15.0 5.3 3.9999999999999996
    vertex 7.939992376674286 38.357926095308585 3.9999999999999996
  endloop
endfacet
facet normal -0.0 -0.0 1.0
  outer loop
    vertex 7.939992376674286 38.357926095308585 3.9999999999999996
    vertex 15.0 5.3 3.9999999999999996
    vertex 8.35 38.527756813566455 3.9999999999999996
  endloop
endfacet
facet normal -0.0 -0.0 1.0
  outer loop
    vertex 8.35 38.527756813566455 3.9999999999999996
    vertex 15.0 5.3 3.9999999999999996
    vertex 8.702081528017132 38.79791847198287 3.9999999999999996
  endloop
endfacet
facet normal -0.0 -0.0 1.0
  outer loop
    vertex 8.702081528017132 38.79791847198287 3.9999999999999996
    vertex 15.0 5.3 3.9999999999999996
    vertex 8.972243186433547 39.15 3.9999999999999996
  endloop
endfacet
facet normal -0.0 -0.0 1.0
  outer loop
    vertex 8.972243186433547 39.15 3.9999999999999996
    vertex 15.0 5.3 3.9999999999999996
    vertex 9.142073904691415 39.56000762332572 3.9999999999999996
  endloop
endfacet
facet normal -0.0 -0.0 1.0
  outer loop
    vertex 9.142073904691415 39.56000762332572 3.9999999999999996
    vertex 15.0 5.3 3.9999999999999996
    vertex 9.2 40.0 3.9999999999999996
  endloop
endfacet
facet normal -0.0 -0.0 1.0
  outer loop
    vertex 9.2 40.0 3.9999999999999996
    vertex 15.0 5.3 3.9999999999999996
    vertex 13.700000000000001 45.0 3.9999999999999996
  endloop
endfacet
facet normal -0.0 -0.0 1.0
  outer loop
    vertex 13.700000000000001 45.0 3.9999999999999996
    vertex 15.0 5.3 3.9999999999999996
    vertex 14.101722092687433 44.9363734711837 3.9999999999999996
  endloop
endfacet
facet normal -0.0 -0.0 1.0
  outer loop
    vertex 14.101722092687433 44.9363734711837 3.9999999999999996
    vertex 15.0 5.3 3.9999999999999996
    vertex 14.464120827980215 44.75172209268743 3.9999999999999996
  endloop
endfacet
facet normal -0.0 -0.0 1.0
  outer loop
    vertex 14.464120827980215 44.75172209268743 3.9999999999999996
    vertex 15.0 5.3 3.9999999999999996
    vertex 14.751722092687432 44.46412082798022 3.9999999999999996
  endloop
endfacet
facet normal -0.0 -0.0 1.0
  outer loop
    vertex 14.751722092687432 44.46412082798022 3.9999999999999996
    vertex 15.0 5.3 3.9999999999999996
    vertex 14.9363734711837 44.10172209268743 3.9999999999999996
  endloop
endfacet
facet normal -0.0 -0.0 1.0
  outer loop
    vertex 14.9363734711837 44.10172209268743 3.9999999999999996
    vertex 15.0 5.3 3.9999999999999996
    vertex 15.0 43.7 3.9999999999999996
  endloop
endfacet
facet normal -0.0 -0.0 1.0
  outer loop
    vertex 1.3000000000000003 45.0 3.9999999999999996
    vertex 6.65 41.472243186433545 3.9999999999999996
    vertex 13.700000000000001 45.0 3.9999999999999996
  endloop
endfacet
facet normal -0.0 -0.0 1.0
  outer loop
    vertex 6.65 41.472243186433545 3.9999999999999996
    vertex 1.3000000000000003 45.0 3.9999999999999996
    vertex 6.297918471982871 41.20208152801713 3.9999999999999996
  endloop
endfacet
facet normal -0.0 -0.0 1.0
  outer loop
    vertex 6.297918471982871 41.20208152801713 3.9999999999999996
    vertex 1.3000000000000003 45.0 3.9999999999999996
    vertex 6.027756813566455 40.85 3.9999999999999996
  endloop
endfacet
facet normal -0.0 -0.0 1.0
  outer loop
    vertex 6.027756813566455 40.85 3.9999999999999996
    vertex 1.3000000000000003 45.0 3.9999999999999996
    vertex 5.857926095308584 40.43999237667428 3.9999999999999996
  endloop
endfacet
facet normal -0.0 -0.0 1.0
  outer loop
    vertex 5.857926095308584 40.43999237667428 3.9999999999999996
    vertex 1.3000000000000003 45.0 3.9999999999999996
    vertex 5.800000000000001 40.0 3.9999999999999996
  endloop
endfacet
facet normal -0.0 -0.0 1.0
  outer loop
    vertex 13.700000000000001 45.0 3.9999999999999996
    vertex 6.65 41.472243186433545 3.9999999999999996
    vertex 7.060007623325715 41.642073904691415 3.9999999999999996
  endloop
endfacet
facet normal -0.0 -0.0 1.0
  outer loop
    vertex 13.700000000000001 45.0 3.9999999999999996
    vertex 7.060007623325715 41.642073904691415 3.9999999999999996
    vertex 7.5 41.7 3.9999999999999996
  endloop
endfacet
facet normal -0.0 -0.0 1.0
  outer loop
    vertex 13.700000000000001 45.0 3.9999999999999996
    vertex 7.5 41.7 3.9999999999999996
    vertex 7.939992376674286 41.642073904691415 3.9999999999999996
  endloop
endfacet
facet normal -0.0 -0.0 1.0
  outer loop
    vertex 13.700000000000001 45.0 3.9999999999999996
    vertex 7.939992376674286 41.642073904691415 3.9999999999999996
    vertex 8.350000000000001 41.472243186433545 3.9999999999999996
  endloop
endfacet
facet normal -0.0 -0.0 1.0
  outer loop
    vertex 13.700000000000001 45.0 3.9999999999999996
    vertex 8.350000000000001 41.472243186433545 3.9999999999999996
    vertex 8.702081528017132 41.20208152801713 3.9999999999999996
  endloop
endfacet
facet normal -0.0 -0.0 1.0
  outer loop
    vertex 13.700000000000001 45.0 3.9999999999999996
    vertex 8.702081528017132 41.20208152801713 3.9999999999999996
    vertex 8.972243186433547 40.85 3.9999999999999996
  endloop
endfacet
facet normal -0.0 -0.0 1.0
  outer loop
    vertex 13.700000000000001 45.0 3.9999999999999996
    vertex 8.972243186433547 40.85 3.9999999999999996
    vertex 9.142073904691417 40.43999237667428 3.9999999999999996
  endloop
endfacet
facet normal -0.0 -0.0 1.0
  outer loop
    vertex 13.700000000000001 45.0 3.9999999999999996
    vertex 9.142073904691417 40.43999237667428 3.9999999999999996
    vertex 9.2 40.0 3.9999999999999996
  endloop
endfacet
facet normal 1.0726438459341131e-17 0.45399049973954625 0.8910065241883682
  outer loop
    vertex 15.0 4.5358791720197855 4.248277907312568
    vertex 0.0 4.898277907312569 4.0636265288163
    vertex 0.0 4.5358791720197855 4.248277907312568
  endloop
endfacet
facet normal 1.0726438459341131e-17 0.45399049973954625 0.8910065241883682
  outer loop
    vertex 0.0 4.898277907312569 4.0636265288163
    vertex 15.0 4.5358791720197855 4.248277907312568
    vertex 15.0 4.898277907312568 4.0636265288163
  endloop
endfacet
facet normal 7.392157603018786e-18 0.15643446504023129 0.9876883405951375
  outer loop
    vertex 15.0 4.898277907312568 4.0636265288163
    vertex 0.0 5.300000000000001 3.9999999999999996
    vertex 0.0 4.898277907312569 4.0636265288163
  endloop
endfacet
facet normal 7.392157603018786e-18 0.15643446504023129 0.9876883405951375
  outer loop
    vertex 0.0 5.300000000000001 3.9999999999999996
    vertex 15.0 4.898277907312568 4.0636265288163
    vertex 15.0 5.3 3.9999999999999996
  endloop
endfacet
facet normal -0.0 0.8910065241883677 0.4539904997395473
  outer loop
    vertex 0.0 4.0636265288163 4.898277907312568
    vertex 15.0 4.248277907312569 4.535879172019785
    vertex 0.0 4.248277907312569 4.535879172019785
  endloop
endfacet
facet normal -0.0 0.8910065241883677 0.4539904997395473
  outer loop
    vertex 15.0 4.248277907312569 4.535879172019785
    vertex 0.0 4.0636265288163 4.898277907312568
    vertex 15.0 4.0636265288163 4.898277907312568
  endloop
endfacet
facet normal -0.0 0.9876883405951375 0.15643446504023126
  outer loop
    vertex 0.0 3.9999999999999996 5.3
    vertex 15.0 4.0636265288163 4.898277907312568
    vertex 0.0 4.0636265288163 4.898277907312568
  endloop
endfacet
facet normal -0.0 0.9876883405951375 0.15643446504023126
  outer loop
    vertex 15.0 4.0636265288163 4.898277907312568
    vertex 0.0 3.9999999999999996 5.3
    vertex 15.0 3.9999999999999996 5.3
  endloop
endfacet
facet normal -0.0 0.7071067811865475 0.7071067811865475
  outer loop
    vertex 0.0 4.248277907312569 4.535879172019785
    vertex 15.0 4.5358791720197855 4.248277907312568
    vertex 0.0 4.5358791720197855 4.248277907312568
  endloop
endfacet
facet normal -0.0 0.7071067811865475 0.7071067811865475
  outer loop
    vertex 15.0 4.5358791720197855 4.248277907312568
    vertex 0.0 4.248277907312569 4.535879172019785
    vertex 15.0 4.248277907312569 4.535879172019785
  endloop
endfacet
facet normal 1.0 -0.0 -0.0
  outer loop
    vertex 15.0 3.9999999999999996 3.9999999999999996
    vertex 15.0 4.0636265288163 4.898277907312568
    vertex 15.0 3.9999999999999996 5.3
  endloop
endfacet
facet normal 1.0 -0.0 -0.0
  outer loop
    vertex 15.0 4.0636265288163 4.898277907312568
    vertex 15.0 3.9999999999999996 3.9999999999999996
    vertex 15.0 4.248277907312569 4.535879172019785
  endloop
endfacet
facet normal 1.0 -0.0 -0.0
  outer loop
    vertex 15.0 4.248277907312569 4.535879172019785
    vertex 15.0 3.9999999999999996 3.9999999999999996
    vertex 15.0 4.5358791720197855 4.248277907312568
  endloop
endfacet
facet normal 1.0 -0.0 -0.0
  outer loop
    vertex 15.0 4.5358791720197855 4.248277907312568
    vertex 15.0 3.9999999999999996 3.9999999999999996
    vertex 15.0 4.898277907312568 4.0636265288163
  endloop
endfacet
facet normal 1.0 -0.0 -0.0
  outer loop
    vertex 15.0 4.898277907312568 4.0636265288163
    vertex 15.0 3.9999999999999996 3.9999999999999996
    vertex 15.0 5.3 3.9999999999999996
  endloop
endfacet
facet normal -1.0 0.0 0.0
  outer loop
    vertex 0.0 4.0636265288163 4.898277907312568
    vertex 0.0 3.9999999999999996 3.9999999999999996
    vertex 0.0 3.9999999999999996 5.3
  endloop
endfacet
facet normal -1.0 0.0 0.0
  outer loop
    vertex 0.0 3.9999999999999996 3.9999999999999996
    vertex 0.0 4.0636265288163 4.898277907312568
    vertex 0.0 4.248277907312569 4.535879172019785
  endloop
endfacet
facet normal -1.0 0.0 0.0
  outer loop
    vertex 0.0 3.9999999999999996 3.9999999999999996
    vertex 0.0 4.248277907312569 4.535879172019785
    vertex 0.0 4.5358791720197855 4.248277907312568
  endloop
endfacet
facet normal -1.0 0.0 0.0
  outer loop
    vertex 0.0 3.9999999999999996 3.9999999999999996
    vertex 0.0 4.5358791720197855 4.248277907312568
    vertex 0.0 4.898277907312569 4.0636265288163
  endloop
endfacet
facet normal -1.0 0.0 0.0
  outer loop
    vertex 0.0 3.9999999999999996 3.9999999999999996
    vertex 0.0 4.898277907312569 4.0636265288163
    vertex 0.0 5.300000000000001 3.9999999999999996
  endloop
endfacet
facet normal -0.0 1.0 -0.0
  outer loop
    vertex 1.3000000000000003 45.0 3.9999999999999996
    vertex 13.700000000000001 45.0 0.0
    vertex 1.3000000000000003 45.0 0.0
  endloop
endfacet
facet normal -0.0 1.0 -0.0
  outer loop
    vertex 13.700000000000001 45.0 0.0
    vertex 1.3000000000000003 45.0 3.9999999999999996
    vertex 13.700000000000001 45.0 3.9999999999999996
  endloop
endfacet
facet normal -0.15643446504023134 0.9876883405951375 -0.0
  outer loop
    vertex 0.8982779073125685 44.9363734711837 3.9999999999999996
    vertex 1.3000000000000003 45.0 0.0
    vertex 0.8982779073125685 44.9363734711837 0.0
  endloop
endfacet
facet normal -0.15643446504023134 0.9876883405951375 -0.0
  outer loop
    vertex 1.3000000000000003 45.0 0.0
    vertex 0.8982779073125685 44.9363734711837 3.9999999999999996
    vertex 1.3000000000000003 45.0 3.9999999999999996
  endloop
endfacet
facet normal -0.8910065241883685 0.4539904997395456 0.0
  outer loop
    vertex 0.2482779073125683 44.46412082798022 3.9999999999999996
    vertex 0.06362652881630039 44.10172209268743 0.0
    vertex 0.06362652881630039 44.10172209268743 3.9999999999999996
  endloop
endfacet
facet normal -0.8910065241883685 0.4539904997395456 0.0
  outer loop
    vertex 0.06362652881630039 44.10172209268743 0.0
    vertex 0.2482779073125683 44.46412082798022 3.9999999999999996
    vertex 0.2482779073125683 44.46412082798022 0.0
  endloop
endfacet
facet normal -0.9876883405951375 0.15643446504023167 0.0
  outer loop
    vertex 0.06362652881630039 44.10172209268743 3.9999999999999996
    vertex 0.0 43.7 0.0
    vertex 0.0 43.7 3.9999999999999996
  endloop
endfacet
facet normal -0.9876883405951375 0.15643446504023167 0.0
  outer loop
    vertex 0.0 43.7 0.0
    vertex 0.06362652881630039 44.10172209268743 3.9999999999999996
    vertex 0.06362652881630039 44.10172209268743 0.0
  endloop
endfacet
facet normal -0.45399049973954747 0.8910065241883676 -0.0
  outer loop
    vertex 0.5358791720197849 44.75172209268743 3.9999999999999996
    vertex 0.8982779073125685 44.9363734711837 0.0
    vertex 0.5358791720197849 44.75172209268743 0.0
  endloop
endfacet
facet normal -0.45399049973954747 0.8910065241883676 -0.0
  outer loop
    vertex 0.8982779073125685 44.9363734711837 0.0
    vertex 0.5358791720197849 44.75172209268743 3.9999999999999996
    vertex 0.8982779073125685 44.9363734711837 3.9999999999999996
  endloop
endfacet
facet normal 0.4539904997395493 0.8910065241883665 -0.0
  outer loop
    vertex 14.101722092687433 44.9363734711837 3.9999999999999996
    vertex 14.464120827980215 44.75172209268743 0.0
    vertex 14.101722092687433 44.9363734711837 0.0
  endloop
endfacet
facet normal 0.4539904997395493 0.8910065241883665 -0.0
  outer loop
    vertex 14.464120827980215 44.75172209268743 0.0
    vertex 14.101722092687433 44.9363734711837 3.9999999999999996
    vertex 14.464120827980215 44.75172209268743 3.9999999999999996
  endloop
endfacet
facet normal -0.7071067811865447 0.7071067811865503 -0.0
  outer loop
    vertex 0.2482779073125683 44.46412082798022 3.9999999999999996
    vertex 0.5358791720197849 44.75172209268743 0.0
    vertex 0.2482779073125683 44.46412082798022 0.0
  endloop
endfacet
facet normal -0.7071067811865447 0.7071067811865503 -0.0
  outer loop
    vertex 0.5358791720197849 44.75172209268743 0.0
    vertex 0.2482779073125683 44.46412082798022 3.9999999999999996
    vertex 0.5358791720197849 44.75172209268743 3.9999999999999996
  endloop
endfacet
facet normal 0.891006524188368 0.4539904997395466 -0.0
  outer loop
    vertex 14.751722092687432 44.46412082798022 0.0
    vertex 14.9363734711837 44.10172209268743 3.9999999999999996
    vertex 14.9363734711837 44.10172209268743 0.0
  endloop
endfacet
facet normal 0.891006524188368 0.4539904997395466 -0.0
  outer loop
    vertex 14.9363734711837 44.10172209268743 3.9999999999999996
    vertex 14.751722092687432 44.46412082798022 0.0
    vertex 14.751722092687432 44.46412082798022 3.9999999999999996
  endloop
endfacet
facet normal 0.9876883405951375 0.1564344650402321 -0.0
  outer loop
    vertex 14.9363734711837 44.10172209268743 0.0
    vertex 15.0 43.7 3.9999999999999996
    vertex 15.0 43.7 0.0
  endloop
endfacet
facet normal 0.9876883405951375 0.1564344650402321 -0.0
  outer loop
    vertex 15.0 43.7 3.9999999999999996
    vertex 14.9363734711837 44.10172209268743 0.0
    vertex 14.9363734711837 44.10172209268743 3.9999999999999996
  endloop
endfacet
facet normal 0.156434465040231 0.9876883405951375 -0.0
  outer loop
    vertex 13.700000000000001 45.0 3.9999999999999996
    vertex 14.101722092687433 44.9363734711837 0.0
    vertex 13.700000000000001 45.0 0.0
  endloop
endfacet
facet normal 0.156434465040231 0.9876883405951375 -0.0
  outer loop
    vertex 14.101722092687433 44.9363734711837 0.0
    vertex 13.700000000000001 45.0 3.9999999999999996
    vertex 14.101722092687433 44.9363734711837 3.9999999999999996
  endloop
endfacet
facet normal 0.707106781186544 0.707106781186551 -0.0
  outer loop
    vertex 14.464120827980215 44.75172209268743 3.9999999999999996
    vertex 14.751722092687432 44.46412082798022 0.0
    vertex 14.464120827980215 44.75172209268743 0.0
  endloop
endfacet
facet normal 0.707106781186544 0.707106781186551 -0.0
  outer loop
    vertex 14.751722092687432 44.46412082798022 0.0
    vertex 14.464120827980215 44.75172209268743 3.9999999999999996
    vertex 14.751722092687432 44.46412082798022 3.9999999999999996
  endloop
endfacet
facet normal 1.0 -0.0 -0.0
  outer loop
    vertex 15.0 0.0 0.0
    vertex 15.0 3.9999999999999996 3.9999999999999996
    vertex 15.0 0.0 17.7
  endloop
endfacet
facet normal 1.0 -0.0 -0.0
  outer loop
    vertex 15.0 3.9999999999999996 3.9999999999999996
    vertex 15.0 0.0 0.0
    vertex 15.0 43.7 0.0
  endloop
endfacet
facet normal 1.0 -0.0 -0.0
  outer loop
    vertex 15.0 3.9999999999999996 3.9999999999999996
    vertex 15.0 43.7 0.0
    vertex 15.0 5.3 3.9999999999999996
  endloop
endfacet
facet normal 1.0 -0.0 -0.0
  outer loop
    vertex 15.0 5.3 3.9999999999999996
    vertex 15.0 43.7 0.0
    vertex 15.0 43.7 3.9999999999999996
  endloop
endfacet
facet normal 1.0 -0.0 -0.0
  outer loop
    vertex 15.0 3.9999999999999996 3.9999999999999996
    vertex 15.0 3.9999999999999996 17.7
    vertex 15.0 0.0 17.7
  endloop
endfacet
facet normal 1.0 -0.0 -0.0
  outer loop
    vertex 15.0 3.9999999999999996 17.7
    vertex 15.0 3.9999999999999996 3.9999999999999996
    vertex 15.0 3.9999999999999996 5.3
  endloop
endfacet
facet normal -1.0 0.0 0.0
  outer loop
    vertex 0.0 3.9999999999999996 17.7
    vertex 0.0 0.0 0.0
    vertex 0.0 0.0 17.7
  endloop
endfacet
facet normal -1.0 0.0 0.0
  outer loop
    vertex 0.0 0.0 0.0
    vertex 0.0 3.9999999999999996 17.7
    vertex 0.0 3.9999999999999996 3.9999999999999996
  endloop
endfacet
facet normal -1.0 0.0 0.0
  outer loop
    vertex 0.0 0.0 0.0
    vertex 0.0 3.9999999999999996 3.9999999999999996
    vertex 0.0 43.7 0.0
  endloop
endfacet
facet normal -1.0 0.0 0.0
  outer loop
    vertex 0.0 3.9999999999999996 3.9999999999999996
    vertex 0.0 3.9999999999999996 17.7
    vertex 0.0 3.9999999999999996 5.3
  endloop
endfacet
facet normal -1.0 0.0 0.0
  outer loop
    vertex 0.0 43.7 0.0
    vertex 0.0 3.9999999999999996 3.9999999999999996
    vertex 0.0 5.300000000000001 3.9999999999999996
  endloop
endfacet
facet normal -1.0 0.0 0.0
  outer loop
    vertex 0.0 43.7 0.0
    vertex 0.0 5.300000000000001 3.9999999999999996
    vertex 0.0 43.7 3.9999999999999996
  endloop
endfacet
facet normal 0.4539904997395494 -0.0 0.8910065241883665
  outer loop
    vertex 14.464120827980215 0.0 18.75172209268743
    vertex 14.101722092687433 3.9999999999999996 18.9363734711837
    vertex 14.101722092687433 0.0 18.9363734711837
  endloop
endfacet
facet normal 0.4539904997395494 -0.0 0.8910065241883665
  outer loop
    vertex 14.101722092687433 3.9999999999999996 18.9363734711837
    vertex 14.464120827980215 0.0 18.75172209268743
    vertex 14.464120827980215 3.9999999999999996 18.75172209268743
  endloop
endfacet
facet normal 0.8910065241883665 -0.0 0.4539904997395493
  outer loop
    vertex 14.9363734711837 3.9999999999999996 18.10172209268743
    vertex 14.751722092687432 0.0 18.464120827980214
    vertex 14.9363734711837 0.0 18.10172209268743
  endloop
endfacet
facet normal 0.8910065241883665 -0.0 0.4539904997395493
  outer loop
    vertex 14.751722092687432 0.0 18.464120827980214
    vertex 14.9363734711837 3.9999999999999996 18.10172209268743
    vertex 14.751722092687432 3.9999999999999996 18.464120827980214
  endloop
endfacet
facet normal 0.9876883405951375 -0.0 0.15643446504023098
  outer loop
    vertex 15.0 3.9999999999999996 17.7
    vertex 14.9363734711837 0.0 18.10172209268743
    vertex 15.0 0.0 17.7
  endloop
endfacet
facet normal 0.9876883405951375 -0.0 0.15643446504023098
  outer loop
    vertex 14.9363734711837 0.0 18.10172209268743
    vertex 15.0 3.9999999999999996 17.7
    vertex 14.9363734711837 3.9999999999999996 18.10172209268743
  endloop
endfacet
facet normal -0.7071067811865483 0.0 0.7071067811865468
  outer loop
    vertex 0.535879172019785 3.9999999999999996 18.75172209268743
    vertex 0.2482779073125685 0.0 18.464120827980214
    vertex 0.535879172019785 0.0 18.75172209268743
  endloop
endfacet
facet normal -0.7071067811865483 0.0 0.7071067811865468
  outer loop
    vertex 0.2482779073125685 0.0 18.464120827980214
    vertex 0.535879172019785 3.9999999999999996 18.75172209268743
    vertex 0.2482779073125685 3.9999999999999996 18.464120827980214
  endloop
endfacet
facet normal 0.7071067811865475 -0.0 0.7071067811865476
  outer loop
    vertex 14.751722092687432 0.0 18.464120827980214
    vertex 14.464120827980215 3.9999999999999996 18.75172209268743
    vertex 14.464120827980215 0.0 18.75172209268743
  endloop
endfacet
facet normal 0.7071067811865475 -0.0 0.7071067811865476
  outer loop
    vertex 14.464120827980215 3.9999999999999996 18.75172209268743
    vertex 14.751722092687432 0.0 18.464120827980214
    vertex 14.751722092687432 3.9999999999999996 18.464120827980214
  endloop
endfacet
facet normal -0.9876883405951378 0.0 0.1564344650402306
  outer loop
    vertex 0.06362652881630039 3.9999999999999996 18.10172209268743
    vertex 0.0 0.0 17.7
    vertex 0.06362652881630039 0.0 18.10172209268743
  endloop
endfacet
facet normal -0.9876883405951378 0.0 0.1564344650402306
  outer loop
    vertex 0.0 0.0 17.7
    vertex 0.06362652881630039 3.9999999999999996 18.10172209268743
    vertex 0.0 3.9999999999999996 17.7
  endloop
endfacet
facet normal -0.45399049973954747 -0.0 0.8910065241883676
  outer loop
    vertex 0.8982779073125685 0.0 18.9363734711837
    vertex 0.535879172019785 3.9999999999999996 18.75172209268743
    vertex 0.535879172019785 0.0 18.75172209268743
  endloop
endfacet
facet normal -0.45399049973954747 -0.0 0.8910065241883676
  outer loop
    vertex 0.535879172019785 3.9999999999999996 18.75172209268743
    vertex 0.8982779073125685 0.0 18.9363734711837
    vertex 0.8982779073125685 3.9999999999999996 18.9363734711837
  endloop
endfacet
facet normal -0.891006524188367 0.0 0.4539904997395487
  outer loop
    vertex 0.2482779073125685 3.9999999999999996 18.464120827980214
    vertex 0.06362652881630039 0.0 18.10172209268743
    vertex 0.2482779073125685 0.0 18.464120827980214
  endloop
endfacet
facet normal -0.891006524188367 0.0 0.4539904997395487
  outer loop
    vertex 0.06362652881630039 0.0 18.10172209268743
    vertex 0.2482779073125685 3.9999999999999996 18.464120827980214
    vertex 0.06362652881630039 3.9999999999999996 18.10172209268743
  endloop
endfacet
facet normal -0.15643446504023137 3.419480799093807e-18 0.9876883405951375
  outer loop
    vertex 1.3 0.0 19.0
    vertex 0.8982779073125685 3.9999999999999996 18.9363734711837
    vertex 0.8982779073125685 0.0 18.9363734711837
  endloop
endfacet
facet normal -0.15643446504023137 3.419480799093807e-18 0.9876883405951375
  outer loop
    vertex 0.8982779073125685 3.9999999999999996 18.9363734711837
    vertex 1.3 0.0 19.0
    vertex 1.3000000000000003 3.9999999999999996 19.0
  endloop
endfacet
facet normal 0.156434465040231 -0.0 0.9876883405951375
  outer loop
    vertex 14.101722092687433 0.0 18.9363734711837
    vertex 13.700000000000001 3.9999999999999996 19.0
    vertex 13.700000000000001 0.0 19.0
  endloop
endfacet
facet normal 0.156434465040231 -0.0 0.9876883405951375
  outer loop
    vertex 13.700000000000001 3.9999999999999996 19.0
    vertex 14.101722092687433 0.0 18.9363734711837
    vertex 14.101722092687433 3.9999999999999996 18.9363734711837
  endloop
endfacet
endsolid FrameMount-AxisSwitcher-Rounded
