solid ENDSTOP
facet normal 1.0 0.0 -1.49011382954978e-008
outer loop
vertex 17.0 6.99999999999999 7.49999998509886
vertex 17.0000001117586 0.0 14.9999999850989
vertex 17.0 0.0 7.49999998509886
endloop
endfacet
facet normal 1.0 0.0 -1.49011382954978e-008
outer loop
vertex 17.0000001117586 0.0 14.9999999850989
vertex 17.0 6.99999999999999 7.49999998509886
vertex 17.0000001117586 6.99999999999999 14.9999999850989
endloop
endfacet
facet normal 4.50799125426951e-032 -1.0 1.82765025924995e-032
outer loop
vertex 1.11758542864493e-007 0.0 15.0000002384182
vertex 3.12500004593327 0.0 10.5825302135196
vertex 3.75000004842871 0.0 10.7500001825389
endloop
endfacet
facet normal 4.50799125426951e-032 -1.0 1.82765025924995e-032
outer loop
vertex 3.12500004593327 0.0 10.5825302135196
vertex 1.11758542864493e-007 0.0 15.0000002384182
vertex 5.63993296509579e-015 0.0 7.50000023841821
endloop
endfacet
facet normal 4.50799125426951e-032 -1.0 1.82765025924995e-032
outer loop
vertex 3.12500004593327 0.0 10.5825302135196
vertex 5.63993296509579e-015 0.0 7.50000023841821
vertex 2.66747001744802 0.0 10.1250001986699
endloop
endfacet
facet normal 4.50799125426951e-032 -1.0 1.82765025924995e-032
outer loop
vertex 2.66747001744802 0.0 10.1250001986699
vertex 5.63993296509579e-015 0.0 7.50000023841821
vertex 2.50000002980235 0.0 9.50000020116537
endloop
endfacet
facet normal 4.50799125426951e-032 -1.0 1.82765025924995e-032
outer loop
vertex 2.50000002980235 0.0 9.50000020116537
vertex 5.63993296509579e-015 0.0 7.50000023841821
vertex 2.6674699988216 0.0 8.87500019866988
endloop
endfacet
facet normal 4.50799125426951e-032 -1.0 1.82765025924995e-032
outer loop
vertex 2.6674699988216 0.0 8.87500019866988
vertex 5.63993296509579e-015 0.0 7.50000023841821
vertex 3.12500001367141 0.0 8.41747017018468
endloop
endfacet
facet normal 4.50799125426951e-032 -1.0 1.82765025924995e-032
outer loop
vertex 3.12500001367141 0.0 8.41747017018468
vertex 5.63993296509579e-015 0.0 7.50000023841821
vertex 3.75000001117591 0.0 8.25000018253895
endloop
endfacet
facet normal 4.50799125426951e-032 -1.0 1.82765025924995e-032
outer loop
vertex 3.75000001117591 0.0 8.25000018253895
vertex 5.63993296509579e-015 0.0 7.50000023841821
vertex 13.2500000111759 0.0 8.25000004097813
endloop
endfacet
facet normal 4.50799125426951e-032 -1.0 1.82765025924995e-032
outer loop
vertex 1.0 0.0 7.50000022351708
vertex 7.72354298677719 0.0 7.39778006488747
vertex 8.50000000000001 0.0 7.50000011175854
endloop
endfacet
facet normal 4.50799125426951e-032 -1.0 1.82765025924995e-032
outer loop
vertex 7.72354298677719 0.0 7.39778006488747
vertex 1.0 0.0 7.50000022351708
vertex 6.99999999401095 0.0 7.09808029234389
endloop
endfacet
facet normal 4.50799125426951e-032 -1.0 1.82765025924995e-032
outer loop
vertex 6.99999999401095 0.0 7.09808029234389
vertex 1.0 0.0 7.50000022351708
vertex 6.3786799776751 0.0 6.62131991418161
endloop
endfacet
facet normal 4.50799125426951e-032 -1.0 1.82765025924995e-032
outer loop
vertex 6.3786799776751 0.0 6.62131991418161
vertex 1.0 0.0 7.50000022351708
vertex 0.999999888241489 0.0 2.2351707444912e-007
endloop
endfacet
facet normal 4.50799125426951e-032 -1.0 1.82765025924995e-032
outer loop
vertex 6.3786799776751 0.0 6.62131991418161
vertex 0.999999888241489 0.0 2.2351707444912e-007
vertex 5.90192005783325 0.0 6.00000015047289
endloop
endfacet
facet normal 4.50799125426951e-032 -1.0 1.82765025924995e-032
outer loop
vertex 5.90192005783325 0.0 6.00000015047289
vertex 0.999999888241489 0.0 2.2351707444912e-007
vertex 5.60222002530793 0.0 5.27645984884745
endloop
endfacet
facet normal 4.50799125426951e-032 -1.0 1.82765025924995e-032
outer loop
vertex 5.60222002530793 0.0 5.27645984884745
vertex 0.999999888241489 0.0 2.2351707444912e-007
vertex 5.4999999552966 0.0 4.50000015646195
endloop
endfacet
facet normal 4.50799125426951e-032 -1.0 1.82765025924995e-032
outer loop
vertex 5.4999999552966 0.0 4.50000015646195
vertex 0.999999888241489 0.0 2.2351707444912e-007
vertex 5.4999998882415 0.0 1.56461951550391e-007
endloop
endfacet
facet normal 4.50799125426951e-032 -1.0 1.82765025924995e-032
outer loop
vertex 9.27645701017654 0.0 7.39778004174729
vertex 16.0 0.0 7.5
vertex 8.50000000000001 0.0 7.50000011175854
endloop
endfacet
facet normal 4.50799125426951e-032 -1.0 1.82765025924995e-032
outer loop
vertex 16.0 0.0 7.5
vertex 9.27645701017654 0.0 7.39778004174729
vertex 9.99999999401095 0.0 7.09808024764047
endloop
endfacet
facet normal 4.50799125426951e-032 -1.0 1.82765025924995e-032
outer loop
vertex 16.0 0.0 7.5
vertex 9.99999999401095 0.0 7.09808024764047
vertex 10.6213199961383 0.0 6.62131985096144
endloop
endfacet
facet normal 4.50799125426951e-032 -1.0 1.82765025924995e-032
outer loop
vertex 16.0 0.0 7.5
vertex 10.6213199961383 0.0 6.62131985096144
vertex 15.9999998882415 0.0 0.0
endloop
endfacet
facet normal 4.50799125426951e-032 -1.0 1.82765025924995e-032
outer loop
vertex 15.9999998882415 0.0 0.0
vertex 10.6213199961383 0.0 6.62131985096144
vertex 11.0980798974634 0.0 6.00000007304419
endloop
endfacet
facet normal 4.50799125426951e-032 -1.0 1.82765025924995e-032
outer loop
vertex 15.9999998882415 0.0 0.0
vertex 11.0980798974634 0.0 6.00000007304419
vertex 11.3977799084256 0.0 5.27645976248701
endloop
endfacet
facet normal 4.50799125426951e-032 -1.0 1.82765025924995e-032
outer loop
vertex 15.9999998882415 0.0 0.0
vertex 11.3977799084256 0.0 5.27645976248701
vertex 11.4999999552966 0.0 4.50000006705512
endloop
endfacet
facet normal 4.50799125426951e-032 -1.0 1.82765025924995e-032
outer loop
vertex 15.9999998882415 0.0 0.0
vertex 11.4999999552966 0.0 4.50000006705512
vertex 11.4999998882415 0.0 6.70551228987293e-008
endloop
endfacet
facet normal 4.50799125426951e-032 -1.0 1.82765025924995e-032
outer loop
vertex 17.0000001117586 0.0 14.9999999850989
vertex 13.8750000459333 0.0 10.5825300533324
vertex 17.0 0.0 7.49999998509886
endloop
endfacet
facet normal 4.50799125426951e-032 -1.0 1.82765025924995e-032
outer loop
vertex 13.8750000459333 0.0 10.5825300533324
vertex 17.0000001117586 0.0 14.9999999850989
vertex 1.11758542864493e-007 0.0 15.0000002384182
endloop
endfacet
facet normal 4.50799125426951e-032 -1.0 1.82765025924995e-032
outer loop
vertex 13.8750000459333 0.0 10.5825300533324
vertex 1.11758542864493e-007 0.0 15.0000002384182
vertex 13.2500000484288 0.0 10.7500000409781
endloop
endfacet
facet normal 4.50799125426951e-032 -1.0 1.82765025924995e-032
outer loop
vertex 13.2500000484288 0.0 10.7500000409781
vertex 1.11758542864493e-007 0.0 15.0000002384182
vertex 3.75000004842871 0.0 10.7500001825389
endloop
endfacet
facet normal 4.50799125426951e-032 -1.0 1.82765025924995e-032
outer loop
vertex 17.0 0.0 7.49999998509886
vertex 13.8750000459333 0.0 10.5825300533324
vertex 14.332530060783 0.0 10.1250000248472
endloop
endfacet
facet normal 4.50799125426951e-032 -1.0 1.82765025924995e-032
outer loop
vertex 17.0 0.0 7.49999998509886
vertex 14.332530060783 0.0 10.1250000248472
vertex 14.5000000298023 0.0 9.50000002235171
endloop
endfacet
facet normal 4.50799125426951e-032 -1.0 1.82765025924995e-032
outer loop
vertex 17.0 0.0 7.49999998509886
vertex 14.5000000298023 0.0 9.50000002235171
vertex 14.3325300421566 0.0 8.87500002484721
endloop
endfacet
facet normal 4.50799125426951e-032 -1.0 1.82765025924995e-032
outer loop
vertex 17.0 0.0 7.49999998509886
vertex 14.3325300421566 0.0 8.87500002484721
vertex 13.8750000136714 0.0 8.41747000999744
endloop
endfacet
facet normal 4.50799125426951e-032 -1.0 1.82765025924995e-032
outer loop
vertex 17.0 0.0 7.49999998509886
vertex 13.8750000136714 0.0 8.41747000999744
vertex 13.2500000111759 0.0 8.25000004097813
endloop
endfacet
facet normal 4.50799125426951e-032 -1.0 1.82765025924995e-032
outer loop
vertex 17.0 0.0 7.49999998509886
vertex 13.2500000111759 0.0 8.25000004097813
vertex 5.63993296509579e-015 0.0 7.50000023841821
endloop
endfacet
facet normal 4.50799125426951e-032 -1.0 1.82765025924995e-032
outer loop
vertex 17.0 0.0 7.49999998509886
vertex 5.63993296509579e-015 0.0 7.50000023841821
vertex 1.0 0.0 7.50000022351708
endloop
endfacet
facet normal 4.50799125426951e-032 -1.0 1.82765025924995e-032
outer loop
vertex 17.0 0.0 7.49999998509886
vertex 1.0 0.0 7.50000022351708
vertex 8.50000000000001 0.0 7.50000011175854
endloop
endfacet
facet normal 4.50799125426951e-032 -1.0 1.82765025924995e-032
outer loop
vertex 17.0 0.0 7.49999998509886
vertex 8.50000000000001 0.0 7.50000011175854
vertex 16.0 0.0 7.5
endloop
endfacet
facet normal 4.50799125426951e-032 -1.0 1.82765025924995e-032
outer loop
vertex 4.37500004593325 0.0 10.5825301948932
vertex 13.2500000484288 0.0 10.7500000409781
vertex 3.75000004842871 0.0 10.7500001825389
endloop
endfacet
facet normal 4.50799125426951e-032 -1.0 1.82765025924995e-032
outer loop
vertex 13.2500000484288 0.0 10.7500000409781
vertex 4.37500004593325 0.0 10.5825301948932
vertex 12.6250000459333 0.0 10.5825300719588
endloop
endfacet
facet normal 4.50799125426951e-032 -1.0 1.82765025924995e-032
outer loop
vertex 12.6250000459333 0.0 10.5825300719588
vertex 4.37500004593325 0.0 10.5825301948932
vertex 4.83253006078297 0.0 10.125000166408
endloop
endfacet
facet normal 4.50799125426951e-032 -1.0 1.82765025924995e-032
outer loop
vertex 12.6250000459333 0.0 10.5825300719588
vertex 4.83253006078297 0.0 10.125000166408
vertex 12.167470017448 0.0 10.1250000571091
endloop
endfacet
facet normal 4.50799125426951e-032 -1.0 1.82765025924995e-032
outer loop
vertex 12.167470017448 0.0 10.1250000571091
vertex 4.83253006078297 0.0 10.125000166408
vertex 12.0000000298023 0.0 9.50000005960455
endloop
endfacet
facet normal 4.50799125426951e-032 -1.0 1.82765025924995e-032
outer loop
vertex 12.0000000298023 0.0 9.50000005960455
vertex 4.83253006078297 0.0 10.125000166408
vertex 5.00000002980234 0.0 9.50000016391252
endloop
endfacet
facet normal 4.50799125426951e-032 -1.0 1.82765025924995e-032
outer loop
vertex 12.0000000298023 0.0 9.50000005960455
vertex 5.00000002980234 0.0 9.50000016391252
vertex 4.83253004215655 0.0 8.87500016640802
endloop
endfacet
facet normal 4.50799125426951e-032 -1.0 1.82765025924995e-032
outer loop
vertex 12.0000000298023 0.0 9.50000005960455
vertex 4.83253004215655 0.0 8.87500016640802
vertex 12.1674699988216 0.0 8.87500005710907
endloop
endfacet
facet normal 4.50799125426951e-032 -1.0 1.82765025924995e-032
outer loop
vertex 12.1674699988216 0.0 8.87500005710907
vertex 4.83253004215655 0.0 8.87500016640802
vertex 12.6250000136714 0.0 8.41747002862386
endloop
endfacet
facet normal 4.50799125426951e-032 -1.0 1.82765025924995e-032
outer loop
vertex 12.6250000136714 0.0 8.41747002862386
vertex 4.83253004215655 0.0 8.87500016640802
vertex 4.3750000136714 0.0 8.41747015155825
endloop
endfacet
facet normal 4.50799125426951e-032 -1.0 1.82765025924995e-032
outer loop
vertex 12.6250000136714 0.0 8.41747002862386
vertex 4.3750000136714 0.0 8.41747015155825
vertex 3.75000001117591 0.0 8.25000018253895
endloop
endfacet
facet normal 4.50799125426951e-032 -1.0 1.82765025924995e-032
outer loop
vertex 12.6250000136714 0.0 8.41747002862386
vertex 3.75000001117591 0.0 8.25000018253895
vertex 13.2500000111759 0.0 8.25000004097813
endloop
endfacet
facet normal 1.49011382954978e-008 0.0 1.0
outer loop
vertex 7.25000011175854 8.99999999999998 15.000000130385
vertex 9.7500001117586 6.99999999999999 15.0000000931321
vertex 9.7500001117586 8.99999999999998 15.0000000931321
endloop
endfacet
facet normal 1.49011382954978e-008 0.0 1.0
outer loop
vertex 9.7500001117586 6.99999999999999 15.0000000931321
vertex 17.0000001117586 0.0 14.9999999850989
vertex 17.0000001117586 6.99999999999999 14.9999999850989
endloop
endfacet
facet normal 1.49011382954978e-008 0.0 1.0
outer loop
vertex 17.0000001117586 0.0 14.9999999850989
vertex 9.7500001117586 6.99999999999999 15.0000000931321
vertex 1.11758542864493e-007 0.0 15.0000002384182
endloop
endfacet
facet normal 1.49011382954978e-008 0.0 1.0
outer loop
vertex 1.11758542864493e-007 0.0 15.0000002384182
vertex 9.7500001117586 6.99999999999999 15.0000000931321
vertex 7.25000011175854 6.99999999999999 15.000000130385
endloop
endfacet
facet normal 1.49011382954978e-008 0.0 1.0
outer loop
vertex 7.25000011175854 6.99999999999999 15.000000130385
vertex 9.7500001117586 6.99999999999999 15.0000000931321
vertex 7.25000011175854 8.99999999999998 15.000000130385
endloop
endfacet
facet normal 1.49011382954978e-008 0.0 1.0
outer loop
vertex 1.11758542864493e-007 0.0 15.0000002384182
vertex 7.25000011175854 6.99999999999999 15.000000130385
vertex 1.11758542864493e-007 6.99999999999999 15.0000002384182
endloop
endfacet
facet normal -1.49011382954978e-008 0.0 -1.0
outer loop
vertex 16.0 0.0 7.5
vertex 17.0 6.99999999999999 7.49999998509886
vertex 17.0 0.0 7.49999998509886
endloop
endfacet
facet normal -1.49011382954978e-008 0.0 -1.0
outer loop
vertex 17.0 6.99999999999999 7.49999998509886
vertex 16.0 0.0 7.5
vertex 16.0 6.99999999999999 7.5
endloop
endfacet
facet normal 1.0 0.0 -1.49011382954978e-008
outer loop
vertex 15.9999998882415 6.99999999999999 0.0
vertex 16.0 0.0 7.5
vertex 15.9999998882415 0.0 0.0
endloop
endfacet
facet normal 1.0 0.0 -1.49011382954978e-008
outer loop
vertex 16.0 0.0 7.5
vertex 15.9999998882415 6.99999999999999 0.0
vertex 16.0 6.99999999999999 7.5
endloop
endfacet
facet normal -1.49011382954978e-008 0.0 -1.0
outer loop
vertex 7.24999988824151 8.99999999999998 1.3038496009532e-007
vertex 7.87499988824151 8.99999999999998 1.21071741610024e-007
vertex 7.24999988824151 6.99999999999999 1.3038496009532e-007
endloop
endfacet
facet normal -1.49011382954978e-008 0.0 -1.0
outer loop
vertex 0.999999888241489 0.0 2.2351707444912e-007
vertex 5.4999998882415 3.39999997615815 1.56461951550391e-007
vertex 5.4999998882415 0.0 1.56461951550391e-007
endloop
endfacet
facet normal -1.49011382954978e-008 0.0 -1.0
outer loop
vertex 11.4999998882415 0.0 6.70551228987293e-008
vertex 15.9999998882415 6.99999999999999 0.0
vertex 15.9999998882415 0.0 0.0
endloop
endfacet
facet normal -1.49011382954978e-008 0.0 -1.0
outer loop
vertex 15.9999998882415 6.99999999999999 0.0
vertex 11.4999998882415 0.0 6.70551228987293e-008
vertex 11.4999998882415 3.39999997615815 6.70551228987293e-008
endloop
endfacet
facet normal -1.49011382954978e-008 0.0 -1.0
outer loop
vertex 15.9999998882415 6.99999999999999 0.0
vertex 11.4999998882415 3.39999997615815 6.70551228987293e-008
vertex 9.74999988824153 6.99999999999999 9.31321143538e-008
endloop
endfacet
facet normal -1.49011382954978e-008 0.0 -1.0
outer loop
vertex 9.74999988824153 6.99999999999999 9.31321143538e-008
vertex 11.4999998882415 3.39999997615815 6.70551228987293e-008
vertex 5.4999998882415 3.39999997615815 1.56461951550391e-007
endloop
endfacet
facet normal -1.49011382954978e-008 0.0 -1.0
outer loop
vertex 9.74999988824153 6.99999999999999 9.31321143538e-008
vertex 5.4999998882415 3.39999997615815 1.56461951550391e-007
vertex 9.74999988824153 8.99999999999998 9.31321143538e-008
endloop
endfacet
facet normal -1.49011382954978e-008 0.0 -1.0
outer loop
vertex 9.74999988824153 8.99999999999998 9.31321143538e-008
vertex 5.4999998882415 3.39999997615815 1.56461951550391e-007
vertex 9.12499988824149 8.99999999999998 1.02445327199163e-007
endloop
endfacet
facet normal -1.49011382954978e-008 0.0 -1.0
outer loop
vertex 9.12499988824149 8.99999999999998 1.02445327199163e-007
vertex 5.4999998882415 3.39999997615815 1.56461951550391e-007
vertex 7.24999988824151 6.99999999999999 1.3038496009532e-007
endloop
endfacet
facet normal -1.49011382954978e-008 0.0 -1.0
outer loop
vertex 9.12499988824149 8.99999999999998 1.02445327199163e-007
vertex 7.24999988824151 6.99999999999999 1.3038496009532e-007
vertex 7.87499988824151 8.99999999999998 1.21071741610024e-007
endloop
endfacet
facet normal -1.49011382954978e-008 0.0 -1.0
outer loop
vertex 7.24999988824151 6.99999999999999 1.3038496009532e-007
vertex 5.4999998882415 3.39999997615815 1.56461951550391e-007
vertex 0.999999888241489 6.99999999999999 2.2351707444912e-007
endloop
endfacet
facet normal -1.49011382954978e-008 0.0 -1.0
outer loop
vertex 0.999999888241489 6.99999999999999 2.2351707444912e-007
vertex 5.4999998882415 3.39999997615815 1.56461951550391e-007
vertex 0.999999888241489 0.0 2.2351707444912e-007
endloop
endfacet
facet normal -1.0 0.0 1.49011382954978e-008
outer loop
vertex 11.4999999552966 3.39999997615815 4.50000006705512
vertex 11.4999998882415 0.0 6.70551228987293e-008
vertex 11.4999999552966 0.0 4.50000006705512
endloop
endfacet
facet normal -1.0 0.0 1.49011382954978e-008
outer loop
vertex 11.4999998882415 0.0 6.70551228987293e-008
vertex 11.4999999552966 3.39999997615815 4.50000006705512
vertex 11.4999998882415 3.39999997615815 6.70551228987293e-008
endloop
endfacet
facet normal -0.991445325909116 0.0 -0.130522663675571
outer loop
vertex 11.3977799084256 3.39999997615815 5.27645976248701
vertex 11.4999999552966 0.0 4.50000006705512
vertex 11.3977799084256 0.0 5.27645976248701
endloop
endfacet
facet normal -0.991445325909116 0.0 -0.130522663675571
outer loop
vertex 11.4999999552966 0.0 4.50000006705512
vertex 11.3977799084256 3.39999997615815 5.27645976248701
vertex 11.4999999552966 3.39999997615815 4.50000006705512
endloop
endfacet
facet normal -0.923879622166213 0.0 -0.38268321591888
outer loop
vertex 11.0980798974634 3.39999997615815 6.00000007304419
vertex 11.3977799084256 0.0 5.27645976248701
vertex 11.0980798974634 0.0 6.00000007304419
endloop
endfacet
facet normal -0.923879622166213 0.0 -0.38268321591888
outer loop
vertex 11.3977799084256 0.0 5.27645976248701
vertex 11.0980798974634 3.39999997615815 6.00000007304419
vertex 11.3977799084256 3.39999997615815 5.27645976248701
endloop
endfacet
facet normal -0.793350585201011 0.0 -0.608765019495383
outer loop
vertex 10.6213199961383 3.39999997615815 6.62131985096144
vertex 11.0980798974634 0.0 6.00000007304419
vertex 10.6213199961383 0.0 6.62131985096144
endloop
endfacet
facet normal -0.793350585201011 0.0 -0.608765019495383
outer loop
vertex 11.0980798974634 0.0 6.00000007304419
vertex 10.6213199961383 3.39999997615815 6.62131985096144
vertex 11.0980798974634 3.39999997615815 6.00000007304419
endloop
endfacet
facet normal -0.608765279331139 0.0 -0.793350385820087
outer loop
vertex 9.99999999401095 0.0 7.09808024764047
vertex 10.6213199961383 3.39999997615815 6.62131985096144
vertex 10.6213199961383 0.0 6.62131985096144
endloop
endfacet
facet normal -0.608765279331139 0.0 -0.793350385820087
outer loop
vertex 10.6213199961383 3.39999997615815 6.62131985096144
vertex 9.99999999401095 0.0 7.09808024764047
vertex 9.99999999401095 3.39999997615815 7.09808024764047
endloop
endfacet
facet normal -0.382681772728957 0.0 -0.923880219953335
outer loop
vertex 9.27645701017654 0.0 7.39778004174729
vertex 9.99999999401095 3.39999997615815 7.09808024764047
vertex 9.99999999401095 0.0 7.09808024764047
endloop
endfacet
facet normal -0.382681772728957 0.0 -0.923880219953335
outer loop
vertex 9.99999999401095 3.39999997615815 7.09808024764047
vertex 9.27645701017654 0.0 7.39778004174729
vertex 9.27645701017654 3.39999997615815 7.39778004174729
endloop
endfacet
facet normal -0.130523136421803 0.0 -0.991445263672491
outer loop
vertex 8.50000000000001 0.0 7.50000011175854
vertex 9.27645701017654 3.39999997615815 7.39778004174729
vertex 9.27645701017654 0.0 7.39778004174729
endloop
endfacet
facet normal -0.130523136421803 0.0 -0.991445263672491
outer loop
vertex 9.27645701017654 3.39999997615815 7.39778004174729
vertex 8.50000000000001 0.0 7.50000011175854
vertex 8.50000000000001 3.39999997615815 7.50000011175854
endloop
endfacet
facet normal 0.130523106874477 0.0 -0.991445267562377
outer loop
vertex 7.72354298677719 0.0 7.39778006488747
vertex 8.50000000000001 3.39999997615815 7.50000011175854
vertex 8.50000000000001 0.0 7.50000011175854
endloop
endfacet
facet normal 0.130523106874477 0.0 -0.991445267562377
outer loop
vertex 8.50000000000001 3.39999997615815 7.50000011175854
vertex 7.72354298677719 0.0 7.39778006488747
vertex 7.72354298677719 3.39999997615815 7.39778006488747
endloop
endfacet
facet normal 0.382681745195222 0.0 -0.923880231358123
outer loop
vertex 6.99999999401095 0.0 7.09808029234389
vertex 7.72354298677719 3.39999997615815 7.39778006488747
vertex 7.72354298677719 0.0 7.39778006488747
endloop
endfacet
facet normal 0.382681745195222 0.0 -0.923880231358123
outer loop
vertex 7.72354298677719 3.39999997615815 7.39778006488747
vertex 6.99999999401095 0.0 7.09808029234389
vertex 6.99999999401095 3.39999997615815 7.09808029234389
endloop
endfacet
facet normal 0.608765255687491 0.0 -0.793350403962678
outer loop
vertex 6.3786799776751 0.0 6.62131991418161
vertex 6.99999999401095 3.39999997615815 7.09808029234389
vertex 6.99999999401095 0.0 7.09808029234389
endloop
endfacet
facet normal 0.608765255687491 0.0 -0.793350403962678
outer loop
vertex 6.99999999401095 3.39999997615815 7.09808029234389
vertex 6.3786799776751 0.0 6.62131991418161
vertex 6.3786799776751 3.39999997615815 6.62131991418161
endloop
endfacet
facet normal 0.793350567058427 0.0 -0.608765043139036
outer loop
vertex 5.90192005783325 3.39999997615815 6.00000015047289
vertex 6.3786799776751 0.0 6.62131991418161
vertex 5.90192005783325 0.0 6.00000015047289
endloop
endfacet
facet normal 0.793350567058427 0.0 -0.608765043139036
outer loop
vertex 6.3786799776751 0.0 6.62131991418161
vertex 5.90192005783325 3.39999997615815 6.00000015047289
vertex 6.3786799776751 3.39999997615815 6.62131991418161
endloop
endfacet
facet normal 0.923879610761381 0.0 -0.382683243452596
outer loop
vertex 5.60222002530793 3.39999997615815 5.27645984884745
vertex 5.90192005783325 0.0 6.00000015047289
vertex 5.60222002530793 0.0 5.27645984884745
endloop
endfacet
facet normal 0.923879610761381 0.0 -0.382683243452596
outer loop
vertex 5.90192005783325 0.0 6.00000015047289
vertex 5.60222002530793 3.39999997615815 5.27645984884745
vertex 5.90192005783325 3.39999997615815 6.00000015047289
endloop
endfacet
facet normal 0.991445322019243 0.0 -0.130522693222899
outer loop
vertex 5.4999999552966 3.39999997615815 4.50000015646195
vertex 5.60222002530793 0.0 5.27645984884745
vertex 5.4999999552966 0.0 4.50000015646195
endloop
endfacet
facet normal 0.991445322019243 0.0 -0.130522693222899
outer loop
vertex 5.60222002530793 0.0 5.27645984884745
vertex 5.4999999552966 3.39999997615815 4.50000015646195
vertex 5.60222002530793 3.39999997615815 5.27645984884745
endloop
endfacet
facet normal 1.0 0.0 -1.49011382954978e-008
outer loop
vertex 5.4999998882415 3.39999997615815 1.56461951550391e-007
vertex 5.4999999552966 0.0 4.50000015646195
vertex 5.4999998882415 0.0 1.56461951550391e-007
endloop
endfacet
facet normal 1.0 0.0 -1.49011382954978e-008
outer loop
vertex 5.4999999552966 0.0 4.50000015646195
vertex 5.4999998882415 3.39999997615815 1.56461951550391e-007
vertex 5.4999999552966 3.39999997615815 4.50000015646195
endloop
endfacet
facet normal -1.0 0.0 1.49011382954978e-008
outer loop
vertex 1.0 6.99999999999999 7.50000022351708
vertex 0.999999888241489 0.0 2.2351707444912e-007
vertex 1.0 0.0 7.50000022351708
endloop
endfacet
facet normal -1.0 0.0 1.49011382954978e-008
outer loop
vertex 0.999999888241489 0.0 2.2351707444912e-007
vertex 1.0 6.99999999999999 7.50000022351708
vertex 0.999999888241489 6.99999999999999 2.2351707444912e-007
endloop
endfacet
facet normal -1.49011382954978e-008 0.0 -1.0
outer loop
vertex 5.63993296509579e-015 0.0 7.50000023841821
vertex 1.0 6.99999999999999 7.50000022351708
vertex 1.0 0.0 7.50000022351708
endloop
endfacet
facet normal -1.49011382954978e-008 0.0 -1.0
outer loop
vertex 1.0 6.99999999999999 7.50000022351708
vertex 5.63993296509579e-015 0.0 7.50000023841821
vertex 5.63993296509579e-015 6.99999999999999 7.50000023841821
endloop
endfacet
facet normal -1.0 0.0 1.49011382954978e-008
outer loop
vertex 1.11758542864493e-007 6.99999999999999 15.0000002384182
vertex 5.63993296509579e-015 0.0 7.50000023841821
vertex 1.11758542864493e-007 0.0 15.0000002384182
endloop
endfacet
facet normal -1.0 0.0 1.49011382954978e-008
outer loop
vertex 5.63993296509579e-015 0.0 7.50000023841821
vertex 1.11758542864493e-007 6.99999999999999 15.0000002384182
vertex 5.63993296509579e-015 6.99999999999999 7.50000023841821
endloop
endfacet
facet normal -0.965925160538885 0.0 -0.258821529703248
outer loop
vertex 14.332530060783 6.99999999999999 10.1250000248472
vertex 14.5000000298023 0.0 9.50000002235171
vertex 14.332530060783 0.0 10.1250000248472
endloop
endfacet
facet normal -0.965925160538885 0.0 -0.258821529703248
outer loop
vertex 14.5000000298023 0.0 9.50000002235171
vertex 14.332530060783 6.99999999999999 10.1250000248472
vertex 14.5000000298023 6.99999999999999 9.50000002235171
endloop
endfacet
facet normal -0.965925152825414 0.0 0.258821558490017
outer loop
vertex 14.5000000298023 6.99999999999999 9.50000002235171
vertex 14.3325300421566 0.0 8.87500002484721
vertex 14.5000000298023 0.0 9.50000002235171
endloop
endfacet
facet normal -0.965925152825414 0.0 0.258821558490017
outer loop
vertex 14.3325300421566 0.0 8.87500002484721
vertex 14.5000000298023 6.99999999999999 9.50000002235171
vertex 14.3325300421566 6.99999999999999 8.87500002484721
endloop
endfacet
facet normal -0.707106791723244 0.0 -0.707106770649851
outer loop
vertex 13.8750000459333 6.99999999999999 10.5825300533324
vertex 14.332530060783 0.0 10.1250000248472
vertex 13.8750000459333 0.0 10.5825300533324
endloop
endfacet
facet normal -0.707106791723244 0.0 -0.707106770649851
outer loop
vertex 14.332530060783 0.0 10.1250000248472
vertex 13.8750000459333 6.99999999999999 10.5825300533324
vertex 14.332530060783 6.99999999999999 10.1250000248472
endloop
endfacet
facet normal -0.258821558490016 0.0 -0.965925152825414
outer loop
vertex 13.2500000484288 0.0 10.7500000409781
vertex 13.8750000459333 6.99999999999999 10.5825300533324
vertex 13.8750000459333 0.0 10.5825300533324
endloop
endfacet
facet normal -0.258821558490016 0.0 -0.965925152825414
outer loop
vertex 13.8750000459333 6.99999999999999 10.5825300533324
vertex 13.2500000484288 0.0 10.7500000409781
vertex 13.2500000484288 6.99999999999999 10.7500000409781
endloop
endfacet
facet normal 0.258821529703247 0.0 -0.965925160538885
outer loop
vertex 12.6250000459333 0.0 10.5825300719588
vertex 13.2500000484288 6.99999999999999 10.7500000409781
vertex 13.2500000484288 0.0 10.7500000409781
endloop
endfacet
facet normal 0.258821529703247 0.0 -0.965925160538885
outer loop
vertex 13.2500000484288 6.99999999999999 10.7500000409781
vertex 12.6250000459333 0.0 10.5825300719588
vertex 12.6250000459333 6.99999999999999 10.5825300719588
endloop
endfacet
facet normal 0.707106770649851 0.0 -0.707106791723244
outer loop
vertex 12.167470017448 0.0 10.1250000571091
vertex 12.6250000459333 6.99999999999999 10.5825300719588
vertex 12.6250000459333 0.0 10.5825300719588
endloop
endfacet
facet normal 0.707106770649851 0.0 -0.707106791723244
outer loop
vertex 12.6250000459333 6.99999999999999 10.5825300719588
vertex 12.167470017448 0.0 10.1250000571091
vertex 12.167470017448 6.99999999999999 10.1250000571091
endloop
endfacet
facet normal 0.965925152825414 0.0 -0.258821558490016
outer loop
vertex 12.0000000298023 6.99999999999999 9.50000005960455
vertex 12.167470017448 0.0 10.1250000571091
vertex 12.0000000298023 0.0 9.50000005960455
endloop
endfacet
facet normal 0.965925152825414 0.0 -0.258821558490016
outer loop
vertex 12.167470017448 0.0 10.1250000571091
vertex 12.0000000298023 6.99999999999999 9.50000005960455
vertex 12.167470017448 6.99999999999999 10.1250000571091
endloop
endfacet
facet normal 0.965925160538885 0.0 0.258821529703247
outer loop
vertex 12.1674699988216 6.99999999999999 8.87500005710907
vertex 12.0000000298023 0.0 9.50000005960455
vertex 12.1674699988216 0.0 8.87500005710907
endloop
endfacet
facet normal 0.965925160538885 0.0 0.258821529703247
outer loop
vertex 12.0000000298023 0.0 9.50000005960455
vertex 12.1674699988216 6.99999999999999 8.87500005710907
vertex 12.0000000298023 6.99999999999999 9.50000005960455
endloop
endfacet
facet normal 0.707106791723244 0.0 0.707106770649851
outer loop
vertex 12.6250000136714 6.99999999999999 8.41747002862386
vertex 12.1674699988216 0.0 8.87500005710907
vertex 12.6250000136714 0.0 8.41747002862386
endloop
endfacet
facet normal 0.707106791723244 0.0 0.707106770649851
outer loop
vertex 12.1674699988216 0.0 8.87500005710907
vertex 12.6250000136714 6.99999999999999 8.41747002862386
vertex 12.1674699988216 6.99999999999999 8.87500005710907
endloop
endfacet
facet normal 0.258821558490016 0.0 0.965925152825414
outer loop
vertex 12.6250000136714 6.99999999999999 8.41747002862386
vertex 13.2500000111759 0.0 8.25000004097813
vertex 13.2500000111759 6.99999999999999 8.25000004097813
endloop
endfacet
facet normal 0.258821558490016 0.0 0.965925152825414
outer loop
vertex 13.2500000111759 0.0 8.25000004097813
vertex 12.6250000136714 6.99999999999999 8.41747002862386
vertex 12.6250000136714 0.0 8.41747002862386
endloop
endfacet
facet normal -0.258821529703247 0.0 0.965925160538885
outer loop
vertex 13.2500000111759 6.99999999999999 8.25000004097813
vertex 13.8750000136714 0.0 8.41747000999744
vertex 13.8750000136714 6.99999999999999 8.41747000999744
endloop
endfacet
facet normal -0.258821529703247 0.0 0.965925160538885
outer loop
vertex 13.8750000136714 0.0 8.41747000999744
vertex 13.2500000111759 6.99999999999999 8.25000004097813
vertex 13.2500000111759 0.0 8.25000004097813
endloop
endfacet
facet normal -0.707106770649852 0.0 0.707106791723243
outer loop
vertex 14.3325300421566 6.99999999999999 8.87500002484721
vertex 13.8750000136714 0.0 8.41747000999744
vertex 14.3325300421566 0.0 8.87500002484721
endloop
endfacet
facet normal -0.707106770649852 0.0 0.707106791723243
outer loop
vertex 13.8750000136714 0.0 8.41747000999744
vertex 14.3325300421566 6.99999999999999 8.87500002484721
vertex 13.8750000136714 6.99999999999999 8.41747000999744
endloop
endfacet
facet normal -0.965925160538885 0.0 -0.258821529703247
outer loop
vertex 4.83253006078297 6.99999999999999 10.125000166408
vertex 5.00000002980234 0.0 9.50000016391252
vertex 4.83253006078297 0.0 10.125000166408
endloop
endfacet
facet normal -0.965925160538885 0.0 -0.258821529703247
outer loop
vertex 5.00000002980234 0.0 9.50000016391252
vertex 4.83253006078297 6.99999999999999 10.125000166408
vertex 5.00000002980234 6.99999999999999 9.50000016391252
endloop
endfacet
facet normal -0.965925152825414 0.0 0.258821558490016
outer loop
vertex 5.00000002980234 6.99999999999999 9.50000016391252
vertex 4.83253004215655 0.0 8.87500016640802
vertex 5.00000002980234 0.0 9.50000016391252
endloop
endfacet
facet normal -0.965925152825414 0.0 0.258821558490016
outer loop
vertex 4.83253004215655 0.0 8.87500016640802
vertex 5.00000002980234 6.99999999999999 9.50000016391252
vertex 4.83253004215655 6.99999999999999 8.87500016640802
endloop
endfacet
facet normal -0.707106791723244 0.0 -0.707106770649851
outer loop
vertex 4.37500004593325 6.99999999999999 10.5825301948932
vertex 4.83253006078297 0.0 10.125000166408
vertex 4.37500004593325 0.0 10.5825301948932
endloop
endfacet
facet normal -0.707106791723244 0.0 -0.707106770649851
outer loop
vertex 4.83253006078297 0.0 10.125000166408
vertex 4.37500004593325 6.99999999999999 10.5825301948932
vertex 4.83253006078297 6.99999999999999 10.125000166408
endloop
endfacet
facet normal -0.258821558490016 0.0 -0.965925152825414
outer loop
vertex 3.75000004842871 0.0 10.7500001825389
vertex 4.37500004593325 6.99999999999999 10.5825301948932
vertex 4.37500004593325 0.0 10.5825301948932
endloop
endfacet
facet normal -0.258821558490016 0.0 -0.965925152825414
outer loop
vertex 4.37500004593325 6.99999999999999 10.5825301948932
vertex 3.75000004842871 0.0 10.7500001825389
vertex 3.75000004842871 6.99999999999999 10.7500001825389
endloop
endfacet
facet normal 0.258821529703247 0.0 -0.965925160538885
outer loop
vertex 3.12500004593327 0.0 10.5825302135196
vertex 3.75000004842871 6.99999999999999 10.7500001825389
vertex 3.75000004842871 0.0 10.7500001825389
endloop
endfacet
facet normal 0.258821529703247 0.0 -0.965925160538885
outer loop
vertex 3.75000004842871 6.99999999999999 10.7500001825389
vertex 3.12500004593327 0.0 10.5825302135196
vertex 3.12500004593327 6.99999999999999 10.5825302135196
endloop
endfacet
facet normal 0.707106770649851 0.0 -0.707106791723244
outer loop
vertex 2.66747001744802 0.0 10.1250001986699
vertex 3.12500004593327 6.99999999999999 10.5825302135196
vertex 3.12500004593327 0.0 10.5825302135196
endloop
endfacet
facet normal 0.707106770649851 0.0 -0.707106791723244
outer loop
vertex 3.12500004593327 6.99999999999999 10.5825302135196
vertex 2.66747001744802 0.0 10.1250001986699
vertex 2.66747001744802 6.99999999999999 10.1250001986699
endloop
endfacet
facet normal 0.965925152825414 0.0 -0.258821558490017
outer loop
vertex 2.50000002980235 6.99999999999999 9.50000020116537
vertex 2.66747001744802 0.0 10.1250001986699
vertex 2.50000002980235 0.0 9.50000020116537
endloop
endfacet
facet normal 0.965925152825414 0.0 -0.258821558490017
outer loop
vertex 2.66747001744802 0.0 10.1250001986699
vertex 2.50000002980235 6.99999999999999 9.50000020116537
vertex 2.66747001744802 6.99999999999999 10.1250001986699
endloop
endfacet
facet normal 0.965925160538885 0.0 0.258821529703248
outer loop
vertex 2.6674699988216 6.99999999999999 8.87500019866988
vertex 2.50000002980235 0.0 9.50000020116537
vertex 2.6674699988216 0.0 8.87500019866988
endloop
endfacet
facet normal 0.965925160538885 0.0 0.258821529703248
outer loop
vertex 2.50000002980235 0.0 9.50000020116537
vertex 2.6674699988216 6.99999999999999 8.87500019866988
vertex 2.50000002980235 6.99999999999999 9.50000020116537
endloop
endfacet
facet normal 0.707106791723244 0.0 0.707106770649851
outer loop
vertex 3.12500001367141 6.99999999999999 8.41747017018468
vertex 2.6674699988216 0.0 8.87500019866988
vertex 3.12500001367141 0.0 8.41747017018468
endloop
endfacet
facet normal 0.707106791723244 0.0 0.707106770649851
outer loop
vertex 2.6674699988216 0.0 8.87500019866988
vertex 3.12500001367141 6.99999999999999 8.41747017018468
vertex 2.6674699988216 6.99999999999999 8.87500019866988
endloop
endfacet
facet normal 0.258821558490016 0.0 0.965925152825414
outer loop
vertex 3.12500001367141 6.99999999999999 8.41747017018468
vertex 3.75000001117591 0.0 8.25000018253895
vertex 3.75000001117591 6.99999999999999 8.25000018253895
endloop
endfacet
facet normal 0.258821558490016 0.0 0.965925152825414
outer loop
vertex 3.75000001117591 0.0 8.25000018253895
vertex 3.12500001367141 6.99999999999999 8.41747017018468
vertex 3.12500001367141 0.0 8.41747017018468
endloop
endfacet
facet normal -0.258821529703247 0.0 0.965925160538885
outer loop
vertex 3.75000001117591 6.99999999999999 8.25000018253895
vertex 4.3750000136714 0.0 8.41747015155825
vertex 4.3750000136714 6.99999999999999 8.41747015155825
endloop
endfacet
facet normal -0.258821529703247 0.0 0.965925160538885
outer loop
vertex 4.3750000136714 0.0 8.41747015155825
vertex 3.75000001117591 6.99999999999999 8.25000018253895
vertex 3.75000001117591 0.0 8.25000018253895
endloop
endfacet
facet normal -0.707106770649851 0.0 0.707106791723244
outer loop
vertex 4.3750000136714 6.99999999999999 8.41747015155825
vertex 4.83253004215655 0.0 8.87500016640802
vertex 4.83253004215655 6.99999999999999 8.87500016640802
endloop
endfacet
facet normal -0.707106770649851 0.0 0.707106791723244
outer loop
vertex 4.83253004215655 0.0 8.87500016640802
vertex 4.3750000136714 6.99999999999999 8.41747015155825
vertex 4.3750000136714 0.0 8.41747015155825
endloop
endfacet
facet normal -0.0 -1.0 0.0
outer loop
vertex 7.72354298677719 3.39999997615815 7.39778006488747
vertex 9.27645701017654 3.39999997615815 7.39778004174729
vertex 8.50000000000001 3.39999997615815 7.50000011175854
endloop
endfacet
facet normal -0.0 -1.0 0.0
outer loop
vertex 9.27645701017654 3.39999997615815 7.39778004174729
vertex 7.72354298677719 3.39999997615815 7.39778006488747
vertex 9.99999999401095 3.39999997615815 7.09808024764047
endloop
endfacet
facet normal -0.0 -1.0 0.0
outer loop
vertex 9.99999999401095 3.39999997615815 7.09808024764047
vertex 7.72354298677719 3.39999997615815 7.39778006488747
vertex 6.99999999401095 3.39999997615815 7.09808029234389
endloop
endfacet
facet normal -0.0 -1.0 0.0
outer loop
vertex 9.99999999401095 3.39999997615815 7.09808024764047
vertex 6.99999999401095 3.39999997615815 7.09808029234389
vertex 6.3786799776751 3.39999997615815 6.62131991418161
endloop
endfacet
facet normal -0.0 -1.0 0.0
outer loop
vertex 9.99999999401095 3.39999997615815 7.09808024764047
vertex 6.3786799776751 3.39999997615815 6.62131991418161
vertex 10.6213199961383 3.39999997615815 6.62131985096144
endloop
endfacet
facet normal -0.0 -1.0 0.0
outer loop
vertex 10.6213199961383 3.39999997615815 6.62131985096144
vertex 6.3786799776751 3.39999997615815 6.62131991418161
vertex 5.90192005783325 3.39999997615815 6.00000015047289
endloop
endfacet
facet normal -0.0 -1.0 0.0
outer loop
vertex 10.6213199961383 3.39999997615815 6.62131985096144
vertex 5.90192005783325 3.39999997615815 6.00000015047289
vertex 8.49999998100107 3.39999997615815 6.22500049322827
endloop
endfacet
facet normal -0.0 -1.0 0.0
outer loop
vertex 8.49999998100107 3.39999997615815 6.22500049322827
vertex 5.90192005783325 3.39999997615815 6.00000015047289
vertex 7.63749996563633 3.39999997615815 5.99388993326555
endloop
endfacet
facet normal -0.0 -1.0 0.0
outer loop
vertex 7.63749996563633 3.39999997615815 5.99388993326555
vertex 5.90192005783325 3.39999997615815 6.00000015047289
vertex 5.60222002530793 3.39999997615815 5.27645984884745
endloop
endfacet
facet normal -0.0 -1.0 0.0
outer loop
vertex 7.63749996563633 3.39999997615815 5.99388993326555
vertex 5.60222002530793 3.39999997615815 5.27645984884745
vertex 7.00610992107547 3.39999997615815 5.36250032475406
endloop
endfacet
facet normal -0.0 -1.0 0.0
outer loop
vertex 7.00610992107547 3.39999997615815 5.36250032475406
vertex 5.60222002530793 3.39999997615815 5.27645984884745
vertex 6.77499993145474 3.39999997615815 4.500000137463
endloop
endfacet
facet normal -0.0 -1.0 0.0
outer loop
vertex 6.77499993145474 3.39999997615815 4.500000137463
vertex 5.60222002530793 3.39999997615815 5.27645984884745
vertex 5.4999999552966 3.39999997615815 4.50000015646195
endloop
endfacet
facet normal -0.0 -1.0 0.0
outer loop
vertex 6.77499993145474 3.39999997615815 4.500000137463
vertex 5.4999999552966 3.39999997615815 4.50000015646195
vertex 7.006109895371 3.39999997615815 3.63749994328433
endloop
endfacet
facet normal -0.0 -1.0 0.0
outer loop
vertex 7.006109895371 3.39999997615815 3.63749994328433
vertex 5.4999999552966 3.39999997615815 4.50000015646195
vertex 5.4999998882415 3.39999997615815 1.56461951550391e-007
endloop
endfacet
facet normal -0.0 -1.0 0.0
outer loop
vertex 7.006109895371 3.39999997615815 3.63749994328433
vertex 5.4999998882415 3.39999997615815 1.56461951550391e-007
vertex 7.63749992111485 3.39999997615815 3.0060998255385
endloop
endfacet
facet normal -0.0 -1.0 0.0
outer loop
vertex 7.63749992111485 3.39999997615815 3.0060998255385
vertex 5.4999998882415 3.39999997615815 1.56461951550391e-007
vertex 8.49999992959213 3.39999997615815 2.77499973028881
endloop
endfacet
facet normal -0.0 -1.0 0.0
outer loop
vertex 8.49999998100107 3.39999997615815 6.22500049322827
vertex 11.0980798974634 3.39999997615815 6.00000007304419
vertex 10.6213199961383 3.39999997615815 6.62131985096144
endloop
endfacet
facet normal -0.0 -1.0 0.0
outer loop
vertex 11.0980798974634 3.39999997615815 6.00000007304419
vertex 8.49999998100107 3.39999997615815 6.22500049322827
vertex 9.36249998947819 3.39999997615815 5.99388990756109
endloop
endfacet
facet normal -0.0 -1.0 0.0
outer loop
vertex 11.0980798974634 3.39999997615815 6.00000007304419
vertex 9.36249998947819 3.39999997615815 5.99388990756109
vertex 11.3977799084256 3.39999997615815 5.27645976248701
endloop
endfacet
facet normal -0.0 -1.0 0.0
outer loop
vertex 11.3977799084256 3.39999997615815 5.27645976248701
vertex 9.36249998947819 3.39999997615815 5.99388990756109
vertex 9.99389001522219 3.39999997615815 5.36250028023274
endloop
endfacet
facet normal -0.0 -1.0 0.0
outer loop
vertex 11.3977799084256 3.39999997615815 5.27645976248701
vertex 9.99389001522219 3.39999997615815 5.36250028023274
vertex 10.2249999791385 3.39999997615815 4.50000008605407
endloop
endfacet
facet normal -0.0 -1.0 0.0
outer loop
vertex 11.3977799084256 3.39999997615815 5.27645976248701
vertex 10.2249999791385 3.39999997615815 4.50000008605407
vertex 11.4999999552966 3.39999997615815 4.50000006705512
endloop
endfacet
facet normal -0.0 -1.0 0.0
outer loop
vertex 11.4999999552966 3.39999997615815 4.50000006705512
vertex 10.2249999791385 3.39999997615815 4.50000008605407
vertex 11.4999998882415 3.39999997615815 6.70551228987293e-008
endloop
endfacet
facet normal -0.0 -1.0 0.0
outer loop
vertex 11.4999998882415 3.39999997615815 6.70551228987293e-008
vertex 10.2249999791385 3.39999997615815 4.50000008605407
vertex 9.99388998951772 3.39999997615815 3.63749989876301
endloop
endfacet
facet normal -0.0 -1.0 0.0
outer loop
vertex 11.4999998882415 3.39999997615815 6.70551228987293e-008
vertex 9.99388998951772 3.39999997615815 3.63749989876301
vertex 9.36249994495671 3.39999997615815 3.00609979983404
endloop
endfacet
facet normal -0.0 -1.0 0.0
outer loop
vertex 11.4999998882415 3.39999997615815 6.70551228987293e-008
vertex 9.36249994495671 3.39999997615815 3.00609979983404
vertex 8.49999992959213 3.39999997615815 2.77499973028881
endloop
endfacet
facet normal -0.0 -1.0 0.0
outer loop
vertex 11.4999998882415 3.39999997615815 6.70551228987293e-008
vertex 8.49999992959213 3.39999997615815 2.77499973028881
vertex 5.4999998882415 3.39999997615815 1.56461951550391e-007
endloop
endfacet
facet normal 0.70711220466063 3.51002887678665e-007 0.70710135767078
outer loop
vertex 7.63749992111485 6.99999999999999 3.0060998255385
vertex 7.006109895371 3.39999997615815 3.63749994328433
vertex 7.63749992111485 3.39999997615815 3.0060998255385
endloop
endfacet
facet normal 0.70711220466063 3.51002887678665e-007 0.70710135767078
outer loop
vertex 7.006109895371 3.39999997615815 3.63749994328433
vertex 7.63749992111485 6.99999999999999 3.0060998255385
vertex 7.006109895371 6.99999999999999 3.63749994328433
endloop
endfacet
facet normal 0.70711220466063 3.51002887678665e-007 0.70710135767078
outer loop
vertex 7.006109895371 6.99999999999999 3.63749994328433
vertex 7.63749992111485 6.99999999999999 3.0060998255385
vertex 7.2499999388101 6.99999999999999 3.39360600155943
endloop
endfacet
facet normal 0.965924781006793 0.0 0.258822946117572
outer loop
vertex 7.006109895371 6.99999999999999 3.63749994328433
vertex 6.77499993145474 3.39999997615815 4.500000137463
vertex 7.006109895371 3.39999997615815 3.63749994328433
endloop
endfacet
facet normal 0.965924781006793 0.0 0.258822946117572
outer loop
vertex 6.77499993145474 3.39999997615815 4.500000137463
vertex 7.006109895371 6.99999999999999 3.63749994328433
vertex 6.77499993145474 6.99999999999999 4.500000137463
endloop
endfacet
facet normal 0.965924773293279 0.0 -0.25882297490433
outer loop
vertex 6.77499993145474 6.99999999999999 4.500000137463
vertex 7.00610992107547 3.39999997615815 5.36250032475406
vertex 6.77499993145474 3.39999997615815 4.500000137463
endloop
endfacet
facet normal 0.965924773293279 0.0 -0.25882297490433
outer loop
vertex 7.00610992107547 3.39999997615815 5.36250032475406
vertex 6.77499993145474 6.99999999999999 4.500000137463
vertex 7.00610992107547 6.99999999999999 5.36250032475406
endloop
endfacet
facet normal -0.258812657603209 0.0 0.965927537791714
outer loop
vertex 8.49999992959213 6.99999999999999 2.77499973028881
vertex 9.36249994495671 3.39999997615815 3.00609979983404
vertex 9.36249994495671 6.99999999999999 3.00609979983404
endloop
endfacet
facet normal -0.258812657603209 0.0 0.965927537791714
outer loop
vertex 9.36249994495671 3.39999997615815 3.00609979983404
vertex 8.49999992959213 6.99999999999999 2.77499973028881
vertex 8.49999992959213 3.39999997615815 2.77499973028881
endloop
endfacet
facet normal 0.258823618985404 0.0 -0.965924600709237
outer loop
vertex 7.63749996563633 3.39999997615815 5.99388993326555
vertex 8.49999998100107 6.99999999999999 6.22500049322827
vertex 8.49999998100107 3.39999997615815 6.22500049322827
endloop
endfacet
facet normal 0.258823618985404 0.0 -0.965924600709237
outer loop
vertex 8.49999998100107 6.99999999999999 6.22500049322827
vertex 7.63749996563633 3.39999997615815 5.99388993326555
vertex 7.63749996563633 6.99999999999999 5.99388993326555
endloop
endfacet
facet normal 0.707106537016065 0.0 -0.707107025356946
outer loop
vertex 7.00610992107547 3.39999997615815 5.36250032475406
vertex 7.63749996563633 6.99999999999999 5.99388993326555
vertex 7.63749996563633 3.39999997615815 5.99388993326555
endloop
endfacet
facet normal 0.707106537016065 0.0 -0.707107025356946
outer loop
vertex 7.63749996563633 6.99999999999999 5.99388993326555
vertex 7.00610992107547 3.39999997615815 5.36250032475406
vertex 7.24999997178306 6.99999999999999 5.60639020702678
endloop
endfacet
facet normal 0.707106537016065 0.0 -0.707107025356946
outer loop
vertex 7.24999997178306 6.99999999999999 5.60639020702678
vertex 7.00610992107547 3.39999997615815 5.36250032475406
vertex 7.00610992107547 6.99999999999999 5.36250032475406
endloop
endfacet
facet normal 0.258812686390049 0.0 0.965927530078508
outer loop
vertex 7.63749992111485 6.99999999999999 3.0060998255385
vertex 8.49999992959213 3.39999997615815 2.77499973028881
vertex 8.49999992959213 6.99999999999999 2.77499973028881
endloop
endfacet
facet normal 0.258812686390049 0.0 0.965927530078508
outer loop
vertex 8.49999992959213 3.39999997615815 2.77499973028881
vertex 7.63749992111485 6.99999999999999 3.0060998255385
vertex 7.63749992111485 3.39999997615815 3.0060998255385
endloop
endfacet
facet normal 0.0 1.0 0.0
outer loop
vertex 9.75000002030287 8.99999999999998 8.86250028386698
vertex 7.25000011175854 8.99999999999998 15.000000130385
vertex 9.7500001117586 8.99999999999998 15.0000000931321
endloop
endfacet
facet normal 0.0 1.0 0.0
outer loop
vertex 7.25000011175854 8.99999999999998 15.000000130385
vertex 9.75000002030287 8.99999999999998 8.86250028386698
vertex 7.25000002030285 8.99999999999998 8.86250032111982
endloop
endfacet
facet normal 0.0 1.0 0.0
outer loop
vertex 7.25000002030285 8.99999999999998 8.86250032111982
vertex 9.75000002030287 8.99999999999998 8.86250028386698
vertex 9.12500002030285 8.99999999999998 8.86250029318019
endloop
endfacet
facet normal 0.0 1.0 0.0
outer loop
vertex 7.25000002030285 8.99999999999998 8.86250032111982
vertex 9.12500002030285 8.99999999999998 8.86250029318019
vertex 7.87500002030287 8.99999999999998 8.86250031180661
endloop
endfacet
facet normal -1.0 0.0 1.49011382954978e-008
outer loop
vertex 7.25000011175854 8.99999999999998 15.000000130385
vertex 7.24999997178306 6.99999999999999 5.60639020702678
vertex 7.25000011175854 6.99999999999999 15.000000130385
endloop
endfacet
facet normal -1.0 0.0 1.49011382954978e-008
outer loop
vertex 7.24999997178306 6.99999999999999 5.60639020702678
vertex 7.25000011175854 8.99999999999998 15.000000130385
vertex 7.25000002030285 8.99999999999998 8.86250032111982
endloop
endfacet
facet normal 1.0 0.0 -1.49011382954978e-008
outer loop
vertex 9.75000002030287 8.99999999999998 8.86250028386698
vertex 9.7500001117586 6.99999999999999 15.0000000931321
vertex 9.74999997178308 6.99999999999999 5.60639016977393
endloop
endfacet
facet normal 1.0 0.0 -1.49011382954978e-008
outer loop
vertex 9.7500001117586 6.99999999999999 15.0000000931321
vertex 9.75000002030287 8.99999999999998 8.86250028386698
vertex 9.7500001117586 8.99999999999998 15.0000000931321
endloop
endfacet
facet normal -0.965924773293279 0.0 0.25882297490433
outer loop
vertex 10.2249999791385 6.99999999999999 4.50000008605407
vertex 9.99388998951772 3.39999997615815 3.63749989876301
vertex 10.2249999791385 3.39999997615815 4.50000008605407
endloop
endfacet
facet normal -0.965924773293279 0.0 0.25882297490433
outer loop
vertex 9.99388998951772 3.39999997615815 3.63749989876301
vertex 10.2249999791385 6.99999999999999 4.50000008605407
vertex 9.99388998951772 6.99999999999999 3.63749989876301
endloop
endfacet
facet normal -0.7071121835874 3.51002887678665e-007 0.707101378744333
outer loop
vertex 9.99388998951772 6.99999999999999 3.63749989876301
vertex 9.36249994495671 3.39999997615815 3.00609979983404
vertex 9.99388998951772 3.39999997615815 3.63749989876301
endloop
endfacet
facet normal -0.7071121835874 3.51002887678665e-007 0.707101378744333
outer loop
vertex 9.36249994495671 3.39999997615815 3.00609979983404
vertex 9.99388998951772 6.99999999999999 3.63749989876301
vertex 9.36249994495671 6.99999999999999 3.00609979983404
endloop
endfacet
facet normal -0.7071121835874 3.51002887678665e-007 0.707101378744333
outer loop
vertex 9.36249994495671 6.99999999999999 3.00609979983404
vertex 9.99388998951772 6.99999999999999 3.63749989876301
vertex 9.74999993881012 6.99999999999999 3.39360596430659
endloop
endfacet
facet normal -0.965924781006793 0.0 -0.258822946117573
outer loop
vertex 9.99389001522219 6.99999999999999 5.36250028023274
vertex 10.2249999791385 3.39999997615815 4.50000008605407
vertex 9.99389001522219 3.39999997615815 5.36250028023274
endloop
endfacet
facet normal -0.965924781006793 0.0 -0.258822946117573
outer loop
vertex 10.2249999791385 3.39999997615815 4.50000008605407
vertex 9.99389001522219 6.99999999999999 5.36250028023274
vertex 10.2249999791385 6.99999999999999 4.50000008605407
endloop
endfacet
facet normal -0.707106558089463 0.0 -0.707107004283561
outer loop
vertex 9.36249998947819 3.39999997615815 5.99388990756109
vertex 9.99389001522219 6.99999999999999 5.36250028023274
vertex 9.99389001522219 3.39999997615815 5.36250028023274
endloop
endfacet
facet normal -0.707106558089463 0.0 -0.707107004283561
outer loop
vertex 9.99389001522219 6.99999999999999 5.36250028023274
vertex 9.36249998947819 3.39999997615815 5.99388990756109
vertex 9.74999997178308 6.99999999999999 5.60639016977393
endloop
endfacet
facet normal -0.707106558089463 0.0 -0.707107004283561
outer loop
vertex 9.74999997178308 6.99999999999999 5.60639016977393
vertex 9.36249998947819 3.39999997615815 5.99388990756109
vertex 9.36249998947819 6.99999999999999 5.99388990756109
endloop
endfacet
facet normal -0.258823647772156 0.0 -0.965924592995703
outer loop
vertex 8.49999998100107 3.39999997615815 6.22500049322827
vertex 9.36249998947819 6.99999999999999 5.99388990756109
vertex 9.36249998947819 3.39999997615815 5.99388990756109
endloop
endfacet
facet normal -0.258823647772156 0.0 -0.965924592995703
outer loop
vertex 9.36249998947819 6.99999999999999 5.99388990756109
vertex 8.49999998100107 3.39999997615815 6.22500049322827
vertex 8.49999998100107 6.99999999999999 6.22500049322827
endloop
endfacet
facet normal 0.463710563806681 0.754946838541724 -0.463710884053788
outer loop
vertex 7.24999997178306 6.99999999999999 5.60639020702678
vertex 7.25000002030285 8.99999999999998 8.86250032111982
vertex 7.63749996563633 6.99999999999999 5.99388993326555
endloop
endfacet
facet normal -8.52227010105834e-009 0.820308885550079 -0.571920739515178
outer loop
vertex 7.63749996563633 6.99999999999999 5.99388993326555
vertex 7.25000002030285 8.99999999999998 8.86250032111982
vertex 7.87500002030287 8.99999999999998 8.86250031180661
endloop
endfacet
facet normal -9.00358351798645e-009 0.796816637107748 -0.604221190317171
outer loop
vertex 8.49999998100107 6.99999999999999 6.22500049322827
vertex 7.87500002030287 8.99999999999998 8.86250031180661
vertex 9.12500002030285 8.99999999999998 8.86250029318019
endloop
endfacet
facet normal 0.153713528930407 0.804544054064101 -0.573655834184454
outer loop
vertex 7.63749996563633 6.99999999999999 5.99388993326555
vertex 7.87500002030287 8.99999999999998 8.86250031180661
vertex 8.49999998100107 6.99999999999999 6.22500049322827
endloop
endfacet
facet normal -0.153713546026657 0.804544054064101 -0.57365582960344
outer loop
vertex 9.36249998947819 6.99999999999999 5.99388990756109
vertex 8.49999998100107 6.99999999999999 6.22500049322827
vertex 9.12500002030285 8.99999999999998 8.86250029318019
endloop
endfacet
facet normal -8.52226996609971e-009 0.820308885550079 -0.571920739515178
outer loop
vertex 9.36249998947819 6.99999999999999 5.99388990756109
vertex 9.12500002030285 8.99999999999998 8.86250029318019
vertex 9.75000002030287 8.99999999999998 8.86250028386698
endloop
endfacet
facet normal -0.463710577626321 0.754946838541724 -0.463710870234157
outer loop
vertex 9.74999997178308 6.99999999999999 5.60639016977393
vertex 9.36249998947819 6.99999999999999 5.99388990756109
vertex 9.75000002030287 8.99999999999998 8.86250028386698
endloop
endfacet
facet normal 0.0 1.0 0.0
outer loop
vertex 7.25000011175854 6.99999999999999 15.000000130385
vertex 4.83253006078297 6.99999999999999 10.125000166408
vertex 1.11758542864493e-007 6.99999999999999 15.0000002384182
endloop
endfacet
facet normal 0.0 1.0 0.0
outer loop
vertex 4.83253006078297 6.99999999999999 10.125000166408
vertex 7.25000011175854 6.99999999999999 15.000000130385
vertex 7.24999997178306 6.99999999999999 5.60639020702678
endloop
endfacet
facet normal 0.0 1.0 0.0
outer loop
vertex 1.11758542864493e-007 6.99999999999999 15.0000002384182
vertex 4.83253006078297 6.99999999999999 10.125000166408
vertex 4.37500004593325 6.99999999999999 10.5825301948932
endloop
endfacet
facet normal 0.0 1.0 0.0
outer loop
vertex 1.11758542864493e-007 6.99999999999999 15.0000002384182
vertex 4.37500004593325 6.99999999999999 10.5825301948932
vertex 3.75000004842871 6.99999999999999 10.7500001825389
endloop
endfacet
facet normal 0.0 1.0 0.0
outer loop
vertex 4.83253006078297 6.99999999999999 10.125000166408
vertex 7.24999997178306 6.99999999999999 5.60639020702678
vertex 5.00000002980234 6.99999999999999 9.50000016391252
endloop
endfacet
facet normal 0.0 1.0 0.0
outer loop
vertex 5.00000002980234 6.99999999999999 9.50000016391252
vertex 7.24999997178306 6.99999999999999 5.60639020702678
vertex 4.83253004215655 6.99999999999999 8.87500016640802
endloop
endfacet
facet normal 0.0 1.0 0.0
outer loop
vertex 4.83253004215655 6.99999999999999 8.87500016640802
vertex 7.24999997178306 6.99999999999999 5.60639020702678
vertex 4.3750000136714 6.99999999999999 8.41747015155825
endloop
endfacet
facet normal 0.0 1.0 0.0
outer loop
vertex 4.3750000136714 6.99999999999999 8.41747015155825
vertex 7.24999997178306 6.99999999999999 5.60639020702678
vertex 3.75000001117591 6.99999999999999 8.25000018253895
endloop
endfacet
facet normal 0.0 1.0 0.0
outer loop
vertex 3.75000001117591 6.99999999999999 8.25000018253895
vertex 7.24999997178306 6.99999999999999 5.60639020702678
vertex 1.0 6.99999999999999 7.50000022351708
endloop
endfacet
facet normal 0.0 1.0 0.0
outer loop
vertex 1.0 6.99999999999999 7.50000022351708
vertex 7.24999997178306 6.99999999999999 5.60639020702678
vertex 0.999999888241489 6.99999999999999 2.2351707444912e-007
endloop
endfacet
facet normal 0.0 1.0 0.0
outer loop
vertex 0.999999888241489 6.99999999999999 2.2351707444912e-007
vertex 7.24999997178306 6.99999999999999 5.60639020702678
vertex 7.00610992107547 6.99999999999999 5.36250032475406
endloop
endfacet
facet normal 0.0 1.0 0.0
outer loop
vertex 0.999999888241489 6.99999999999999 2.2351707444912e-007
vertex 7.00610992107547 6.99999999999999 5.36250032475406
vertex 6.77499993145474 6.99999999999999 4.500000137463
endloop
endfacet
facet normal 0.0 1.0 0.0
outer loop
vertex 0.999999888241489 6.99999999999999 2.2351707444912e-007
vertex 6.77499993145474 6.99999999999999 4.500000137463
vertex 7.006109895371 6.99999999999999 3.63749994328433
endloop
endfacet
facet normal 0.0 1.0 0.0
outer loop
vertex 0.999999888241489 6.99999999999999 2.2351707444912e-007
vertex 7.006109895371 6.99999999999999 3.63749994328433
vertex 7.2499999388101 6.99999999999999 3.39360600155943
endloop
endfacet
facet normal 0.0 1.0 0.0
outer loop
vertex 0.999999888241489 6.99999999999999 2.2351707444912e-007
vertex 7.2499999388101 6.99999999999999 3.39360600155943
vertex 7.24999988824151 6.99999999999999 1.3038496009532e-007
endloop
endfacet
facet normal 0.0 1.0 0.0
outer loop
vertex 1.11758542864493e-007 6.99999999999999 15.0000002384182
vertex 3.12500004593327 6.99999999999999 10.5825302135196
vertex 5.63993296509579e-015 6.99999999999999 7.50000023841821
endloop
endfacet
facet normal 0.0 1.0 0.0
outer loop
vertex 3.12500004593327 6.99999999999999 10.5825302135196
vertex 1.11758542864493e-007 6.99999999999999 15.0000002384182
vertex 3.75000004842871 6.99999999999999 10.7500001825389
endloop
endfacet
facet normal 0.0 1.0 0.0
outer loop
vertex 5.63993296509579e-015 6.99999999999999 7.50000023841821
vertex 3.12500004593327 6.99999999999999 10.5825302135196
vertex 2.66747001744802 6.99999999999999 10.1250001986699
endloop
endfacet
facet normal 0.0 1.0 0.0
outer loop
vertex 5.63993296509579e-015 6.99999999999999 7.50000023841821
vertex 2.66747001744802 6.99999999999999 10.1250001986699
vertex 2.50000002980235 6.99999999999999 9.50000020116537
endloop
endfacet
facet normal 0.0 1.0 0.0
outer loop
vertex 5.63993296509579e-015 6.99999999999999 7.50000023841821
vertex 2.50000002980235 6.99999999999999 9.50000020116537
vertex 2.6674699988216 6.99999999999999 8.87500019866988
endloop
endfacet
facet normal 0.0 1.0 0.0
outer loop
vertex 5.63993296509579e-015 6.99999999999999 7.50000023841821
vertex 2.6674699988216 6.99999999999999 8.87500019866988
vertex 3.12500001367141 6.99999999999999 8.41747017018468
endloop
endfacet
facet normal 0.0 1.0 0.0
outer loop
vertex 5.63993296509579e-015 6.99999999999999 7.50000023841821
vertex 3.12500001367141 6.99999999999999 8.41747017018468
vertex 3.75000001117591 6.99999999999999 8.25000018253895
endloop
endfacet
facet normal 0.0 1.0 0.0
outer loop
vertex 5.63993296509579e-015 6.99999999999999 7.50000023841821
vertex 3.75000001117591 6.99999999999999 8.25000018253895
vertex 1.0 6.99999999999999 7.50000022351708
endloop
endfacet
facet normal 1.0 0.0 -1.49011382954978e-008
outer loop
vertex 9.74999988824153 8.99999999999998 9.31321143538e-008
vertex 9.74999993881012 6.99999999999999 3.39360596430659
vertex 9.74999988824153 6.99999999999999 9.31321143538e-008
endloop
endfacet
facet normal -1.0 0.0 1.49011382954978e-008
outer loop
vertex 7.24999988824151 8.99999999999998 1.3038496009532e-007
vertex 7.24999988824151 6.99999999999999 1.3038496009532e-007
vertex 7.2499999388101 6.99999999999999 3.39360600155943
endloop
endfacet
facet normal -0.148941431073155 0.817816062802536 0.555871691608809
outer loop
vertex 9.12499988824149 8.99999999999998 1.02445327199163e-007
vertex 8.49999992959213 6.99999999999999 2.77499973028881
vertex 9.36249994495671 6.99999999999999 3.00609979983404
endloop
endfacet
facet normal 8.7125433104633e-009 0.811256961834556 0.584689782598401
outer loop
vertex 7.87499988824151 8.99999999999998 1.21071741610024e-007
vertex 8.49999992959213 6.99999999999999 2.77499973028881
vertex 9.12499988824149 8.99999999999998 1.02445327199163e-007
endloop
endfacet
facet normal -0.452724349354122 0.768171761044428 0.452717140205437
outer loop
vertex 9.74999988824153 8.99999999999998 9.31321143538e-008
vertex 9.36249994495671 6.99999999999999 3.00609979983404
vertex 9.74999993881012 6.99999999999999 3.39360596430659
endloop
endfacet
facet normal 8.25404212530812e-009 0.832569736361366 0.553920241636976
outer loop
vertex 9.12499988824149 8.99999999999998 1.02445327199163e-007
vertex 9.36249994495671 6.99999999999999 3.00609979983404
vertex 9.74999988824153 8.99999999999998 9.31321143538e-008
endloop
endfacet
facet normal 8.25404212530812e-009 0.832569736361366 0.553920241636976
outer loop
vertex 7.87499988824151 8.99999999999998 1.21071741610024e-007
vertex 7.24999988824151 8.99999999999998 1.3038496009532e-007
vertex 7.63749992111485 6.99999999999999 3.0060998255385
endloop
endfacet
facet normal 0.452724362846123 0.768171761044428 0.45271712671322
outer loop
vertex 7.24999988824151 8.99999999999998 1.3038496009532e-007
vertex 7.2499999388101 6.99999999999999 3.39360600155943
vertex 7.63749992111485 6.99999999999999 3.0060998255385
endloop
endfacet
facet normal 0.148941447639397 0.817816062802536 0.555871687170015
outer loop
vertex 7.87499988824151 8.99999999999998 1.21071741610024e-007
vertex 7.63749992111485 6.99999999999999 3.0060998255385
vertex 8.49999992959213 6.99999999999999 2.77499973028881
endloop
endfacet
facet normal -5.0495348787957e-031 1.0 1.73659913602424e-030
outer loop
vertex 17.0 6.99999999999999 7.49999998509886
vertex 9.7500001117586 6.99999999999999 15.0000000931321
vertex 17.0000001117586 6.99999999999999 14.9999999850989
endloop
endfacet
facet normal -5.0495348787957e-031 1.0 1.73659913602424e-030
outer loop
vertex 9.7500001117586 6.99999999999999 15.0000000931321
vertex 17.0 6.99999999999999 7.49999998509886
vertex 13.8750000459333 6.99999999999999 10.5825300533324
endloop
endfacet
facet normal -5.0495348787957e-031 1.0 1.73659913602424e-030
outer loop
vertex 9.7500001117586 6.99999999999999 15.0000000931321
vertex 13.8750000459333 6.99999999999999 10.5825300533324
vertex 13.2500000484288 6.99999999999999 10.7500000409781
endloop
endfacet
facet normal -5.0495348787957e-031 1.0 1.73659913602424e-030
outer loop
vertex 13.8750000459333 6.99999999999999 10.5825300533324
vertex 17.0 6.99999999999999 7.49999998509886
vertex 14.332530060783 6.99999999999999 10.1250000248472
endloop
endfacet
facet normal -5.0495348787957e-031 1.0 1.73659913602424e-030
outer loop
vertex 14.332530060783 6.99999999999999 10.1250000248472
vertex 17.0 6.99999999999999 7.49999998509886
vertex 14.5000000298023 6.99999999999999 9.50000002235171
endloop
endfacet
facet normal -5.0495348787957e-031 1.0 1.73659913602424e-030
outer loop
vertex 14.5000000298023 6.99999999999999 9.50000002235171
vertex 17.0 6.99999999999999 7.49999998509886
vertex 14.3325300421566 6.99999999999999 8.87500002484721
endloop
endfacet
facet normal -5.0495348787957e-031 1.0 1.73659913602424e-030
outer loop
vertex 14.3325300421566 6.99999999999999 8.87500002484721
vertex 17.0 6.99999999999999 7.49999998509886
vertex 13.8750000136714 6.99999999999999 8.41747000999744
endloop
endfacet
facet normal -5.0495348787957e-031 1.0 1.73659913602424e-030
outer loop
vertex 13.8750000136714 6.99999999999999 8.41747000999744
vertex 17.0 6.99999999999999 7.49999998509886
vertex 13.2500000111759 6.99999999999999 8.25000004097813
endloop
endfacet
facet normal -5.0495348787957e-031 1.0 1.73659913602424e-030
outer loop
vertex 9.7500001117586 6.99999999999999 15.0000000931321
vertex 12.167470017448 6.99999999999999 10.1250000571091
vertex 9.74999997178308 6.99999999999999 5.60639016977393
endloop
endfacet
facet normal -5.0495348787957e-031 1.0 1.73659913602424e-030
outer loop
vertex 12.167470017448 6.99999999999999 10.1250000571091
vertex 9.7500001117586 6.99999999999999 15.0000000931321
vertex 12.6250000459333 6.99999999999999 10.5825300719588
endloop
endfacet
facet normal -5.0495348787957e-031 1.0 1.73659913602424e-030
outer loop
vertex 12.6250000459333 6.99999999999999 10.5825300719588
vertex 9.7500001117586 6.99999999999999 15.0000000931321
vertex 13.2500000484288 6.99999999999999 10.7500000409781
endloop
endfacet
facet normal -5.0495348787957e-031 1.0 1.73659913602424e-030
outer loop
vertex 9.74999997178308 6.99999999999999 5.60639016977393
vertex 12.167470017448 6.99999999999999 10.1250000571091
vertex 12.0000000298023 6.99999999999999 9.50000005960455
endloop
endfacet
facet normal -5.0495348787957e-031 1.0 1.73659913602424e-030
outer loop
vertex 9.74999997178308 6.99999999999999 5.60639016977393
vertex 12.0000000298023 6.99999999999999 9.50000005960455
vertex 12.1674699988216 6.99999999999999 8.87500005710907
endloop
endfacet
facet normal -5.0495348787957e-031 1.0 1.73659913602424e-030
outer loop
vertex 9.74999997178308 6.99999999999999 5.60639016977393
vertex 12.1674699988216 6.99999999999999 8.87500005710907
vertex 12.6250000136714 6.99999999999999 8.41747002862386
endloop
endfacet
facet normal -5.0495348787957e-031 1.0 1.73659913602424e-030
outer loop
vertex 9.74999997178308 6.99999999999999 5.60639016977393
vertex 12.6250000136714 6.99999999999999 8.41747002862386
vertex 13.2500000111759 6.99999999999999 8.25000004097813
endloop
endfacet
facet normal -5.0495348787957e-031 1.0 1.73659913602424e-030
outer loop
vertex 9.74999997178308 6.99999999999999 5.60639016977393
vertex 13.2500000111759 6.99999999999999 8.25000004097813
vertex 16.0 6.99999999999999 7.5
endloop
endfacet
facet normal -5.0495348787957e-031 1.0 1.73659913602424e-030
outer loop
vertex 16.0 6.99999999999999 7.5
vertex 13.2500000111759 6.99999999999999 8.25000004097813
vertex 17.0 6.99999999999999 7.49999998509886
endloop
endfacet
facet normal -5.0495348787957e-031 1.0 1.73659913602424e-030
outer loop
vertex 9.74999997178308 6.99999999999999 5.60639016977393
vertex 16.0 6.99999999999999 7.5
vertex 15.9999998882415 6.99999999999999 0.0
endloop
endfacet
facet normal -5.0495348787957e-031 1.0 1.73659913602424e-030
outer loop
vertex 9.74999997178308 6.99999999999999 5.60639016977393
vertex 15.9999998882415 6.99999999999999 0.0
vertex 9.99389001522219 6.99999999999999 5.36250028023274
endloop
endfacet
facet normal -5.0495348787957e-031 1.0 1.73659913602424e-030
outer loop
vertex 9.99389001522219 6.99999999999999 5.36250028023274
vertex 15.9999998882415 6.99999999999999 0.0
vertex 10.2249999791385 6.99999999999999 4.50000008605407
endloop
endfacet
facet normal -5.0495348787957e-031 1.0 1.73659913602424e-030
outer loop
vertex 10.2249999791385 6.99999999999999 4.50000008605407
vertex 15.9999998882415 6.99999999999999 0.0
vertex 9.99388998951772 6.99999999999999 3.63749989876301
endloop
endfacet
facet normal -5.0495348787957e-031 1.0 1.73659913602424e-030
outer loop
vertex 9.99388998951772 6.99999999999999 3.63749989876301
vertex 15.9999998882415 6.99999999999999 0.0
vertex 9.74999993881012 6.99999999999999 3.39360596430659
endloop
endfacet
facet normal -5.0495348787957e-031 1.0 1.73659913602424e-030
outer loop
vertex 9.74999993881012 6.99999999999999 3.39360596430659
vertex 15.9999998882415 6.99999999999999 0.0
vertex 9.74999988824153 6.99999999999999 9.31321143538e-008
endloop
endfacet
endsolid ENDSTOP
