solid DuctedFanAdapter3
facet normal 0.0 0.0 -1.0
  outer loop
    vertex 0.06362652881630039 6.101722092687432 0.0
    vertex 0.0 1.3000000000000003 0.0
    vertex 0.0 5.699999999999999 0.0
  endloop
endfacet
facet normal 0.0 0.0 -1.0
  outer loop
    vertex 0.0 1.3000000000000003 0.0
    vertex 0.06362652881630039 6.101722092687432 0.0
    vertex 0.06362652881630039 0.8982779073125685 0.0
  endloop
endfacet
facet normal 0.0 0.0 -1.0
  outer loop
    vertex 0.06362652881630039 0.8982779073125685 0.0
    vertex 0.06362652881630039 6.101722092687432 0.0
    vertex 0.2482779073125683 6.464120827980215 0.0
  endloop
endfacet
facet normal 0.0 0.0 -1.0
  outer loop
    vertex 0.06362652881630039 0.8982779073125685 0.0
    vertex 0.2482779073125683 6.464120827980215 0.0
    vertex 0.2482779073125685 0.535879172019785 0.0
  endloop
endfacet
facet normal 0.0 0.0 -1.0
  outer loop
    vertex 0.2482779073125685 0.535879172019785 0.0
    vertex 0.2482779073125683 6.464120827980215 0.0
    vertex 0.5358791720197849 6.751722092687431 0.0
  endloop
endfacet
facet normal 0.0 0.0 -1.0
  outer loop
    vertex 0.2482779073125685 0.535879172019785 0.0
    vertex 0.5358791720197849 6.751722092687431 0.0
    vertex 0.535879172019785 0.2482779073125685 0.0
  endloop
endfacet
facet normal 0.0 0.0 -1.0
  outer loop
    vertex 0.535879172019785 0.2482779073125685 0.0
    vertex 0.5358791720197849 6.751722092687431 0.0
    vertex 0.8982779073125685 6.9363734711837 0.0
  endloop
endfacet
facet normal 0.0 0.0 -1.0
  outer loop
    vertex 0.535879172019785 0.2482779073125685 0.0
    vertex 0.8982779073125685 6.9363734711837 0.0
    vertex 0.800268311774274 3.5302024509158616 0.0
  endloop
endfacet
facet normal 0.0 0.0 -1.0
  outer loop
    vertex 0.800268311774274 3.5302024509158616 0.0
    vertex 0.8982779073125685 6.9363734711837 0.0
    vertex 0.8660022340866514 3.969096259833936 0.0
  endloop
endfacet
facet normal 0.0 0.0 -1.0
  outer loop
    vertex 0.8660022340866514 3.969096259833936 0.0
    vertex 0.8982779073125685 6.9363734711837 0.0
    vertex 1.043090403837041 4.3760219338625514 0.0
  endloop
endfacet
facet normal 0.0 0.0 -1.0
  outer loop
    vertex 1.043090403837041 4.3760219338625514 0.0
    vertex 0.8982779073125685 6.9363734711837 0.0
    vertex 1.3000000000000003 7.0 0.0
  endloop
endfacet
facet normal 0.0 0.0 -1.0
  outer loop
    vertex 1.043090403837041 4.3760219338625514 0.0
    vertex 1.3000000000000003 7.0 0.0
    vertex 1.31946455490899 4.723248160793129 0.0
  endloop
endfacet
facet normal 0.0 0.0 -1.0
  outer loop
    vertex 1.31946455490899 4.723248160793129 0.0
    vertex 1.3000000000000003 7.0 0.0
    vertex 1.6762902456368256 4.987112047078821 0.0
  endloop
endfacet
facet normal 0.0 0.0 -1.0
  outer loop
    vertex 1.6762902456368256 4.987112047078821 0.0
    vertex 1.3000000000000003 7.0 0.0
    vertex 2.0892503948797807 5.149631704924945 0.0
  endloop
endfacet
facet normal 0.0 0.0 -1.0
  outer loop
    vertex 2.0892503948797807 5.149631704924945 0.0
    vertex 1.3000000000000003 7.0 0.0
    vertex 2.530202450915861 5.199731688225725 0.0
  endloop
endfacet
facet normal 0.0 0.0 -1.0
  outer loop
    vertex 2.530202450915861 5.199731688225725 0.0
    vertex 1.3000000000000003 7.0 0.0
    vertex 23.7 7.0 0.0
  endloop
endfacet
facet normal 0.0 0.0 -1.0
  outer loop
    vertex 2.530202450915861 5.199731688225725 0.0
    vertex 23.7 7.0 0.0
    vertex 2.9690962598339365 5.133997765913349 0.0
  endloop
endfacet
facet normal 0.0 0.0 -1.0
  outer loop
    vertex 2.9690962598339365 5.133997765913349 0.0
    vertex 23.7 7.0 0.0
    vertex 3.3760219338625514 4.956909596162959 0.0
  endloop
endfacet
facet normal 0.0 0.0 -1.0
  outer loop
    vertex 3.3760219338625514 4.956909596162959 0.0
    vertex 23.7 7.0 0.0
    vertex 3.723248160793128 4.68053544509101 0.0
  endloop
endfacet
facet normal 0.0 0.0 -1.0
  outer loop
    vertex 3.723248160793128 4.68053544509101 0.0
    vertex 23.7 7.0 0.0
    vertex 3.98711204707882 4.323709754363174 0.0
  endloop
endfacet
facet normal 0.0 0.0 -1.0
  outer loop
    vertex 3.98711204707882 4.323709754363174 0.0
    vertex 23.7 7.0 0.0
    vertex 4.149631704924946 3.910749605120219 0.0
  endloop
endfacet
facet normal 0.0 0.0 -1.0
  outer loop
    vertex 4.149631704924946 3.910749605120219 0.0
    vertex 23.7 7.0 0.0
    vertex 4.199731688225725 3.4697975490841384 0.0
  endloop
endfacet
facet normal 0.0 0.0 -1.0
  outer loop
    vertex 4.199731688225725 3.4697975490841384 0.0
    vertex 23.7 7.0 0.0
    vertex 21.297918471982868 4.702081528017131 0.0
  endloop
endfacet
facet normal 0.0 0.0 -1.0
  outer loop
    vertex 4.199731688225725 3.4697975490841384 0.0
    vertex 21.297918471982868 4.702081528017131 0.0
    vertex 21.027756813566455 4.3500000000000005 0.0
  endloop
endfacet
facet normal 0.0 0.0 -1.0
  outer loop
    vertex 4.199731688225725 3.4697975490841384 0.0
    vertex 21.027756813566455 4.3500000000000005 0.0
    vertex 20.85792609530858 3.9399923766742866 0.0
  endloop
endfacet
facet normal 0.0 0.0 -1.0
  outer loop
    vertex 4.199731688225725 3.4697975490841384 0.0
    vertex 20.85792609530858 3.9399923766742866 0.0
    vertex 20.799999999999997 3.5 0.0
  endloop
endfacet
facet normal 0.0 0.0 -1.0
  outer loop
    vertex 21.297918471982868 4.702081528017131 0.0
    vertex 23.7 7.0 0.0
    vertex 21.65 4.972243186433547 0.0
  endloop
endfacet
facet normal 0.0 0.0 -1.0
  outer loop
    vertex 21.65 4.972243186433547 0.0
    vertex 23.7 7.0 0.0
    vertex 22.060007623325713 5.142073904691416 0.0
  endloop
endfacet
facet normal 0.0 0.0 -1.0
  outer loop
    vertex 22.060007623325713 5.142073904691416 0.0
    vertex 23.7 7.0 0.0
    vertex 22.5 5.2 0.0
  endloop
endfacet
facet normal 0.0 0.0 -1.0
  outer loop
    vertex 22.5 5.2 0.0
    vertex 23.7 7.0 0.0
    vertex 22.939992376674283 5.142073904691416 0.0
  endloop
endfacet
facet normal 0.0 0.0 -1.0
  outer loop
    vertex 22.939992376674283 5.142073904691416 0.0
    vertex 23.7 7.0 0.0
    vertex 23.349999999999998 4.972243186433545 0.0
  endloop
endfacet
facet normal 0.0 0.0 -1.0
  outer loop
    vertex 23.349999999999998 4.972243186433545 0.0
    vertex 23.7 7.0 0.0
    vertex 23.70208152801713 4.70208152801713 0.0
  endloop
endfacet
facet normal 0.0 0.0 -1.0
  outer loop
    vertex 23.70208152801713 4.70208152801713 0.0
    vertex 23.7 7.0 0.0
    vertex 24.10172209268743 6.9363734711837 0.0
  endloop
endfacet
facet normal 0.0 0.0 -1.0
  outer loop
    vertex 23.70208152801713 4.70208152801713 0.0
    vertex 24.10172209268743 6.9363734711837 0.0
    vertex 23.972243186433545 4.35 0.0
  endloop
endfacet
facet normal 0.0 0.0 -1.0
  outer loop
    vertex 23.972243186433545 4.35 0.0
    vertex 24.10172209268743 6.9363734711837 0.0
    vertex 24.142073904691415 3.9399923766742853 0.0
  endloop
endfacet
facet normal 0.0 0.0 -1.0
  outer loop
    vertex 24.142073904691415 3.9399923766742853 0.0
    vertex 24.10172209268743 6.9363734711837 0.0
    vertex 24.464120827980214 6.751722092687431 0.0
  endloop
endfacet
facet normal 0.0 0.0 -1.0
  outer loop
    vertex 24.142073904691415 3.9399923766742853 0.0
    vertex 24.464120827980214 6.751722092687431 0.0
    vertex 24.2 3.5 0.0
  endloop
endfacet
facet normal 0.0 0.0 -1.0
  outer loop
    vertex 0.800268311774274 3.5302024509158616 0.0
    vertex 0.8982779073125685 0.06362652881630039 0.0
    vertex 0.535879172019785 0.2482779073125685 0.0
  endloop
endfacet
facet normal 0.0 0.0 -1.0
  outer loop
    vertex 0.8982779073125685 0.06362652881630039 0.0
    vertex 0.800268311774274 3.5302024509158616 0.0
    vertex 0.8503682950750535 3.089250394879781 0.0
  endloop
endfacet
facet normal 0.0 0.0 -1.0
  outer loop
    vertex 0.8982779073125685 0.06362652881630039 0.0
    vertex 0.8503682950750535 3.089250394879781 0.0
    vertex 1.0128879529211787 2.6762902456368267 0.0
  endloop
endfacet
facet normal 0.0 0.0 -1.0
  outer loop
    vertex 0.8982779073125685 0.06362652881630039 0.0
    vertex 1.0128879529211787 2.6762902456368267 0.0
    vertex 1.3 0.0 0.0
  endloop
endfacet
facet normal 0.0 0.0 -1.0
  outer loop
    vertex 1.3 0.0 0.0
    vertex 1.0128879529211787 2.6762902456368267 0.0
    vertex 1.2767518392068709 2.3194645549089907 0.0
  endloop
endfacet
facet normal 0.0 0.0 -1.0
  outer loop
    vertex 1.3 0.0 0.0
    vertex 1.2767518392068709 2.3194645549089907 0.0
    vertex 1.6239780661374477 2.043090403837041 0.0
  endloop
endfacet
facet normal 0.0 0.0 -1.0
  outer loop
    vertex 1.3 0.0 0.0
    vertex 1.6239780661374477 2.043090403837041 0.0
    vertex 2.030903740166062 1.866002234086652 0.0
  endloop
endfacet
facet normal 0.0 0.0 -1.0
  outer loop
    vertex 1.3 0.0 0.0
    vertex 2.030903740166062 1.866002234086652 0.0
    vertex 2.469797549084138 1.8002683117742744 0.0
  endloop
endfacet
facet normal 0.0 0.0 -1.0
  outer loop
    vertex 1.3 0.0 0.0
    vertex 2.469797549084138 1.8002683117742744 0.0
    vertex 23.7 0.0 0.0
  endloop
endfacet
facet normal 0.0 0.0 -1.0
  outer loop
    vertex 23.7 0.0 0.0
    vertex 2.469797549084138 1.8002683117742744 0.0
    vertex 2.9107496051202184 1.8503682950750537 0.0
  endloop
endfacet
facet normal 0.0 0.0 -1.0
  outer loop
    vertex 23.7 0.0 0.0
    vertex 2.9107496051202184 1.8503682950750537 0.0
    vertex 3.323709754363173 2.012887952921179 0.0
  endloop
endfacet
facet normal 0.0 0.0 -1.0
  outer loop
    vertex 23.7 0.0 0.0
    vertex 3.323709754363173 2.012887952921179 0.0
    vertex 3.6805354450910093 2.2767518392068715 0.0
  endloop
endfacet
facet normal 0.0 0.0 -1.0
  outer loop
    vertex 23.7 0.0 0.0
    vertex 3.6805354450910093 2.2767518392068715 0.0
    vertex 3.9569095961629586 2.6239780661374486 0.0
  endloop
endfacet
facet normal 0.0 0.0 -1.0
  outer loop
    vertex 23.7 0.0 0.0
    vertex 3.9569095961629586 2.6239780661374486 0.0
    vertex 4.133997765913348 3.0309037401660635 0.0
  endloop
endfacet
facet normal 0.0 0.0 -1.0
  outer loop
    vertex 23.7 0.0 0.0
    vertex 4.133997765913348 3.0309037401660635 0.0
    vertex 4.199731688225725 3.4697975490841384 0.0
  endloop
endfacet
facet normal 0.0 0.0 -1.0
  outer loop
    vertex 23.7 0.0 0.0
    vertex 4.199731688225725 3.4697975490841384 0.0
    vertex 21.297918471982868 2.2979184719828694 0.0
  endloop
endfacet
facet normal 0.0 0.0 -1.0
  outer loop
    vertex 21.297918471982868 2.2979184719828694 0.0
    vertex 4.199731688225725 3.4697975490841384 0.0
    vertex 21.02775681356645 2.6500000000000012 0.0
  endloop
endfacet
facet normal 0.0 0.0 -1.0
  outer loop
    vertex 21.02775681356645 2.6500000000000012 0.0
    vertex 4.199731688225725 3.4697975490841384 0.0
    vertex 20.85792609530858 3.060007623325715 0.0
  endloop
endfacet
facet normal 0.0 0.0 -1.0
  outer loop
    vertex 20.85792609530858 3.060007623325715 0.0
    vertex 4.199731688225725 3.4697975490841384 0.0
    vertex 20.799999999999997 3.5 0.0
  endloop
endfacet
facet normal 0.0 0.0 -1.0
  outer loop
    vertex 23.7 0.0 0.0
    vertex 21.297918471982868 2.2979184719828694 0.0
    vertex 21.65 2.0277568135664548 0.0
  endloop
endfacet
facet normal 0.0 0.0 -1.0
  outer loop
    vertex 23.7 0.0 0.0
    vertex 21.65 2.0277568135664548 0.0
    vertex 22.060007623325713 1.857926095308584 0.0
  endloop
endfacet
facet normal 0.0 0.0 -1.0
  outer loop
    vertex 23.7 0.0 0.0
    vertex 22.060007623325713 1.857926095308584 0.0
    vertex 22.5 1.7999999999999998 0.0
  endloop
endfacet
facet normal 0.0 0.0 -1.0
  outer loop
    vertex 23.7 0.0 0.0
    vertex 22.5 1.7999999999999998 0.0
    vertex 22.939992376674283 1.8579260953085837 0.0
  endloop
endfacet
facet normal 0.0 0.0 -1.0
  outer loop
    vertex 23.7 0.0 0.0
    vertex 22.939992376674283 1.8579260953085837 0.0
    vertex 23.349999999999998 2.0277568135664543 0.0
  endloop
endfacet
facet normal 0.0 0.0 -1.0
  outer loop
    vertex 23.7 0.0 0.0
    vertex 23.349999999999998 2.0277568135664543 0.0
    vertex 23.70208152801713 2.297918471982869 0.0
  endloop
endfacet
facet normal 0.0 0.0 -1.0
  outer loop
    vertex 23.7 0.0 0.0
    vertex 23.70208152801713 2.297918471982869 0.0
    vertex 24.10172209268743 0.06362652881630039 0.0
  endloop
endfacet
facet normal 0.0 0.0 -1.0
  outer loop
    vertex 24.10172209268743 0.06362652881630039 0.0
    vertex 23.70208152801713 2.297918471982869 0.0
    vertex 23.972243186433545 2.65 0.0
  endloop
endfacet
facet normal 0.0 0.0 -1.0
  outer loop
    vertex 24.10172209268743 0.06362652881630039 0.0
    vertex 23.972243186433545 2.65 0.0
    vertex 24.142073904691415 3.0600076233257143 0.0
  endloop
endfacet
facet normal 0.0 0.0 -1.0
  outer loop
    vertex 24.10172209268743 0.06362652881630039 0.0
    vertex 24.142073904691415 3.0600076233257143 0.0
    vertex 24.464120827980214 0.2482779073125683 0.0
  endloop
endfacet
facet normal 0.0 0.0 -1.0
  outer loop
    vertex 24.464120827980214 0.2482779073125683 0.0
    vertex 24.142073904691415 3.0600076233257143 0.0
    vertex 24.2 3.5 0.0
  endloop
endfacet
facet normal 0.0 0.0 -1.0
  outer loop
    vertex 24.464120827980214 0.2482779073125683 0.0
    vertex 24.2 3.5 0.0
    vertex 24.464120827980214 6.751722092687431 0.0
  endloop
endfacet
facet normal 0.0 0.0 -1.0
  outer loop
    vertex 24.464120827980214 0.2482779073125683 0.0
    vertex 24.464120827980214 6.751722092687431 0.0
    vertex 24.75172209268743 6.464120827980215 0.0
  endloop
endfacet
facet normal 0.0 0.0 -1.0
  outer loop
    vertex 24.464120827980214 0.2482779073125683 0.0
    vertex 24.75172209268743 6.464120827980215 0.0
    vertex 24.75172209268743 0.5358791720197849 0.0
  endloop
endfacet
facet normal 0.0 0.0 -1.0
  outer loop
    vertex 24.75172209268743 0.5358791720197849 0.0
    vertex 24.75172209268743 6.464120827980215 0.0
    vertex 24.9363734711837 6.101722092687432 0.0
  endloop
endfacet
facet normal 0.0 0.0 -1.0
  outer loop
    vertex 24.75172209268743 0.5358791720197849 0.0
    vertex 24.9363734711837 6.101722092687432 0.0
    vertex 24.9363734711837 0.8982779073125684 0.0
  endloop
endfacet
facet normal 0.0 0.0 -1.0
  outer loop
    vertex 24.9363734711837 0.8982779073125684 0.0
    vertex 24.9363734711837 6.101722092687432 0.0
    vertex 25.0 5.699999999999999 0.0
  endloop
endfacet
facet normal 0.0 0.0 -1.0
  outer loop
    vertex 24.9363734711837 0.8982779073125684 0.0
    vertex 25.0 5.699999999999999 0.0
    vertex 25.0 1.3 0.0
  endloop
endfacet
facet normal -0.0 -0.0 1.0
  outer loop
    vertex 0.8982779073125685 0.06362652881630039 2.2
    vertex 0.800268311774274 3.5302024509158616 2.2
    vertex 0.535879172019785 0.2482779073125685 2.2
  endloop
endfacet
facet normal -0.0 -0.0 1.0
  outer loop
    vertex 0.800268311774274 3.5302024509158616 2.2
    vertex 0.8982779073125685 0.06362652881630039 2.2
    vertex 0.8503682950750535 3.089250394879781 2.2
  endloop
endfacet
facet normal -0.0 -0.0 1.0
  outer loop
    vertex 0.8503682950750535 3.089250394879781 2.2
    vertex 0.8982779073125685 0.06362652881630039 2.2
    vertex 1.0128879529211787 2.6762902456368267 2.2
  endloop
endfacet
facet normal -0.0 -0.0 1.0
  outer loop
    vertex 1.0128879529211787 2.6762902456368267 2.2
    vertex 0.8982779073125685 0.06362652881630039 2.2
    vertex 1.3 0.0 2.2
  endloop
endfacet
facet normal -0.0 -0.0 1.0
  outer loop
    vertex 1.0128879529211787 2.6762902456368267 2.2
    vertex 1.3 0.0 2.2
    vertex 1.2767518392068709 2.3194645549089907 2.2
  endloop
endfacet
facet normal -0.0 -0.0 1.0
  outer loop
    vertex 1.2767518392068709 2.3194645549089907 2.2
    vertex 1.3 0.0 2.2
    vertex 1.6239780661374477 2.043090403837041 2.2
  endloop
endfacet
facet normal -0.0 -0.0 1.0
  outer loop
    vertex 1.6239780661374477 2.043090403837041 2.2
    vertex 1.3 0.0 2.2
    vertex 2.030903740166062 1.866002234086652 2.2
  endloop
endfacet
facet normal -0.0 -0.0 1.0
  outer loop
    vertex 2.030903740166062 1.866002234086652 2.2
    vertex 1.3 0.0 2.2
    vertex 2.469797549084138 1.8002683117742744 2.2
  endloop
endfacet
facet normal -0.0 -0.0 1.0
  outer loop
    vertex 2.469797549084138 1.8002683117742744 2.2
    vertex 1.3 0.0 2.2
    vertex 23.7 0.0 2.2
  endloop
endfacet
facet normal -0.0 -0.0 1.0
  outer loop
    vertex 2.469797549084138 1.8002683117742744 2.2
    vertex 23.7 0.0 2.2
    vertex 2.9107496051202184 1.8503682950750537 2.2
  endloop
endfacet
facet normal -0.0 -0.0 1.0
  outer loop
    vertex 2.9107496051202184 1.8503682950750537 2.2
    vertex 23.7 0.0 2.2
    vertex 3.323709754363173 2.012887952921179 2.2
  endloop
endfacet
facet normal -0.0 -0.0 1.0
  outer loop
    vertex 3.323709754363173 2.012887952921179 2.2
    vertex 23.7 0.0 2.2
    vertex 3.6805354450910093 2.2767518392068715 2.2
  endloop
endfacet
facet normal -0.0 -0.0 1.0
  outer loop
    vertex 3.6805354450910093 2.2767518392068715 2.2
    vertex 23.7 0.0 2.2
    vertex 3.9569095961629586 2.6239780661374486 2.2
  endloop
endfacet
facet normal -0.0 -0.0 1.0
  outer loop
    vertex 3.9569095961629586 2.6239780661374486 2.2
    vertex 23.7 0.0 2.2
    vertex 4.133997765913348 3.0309037401660635 2.2
  endloop
endfacet
facet normal -0.0 -0.0 1.0
  outer loop
    vertex 4.133997765913348 3.0309037401660635 2.2
    vertex 23.7 0.0 2.2
    vertex 4.199731688225725 3.4697975490841384 2.2
  endloop
endfacet
facet normal -0.0 -0.0 1.0
  outer loop
    vertex 4.199731688225725 3.4697975490841384 2.2
    vertex 23.7 0.0 2.2
    vertex 21.297918471982868 2.2979184719828694 2.2
  endloop
endfacet
facet normal -0.0 -0.0 1.0
  outer loop
    vertex 4.199731688225725 3.4697975490841384 2.2
    vertex 21.297918471982868 2.2979184719828694 2.2
    vertex 21.02775681356645 2.6500000000000012 2.2
  endloop
endfacet
facet normal -0.0 -0.0 1.0
  outer loop
    vertex 4.199731688225725 3.4697975490841384 2.2
    vertex 21.02775681356645 2.6500000000000012 2.2
    vertex 20.85792609530858 3.060007623325715 2.2
  endloop
endfacet
facet normal -0.0 -0.0 1.0
  outer loop
    vertex 4.199731688225725 3.4697975490841384 2.2
    vertex 20.85792609530858 3.060007623325715 2.2
    vertex 20.799999999999997 3.5 2.2
  endloop
endfacet
facet normal -0.0 -0.0 1.0
  outer loop
    vertex 21.297918471982868 2.2979184719828694 2.2
    vertex 23.7 0.0 2.2
    vertex 21.65 2.0277568135664548 2.2
  endloop
endfacet
facet normal -0.0 -0.0 1.0
  outer loop
    vertex 21.65 2.0277568135664548 2.2
    vertex 23.7 0.0 2.2
    vertex 22.060007623325713 1.857926095308584 2.2
  endloop
endfacet
facet normal -0.0 -0.0 1.0
  outer loop
    vertex 22.060007623325713 1.857926095308584 2.2
    vertex 23.7 0.0 2.2
    vertex 22.5 1.7999999999999998 2.2
  endloop
endfacet
facet normal -0.0 -0.0 1.0
  outer loop
    vertex 22.5 1.7999999999999998 2.2
    vertex 23.7 0.0 2.2
    vertex 22.939992376674283 1.8579260953085837 2.2
  endloop
endfacet
facet normal -0.0 -0.0 1.0
  outer loop
    vertex 22.939992376674283 1.8579260953085837 2.2
    vertex 23.7 0.0 2.2
    vertex 23.349999999999998 2.0277568135664543 2.2
  endloop
endfacet
facet normal -0.0 -0.0 1.0
  outer loop
    vertex 23.349999999999998 2.0277568135664543 2.2
    vertex 23.7 0.0 2.2
    vertex 23.70208152801713 2.297918471982869 2.2
  endloop
endfacet
facet normal -0.0 -0.0 1.0
  outer loop
    vertex 23.70208152801713 2.297918471982869 2.2
    vertex 23.7 0.0 2.2
    vertex 24.10172209268743 0.06362652881630039 2.2
  endloop
endfacet
facet normal -0.0 -0.0 1.0
  outer loop
    vertex 23.70208152801713 2.297918471982869 2.2
    vertex 24.10172209268743 0.06362652881630039 2.2
    vertex 23.972243186433545 2.65 2.2
  endloop
endfacet
facet normal -0.0 -0.0 1.0
  outer loop
    vertex 23.972243186433545 2.65 2.2
    vertex 24.10172209268743 0.06362652881630039 2.2
    vertex 24.142073904691415 3.0600076233257143 2.2
  endloop
endfacet
facet normal -0.0 -0.0 1.0
  outer loop
    vertex 24.142073904691415 3.0600076233257143 2.2
    vertex 24.10172209268743 0.06362652881630039 2.2
    vertex 24.464120827980214 0.2482779073125683 2.2
  endloop
endfacet
facet normal -0.0 -0.0 1.0
  outer loop
    vertex 24.142073904691415 3.0600076233257143 2.2
    vertex 24.464120827980214 0.2482779073125683 2.2
    vertex 24.2 3.5 2.2
  endloop
endfacet
facet normal -0.0 -0.0 1.0
  outer loop
    vertex 0.06362652881630039 0.8982779073125685 2.2
    vertex 0.0 5.699999999999999 2.2
    vertex 0.0 1.3000000000000003 2.2
  endloop
endfacet
facet normal -0.0 -0.0 1.0
  outer loop
    vertex 0.0 5.699999999999999 2.2
    vertex 0.06362652881630039 0.8982779073125685 2.2
    vertex 0.06362652881630039 6.101722092687432 2.2
  endloop
endfacet
facet normal -0.0 -0.0 1.0
  outer loop
    vertex 0.06362652881630039 6.101722092687432 2.2
    vertex 0.06362652881630039 0.8982779073125685 2.2
    vertex 0.2482779073125685 0.535879172019785 2.2
  endloop
endfacet
facet normal -0.0 -0.0 1.0
  outer loop
    vertex 0.06362652881630039 6.101722092687432 2.2
    vertex 0.2482779073125685 0.535879172019785 2.2
    vertex 0.2482779073125683 6.464120827980215 2.2
  endloop
endfacet
facet normal -0.0 -0.0 1.0
  outer loop
    vertex 0.2482779073125683 6.464120827980215 2.2
    vertex 0.2482779073125685 0.535879172019785 2.2
    vertex 0.5358791720197849 6.751722092687431 2.2
  endloop
endfacet
facet normal -0.0 -0.0 1.0
  outer loop
    vertex 0.5358791720197849 6.751722092687431 2.2
    vertex 0.2482779073125685 0.535879172019785 2.2
    vertex 0.535879172019785 0.2482779073125685 2.2
  endloop
endfacet
facet normal -0.0 -0.0 1.0
  outer loop
    vertex 0.5358791720197849 6.751722092687431 2.2
    vertex 0.535879172019785 0.2482779073125685 2.2
    vertex 0.8982779073125685 6.9363734711837 2.2
  endloop
endfacet
facet normal -0.0 -0.0 1.0
  outer loop
    vertex 0.8982779073125685 6.9363734711837 2.2
    vertex 0.535879172019785 0.2482779073125685 2.2
    vertex 0.800268311774274 3.5302024509158616 2.2
  endloop
endfacet
facet normal -0.0 -0.0 1.0
  outer loop
    vertex 0.8982779073125685 6.9363734711837 2.2
    vertex 0.800268311774274 3.5302024509158616 2.2
    vertex 0.8660022340866514 3.969096259833936 2.2
  endloop
endfacet
facet normal -0.0 -0.0 1.0
  outer loop
    vertex 0.8982779073125685 6.9363734711837 2.2
    vertex 0.8660022340866514 3.969096259833936 2.2
    vertex 1.043090403837041 4.3760219338625514 2.2
  endloop
endfacet
facet normal -0.0 -0.0 1.0
  outer loop
    vertex 0.8982779073125685 6.9363734711837 2.2
    vertex 1.043090403837041 4.3760219338625514 2.2
    vertex 1.3000000000000003 7.0 2.2
  endloop
endfacet
facet normal -0.0 -0.0 1.0
  outer loop
    vertex 1.3000000000000003 7.0 2.2
    vertex 1.043090403837041 4.3760219338625514 2.2
    vertex 1.31946455490899 4.723248160793129 2.2
  endloop
endfacet
facet normal -0.0 -0.0 1.0
  outer loop
    vertex 1.3000000000000003 7.0 2.2
    vertex 1.31946455490899 4.723248160793129 2.2
    vertex 1.6762902456368256 4.987112047078821 2.2
  endloop
endfacet
facet normal -0.0 -0.0 1.0
  outer loop
    vertex 1.3000000000000003 7.0 2.2
    vertex 1.6762902456368256 4.987112047078821 2.2
    vertex 2.0892503948797807 5.149631704924945 2.2
  endloop
endfacet
facet normal -0.0 -0.0 1.0
  outer loop
    vertex 1.3000000000000003 7.0 2.2
    vertex 2.0892503948797807 5.149631704924945 2.2
    vertex 2.530202450915861 5.199731688225725 2.2
  endloop
endfacet
facet normal -0.0 -0.0 1.0
  outer loop
    vertex 1.3000000000000003 7.0 2.2
    vertex 2.530202450915861 5.199731688225725 2.2
    vertex 23.7 7.0 2.2
  endloop
endfacet
facet normal -0.0 -0.0 1.0
  outer loop
    vertex 23.7 7.0 2.2
    vertex 2.530202450915861 5.199731688225725 2.2
    vertex 2.9690962598339365 5.133997765913349 2.2
  endloop
endfacet
facet normal -0.0 -0.0 1.0
  outer loop
    vertex 23.7 7.0 2.2
    vertex 2.9690962598339365 5.133997765913349 2.2
    vertex 3.3760219338625514 4.956909596162959 2.2
  endloop
endfacet
facet normal -0.0 -0.0 1.0
  outer loop
    vertex 23.7 7.0 2.2
    vertex 3.3760219338625514 4.956909596162959 2.2
    vertex 3.723248160793128 4.68053544509101 2.2
  endloop
endfacet
facet normal -0.0 -0.0 1.0
  outer loop
    vertex 23.7 7.0 2.2
    vertex 3.723248160793128 4.68053544509101 2.2
    vertex 3.98711204707882 4.323709754363174 2.2
  endloop
endfacet
facet normal -0.0 -0.0 1.0
  outer loop
    vertex 23.7 7.0 2.2
    vertex 3.98711204707882 4.323709754363174 2.2
    vertex 4.149631704924946 3.910749605120219 2.2
  endloop
endfacet
facet normal -0.0 -0.0 1.0
  outer loop
    vertex 23.7 7.0 2.2
    vertex 4.149631704924946 3.910749605120219 2.2
    vertex 4.199731688225725 3.4697975490841384 2.2
  endloop
endfacet
facet normal -0.0 -0.0 1.0
  outer loop
    vertex 23.7 7.0 2.2
    vertex 4.199731688225725 3.4697975490841384 2.2
    vertex 21.297918471982868 4.702081528017131 2.2
  endloop
endfacet
facet normal -0.0 -0.0 1.0
  outer loop
    vertex 21.297918471982868 4.702081528017131 2.2
    vertex 4.199731688225725 3.4697975490841384 2.2
    vertex 21.027756813566455 4.3500000000000005 2.2
  endloop
endfacet
facet normal -0.0 -0.0 1.0
  outer loop
    vertex 21.027756813566455 4.3500000000000005 2.2
    vertex 4.199731688225725 3.4697975490841384 2.2
    vertex 20.85792609530858 3.9399923766742866 2.2
  endloop
endfacet
facet normal -0.0 -0.0 1.0
  outer loop
    vertex 20.85792609530858 3.9399923766742866 2.2
    vertex 4.199731688225725 3.4697975490841384 2.2
    vertex 20.799999999999997 3.5 2.2
  endloop
endfacet
facet normal -0.0 -0.0 1.0
  outer loop
    vertex 23.7 7.0 2.2
    vertex 21.297918471982868 4.702081528017131 2.2
    vertex 21.65 4.972243186433547 2.2
  endloop
endfacet
facet normal -0.0 -0.0 1.0
  outer loop
    vertex 23.7 7.0 2.2
    vertex 21.65 4.972243186433547 2.2
    vertex 22.060007623325713 5.142073904691416 2.2
  endloop
endfacet
facet normal -0.0 -0.0 1.0
  outer loop
    vertex 23.7 7.0 2.2
    vertex 22.060007623325713 5.142073904691416 2.2
    vertex 22.5 5.2 2.2
  endloop
endfacet
facet normal -0.0 -0.0 1.0
  outer loop
    vertex 23.7 7.0 2.2
    vertex 22.5 5.2 2.2
    vertex 22.939992376674283 5.142073904691416 2.2
  endloop
endfacet
facet normal -0.0 -0.0 1.0
  outer loop
    vertex 23.7 7.0 2.2
    vertex 22.939992376674283 5.142073904691416 2.2
    vertex 23.349999999999998 4.972243186433545 2.2
  endloop
endfacet
facet normal -0.0 -0.0 1.0
  outer loop
    vertex 23.7 7.0 2.2
    vertex 23.349999999999998 4.972243186433545 2.2
    vertex 23.70208152801713 4.70208152801713 2.2
  endloop
endfacet
facet normal -0.0 -0.0 1.0
  outer loop
    vertex 23.7 7.0 2.2
    vertex 23.70208152801713 4.70208152801713 2.2
    vertex 24.10172209268743 6.9363734711837 2.2
  endloop
endfacet
facet normal -0.0 -0.0 1.0
  outer loop
    vertex 24.10172209268743 6.9363734711837 2.2
    vertex 23.70208152801713 4.70208152801713 2.2
    vertex 23.972243186433545 4.35 2.2
  endloop
endfacet
facet normal -0.0 -0.0 1.0
  outer loop
    vertex 24.10172209268743 6.9363734711837 2.2
    vertex 23.972243186433545 4.35 2.2
    vertex 24.142073904691415 3.9399923766742853 2.2
  endloop
endfacet
facet normal -0.0 -0.0 1.0
  outer loop
    vertex 24.10172209268743 6.9363734711837 2.2
    vertex 24.142073904691415 3.9399923766742853 2.2
    vertex 24.464120827980214 6.751722092687431 2.2
  endloop
endfacet
facet normal -0.0 -0.0 1.0
  outer loop
    vertex 24.464120827980214 6.751722092687431 2.2
    vertex 24.142073904691415 3.9399923766742853 2.2
    vertex 24.2 3.5 2.2
  endloop
endfacet
facet normal -0.0 -0.0 1.0
  outer loop
    vertex 24.464120827980214 6.751722092687431 2.2
    vertex 24.2 3.5 2.2
    vertex 24.464120827980214 0.2482779073125683 2.2
  endloop
endfacet
facet normal -0.0 -0.0 1.0
  outer loop
    vertex 24.464120827980214 6.751722092687431 2.2
    vertex 24.464120827980214 0.2482779073125683 2.2
    vertex 24.75172209268743 0.5358791720197849 2.2
  endloop
endfacet
facet normal -0.0 -0.0 1.0
  outer loop
    vertex 24.464120827980214 6.751722092687431 2.2
    vertex 24.75172209268743 0.5358791720197849 2.2
    vertex 24.75172209268743 6.464120827980215 2.2
  endloop
endfacet
facet normal -0.0 -0.0 1.0
  outer loop
    vertex 24.75172209268743 6.464120827980215 2.2
    vertex 24.75172209268743 0.5358791720197849 2.2
    vertex 24.9363734711837 0.8982779073125684 2.2
  endloop
endfacet
facet normal -0.0 -0.0 1.0
  outer loop
    vertex 24.75172209268743 6.464120827980215 2.2
    vertex 24.9363734711837 0.8982779073125684 2.2
    vertex 24.9363734711837 6.101722092687432 2.2
  endloop
endfacet
facet normal -0.0 -0.0 1.0
  outer loop
    vertex 24.9363734711837 6.101722092687432 2.2
    vertex 24.9363734711837 0.8982779073125684 2.2
    vertex 25.0 1.3 2.2
  endloop
endfacet
facet normal -0.0 -0.0 1.0
  outer loop
    vertex 24.9363734711837 6.101722092687432 2.2
    vertex 25.0 1.3 2.2
    vertex 25.0 5.699999999999999 2.2
  endloop
endfacet
facet normal 0.6944326147594172 -0.7195577416430169 0.0
  outer loop
    vertex 1.31946455490899 4.723248160793129 0.0
    vertex 1.043090403837041 4.3760219338625514 2.2
    vertex 1.043090403837041 4.3760219338625514 0.0
  endloop
endfacet
facet normal 0.8570056448017404 -0.5153070199191482 0.0
  outer loop
    vertex 1.043090403837041 4.3760219338625514 2.2
    vertex 1.31946455490899 4.723248160793129 0.0
    vertex 1.31946455490899 4.723248160793129 2.2
  endloop
endfacet
facet normal 0.8570056448017404 -0.5153070199191482 0.0
  outer loop
    vertex 1.043090403837041 4.3760219338625514 0.0
    vertex 0.8660022340866514 3.969096259833936 2.2
    vertex 0.8660022340866514 3.969096259833936 0.0
  endloop
endfacet
facet normal 0.9611751564196165 -0.2759389763729038 0.0
  outer loop
    vertex 0.8660022340866514 3.969096259833936 2.2
    vertex 1.043090403837041 4.3760219338625514 0.0
    vertex 1.043090403837041 4.3760219338625514 2.2
  endloop
endfacet
facet normal 0.9611751564196165 -0.2759389763729038 0.0
  outer loop
    vertex 0.8660022340866514 3.969096259833936 0.0
    vertex 0.800268311774274 3.5302024509158616 2.2
    vertex 0.800268311774274 3.5302024509158616 0.0
  endloop
endfacet
facet normal 0.9998421695445444 -0.01776614759756539 0.0
  outer loop
    vertex 0.800268311774274 3.5302024509158616 2.2
    vertex 0.8660022340866514 3.969096259833936 0.0
    vertex 0.8660022340866514 3.969096259833936 2.2
  endloop
endfacet
facet normal 0.9998421695445444 -0.01776614759756539 0.0
  outer loop
    vertex 0.800268311774274 3.5302024509158616 0.0
    vertex 0.8503682950750535 3.089250394879781 2.2
    vertex 0.8503682950750535 3.089250394879781 0.0
  endloop
endfacet
facet normal 0.9703715911323212 0.241617414776599 0.0
  outer loop
    vertex 0.8503682950750535 3.089250394879781 2.2
    vertex 0.800268311774274 3.5302024509158616 0.0
    vertex 0.800268311774274 3.5302024509158616 2.2
  endloop
endfacet
facet normal 0.9703715911323212 0.241617414776599 0.0
  outer loop
    vertex 0.8503682950750535 3.089250394879781 0.0
    vertex 1.0128879529211787 2.6762902456368267 2.2
    vertex 1.0128879529211787 2.6762902456368267 0.0
  endloop
endfacet
facet normal 0.8747717923993064 0.4845351496253962 0.0
  outer loop
    vertex 1.0128879529211787 2.6762902456368267 2.2
    vertex 0.8503682950750535 3.089250394879781 0.0
    vertex 0.8503682950750535 3.089250394879781 2.2
  endloop
endfacet
facet normal 0.8747717923993064 0.4845351496253962 0.0
  outer loop
    vertex 1.0128879529211787 2.6762902456368267 0.0
    vertex 1.2767518392068709 2.3194645549089907 2.2
    vertex 1.2767518392068709 2.3194645549089907 0.0
  endloop
endfacet
facet normal 0.7195577416430171 0.6944326147594173 0.0
  outer loop
    vertex 1.2767518392068709 2.3194645549089907 2.2
    vertex 1.0128879529211787 2.6762902456368267 0.0
    vertex 1.0128879529211787 2.6762902456368267 2.2
  endloop
endfacet
facet normal 0.7195577416430171 0.6944326147594173 0.0
  outer loop
    vertex 1.2767518392068709 2.3194645549089907 2.2
    vertex 1.6239780661374477 2.043090403837041 0.0
    vertex 1.2767518392068709 2.3194645549089907 0.0
  endloop
endfacet
facet normal 0.5153070199191485 0.8570056448017401 0.0
  outer loop
    vertex 1.6239780661374477 2.043090403837041 0.0
    vertex 1.2767518392068709 2.3194645549089907 2.2
    vertex 1.6239780661374477 2.043090403837041 2.2
  endloop
endfacet
facet normal 0.5153070199191485 0.8570056448017401 0.0
  outer loop
    vertex 1.6239780661374477 2.043090403837041 2.2
    vertex 2.030903740166062 1.866002234086652 0.0
    vertex 1.6239780661374477 2.043090403837041 0.0
  endloop
endfacet
facet normal 0.275938976372904 0.9611751564196163 0.0
  outer loop
    vertex 2.030903740166062 1.866002234086652 0.0
    vertex 1.6239780661374477 2.043090403837041 2.2
    vertex 2.030903740166062 1.866002234086652 2.2
  endloop
endfacet
facet normal 0.275938976372904 0.9611751564196163 0.0
  outer loop
    vertex 2.030903740166062 1.866002234086652 2.2
    vertex 2.469797549084138 1.8002683117742744 0.0
    vertex 2.030903740166062 1.866002234086652 0.0
  endloop
endfacet
facet normal 0.017766147597565618 0.9998421695445444 0.0
  outer loop
    vertex 2.469797549084138 1.8002683117742744 0.0
    vertex 2.030903740166062 1.866002234086652 2.2
    vertex 2.469797549084138 1.8002683117742744 2.2
  endloop
endfacet
facet normal 0.017766147597565618 0.9998421695445444 0.0
  outer loop
    vertex 2.469797549084138 1.8002683117742744 2.2
    vertex 2.9107496051202184 1.8503682950750537 0.0
    vertex 2.469797549084138 1.8002683117742744 0.0
  endloop
endfacet
facet normal -0.24161741477659887 0.9703715911323214 0.0
  outer loop
    vertex 2.9107496051202184 1.8503682950750537 0.0
    vertex 2.469797549084138 1.8002683117742744 2.2
    vertex 2.9107496051202184 1.8503682950750537 2.2
  endloop
endfacet
facet normal -0.24161741477659887 0.9703715911323214 0.0
  outer loop
    vertex 2.9107496051202184 1.8503682950750537 2.2
    vertex 3.323709754363173 2.012887952921179 0.0
    vertex 2.9107496051202184 1.8503682950750537 0.0
  endloop
endfacet
facet normal -0.4845351496253963 0.874771792399306 0.0
  outer loop
    vertex 3.323709754363173 2.012887952921179 0.0
    vertex 2.9107496051202184 1.8503682950750537 2.2
    vertex 3.323709754363173 2.012887952921179 2.2
  endloop
endfacet
facet normal -0.4845351496253963 0.874771792399306 0.0
  outer loop
    vertex 3.323709754363173 2.012887952921179 2.2
    vertex 3.6805354450910093 2.2767518392068715 0.0
    vertex 3.323709754363173 2.012887952921179 0.0
  endloop
endfacet
facet normal -0.6944326147594176 0.7195577416430166 0.0
  outer loop
    vertex 3.6805354450910093 2.2767518392068715 0.0
    vertex 3.323709754363173 2.012887952921179 2.2
    vertex 3.6805354450910093 2.2767518392068715 2.2
  endloop
endfacet
facet normal -0.8570056448017405 0.5153070199191481 0.0
  outer loop
    vertex 3.9569095961629586 2.6239780661374486 2.2
    vertex 3.6805354450910093 2.2767518392068715 0.0
    vertex 3.6805354450910093 2.2767518392068715 2.2
  endloop
endfacet
facet normal -0.6944326147594176 0.7195577416430166 0.0
  outer loop
    vertex 3.6805354450910093 2.2767518392068715 0.0
    vertex 3.9569095961629586 2.6239780661374486 2.2
    vertex 3.9569095961629586 2.6239780661374486 0.0
  endloop
endfacet
facet normal -0.9611751564196163 0.2759389763729044 0.0
  outer loop
    vertex 4.133997765913348 3.0309037401660635 2.2
    vertex 3.9569095961629586 2.6239780661374486 0.0
    vertex 3.9569095961629586 2.6239780661374486 2.2
  endloop
endfacet
facet normal -0.8570056448017405 0.5153070199191481 0.0
  outer loop
    vertex 3.9569095961629586 2.6239780661374486 0.0
    vertex 4.133997765913348 3.0309037401660635 2.2
    vertex 4.133997765913348 3.0309037401660635 0.0
  endloop
endfacet
facet normal -0.9998421695445443 0.017766147597566218 0.0
  outer loop
    vertex 4.199731688225725 3.4697975490841384 2.2
    vertex 4.133997765913348 3.0309037401660635 0.0
    vertex 4.133997765913348 3.0309037401660635 2.2
  endloop
endfacet
facet normal -0.9611751564196163 0.2759389763729044 0.0
  outer loop
    vertex 4.133997765913348 3.0309037401660635 0.0
    vertex 4.199731688225725 3.4697975490841384 2.2
    vertex 4.199731688225725 3.4697975490841384 0.0
  endloop
endfacet
facet normal -0.9703715911323211 -0.24161741477659973 0.0
  outer loop
    vertex 4.149631704924946 3.910749605120219 2.2
    vertex 4.199731688225725 3.4697975490841384 0.0
    vertex 4.199731688225725 3.4697975490841384 2.2
  endloop
endfacet
facet normal -0.9998421695445443 0.017766147597566218 0.0
  outer loop
    vertex 4.199731688225725 3.4697975490841384 0.0
    vertex 4.149631704924946 3.910749605120219 2.2
    vertex 4.149631704924946 3.910749605120219 0.0
  endloop
endfacet
facet normal -0.8747717923993059 -0.4845351496253968 0.0
  outer loop
    vertex 3.98711204707882 4.323709754363174 2.2
    vertex 4.149631704924946 3.910749605120219 0.0
    vertex 4.149631704924946 3.910749605120219 2.2
  endloop
endfacet
facet normal -0.9703715911323211 -0.24161741477659973 0.0
  outer loop
    vertex 4.149631704924946 3.910749605120219 0.0
    vertex 3.98711204707882 4.323709754363174 2.2
    vertex 3.98711204707882 4.323709754363174 0.0
  endloop
endfacet
facet normal -0.7195577416430169 -0.6944326147594174 0.0
  outer loop
    vertex 3.723248160793128 4.68053544509101 2.2
    vertex 3.98711204707882 4.323709754363174 0.0
    vertex 3.98711204707882 4.323709754363174 2.2
  endloop
endfacet
facet normal -0.8747717923993059 -0.4845351496253968 0.0
  outer loop
    vertex 3.98711204707882 4.323709754363174 0.0
    vertex 3.723248160793128 4.68053544509101 2.2
    vertex 3.723248160793128 4.68053544509101 0.0
  endloop
endfacet
facet normal -0.7195577416430169 -0.6944326147594174 0.0
  outer loop
    vertex 3.723248160793128 4.68053544509101 2.2
    vertex 3.3760219338625514 4.956909596162959 0.0
    vertex 3.723248160793128 4.68053544509101 0.0
  endloop
endfacet
facet normal -0.5153070199191486 -0.8570056448017401 0.0
  outer loop
    vertex 3.3760219338625514 4.956909596162959 0.0
    vertex 3.723248160793128 4.68053544509101 2.2
    vertex 3.3760219338625514 4.956909596162959 2.2
  endloop
endfacet
facet normal -0.5153070199191486 -0.8570056448017401 0.0
  outer loop
    vertex 3.3760219338625514 4.956909596162959 2.2
    vertex 2.9690962598339365 5.133997765913349 0.0
    vertex 3.3760219338625514 4.956909596162959 0.0
  endloop
endfacet
facet normal -0.2759389763729033 -0.9611751564196165 0.0
  outer loop
    vertex 2.9690962598339365 5.133997765913349 0.0
    vertex 3.3760219338625514 4.956909596162959 2.2
    vertex 2.9690962598339365 5.133997765913349 2.2
  endloop
endfacet
facet normal -0.2759389763729033 -0.9611751564196165 0.0
  outer loop
    vertex 2.9690962598339365 5.133997765913349 2.2
    vertex 2.530202450915861 5.199731688225725 0.0
    vertex 2.9690962598339365 5.133997765913349 0.0
  endloop
endfacet
facet normal -0.017766147597564477 -0.9998421695445444 0.0
  outer loop
    vertex 2.530202450915861 5.199731688225725 0.0
    vertex 2.9690962598339365 5.133997765913349 2.2
    vertex 2.530202450915861 5.199731688225725 2.2
  endloop
endfacet
facet normal -0.017766147597564477 -0.9998421695445444 0.0
  outer loop
    vertex 2.530202450915861 5.199731688225725 2.2
    vertex 2.0892503948797807 5.149631704924945 0.0
    vertex 2.530202450915861 5.199731688225725 0.0
  endloop
endfacet
facet normal 0.24161741477659904 -0.9703715911323212 0.0
  outer loop
    vertex 2.0892503948797807 5.149631704924945 0.0
    vertex 2.530202450915861 5.199731688225725 2.2
    vertex 2.0892503948797807 5.149631704924945 2.2
  endloop
endfacet
facet normal 0.24161741477659904 -0.9703715911323212 0.0
  outer loop
    vertex 2.0892503948797807 5.149631704924945 2.2
    vertex 1.6762902456368256 4.987112047078821 0.0
    vertex 2.0892503948797807 5.149631704924945 0.0
  endloop
endfacet
facet normal 0.48453514962539596 -0.8747717923993065 0.0
  outer loop
    vertex 1.6762902456368256 4.987112047078821 0.0
    vertex 2.0892503948797807 5.149631704924945 2.2
    vertex 1.6762902456368256 4.987112047078821 2.2
  endloop
endfacet
facet normal 0.48453514962539596 -0.8747717923993065 0.0
  outer loop
    vertex 1.6762902456368256 4.987112047078821 2.2
    vertex 1.31946455490899 4.723248160793129 0.0
    vertex 1.6762902456368256 4.987112047078821 0.0
  endloop
endfacet
facet normal 0.6944326147594172 -0.7195577416430169 0.0
  outer loop
    vertex 1.31946455490899 4.723248160793129 0.0
    vertex 1.6762902456368256 4.987112047078821 2.2
    vertex 1.31946455490899 4.723248160793129 2.2
  endloop
endfacet
facet normal -0.500000000000001 -0.8660254037844382 0.0
  outer loop
    vertex 23.349999999999998 4.972243186433545 2.2
    vertex 22.939992376674283 5.142073904691416 0.0
    vertex 23.349999999999998 4.972243186433545 0.0
  endloop
endfacet
facet normal -0.25881904510252135 -0.965925826289068 0.0
  outer loop
    vertex 22.939992376674283 5.142073904691416 0.0
    vertex 23.349999999999998 4.972243186433545 2.2
    vertex 22.939992376674283 5.142073904691416 2.2
  endloop
endfacet
facet normal -0.25881904510252135 -0.965925826289068 0.0
  outer loop
    vertex 22.939992376674283 5.142073904691416 2.2
    vertex 22.5 5.2 0.0
    vertex 22.939992376674283 5.142073904691416 0.0
  endloop
endfacet
facet normal 0.0 -1.0 0.0
  outer loop
    vertex 22.5 5.2 0.0
    vertex 22.939992376674283 5.142073904691416 2.2
    vertex 22.5 5.2 2.2
  endloop
endfacet
facet normal 0.0 -1.0 0.0
  outer loop
    vertex 22.5 5.2 2.2
    vertex 22.060007623325713 5.142073904691416 0.0
    vertex 22.5 5.2 0.0
  endloop
endfacet
facet normal 0.25881904510252113 -0.9659258262890683 0.0
  outer loop
    vertex 22.060007623325713 5.142073904691416 0.0
    vertex 22.5 5.2 2.2
    vertex 22.060007623325713 5.142073904691416 2.2
  endloop
endfacet
facet normal 0.25881904510252113 -0.9659258262890683 0.0
  outer loop
    vertex 22.060007623325713 5.142073904691416 2.2
    vertex 21.65 4.972243186433547 0.0
    vertex 22.060007623325713 5.142073904691416 0.0
  endloop
endfacet
facet normal 0.49999999999999967 -0.8660254037844389 0.0
  outer loop
    vertex 21.65 4.972243186433547 0.0
    vertex 22.060007623325713 5.142073904691416 2.2
    vertex 21.65 4.972243186433547 2.2
  endloop
endfacet
facet normal 0.49999999999999967 -0.8660254037844389 0.0
  outer loop
    vertex 21.65 4.972243186433547 2.2
    vertex 21.297918471982868 4.702081528017131 0.0
    vertex 21.65 4.972243186433547 0.0
  endloop
endfacet
facet normal 0.7071067811865477 -0.7071067811865475 0.0
  outer loop
    vertex 21.297918471982868 4.702081528017131 0.0
    vertex 21.65 4.972243186433547 2.2
    vertex 21.297918471982868 4.702081528017131 2.2
  endloop
endfacet
facet normal 0.7071067811865477 -0.7071067811865475 0.0
  outer loop
    vertex 21.297918471982868 4.702081528017131 0.0
    vertex 21.027756813566455 4.3500000000000005 2.2
    vertex 21.027756813566455 4.3500000000000005 0.0
  endloop
endfacet
facet normal 0.8660254037844384 -0.5000000000000004 0.0
  outer loop
    vertex 21.027756813566455 4.3500000000000005 2.2
    vertex 21.297918471982868 4.702081528017131 0.0
    vertex 21.297918471982868 4.702081528017131 2.2
  endloop
endfacet
facet normal 0.8660254037844384 -0.5000000000000004 0.0
  outer loop
    vertex 21.027756813566455 4.3500000000000005 0.0
    vertex 20.85792609530858 3.9399923766742866 2.2
    vertex 20.85792609530858 3.9399923766742866 0.0
  endloop
endfacet
facet normal 0.9659258262890679 -0.258819045102522 0.0
  outer loop
    vertex 20.85792609530858 3.9399923766742866 2.2
    vertex 21.027756813566455 4.3500000000000005 0.0
    vertex 21.027756813566455 4.3500000000000005 2.2
  endloop
endfacet
facet normal 0.9659258262890679 -0.258819045102522 0.0
  outer loop
    vertex 20.85792609530858 3.9399923766742866 0.0
    vertex 20.799999999999997 3.5 2.2
    vertex 20.799999999999997 3.5 0.0
  endloop
endfacet
facet normal 1.0 3.118888463476417e-16 0.0
  outer loop
    vertex 20.799999999999997 3.5 2.2
    vertex 20.85792609530858 3.9399923766742866 0.0
    vertex 20.85792609530858 3.9399923766742866 2.2
  endloop
endfacet
facet normal 1.0 3.118888463476417e-16 0.0
  outer loop
    vertex 20.799999999999997 3.5 0.0
    vertex 20.85792609530858 3.060007623325715 2.2
    vertex 20.85792609530858 3.060007623325715 0.0
  endloop
endfacet
facet normal 0.9659258262890685 0.25881904510251935 0.0
  outer loop
    vertex 20.85792609530858 3.060007623325715 2.2
    vertex 20.799999999999997 3.5 0.0
    vertex 20.799999999999997 3.5 2.2
  endloop
endfacet
facet normal 0.9659258262890685 0.25881904510251935 0.0
  outer loop
    vertex 20.85792609530858 3.060007623325715 0.0
    vertex 21.02775681356645 2.6500000000000012 2.2
    vertex 21.02775681356645 2.6500000000000012 0.0
  endloop
endfacet
facet normal 0.8660254037844392 0.4999999999999994 0.0
  outer loop
    vertex 21.02775681356645 2.6500000000000012 2.2
    vertex 20.85792609530858 3.060007623325715 0.0
    vertex 20.85792609530858 3.060007623325715 2.2
  endloop
endfacet
facet normal 0.8660254037844392 0.4999999999999994 0.0
  outer loop
    vertex 21.02775681356645 2.6500000000000012 0.0
    vertex 21.297918471982868 2.2979184719828694 2.2
    vertex 21.297918471982868 2.2979184719828694 0.0
  endloop
endfacet
facet normal 0.7071067811865474 0.7071067811865479 0.0
  outer loop
    vertex 21.297918471982868 2.2979184719828694 2.2
    vertex 21.02775681356645 2.6500000000000012 0.0
    vertex 21.02775681356645 2.6500000000000012 2.2
  endloop
endfacet
facet normal 0.7071067811865474 0.7071067811865479 0.0
  outer loop
    vertex 21.297918471982868 2.2979184719828694 2.2
    vertex 21.65 2.0277568135664548 0.0
    vertex 21.297918471982868 2.2979184719828694 0.0
  endloop
endfacet
facet normal 0.500000000000001 0.8660254037844382 0.0
  outer loop
    vertex 21.65 2.0277568135664548 0.0
    vertex 21.297918471982868 2.2979184719828694 2.2
    vertex 21.65 2.0277568135664548 2.2
  endloop
endfacet
facet normal 0.500000000000001 0.8660254037844382 0.0
  outer loop
    vertex 21.65 2.0277568135664548 2.2
    vertex 22.060007623325713 1.857926095308584 0.0
    vertex 21.65 2.0277568135664548 0.0
  endloop
endfacet
facet normal 0.258819045102521 0.9659258262890682 0.0
  outer loop
    vertex 22.060007623325713 1.857926095308584 0.0
    vertex 21.65 2.0277568135664548 2.2
    vertex 22.060007623325713 1.857926095308584 2.2
  endloop
endfacet
facet normal 0.258819045102521 0.9659258262890682 0.0
  outer loop
    vertex 22.060007623325713 1.857926095308584 2.2
    vertex 22.5 1.7999999999999998 0.0
    vertex 22.060007623325713 1.857926095308584 0.0
  endloop
endfacet
facet normal 3.9208883540846383e-16 1.0 0.0
  outer loop
    vertex 22.5 1.7999999999999998 0.0
    vertex 22.060007623325713 1.857926095308584 2.2
    vertex 22.5 1.7999999999999998 2.2
  endloop
endfacet
facet normal 3.9208883540846383e-16 1.0 0.0
  outer loop
    vertex 22.5 1.7999999999999998 2.2
    vertex 22.939992376674283 1.8579260953085837 0.0
    vertex 22.5 1.7999999999999998 0.0
  endloop
endfacet
facet normal -0.25881904510252135 0.9659258262890681 0.0
  outer loop
    vertex 22.939992376674283 1.8579260953085837 0.0
    vertex 22.5 1.7999999999999998 2.2
    vertex 22.939992376674283 1.8579260953085837 2.2
  endloop
endfacet
facet normal -0.25881904510252135 0.9659258262890681 0.0
  outer loop
    vertex 22.939992376674283 1.8579260953085837 2.2
    vertex 23.349999999999998 2.0277568135664543 0.0
    vertex 22.939992376674283 1.8579260953085837 0.0
  endloop
endfacet
facet normal -0.5000000000000003 0.8660254037844386 0.0
  outer loop
    vertex 23.349999999999998 2.0277568135664543 0.0
    vertex 22.939992376674283 1.8579260953085837 2.2
    vertex 23.349999999999998 2.0277568135664543 2.2
  endloop
endfacet
facet normal -0.5000000000000003 0.8660254037844386 0.0
  outer loop
    vertex 23.349999999999998 2.0277568135664543 2.2
    vertex 23.70208152801713 2.297918471982869 0.0
    vertex 23.349999999999998 2.0277568135664543 0.0
  endloop
endfacet
facet normal -0.7071067811865456 0.7071067811865493 0.0
  outer loop
    vertex 23.70208152801713 2.297918471982869 0.0
    vertex 23.349999999999998 2.0277568135664543 2.2
    vertex 23.70208152801713 2.297918471982869 2.2
  endloop
endfacet
facet normal -0.8660254037844388 0.4999999999999998 0.0
  outer loop
    vertex 23.972243186433545 2.65 2.2
    vertex 23.70208152801713 2.297918471982869 0.0
    vertex 23.70208152801713 2.297918471982869 2.2
  endloop
endfacet
facet normal -0.7071067811865456 0.7071067811865493 0.0
  outer loop
    vertex 23.70208152801713 2.297918471982869 0.0
    vertex 23.972243186433545 2.65 2.2
    vertex 23.972243186433545 2.65 0.0
  endloop
endfacet
facet normal -0.9659258262890688 0.2588190451025191 0.0
  outer loop
    vertex 24.142073904691415 3.0600076233257143 2.2
    vertex 23.972243186433545 2.65 0.0
    vertex 23.972243186433545 2.65 2.2
  endloop
endfacet
facet normal -0.8660254037844388 0.4999999999999998 0.0
  outer loop
    vertex 23.972243186433545 2.65 0.0
    vertex 24.142073904691415 3.0600076233257143 2.2
    vertex 24.142073904691415 3.0600076233257143 0.0
  endloop
endfacet
facet normal -1.0 -6.237776926952835e-17 0.0
  outer loop
    vertex 24.2 3.5 2.2
    vertex 24.142073904691415 3.0600076233257143 0.0
    vertex 24.142073904691415 3.0600076233257143 2.2
  endloop
endfacet
facet normal -0.9659258262890688 0.2588190451025191 0.0
  outer loop
    vertex 24.142073904691415 3.0600076233257143 0.0
    vertex 24.2 3.5 2.2
    vertex 24.2 3.5 0.0
  endloop
endfacet
facet normal -0.9659258262890688 -0.2588190451025191 0.0
  outer loop
    vertex 24.142073904691415 3.9399923766742853 2.2
    vertex 24.2 3.5 0.0
    vertex 24.2 3.5 2.2
  endloop
endfacet
facet normal -1.0 -6.237776926952835e-17 0.0
  outer loop
    vertex 24.2 3.5 0.0
    vertex 24.142073904691415 3.9399923766742853 2.2
    vertex 24.142073904691415 3.9399923766742853 0.0
  endloop
endfacet
facet normal -0.8660254037844388 -0.4999999999999998 0.0
  outer loop
    vertex 23.972243186433545 4.35 2.2
    vertex 24.142073904691415 3.9399923766742853 0.0
    vertex 24.142073904691415 3.9399923766742853 2.2
  endloop
endfacet
facet normal -0.9659258262890688 -0.2588190451025191 0.0
  outer loop
    vertex 24.142073904691415 3.9399923766742853 0.0
    vertex 23.972243186433545 4.35 2.2
    vertex 23.972243186433545 4.35 0.0
  endloop
endfacet
facet normal -0.7071067811865469 -0.7071067811865483 0.0
  outer loop
    vertex 23.70208152801713 4.70208152801713 2.2
    vertex 23.972243186433545 4.35 0.0
    vertex 23.972243186433545 4.35 2.2
  endloop
endfacet
facet normal -0.8660254037844388 -0.4999999999999998 0.0
  outer loop
    vertex 23.972243186433545 4.35 0.0
    vertex 23.70208152801713 4.70208152801713 2.2
    vertex 23.70208152801713 4.70208152801713 0.0
  endloop
endfacet
facet normal -0.7071067811865469 -0.7071067811865483 0.0
  outer loop
    vertex 23.70208152801713 4.70208152801713 2.2
    vertex 23.349999999999998 4.972243186433545 0.0
    vertex 23.70208152801713 4.70208152801713 0.0
  endloop
endfacet
facet normal -0.500000000000001 -0.8660254037844382 0.0
  outer loop
    vertex 23.349999999999998 4.972243186433545 0.0
    vertex 23.70208152801713 4.70208152801713 2.2
    vertex 23.349999999999998 4.972243186433545 2.2
  endloop
endfacet
facet normal 0.0 -1.0 0.0
  outer loop
    vertex 23.7 0.0 2.2
    vertex 1.3 0.0 0.0
    vertex 23.7 0.0 0.0
  endloop
endfacet
facet normal 0.0 -1.0 0.0
  outer loop
    vertex 1.3 0.0 0.0
    vertex 23.7 0.0 2.2
    vertex 1.3 0.0 2.2
  endloop
endfacet
facet normal 1.0 -0.0 -0.0
  outer loop
    vertex 25.0 5.699999999999999 0.0
    vertex 25.0 1.3 2.2
    vertex 25.0 1.3 0.0
  endloop
endfacet
facet normal 1.0 -0.0 -0.0
  outer loop
    vertex 25.0 1.3 2.2
    vertex 25.0 5.699999999999999 0.0
    vertex 25.0 5.699999999999999 2.2
  endloop
endfacet
facet normal 0.9876883405951375 -0.1564344650402313 -0.0
  outer loop
    vertex 25.0 1.3 0.0
    vertex 24.9363734711837 0.8982779073125684 2.2
    vertex 24.9363734711837 0.8982779073125684 0.0
  endloop
endfacet
facet normal 0.9876883405951375 -0.1564344650402313 -0.0
  outer loop
    vertex 24.9363734711837 0.8982779073125684 2.2
    vertex 25.0 1.3 0.0
    vertex 25.0 1.3 2.2
  endloop
endfacet
facet normal -0.4539904997395468 -0.8910065241883679 0.0
  outer loop
    vertex 0.8982779073125685 0.06362652881630039 2.2
    vertex 0.535879172019785 0.2482779073125685 0.0
    vertex 0.8982779073125685 0.06362652881630039 0.0
  endloop
endfacet
facet normal -0.4539904997395468 -0.8910065241883679 0.0
  outer loop
    vertex 0.535879172019785 0.2482779073125685 0.0
    vertex 0.8982779073125685 0.06362652881630039 2.2
    vertex 0.535879172019785 0.2482779073125685 2.2
  endloop
endfacet
facet normal 0.4539904997395484 -0.891006524188367 0.0
  outer loop
    vertex 24.464120827980214 0.2482779073125683 2.2
    vertex 24.10172209268743 0.06362652881630039 0.0
    vertex 24.464120827980214 0.2482779073125683 0.0
  endloop
endfacet
facet normal 0.4539904997395484 -0.891006524188367 0.0
  outer loop
    vertex 24.10172209268743 0.06362652881630039 0.0
    vertex 24.464120827980214 0.2482779073125683 2.2
    vertex 24.10172209268743 0.06362652881630039 2.2
  endloop
endfacet
facet normal -0.9876883405951378 -0.15643446504023092 0.0
  outer loop
    vertex 0.0 1.3000000000000003 2.2
    vertex 0.06362652881630039 0.8982779073125685 0.0
    vertex 0.06362652881630039 0.8982779073125685 2.2
  endloop
endfacet
facet normal -0.9876883405951378 -0.15643446504023092 0.0
  outer loop
    vertex 0.06362652881630039 0.8982779073125685 0.0
    vertex 0.0 1.3000000000000003 2.2
    vertex 0.0 1.3000000000000003 0.0
  endloop
endfacet
facet normal -0.8910065241883679 -0.4539904997395468 0.0
  outer loop
    vertex 0.06362652881630039 0.8982779073125685 2.2
    vertex 0.2482779073125685 0.535879172019785 0.0
    vertex 0.2482779073125685 0.535879172019785 2.2
  endloop
endfacet
facet normal -0.8910065241883679 -0.4539904997395468 0.0
  outer loop
    vertex 0.2482779073125685 0.535879172019785 0.0
    vertex 0.06362652881630039 0.8982779073125685 2.2
    vertex 0.06362652881630039 0.8982779073125685 0.0
  endloop
endfacet
facet normal 0.7071067811865468 -0.7071067811865482 0.0
  outer loop
    vertex 24.75172209268743 0.5358791720197849 2.2
    vertex 24.464120827980214 0.2482779073125683 0.0
    vertex 24.75172209268743 0.5358791720197849 0.0
  endloop
endfacet
facet normal 0.7071067811865468 -0.7071067811865482 0.0
  outer loop
    vertex 24.464120827980214 0.2482779073125683 0.0
    vertex 24.75172209268743 0.5358791720197849 2.2
    vertex 24.464120827980214 0.2482779073125683 2.2
  endloop
endfacet
facet normal -0.7071067811865477 -0.7071067811865475 0.0
  outer loop
    vertex 0.2482779073125685 0.535879172019785 2.2
    vertex 0.535879172019785 0.2482779073125685 0.0
    vertex 0.535879172019785 0.2482779073125685 2.2
  endloop
endfacet
facet normal -0.7071067811865477 -0.7071067811865475 0.0
  outer loop
    vertex 0.535879172019785 0.2482779073125685 0.0
    vertex 0.2482779073125685 0.535879172019785 2.2
    vertex 0.2482779073125685 0.535879172019785 0.0
  endloop
endfacet
facet normal 0.8910065241883676 -0.45399049973954747 -0.0
  outer loop
    vertex 24.9363734711837 0.8982779073125684 0.0
    vertex 24.75172209268743 0.5358791720197849 2.2
    vertex 24.75172209268743 0.5358791720197849 0.0
  endloop
endfacet
facet normal 0.8910065241883676 -0.45399049973954747 -0.0
  outer loop
    vertex 24.75172209268743 0.5358791720197849 2.2
    vertex 24.9363734711837 0.8982779073125684 0.0
    vertex 24.9363734711837 0.8982779073125684 2.2
  endloop
endfacet
facet normal -0.15643446504023095 -0.9876883405951375 0.0
  outer loop
    vertex 1.3 0.0 2.2
    vertex 0.8982779073125685 0.06362652881630039 0.0
    vertex 1.3 0.0 0.0
  endloop
endfacet
facet normal -0.15643446504023095 -0.9876883405951375 0.0
  outer loop
    vertex 0.8982779073125685 0.06362652881630039 0.0
    vertex 1.3 0.0 2.2
    vertex 0.8982779073125685 0.06362652881630039 2.2
  endloop
endfacet
facet normal 0.1564344650402306 -0.9876883405951378 0.0
  outer loop
    vertex 24.10172209268743 0.06362652881630039 2.2
    vertex 23.7 0.0 0.0
    vertex 24.10172209268743 0.06362652881630039 0.0
  endloop
endfacet
facet normal 0.1564344650402306 -0.9876883405951378 0.0
  outer loop
    vertex 23.7 0.0 0.0
    vertex 24.10172209268743 0.06362652881630039 2.2
    vertex 23.7 0.0 2.2
  endloop
endfacet
facet normal -0.0 1.0 -0.0
  outer loop
    vertex 1.3000000000000003 7.0 2.2
    vertex 23.7 7.0 0.0
    vertex 1.3000000000000003 7.0 0.0
  endloop
endfacet
facet normal -0.0 1.0 -0.0
  outer loop
    vertex 23.7 7.0 0.0
    vertex 1.3000000000000003 7.0 2.2
    vertex 23.7 7.0 2.2
  endloop
endfacet
facet normal -1.0 0.0 0.0
  outer loop
    vertex 0.0 5.699999999999999 2.2
    vertex 0.0 1.3000000000000003 0.0
    vertex 0.0 1.3000000000000003 2.2
  endloop
endfacet
facet normal -1.0 0.0 0.0
  outer loop
    vertex 0.0 1.3000000000000003 0.0
    vertex 0.0 5.699999999999999 2.2
    vertex 0.0 5.699999999999999 0.0
  endloop
endfacet
facet normal 0.7071067811865458 0.7071067811865493 -0.0
  outer loop
    vertex 24.464120827980214 6.751722092687431 2.2
    vertex 24.75172209268743 6.464120827980215 0.0
    vertex 24.464120827980214 6.751722092687431 0.0
  endloop
endfacet
facet normal 0.7071067811865458 0.7071067811865493 -0.0
  outer loop
    vertex 24.75172209268743 6.464120827980215 0.0
    vertex 24.464120827980214 6.751722092687431 2.2
    vertex 24.75172209268743 6.464120827980215 2.2
  endloop
endfacet
facet normal -0.1564344650402313 0.9876883405951375 -0.0
  outer loop
    vertex 0.8982779073125685 6.9363734711837 2.2
    vertex 1.3000000000000003 7.0 0.0
    vertex 0.8982779073125685 6.9363734711837 0.0
  endloop
endfacet
facet normal -0.1564344650402313 0.9876883405951375 -0.0
  outer loop
    vertex 1.3000000000000003 7.0 0.0
    vertex 0.8982779073125685 6.9363734711837 2.2
    vertex 1.3000000000000003 7.0 2.2
  endloop
endfacet
facet normal 0.9876883405951375 0.15643446504023126 -0.0
  outer loop
    vertex 24.9363734711837 6.101722092687432 0.0
    vertex 25.0 5.699999999999999 2.2
    vertex 25.0 5.699999999999999 0.0
  endloop
endfacet
facet normal 0.9876883405951375 0.15643446504023126 -0.0
  outer loop
    vertex 25.0 5.699999999999999 2.2
    vertex 24.9363734711837 6.101722092687432 0.0
    vertex 24.9363734711837 6.101722092687432 2.2
  endloop
endfacet
facet normal 0.4539904997395493 0.8910065241883665 -0.0
  outer loop
    vertex 24.10172209268743 6.9363734711837 2.2
    vertex 24.464120827980214 6.751722092687431 0.0
    vertex 24.10172209268743 6.9363734711837 0.0
  endloop
endfacet
facet normal 0.4539904997395493 0.8910065241883665 -0.0
  outer loop
    vertex 24.464120827980214 6.751722092687431 0.0
    vertex 24.10172209268743 6.9363734711837 2.2
    vertex 24.464120827980214 6.751722092687431 2.2
  endloop
endfacet
facet normal 0.15643446504023098 0.9876883405951375 -0.0
  outer loop
    vertex 23.7 7.0 2.2
    vertex 24.10172209268743 6.9363734711837 0.0
    vertex 23.7 7.0 0.0
  endloop
endfacet
facet normal 0.15643446504023098 0.9876883405951375 -0.0
  outer loop
    vertex 24.10172209268743 6.9363734711837 0.0
    vertex 23.7 7.0 2.2
    vertex 24.10172209268743 6.9363734711837 2.2
  endloop
endfacet
facet normal -0.8910065241883682 0.45399049973954625 0.0
  outer loop
    vertex 0.2482779073125683 6.464120827980215 2.2
    vertex 0.06362652881630039 6.101722092687432 0.0
    vertex 0.06362652881630039 6.101722092687432 2.2
  endloop
endfacet
facet normal -0.8910065241883682 0.45399049973954625 0.0
  outer loop
    vertex 0.06362652881630039 6.101722092687432 0.0
    vertex 0.2482779073125683 6.464120827980215 2.2
    vertex 0.2482779073125683 6.464120827980215 0.0
  endloop
endfacet
facet normal -0.9876883405951378 0.15643446504023087 0.0
  outer loop
    vertex 0.06362652881630039 6.101722092687432 2.2
    vertex 0.0 5.699999999999999 0.0
    vertex 0.0 5.699999999999999 2.2
  endloop
endfacet
facet normal -0.9876883405951378 0.15643446504023087 0.0
  outer loop
    vertex 0.0 5.699999999999999 0.0
    vertex 0.06362652881630039 6.101722092687432 2.2
    vertex 0.06362652881630039 6.101722092687432 0.0
  endloop
endfacet
facet normal -0.7071067811865466 0.7071067811865486 -0.0
  outer loop
    vertex 0.2482779073125683 6.464120827980215 2.2
    vertex 0.5358791720197849 6.751722092687431 0.0
    vertex 0.2482779073125683 6.464120827980215 0.0
  endloop
endfacet
facet normal -0.7071067811865466 0.7071067811865486 -0.0
  outer loop
    vertex 0.5358791720197849 6.751722092687431 0.0
    vertex 0.2482779073125683 6.464120827980215 2.2
    vertex 0.5358791720197849 6.751722092687431 2.2
  endloop
endfacet
facet normal 0.8910065241883677 0.4539904997395473 -0.0
  outer loop
    vertex 24.75172209268743 6.464120827980215 0.0
    vertex 24.9363734711837 6.101722092687432 2.2
    vertex 24.9363734711837 6.101722092687432 0.0
  endloop
endfacet
facet normal 0.8910065241883677 0.4539904997395473 -0.0
  outer loop
    vertex 24.9363734711837 6.101722092687432 2.2
    vertex 24.75172209268743 6.464120827980215 0.0
    vertex 24.75172209268743 6.464120827980215 2.2
  endloop
endfacet
facet normal -0.45399049973954747 0.8910065241883676 -0.0
  outer loop
    vertex 0.5358791720197849 6.751722092687431 2.2
    vertex 0.8982779073125685 6.9363734711837 0.0
    vertex 0.5358791720197849 6.751722092687431 0.0
  endloop
endfacet
facet normal -0.45399049973954747 0.8910065241883676 -0.0
  outer loop
    vertex 0.8982779073125685 6.9363734711837 0.0
    vertex 0.5358791720197849 6.751722092687431 2.2
    vertex 0.8982779073125685 6.9363734711837 2.2
  endloop
endfacet
endsolid DuctedFanAdapter3
