solid DuctedFanAdapter4
facet normal -0.6639350953103734 -0.7477902040112623 0.0
  outer loop
    vertex 5.128689662027635 4.271243346819145 2.8
    vertex 5.4192524835346365 3.9358003996476847 0.0
    vertex 5.4192524835346365 3.9358003996476847 2.8
  endloop
endfacet
facet normal -0.8348544020791979 -0.5504708233221675 0.0
  outer loop
    vertex 5.4192524835346365 3.9358003996476847 0.0
    vertex 5.128689662027635 4.271243346819145 2.8
    vertex 5.128689662027635 4.271243346819145 0.0
  endloop
endfacet
facet normal -0.6639350953103734 -0.7477902040112623 0.0
  outer loop
    vertex 5.128689662027635 4.271243346819145 2.8
    vertex 4.761208505301308 4.520053160733843 0.0
    vertex 5.128689662027635 4.271243346819145 0.0
  endloop
endfacet
facet normal -0.44776970900077046 -0.8941489180787312 0.0
  outer loop
    vertex 4.761208505301308 4.520053160733843 0.0
    vertex 5.128689662027635 4.271243346819145 2.8
    vertex 4.761208505301308 4.520053160733843 2.8
  endloop
endfacet
facet normal -0.44776970900077046 -0.8941489180787312 0.0
  outer loop
    vertex 4.761208505301308 4.520053160733843 2.8
    vertex 4.341852246895232 4.66527386375115 0.0
    vertex 4.761208505301308 4.520053160733843 0.0
  endloop
endfacet
facet normal -0.20108955699719544 -0.9795728610300878 0.0
  outer loop
    vertex 4.341852246895232 4.66527386375115 0.0
    vertex 4.761208505301308 4.520053160733843 2.8
    vertex 4.341852246895232 4.66527386375115 2.8
  endloop
endfacet
facet normal -0.20108955699719544 -0.9795728610300878 0.0
  outer loop
    vertex 4.341852246895232 4.66527386375115 2.8
    vertex 3.8991993228007935 4.697008904948993 0.0
    vertex 4.341852246895232 4.66527386375115 0.0
  endloop
endfacet
facet normal 0.05929451599953341 -0.9982405323229372 0.0
  outer loop
    vertex 3.8991993228007935 4.697008904948993 0.0
    vertex 4.341852246895232 4.66527386375115 2.8
    vertex 3.8991993228007935 4.697008904948993 2.8
  endloop
endfacet
facet normal 0.05929451599953341 -0.9982405323229372 0.0
  outer loop
    vertex 3.8991993228007935 4.697008904948993 2.8
    vertex 3.4634157982764857 4.613095593714378 0.0
    vertex 3.8991993228007935 4.697008904948993 0.0
  endloop
endfacet
facet normal 0.3156377657197143 -0.9488797610084572 0.0
  outer loop
    vertex 3.4634157982764857 4.613095593714378 0.0
    vertex 3.8991993228007935 4.697008904948993 2.8
    vertex 3.4634157982764857 4.613095593714378 2.8
  endloop
endfacet
facet normal 0.3156377657197143 -0.9488797610084572 0.0
  outer loop
    vertex 3.4634157982764857 4.613095593714378 2.8
    vertex 3.0641996003523158 4.419252483534637 0.0
    vertex 3.4634157982764857 4.613095593714378 0.0
  endloop
endfacet
facet normal 0.5504708233221673 -0.834854402079198 0.0
  outer loop
    vertex 3.0641996003523158 4.419252483534637 0.0
    vertex 3.4634157982764857 4.613095593714378 2.8
    vertex 3.0641996003523158 4.419252483534637 2.8
  endloop
endfacet
facet normal 0.5504708233221673 -0.834854402079198 0.0
  outer loop
    vertex 3.0641996003523158 4.419252483534637 2.8
    vertex 2.7287566531808545 4.128689662027636 0.0
    vertex 3.0641996003523158 4.419252483534637 0.0
  endloop
endfacet
facet normal 0.7477902040112621 -0.6639350953103739 0.0
  outer loop
    vertex 2.7287566531808545 4.128689662027636 0.0
    vertex 3.0641996003523158 4.419252483534637 2.8
    vertex 2.7287566531808545 4.128689662027636 2.8
  endloop
endfacet
facet normal 0.7477902040112621 -0.6639350953103739 0.0
  outer loop
    vertex 2.7287566531808545 4.128689662027636 0.0
    vertex 2.4799468392661566 3.761208505301309 2.8
    vertex 2.4799468392661566 3.761208505301309 0.0
  endloop
endfacet
facet normal 0.8941489180787312 -0.44776970900077007 0.0
  outer loop
    vertex 2.4799468392661566 3.761208505301309 2.8
    vertex 2.7287566531808545 4.128689662027636 0.0
    vertex 2.7287566531808545 4.128689662027636 2.8
  endloop
endfacet
facet normal 0.8941489180787312 -0.44776970900077007 0.0
  outer loop
    vertex 2.4799468392661566 3.761208505301309 0.0
    vertex 2.3347261362488507 3.3418522468952325 2.8
    vertex 2.3347261362488507 3.3418522468952325 0.0
  endloop
endfacet
facet normal 0.9795728610300877 -0.2010895569971957 0.0
  outer loop
    vertex 2.3347261362488507 3.3418522468952325 2.8
    vertex 2.4799468392661566 3.761208505301309 0.0
    vertex 2.4799468392661566 3.761208505301309 2.8
  endloop
endfacet
facet normal 0.9795728610300877 -0.2010895569971957 0.0
  outer loop
    vertex 2.3347261362488507 3.3418522468952325 0.0
    vertex 2.302991095051006 2.899199322800794 2.8
    vertex 2.302991095051006 2.899199322800794 0.0
  endloop
endfacet
facet normal 0.9982405323229373 0.059294515999532824 0.0
  outer loop
    vertex 2.302991095051006 2.899199322800794 2.8
    vertex 2.3347261362488507 3.3418522468952325 0.0
    vertex 2.3347261362488507 3.3418522468952325 2.8
  endloop
endfacet
facet normal 0.9982405323229373 0.059294515999532824 0.0
  outer loop
    vertex 2.302991095051006 2.899199322800794 0.0
    vertex 2.3869044062856224 2.4634157982764866 2.8
    vertex 2.3869044062856224 2.4634157982764866 0.0
  endloop
endfacet
facet normal 0.9488797610084572 0.3156377657197138 0.0
  outer loop
    vertex 2.3869044062856224 2.4634157982764866 2.8
    vertex 2.302991095051006 2.899199322800794 0.0
    vertex 2.302991095051006 2.899199322800794 2.8
  endloop
endfacet
facet normal 0.9488797610084572 0.3156377657197138 0.0
  outer loop
    vertex 2.3869044062856224 2.4634157982764866 0.0
    vertex 2.5807475164653626 2.064199600352316 2.8
    vertex 2.5807475164653626 2.064199600352316 0.0
  endloop
endfacet
facet normal 0.8348544020791985 0.5504708233221668 0.0
  outer loop
    vertex 2.5807475164653626 2.064199600352316 2.8
    vertex 2.3869044062856224 2.4634157982764866 0.0
    vertex 2.3869044062856224 2.4634157982764866 2.8
  endloop
endfacet
facet normal 0.8348544020791985 0.5504708233221668 0.0
  outer loop
    vertex 2.5807475164653626 2.064199600352316 0.0
    vertex 2.8713103379723632 1.7287566531808551 2.8
    vertex 2.8713103379723632 1.7287566531808551 0.0
  endloop
endfacet
facet normal 0.663935095310374 0.747790204011262 0.0
  outer loop
    vertex 2.8713103379723632 1.7287566531808551 2.8
    vertex 2.5807475164653626 2.064199600352316 0.0
    vertex 2.5807475164653626 2.064199600352316 2.8
  endloop
endfacet
facet normal 0.663935095310374 0.747790204011262 0.0
  outer loop
    vertex 2.8713103379723632 1.7287566531808551 2.8
    vertex 3.238791494698691 1.4799468392661568 0.0
    vertex 2.8713103379723632 1.7287566531808551 0.0
  endloop
endfacet
facet normal 0.4477697090007699 0.8941489180787314 0.0
  outer loop
    vertex 3.238791494698691 1.4799468392661568 0.0
    vertex 2.8713103379723632 1.7287566531808551 2.8
    vertex 3.238791494698691 1.4799468392661568 2.8
  endloop
endfacet
facet normal 0.4477697090007699 0.8941489180787314 0.0
  outer loop
    vertex 3.238791494698691 1.4799468392661568 2.8
    vertex 3.6581477531047675 1.334726136248851 0.0
    vertex 3.238791494698691 1.4799468392661568 0.0
  endloop
endfacet
facet normal 0.20108955699719558 0.9795728610300877 0.0
  outer loop
    vertex 3.6581477531047675 1.334726136248851 0.0
    vertex 3.238791494698691 1.4799468392661568 2.8
    vertex 3.6581477531047675 1.334726136248851 2.8
  endloop
endfacet
facet normal 0.20108955699719558 0.9795728610300877 0.0
  outer loop
    vertex 3.6581477531047675 1.334726136248851 2.8
    vertex 4.100800677199206 1.3029910950510066 0.0
    vertex 3.6581477531047675 1.334726136248851 0.0
  endloop
endfacet
facet normal -0.05929451599953246 0.9982405323229373 0.0
  outer loop
    vertex 4.100800677199206 1.3029910950510066 0.0
    vertex 3.6581477531047675 1.334726136248851 2.8
    vertex 4.100800677199206 1.3029910950510066 2.8
  endloop
endfacet
facet normal -0.05929451599953246 0.9982405323229373 0.0
  outer loop
    vertex 4.100800677199206 1.3029910950510066 2.8
    vertex 4.536584201723514 1.3869044062856226 0.0
    vertex 4.100800677199206 1.3029910950510066 0.0
  endloop
endfacet
facet normal -0.3156377657197138 0.9488797610084572 0.0
  outer loop
    vertex 4.536584201723514 1.3869044062856226 0.0
    vertex 4.100800677199206 1.3029910950510066 2.8
    vertex 4.536584201723514 1.3869044062856226 2.8
  endloop
endfacet
facet normal -0.3156377657197138 0.9488797610084572 0.0
  outer loop
    vertex 4.536584201723514 1.3869044062856226 2.8
    vertex 4.935800399647683 1.5807475164653628 0.0
    vertex 4.536584201723514 1.3869044062856226 0.0
  endloop
endfacet
facet normal -0.5504708233221668 0.8348544020791984 0.0
  outer loop
    vertex 4.935800399647683 1.5807475164653628 0.0
    vertex 4.536584201723514 1.3869044062856226 2.8
    vertex 4.935800399647683 1.5807475164653628 2.8
  endloop
endfacet
facet normal -0.5504708233221668 0.8348544020791984 0.0
  outer loop
    vertex 4.935800399647683 1.5807475164653628 2.8
    vertex 5.271243346819145 1.8713103379723637 0.0
    vertex 4.935800399647683 1.5807475164653628 0.0
  endloop
endfacet
facet normal -0.7477902040112621 0.6639350953103736 0.0
  outer loop
    vertex 5.271243346819145 1.8713103379723637 0.0
    vertex 4.935800399647683 1.5807475164653628 2.8
    vertex 5.271243346819145 1.8713103379723637 2.8
  endloop
endfacet
facet normal -0.8941489180787311 0.4477697090007701 0.0
  outer loop
    vertex 5.520053160733843 2.2387914946986913 2.8
    vertex 5.271243346819145 1.8713103379723637 0.0
    vertex 5.271243346819145 1.8713103379723637 2.8
  endloop
endfacet
facet normal -0.7477902040112621 0.6639350953103736 0.0
  outer loop
    vertex 5.271243346819145 1.8713103379723637 0.0
    vertex 5.520053160733843 2.2387914946986913 2.8
    vertex 5.520053160733843 2.2387914946986913 0.0
  endloop
endfacet
facet normal -0.9795728610300877 0.20108955699719555 0.0
  outer loop
    vertex 5.66527386375115 2.6581477531047684 2.8
    vertex 5.520053160733843 2.2387914946986913 0.0
    vertex 5.520053160733843 2.2387914946986913 2.8
  endloop
endfacet
facet normal -0.8941489180787311 0.4477697090007701 0.0
  outer loop
    vertex 5.520053160733843 2.2387914946986913 0.0
    vertex 5.66527386375115 2.6581477531047684 2.8
    vertex 5.66527386375115 2.6581477531047684 0.0
  endloop
endfacet
facet normal -0.9982405323229373 -0.05929451599953356 0.0
  outer loop
    vertex 5.697008904948993 3.1008006771992065 2.8
    vertex 5.66527386375115 2.6581477531047684 0.0
    vertex 5.66527386375115 2.6581477531047684 2.8
  endloop
endfacet
facet normal -0.9795728610300877 0.20108955699719555 0.0
  outer loop
    vertex 5.66527386375115 2.6581477531047684 0.0
    vertex 5.697008904948993 3.1008006771992065 2.8
    vertex 5.697008904948993 3.1008006771992065 0.0
  endloop
endfacet
facet normal -0.9488797610084572 -0.3156377657197141 0.0
  outer loop
    vertex 5.613095593714378 3.5365842017235143 2.8
    vertex 5.697008904948993 3.1008006771992065 0.0
    vertex 5.697008904948993 3.1008006771992065 2.8
  endloop
endfacet
facet normal -0.9982405323229373 -0.05929451599953356 0.0
  outer loop
    vertex 5.697008904948993 3.1008006771992065 0.0
    vertex 5.613095593714378 3.5365842017235143 2.8
    vertex 5.613095593714378 3.5365842017235143 0.0
  endloop
endfacet
facet normal -0.8348544020791979 -0.5504708233221675 0.0
  outer loop
    vertex 5.4192524835346365 3.9358003996476847 2.8
    vertex 5.613095593714378 3.5365842017235143 0.0
    vertex 5.613095593714378 3.5365842017235143 2.8
  endloop
endfacet
facet normal -0.9488797610084572 -0.3156377657197141 0.0
  outer loop
    vertex 5.613095593714378 3.5365842017235143 0.0
    vertex 5.4192524835346365 3.9358003996476847 2.8
    vertex 5.4192524835346365 3.9358003996476847 0.0
  endloop
endfacet
facet normal -0.0 1.0 -0.0
  outer loop
    vertex 2.0000000000000013 21.0 8.1
    vertex 6.0 21.0 0.0
    vertex 2.0000000000000013 21.0 0.0
  endloop
endfacet
facet normal -0.0 1.0 -0.0
  outer loop
    vertex 6.0 21.0 0.0
    vertex 2.0000000000000013 21.0 8.1
    vertex 6.0 21.0 8.1
  endloop
endfacet
facet normal -0.0 1.0 -0.0
  outer loop
    vertex 1.7 15.0 2.8
    vertex 2.0000000000000027 15.0 0.0
    vertex 1.7 15.0 0.0
  endloop
endfacet
facet normal -0.0 1.0 -0.0
  outer loop
    vertex 2.0000000000000027 15.0 0.0
    vertex 1.7 15.0 2.8
    vertex 2.0000000000000027 15.0 2.8
  endloop
endfacet
facet normal 1.7296429739684423e-16 -0.4922214812313978 -0.8704699957002359
  outer loop
    vertex 6.000000000000005 18.836776518093377 8.779798992690402
    vertex 2.000000000000001 18.425263887426834 8.945949764133346
    vertex 2.000000000000001 18.836776518093377 8.779798992690402
  endloop
endfacet
facet normal 1.2230422759247515e-16 -0.25015522789813577 -0.9682057436078512
  outer loop
    vertex 2.000000000000001 18.425263887426834 8.945949764133346
    vertex 6.000000000000005 18.836776518093377 8.779798992690402
    vertex 6.000000000000005 18.425263887426834 8.945949764133346
  endloop
endfacet
facet normal 2.1183713617063456e-16 -0.700743654053198 -0.7134131561053327
  outer loop
    vertex 6.000000000000005 19.191264211890434 8.512802365379066
    vertex 2.000000000000001 18.836776518093377 8.779798992690402
    vertex 2.000000000000001 19.191264211890434 8.512802365379066
  endloop
endfacet
facet normal 1.7296429739684423e-16 -0.4922214812313978 -0.8704699957002359
  outer loop
    vertex 2.000000000000001 18.836776518093377 8.779798992690402
    vertex 6.000000000000005 19.191264211890434 8.512802365379066
    vertex 6.000000000000005 18.836776518093377 8.779798992690402
  endloop
endfacet
facet normal 2.1183713617063456e-16 -0.700743654053198 -0.7134131561053327
  outer loop
    vertex 6.000000000000005 19.191264211890434 8.512802365379066
    vertex 2.000000000000001 19.46456921830435 8.163155261117822
    vertex 6.000000000000005 19.46456921830435 8.163155261117822
  endloop
endfacet
facet normal 2.362736241918156e-16 -0.8615113048849126 -0.5077383888928386
  outer loop
    vertex 2.000000000000001 19.46456921830435 8.163155261117822
    vertex 6.000000000000005 19.191264211890434 8.512802365379066
    vertex 2.000000000000001 19.191264211890434 8.512802365379066
  endloop
endfacet
facet normal 2.362736241918156e-16 -0.8615113048849126 -0.5077383888928386
  outer loop
    vertex 6.000000000000005 19.46456921830435 8.163155261117822
    vertex 2.000000000000001 19.6380662528059 7.754685552242911
    vertex 6.000000000000005 19.6380662528059 7.754685552242911
  endloop
endfacet
facet normal 2.446084551849504e-16 -0.9635683840034694 -0.2674620895546554
  outer loop
    vertex 2.000000000000001 19.6380662528059 7.754685552242911
    vertex 6.000000000000005 19.46456921830435 8.163155261117822
    vertex 2.000000000000001 19.46456921830435 8.163155261117822
  endloop
endfacet
facet normal 2.446084551849504e-16 -0.9635683840034694 -0.2674620895546554
  outer loop
    vertex 6.000000000000005 19.6380662528059 7.754685552242911
    vertex 2.000000000000001 19.699931779211198 7.315229774386049
    vertex 6.000000000000005 19.699931779211198 7.315229774386049
  endloop
endfacet
facet normal 2.362736241918158e-16 -0.9999598701242344 -0.008958690815323364
  outer loop
    vertex 2.000000000000001 19.699931779211198 7.315229774386049
    vertex 6.000000000000005 19.6380662528059 7.754685552242911
    vertex 2.000000000000001 19.6380662528059 7.754685552242911
  endloop
endfacet
facet normal 2.362736241918158e-16 -0.9999598701242344 -0.008958690815323364
  outer loop
    vertex 6.000000000000005 19.699931779211198 7.315229774386049
    vertex 2.000000000000001 19.64594976413335 6.874736112573169
    vertex 6.000000000000005 19.64594976413335 6.874736112573169
  endloop
endfacet
facet normal 2.118371361706344e-16 -0.968205743607851 0.2501552278981359
  outer loop
    vertex 2.000000000000001 19.64594976413335 6.874736112573169
    vertex 6.000000000000005 19.699931779211198 7.315229774386049
    vertex 2.000000000000001 19.699931779211198 7.315229774386049
  endloop
endfacet
facet normal 2.118371361706344e-16 -0.968205743607851 0.2501552278981359
  outer loop
    vertex 6.000000000000005 19.64594976413335 6.874736112573169
    vertex 2.000000000000001 19.4797989926904 6.463223481906625
    vertex 6.000000000000005 19.4797989926904 6.463223481906625
  endloop
endfacet
facet normal 1.7296429739684383e-16 -0.8704699957002356 0.49222148123139825
  outer loop
    vertex 2.000000000000001 19.4797989926904 6.463223481906625
    vertex 6.000000000000005 19.64594976413335 6.874736112573169
    vertex 2.000000000000001 19.64594976413335 6.874736112573169
  endloop
endfacet
facet normal 1.7296429739684383e-16 -0.8704699957002356 0.49222148123139825
  outer loop
    vertex 6.000000000000005 19.4797989926904 6.463223481906625
    vertex 2.000000000000001 19.21280236537907 6.108735788109565
    vertex 6.000000000000005 19.21280236537907 6.108735788109565
  endloop
endfacet
facet normal 1.2230422759247517e-16 -0.713413156105334 0.7007436540531969
  outer loop
    vertex 2.000000000000001 19.21280236537907 6.108735788109565
    vertex 6.000000000000005 19.4797989926904 6.463223481906625
    vertex 2.000000000000001 19.4797989926904 6.463223481906625
  endloop
endfacet
facet normal 6.330932679497196e-17 -0.5077383888928385 0.8615113048849127
  outer loop
    vertex 2.0000000000000013 18.863155261117825 5.8354307816956466
    vertex 6.000000000000005 19.21280236537907 6.108735788109565
    vertex 2.000000000000001 19.21280236537907 6.108735788109565
  endloop
endfacet
facet normal 1.2230422759247515e-16 -0.7134131561053338 0.7007436540531969
  outer loop
    vertex 6.000000000000005 19.21280236537907 6.108735788109565
    vertex 2.0000000000000013 18.863155261117825 5.8354307816956466
    vertex 6.000000000000005 18.863155261117825 5.8354307816956466
  endloop
endfacet
facet normal 2.671196232900313e-31 -0.2674620895546551 0.9635683840034694
  outer loop
    vertex 6.000000000000005 18.454685552242914 5.661933747194101
    vertex 2.0000000000000013 18.863155261117825 5.8354307816956466
    vertex 2.0000000000000013 18.454685552242914 5.661933747194101
  endloop
endfacet
facet normal 6.330932679497196e-17 -0.5077383888928385 0.8615113048849127
  outer loop
    vertex 2.0000000000000013 18.863155261117825 5.8354307816956466
    vertex 6.000000000000005 18.454685552242914 5.661933747194101
    vertex 6.000000000000005 18.863155261117825 5.8354307816956466
  endloop
endfacet
facet normal -6.33093267949715e-17 -0.008958690815323314 0.9999598701242344
  outer loop
    vertex 6.000000000000005 18.01522977438605 5.600068220788801
    vertex 2.0000000000000013 18.454685552242914 5.661933747194101
    vertex 2.0000000000000013 18.01522977438605 5.600068220788801
  endloop
endfacet
facet normal 2.671196232900313e-31 -0.2674620895546551 0.9635683840034694
  outer loop
    vertex 2.0000000000000013 18.454685552242914 5.661933747194101
    vertex 6.000000000000005 18.01522977438605 5.600068220788801
    vertex 6.000000000000005 18.454685552242914 5.661933747194101
  endloop
endfacet
facet normal -1.2230422759247512e-16 0.25015522789813566 0.9682057436078509
  outer loop
    vertex 2.0000000000000018 17.57473611257317 5.654050235866652
    vertex 6.000000000000005 18.01522977438605 5.600068220788801
    vertex 2.0000000000000013 18.01522977438605 5.600068220788801
  endloop
endfacet
facet normal -6.33093267949715e-17 -0.008958690815323314 0.9999598701242344
  outer loop
    vertex 6.000000000000005 18.01522977438605 5.600068220788801
    vertex 2.0000000000000018 17.57473611257317 5.654050235866652
    vertex 6.000000000000005 17.57473611257317 5.654050235866652
  endloop
endfacet
facet normal -1.7296429739684423e-16 0.4922214812313979 0.8704699957002359
  outer loop
    vertex 6.000000000000005 17.163223481906623 5.820201007309597
    vertex 2.0000000000000018 17.57473611257317 5.654050235866652
    vertex 2.0000000000000018 17.163223481906623 5.820201007309597
  endloop
endfacet
facet normal -1.2230422759247512e-16 0.25015522789813566 0.9682057436078509
  outer loop
    vertex 2.0000000000000018 17.57473611257317 5.654050235866652
    vertex 6.000000000000005 17.163223481906623 5.820201007309597
    vertex 6.000000000000005 17.57473611257317 5.654050235866652
  endloop
endfacet
facet normal -2.1183713617063453e-16 0.7007436540531978 0.7134131561053328
  outer loop
    vertex 6.000000000000005 16.808735788109566 6.0871976346209316
    vertex 2.0000000000000018 17.163223481906623 5.820201007309597
    vertex 2.0000000000000018 16.808735788109566 6.0871976346209316
  endloop
endfacet
facet normal -1.7296429739684423e-16 0.4922214812313979 0.8704699957002359
  outer loop
    vertex 2.0000000000000018 17.163223481906623 5.820201007309597
    vertex 6.000000000000005 16.808735788109566 6.0871976346209316
    vertex 6.000000000000005 17.163223481906623 5.820201007309597
  endloop
endfacet
facet normal -2.3627362419181563e-16 0.8615113048849128 0.5077383888928382
  outer loop
    vertex 2.0000000000000018 16.53543078169565 6.436844738882177
    vertex 6.000000000000005 16.808735788109566 6.0871976346209316
    vertex 2.0000000000000018 16.808735788109566 6.0871976346209316
  endloop
endfacet
facet normal -2.1183713617063453e-16 0.7007436540531978 0.7134131561053328
  outer loop
    vertex 6.000000000000005 16.808735788109566 6.0871976346209316
    vertex 2.0000000000000018 16.53543078169565 6.436844738882177
    vertex 6.000000000000005 16.53543078169565 6.436844738882177
  endloop
endfacet
facet normal -2.446084551849504e-16 0.9635683840034694 0.2674620895546554
  outer loop
    vertex 2.0000000000000018 16.3619337471941 6.845314447757087
    vertex 6.000000000000005 16.53543078169565 6.436844738882177
    vertex 2.0000000000000018 16.53543078169565 6.436844738882177
  endloop
endfacet
facet normal -2.3627362419181563e-16 0.8615113048849128 0.5077383888928382
  outer loop
    vertex 6.000000000000005 16.53543078169565 6.436844738882177
    vertex 2.0000000000000018 16.3619337471941 6.845314447757087
    vertex 6.000000000000005 16.3619337471941 6.845314447757087
  endloop
endfacet
facet normal -2.362736241918158e-16 0.9999598701242344 0.00895869081532356
  outer loop
    vertex 2.0000000000000018 16.300068220788802 7.28477022561395
    vertex 6.000000000000005 16.3619337471941 6.845314447757087
    vertex 2.0000000000000018 16.3619337471941 6.845314447757087
  endloop
endfacet
facet normal -2.446084551849504e-16 0.9635683840034694 0.2674620895546554
  outer loop
    vertex 6.000000000000005 16.3619337471941 6.845314447757087
    vertex 2.0000000000000018 16.300068220788802 7.28477022561395
    vertex 6.000000000000005 16.300068220788802 7.28477022561395
  endloop
endfacet
facet normal -2.118371361706343e-16 0.9682057436078509 -0.2501552278981362
  outer loop
    vertex 2.0000000000000018 16.35405023586665 7.725263887426832
    vertex 6.000000000000005 16.300068220788802 7.28477022561395
    vertex 2.0000000000000018 16.300068220788802 7.28477022561395
  endloop
endfacet
facet normal -2.362736241918158e-16 0.9999598701242344 0.00895869081532356
  outer loop
    vertex 6.000000000000005 16.300068220788802 7.28477022561395
    vertex 2.0000000000000018 16.35405023586665 7.725263887426832
    vertex 6.000000000000005 16.35405023586665 7.725263887426832
  endloop
endfacet
facet normal -1.7296429739684378e-16 0.8704699957002354 -0.4922214812313988
  outer loop
    vertex 2.0000000000000018 16.5202010073096 8.136776518093374
    vertex 6.000000000000005 16.35405023586665 7.725263887426832
    vertex 2.0000000000000018 16.35405023586665 7.725263887426832
  endloop
endfacet
facet normal -2.118371361706343e-16 0.9682057436078509 -0.2501552278981362
  outer loop
    vertex 6.000000000000005 16.35405023586665 7.725263887426832
    vertex 2.0000000000000018 16.5202010073096 8.136776518093374
    vertex 6.000000000000005 16.5202010073096 8.136776518093374
  endloop
endfacet
facet normal -1.2230422759247527e-16 0.7134131561053343 -0.7007436540531966
  outer loop
    vertex 2.0000000000000018 16.787197634620934 8.491264211890433
    vertex 6.000000000000005 16.5202010073096 8.136776518093374
    vertex 2.0000000000000018 16.5202010073096 8.136776518093374
  endloop
endfacet
facet normal -1.7296429739684378e-16 0.8704699957002354 -0.4922214812313988
  outer loop
    vertex 6.000000000000005 16.5202010073096 8.136776518093374
    vertex 2.0000000000000018 16.787197634620934 8.491264211890433
    vertex 6.000000000000005 16.787197634620934 8.491264211890433
  endloop
endfacet
facet normal -6.330932679497144e-17 0.5077383888928366 -0.8615113048849138
  outer loop
    vertex 6.000000000000005 17.13684473888218 8.764569218304352
    vertex 2.0000000000000018 16.787197634620934 8.491264211890433
    vertex 2.0000000000000013 17.13684473888218 8.764569218304352
  endloop
endfacet
facet normal -1.2230422759247527e-16 0.7134131561053343 -0.7007436540531966
  outer loop
    vertex 2.0000000000000018 16.787197634620934 8.491264211890433
    vertex 6.000000000000005 17.13684473888218 8.764569218304352
    vertex 6.000000000000005 16.787197634620934 8.491264211890433
  endloop
endfacet
facet normal 9.29972021824553e-32 0.26746208955465384 -0.96356838400347
  outer loop
    vertex 6.000000000000005 17.54531444775709 8.938066252805898
    vertex 2.0000000000000013 17.13684473888218 8.764569218304352
    vertex 2.0000000000000013 17.54531444775709 8.938066252805898
  endloop
endfacet
facet normal -6.330932679497144e-17 0.5077383888928366 -0.8615113048849137
  outer loop
    vertex 2.0000000000000013 17.13684473888218 8.764569218304352
    vertex 6.000000000000005 17.54531444775709 8.938066252805898
    vertex 6.000000000000005 17.13684473888218 8.764569218304352
  endloop
endfacet
facet normal 6.33093267949714e-17 0.008958690815323779 -0.9999598701242343
  outer loop
    vertex 6.000000000000005 17.98477022561395 8.999931779211199
    vertex 2.0000000000000013 17.54531444775709 8.938066252805898
    vertex 2.0000000000000013 17.98477022561395 8.999931779211199
  endloop
endfacet
facet normal 9.29972021824553e-32 0.26746208955465384 -0.96356838400347
  outer loop
    vertex 2.0000000000000013 17.54531444775709 8.938066252805898
    vertex 6.000000000000005 17.98477022561395 8.999931779211199
    vertex 6.000000000000005 17.54531444775709 8.938066252805898
  endloop
endfacet
facet normal 1.2230422759247515e-16 -0.25015522789813577 -0.9682057436078512
  outer loop
    vertex 6.000000000000005 18.425263887426834 8.945949764133346
    vertex 2.0000000000000013 17.98477022561395 8.999931779211199
    vertex 2.000000000000001 18.425263887426834 8.945949764133346
  endloop
endfacet
facet normal 6.330932679497141e-17 0.008958690815323741 -0.9999598701242343
  outer loop
    vertex 2.0000000000000013 17.98477022561395 8.999931779211199
    vertex 6.000000000000005 18.425263887426834 8.945949764133346
    vertex 6.000000000000005 17.98477022561395 8.999931779211199
  endloop
endfacet
facet normal -0.0 -0.0 1.0
  outer loop
    vertex 2.000000000000002 16.7 9.799999999999999
    vertex 6.0 19.3 9.799999999999999
    vertex 2.0000000000000018 19.3 9.799999999999999
  endloop
endfacet
facet normal -0.0 -0.0 1.0
  outer loop
    vertex 6.0 19.3 9.799999999999999
    vertex 2.000000000000002 16.7 9.799999999999999
    vertex 6.0 16.7 9.799999999999999
  endloop
endfacet
facet normal -3.710428665212869e-20 -0.45399049973954547 0.8910065241883686
  outer loop
    vertex 2.0000000000000027 15.700765071102795 9.47532889043741
    vertex 6.0 16.174671109562592 9.71679607770176
    vertex 2.000000000000002 16.174671109562592 9.71679607770176
  endloop
endfacet
facet normal -3.710428665212869e-20 -0.45399049973954547 0.8910065241883686
  outer loop
    vertex 6.0 16.174671109562592 9.71679607770176
    vertex 2.0000000000000027 15.700765071102795 9.47532889043741
    vertex 6.0 15.700765071102795 9.47532889043741
  endloop
endfacet
facet normal 1.9847439583484574e-18 -0.8910065241883679 0.4539904997395466
  outer loop
    vertex 6.0 15.32467110956259 9.099234928897204
    vertex 2.0000000000000027 15.083203922298239 8.62532889043741
    vertex 6.0 15.083203922298239 8.62532889043741
  endloop
endfacet
facet normal 1.9847439583484574e-18 -0.8910065241883679 0.4539904997395466
  outer loop
    vertex 2.0000000000000027 15.083203922298239 8.62532889043741
    vertex 6.0 15.32467110956259 9.099234928897204
    vertex 2.0000000000000027 15.32467110956259 9.099234928897204
  endloop
endfacet
facet normal -0.0 0.7071067811865475 0.7071067811865475
  outer loop
    vertex 2.0000000000000013 20.299234928897206 9.47532889043741
    vertex 6.0 20.675328890437413 9.099234928897204
    vertex 2.0000000000000013 20.675328890437413 9.099234928897204
  endloop
endfacet
facet normal -0.0 0.7071067811865475 0.7071067811865475
  outer loop
    vertex 6.0 20.675328890437413 9.099234928897204
    vertex 2.0000000000000013 20.299234928897206 9.47532889043741
    vertex 6.0 20.299234928897206 9.47532889043741
  endloop
endfacet
facet normal -1.763383763552722e-18 0.1564344650402306 0.9876883405951378
  outer loop
    vertex 6.0 19.3 9.799999999999999
    vertex 2.0000000000000018 19.82532889043741 9.71679607770176
    vertex 2.0000000000000018 19.3 9.799999999999999
  endloop
endfacet
facet normal -1.763383763552722e-18 0.1564344650402306 0.9876883405951378
  outer loop
    vertex 2.0000000000000018 19.82532889043741 9.71679607770176
    vertex 6.0 19.3 9.799999999999999
    vertex 6.0 19.82532889043741 9.71679607770176
  endloop
endfacet
facet normal 1.984743958348513e-18 0.8910065241883679 0.4539904997395466
  outer loop
    vertex 2.0000000000000013 20.675328890437413 9.099234928897204
    vertex 6.0 20.91679607770176 8.62532889043741
    vertex 2.0000000000000013 20.91679607770176 8.62532889043741
  endloop
endfacet
facet normal 1.984743958348513e-18 0.8910065241883679 0.4539904997395466
  outer loop
    vertex 6.0 20.91679607770176 8.62532889043741
    vertex 2.0000000000000013 20.675328890437413 9.099234928897204
    vertex 6.0 20.675328890437413 9.099234928897204
  endloop
endfacet
facet normal 3.7104286652114414e-20 0.45399049973954547 0.8910065241883686
  outer loop
    vertex 2.0000000000000018 19.82532889043741 9.71679607770176
    vertex 6.0 20.299234928897206 9.47532889043741
    vertex 2.0000000000000013 20.299234928897206 9.47532889043741
  endloop
endfacet
facet normal 3.7104286652114414e-20 0.45399049973954547 0.8910065241883686
  outer loop
    vertex 6.0 20.299234928897206 9.47532889043741
    vertex 2.0000000000000018 19.82532889043741 9.71679607770176
    vertex 6.0 19.82532889043741 9.71679607770176
  endloop
endfacet
facet normal 1.0794876037339216e-18 0.9876883405951378 0.15643446504023015
  outer loop
    vertex 2.0000000000000013 20.91679607770176 8.62532889043741
    vertex 6.0 21.0 8.1
    vertex 2.0000000000000013 21.0 8.1
  endloop
endfacet
facet normal 1.0794876037339216e-18 0.9876883405951378 0.15643446504023015
  outer loop
    vertex 6.0 21.0 8.1
    vertex 2.0000000000000013 20.91679607770176 8.62532889043741
    vertex 6.0 20.91679607770176 8.62532889043741
  endloop
endfacet
facet normal -0.0 -0.7071067811865475 0.7071067811865475
  outer loop
    vertex 6.0 15.700765071102795 9.47532889043741
    vertex 2.0000000000000027 15.32467110956259 9.099234928897204
    vertex 6.0 15.32467110956259 9.099234928897204
  endloop
endfacet
facet normal -0.0 -0.7071067811865475 0.7071067811865475
  outer loop
    vertex 2.0000000000000027 15.32467110956259 9.099234928897204
    vertex 6.0 15.700765071102795 9.47532889043741
    vertex 2.0000000000000027 15.700765071102795 9.47532889043741
  endloop
endfacet
facet normal -6.83896159818644e-19 -0.9876883405951378 0.15643446504023018
  outer loop
    vertex 6.0 15.083203922298239 8.62532889043741
    vertex 2.0000000000000027 15.0 8.1
    vertex 6.0 15.0 8.1
  endloop
endfacet
facet normal -6.83896159818644e-19 -0.9876883405951378 0.15643446504023018
  outer loop
    vertex 2.0000000000000027 15.0 8.1
    vertex 6.0 15.083203922298239 8.62532889043741
    vertex 2.0000000000000027 15.083203922298239 8.62532889043741
  endloop
endfacet
facet normal -6.838961598188299e-19 -0.1564344650402306 0.9876883405951378
  outer loop
    vertex 6.0 16.174671109562592 9.71679607770176
    vertex 2.000000000000002 16.7 9.799999999999999
    vertex 2.000000000000002 16.174671109562592 9.71679607770176
  endloop
endfacet
facet normal -6.838961598188299e-19 -0.1564344650402306 0.9876883405951378
  outer loop
    vertex 2.000000000000002 16.7 9.799999999999999
    vertex 6.0 16.174671109562592 9.71679607770176
    vertex 6.0 16.7 9.799999999999999
  endloop
endfacet
facet normal -1.0 -2.4319673284387436e-16 3.894796795596391e-18
  outer loop
    vertex 2.000000000000002 16.174671109562592 9.71679607770176
    vertex 2.0000000000000018 16.35405023586665 7.725263887426832
    vertex 2.0000000000000018 16.300068220788802 7.28477022561395
  endloop
endfacet
facet normal -1.0 -2.4319673284387436e-16 3.894796795596391e-18
  outer loop
    vertex 2.0000000000000018 16.35405023586665 7.725263887426832
    vertex 2.000000000000002 16.174671109562592 9.71679607770176
    vertex 2.000000000000002 16.7 9.799999999999999
  endloop
endfacet
facet normal -1.0 -2.4319673284387436e-16 3.894796795596391e-18
  outer loop
    vertex 2.0000000000000018 16.35405023586665 7.725263887426832
    vertex 2.000000000000002 16.7 9.799999999999999
    vertex 2.0000000000000018 16.5202010073096 8.136776518093374
  endloop
endfacet
facet normal -1.0 -2.4319673284387436e-16 3.894796795596391e-18
  outer loop
    vertex 2.0000000000000018 16.5202010073096 8.136776518093374
    vertex 2.000000000000002 16.7 9.799999999999999
    vertex 2.0000000000000018 16.787197634620934 8.491264211890433
  endloop
endfacet
facet normal -1.0 -2.4319673284387436e-16 3.894796795596391e-18
  outer loop
    vertex 2.0000000000000018 16.787197634620934 8.491264211890433
    vertex 2.000000000000002 16.7 9.799999999999999
    vertex 2.0000000000000013 17.13684473888218 8.764569218304352
  endloop
endfacet
facet normal -1.0 -2.4319673284387436e-16 3.894796795596391e-18
  outer loop
    vertex 2.0000000000000013 17.13684473888218 8.764569218304352
    vertex 2.000000000000002 16.7 9.799999999999999
    vertex 2.0000000000000018 19.3 9.799999999999999
  endloop
endfacet
facet normal -1.0 -2.4319673284387436e-16 3.894796795596391e-18
  outer loop
    vertex 2.0000000000000013 17.13684473888218 8.764569218304352
    vertex 2.0000000000000018 19.3 9.799999999999999
    vertex 2.0000000000000013 17.54531444775709 8.938066252805898
  endloop
endfacet
facet normal -1.0 -2.4319673284387436e-16 3.894796795596391e-18
  outer loop
    vertex 2.0000000000000013 17.54531444775709 8.938066252805898
    vertex 2.0000000000000018 19.3 9.799999999999999
    vertex 2.0000000000000013 17.98477022561395 8.999931779211199
  endloop
endfacet
facet normal -1.0 -2.4319673284387436e-16 3.894796795596391e-18
  outer loop
    vertex 2.0000000000000013 17.98477022561395 8.999931779211199
    vertex 2.0000000000000018 19.3 9.799999999999999
    vertex 2.000000000000001 18.425263887426834 8.945949764133346
  endloop
endfacet
facet normal -1.0 -2.4319673284387436e-16 3.894796795596391e-18
  outer loop
    vertex 2.000000000000001 18.425263887426834 8.945949764133346
    vertex 2.0000000000000018 19.3 9.799999999999999
    vertex 2.000000000000001 18.836776518093377 8.779798992690402
  endloop
endfacet
facet normal -1.0 -2.4319673284387436e-16 3.894796795596391e-18
  outer loop
    vertex 2.000000000000001 18.836776518093377 8.779798992690402
    vertex 2.0000000000000018 19.3 9.799999999999999
    vertex 2.000000000000001 19.191264211890434 8.512802365379066
  endloop
endfacet
facet normal -1.0 -2.4319673284387436e-16 3.894796795596391e-18
  outer loop
    vertex 2.000000000000001 19.191264211890434 8.512802365379066
    vertex 2.0000000000000018 19.3 9.799999999999999
    vertex 2.000000000000001 19.46456921830435 8.163155261117822
  endloop
endfacet
facet normal -1.0 -2.4319673284387436e-16 3.894796795596391e-18
  outer loop
    vertex 2.000000000000001 19.46456921830435 8.163155261117822
    vertex 2.0000000000000018 19.3 9.799999999999999
    vertex 2.0000000000000018 19.82532889043741 9.71679607770176
  endloop
endfacet
facet normal -1.0 -2.4319673284387436e-16 3.894796795596391e-18
  outer loop
    vertex 2.000000000000001 19.46456921830435 8.163155261117822
    vertex 2.0000000000000018 19.82532889043741 9.71679607770176
    vertex 2.000000000000001 19.6380662528059 7.754685552242911
  endloop
endfacet
facet normal -1.0 -2.4319673284387436e-16 3.894796795596391e-18
  outer loop
    vertex 2.000000000000001 19.6380662528059 7.754685552242911
    vertex 2.0000000000000018 19.82532889043741 9.71679607770176
    vertex 2.000000000000001 19.699931779211198 7.315229774386049
  endloop
endfacet
facet normal -1.0 -2.4319673284387436e-16 3.894796795596391e-18
  outer loop
    vertex 2.0000000000000027 15.083203922298239 8.62532889043741
    vertex 2.0000000000000027 15.0 3.2999999999999994
    vertex 2.0000000000000027 15.0 8.1
  endloop
endfacet
facet normal -1.0 -2.4319673284387436e-16 3.894796795596391e-18
  outer loop
    vertex 2.0000000000000027 15.0 3.2999999999999994
    vertex 2.0000000000000027 15.083203922298239 8.62532889043741
    vertex 2.0000000000000027 15.0 2.8
  endloop
endfacet
facet normal -1.0 -2.4319673284387436e-16 3.894796795596391e-18
  outer loop
    vertex 2.0000000000000027 15.0 2.8
    vertex 2.0000000000000027 15.083203922298239 8.62532889043741
    vertex 2.0000000000000027 15.0 0.0
  endloop
endfacet
facet normal -1.0 -2.4319673284387436e-16 3.894796795596391e-18
  outer loop
    vertex 2.0000000000000027 15.0 0.0
    vertex 2.0000000000000027 15.083203922298239 8.62532889043741
    vertex 2.0000000000000018 16.53543078169565 6.436844738882177
  endloop
endfacet
facet normal -1.0 -2.4319673284387436e-16 3.894796795596391e-18
  outer loop
    vertex 2.0000000000000027 15.0 0.0
    vertex 2.0000000000000018 16.53543078169565 6.436844738882177
    vertex 2.0000000000000013 21.0 0.0
  endloop
endfacet
facet normal -1.0 -2.4319673284387436e-16 3.894796795596391e-18
  outer loop
    vertex 2.0000000000000018 16.53543078169565 6.436844738882177
    vertex 2.0000000000000027 15.083203922298239 8.62532889043741
    vertex 2.0000000000000027 15.32467110956259 9.099234928897204
  endloop
endfacet
facet normal -1.0 -2.4319673284387436e-16 3.894796795596391e-18
  outer loop
    vertex 2.0000000000000018 16.53543078169565 6.436844738882177
    vertex 2.0000000000000027 15.32467110956259 9.099234928897204
    vertex 2.0000000000000018 16.3619337471941 6.845314447757087
  endloop
endfacet
facet normal -1.0 -2.4319673284387436e-16 3.894796795596391e-18
  outer loop
    vertex 2.0000000000000018 16.3619337471941 6.845314447757087
    vertex 2.0000000000000027 15.32467110956259 9.099234928897204
    vertex 2.0000000000000027 15.700765071102795 9.47532889043741
  endloop
endfacet
facet normal -1.0 -2.4319673284387436e-16 3.894796795596391e-18
  outer loop
    vertex 2.0000000000000018 16.3619337471941 6.845314447757087
    vertex 2.0000000000000027 15.700765071102795 9.47532889043741
    vertex 2.0000000000000018 16.300068220788802 7.28477022561395
  endloop
endfacet
facet normal -1.0 -2.4319673284387436e-16 3.894796795596391e-18
  outer loop
    vertex 2.0000000000000018 16.300068220788802 7.28477022561395
    vertex 2.0000000000000027 15.700765071102795 9.47532889043741
    vertex 2.000000000000002 16.174671109562592 9.71679607770176
  endloop
endfacet
facet normal -1.0 -2.4319673284387436e-16 3.894796795596391e-18
  outer loop
    vertex 2.0000000000000013 21.0 0.0
    vertex 2.0000000000000018 16.53543078169565 6.436844738882177
    vertex 2.0000000000000018 16.808735788109566 6.0871976346209316
  endloop
endfacet
facet normal -1.0 -2.4319673284387436e-16 3.894796795596391e-18
  outer loop
    vertex 2.0000000000000013 21.0 0.0
    vertex 2.0000000000000018 16.808735788109566 6.0871976346209316
    vertex 2.0000000000000018 17.163223481906623 5.820201007309597
  endloop
endfacet
facet normal -1.0 -2.4319673284387436e-16 3.894796795596391e-18
  outer loop
    vertex 2.0000000000000013 21.0 0.0
    vertex 2.0000000000000018 17.163223481906623 5.820201007309597
    vertex 2.0000000000000018 17.57473611257317 5.654050235866652
  endloop
endfacet
facet normal -1.0 -2.4319673284387436e-16 3.894796795596391e-18
  outer loop
    vertex 2.0000000000000013 21.0 0.0
    vertex 2.0000000000000018 17.57473611257317 5.654050235866652
    vertex 2.0000000000000013 18.01522977438605 5.600068220788801
  endloop
endfacet
facet normal -1.0 -2.4319673284387436e-16 3.894796795596391e-18
  outer loop
    vertex 2.0000000000000013 21.0 0.0
    vertex 2.0000000000000013 18.01522977438605 5.600068220788801
    vertex 2.0000000000000013 18.454685552242914 5.661933747194101
  endloop
endfacet
facet normal -1.0 -2.4319673284387436e-16 3.894796795596391e-18
  outer loop
    vertex 2.0000000000000013 21.0 0.0
    vertex 2.0000000000000013 18.454685552242914 5.661933747194101
    vertex 2.0000000000000013 18.863155261117825 5.8354307816956466
  endloop
endfacet
facet normal -1.0 -2.4319673284387436e-16 3.894796795596391e-18
  outer loop
    vertex 2.0000000000000013 21.0 0.0
    vertex 2.0000000000000013 18.863155261117825 5.8354307816956466
    vertex 2.000000000000001 19.21280236537907 6.108735788109565
  endloop
endfacet
facet normal -1.0 -2.4319673284387436e-16 3.894796795596391e-18
  outer loop
    vertex 2.0000000000000013 21.0 0.0
    vertex 2.000000000000001 19.21280236537907 6.108735788109565
    vertex 2.000000000000001 19.4797989926904 6.463223481906625
  endloop
endfacet
facet normal -1.0 -2.4319673284387436e-16 3.894796795596391e-18
  outer loop
    vertex 2.0000000000000013 21.0 0.0
    vertex 2.000000000000001 19.4797989926904 6.463223481906625
    vertex 2.000000000000001 19.64594976413335 6.874736112573169
  endloop
endfacet
facet normal -1.0 -2.4319673284387436e-16 3.894796795596391e-18
  outer loop
    vertex 2.0000000000000013 21.0 0.0
    vertex 2.000000000000001 19.64594976413335 6.874736112573169
    vertex 2.000000000000001 19.699931779211198 7.315229774386049
  endloop
endfacet
facet normal -1.0 -2.4319673284387436e-16 3.894796795596391e-18
  outer loop
    vertex 2.0000000000000013 21.0 0.0
    vertex 2.000000000000001 19.699931779211198 7.315229774386049
    vertex 2.0000000000000018 19.82532889043741 9.71679607770176
  endloop
endfacet
facet normal -1.0 -2.4319673284387436e-16 3.894796795596391e-18
  outer loop
    vertex 2.0000000000000013 21.0 0.0
    vertex 2.0000000000000018 19.82532889043741 9.71679607770176
    vertex 2.0000000000000013 20.299234928897206 9.47532889043741
  endloop
endfacet
facet normal -1.0 -2.4319673284387436e-16 3.894796795596391e-18
  outer loop
    vertex 2.0000000000000013 21.0 0.0
    vertex 2.0000000000000013 20.299234928897206 9.47532889043741
    vertex 2.0000000000000013 20.675328890437413 9.099234928897204
  endloop
endfacet
facet normal -1.0 -2.4319673284387436e-16 3.894796795596391e-18
  outer loop
    vertex 2.0000000000000013 21.0 0.0
    vertex 2.0000000000000013 20.675328890437413 9.099234928897204
    vertex 2.0000000000000013 20.91679607770176 8.62532889043741
  endloop
endfacet
facet normal -1.0 -2.4319673284387436e-16 3.894796795596391e-18
  outer loop
    vertex 2.0000000000000013 21.0 0.0
    vertex 2.0000000000000013 20.91679607770176 8.62532889043741
    vertex 2.0000000000000013 21.0 8.1
  endloop
endfacet
facet normal -1.0 -2.4319673284387436e-16 3.894796795596391e-18
  outer loop
    vertex 2.0000000000000027 15.0 2.8
    vertex 2.0000000000000027 14.500000000000002 2.8
    vertex 2.0000000000000027 15.0 3.2999999999999994
  endloop
endfacet
facet normal 1.0 -0.0 -0.0
  outer loop
    vertex 6.0 21.0 0.0
    vertex 6.0 15.0 2.8
    vertex 6.0 15.0 0.0
  endloop
endfacet
facet normal 1.0 -0.0 -0.0
  outer loop
    vertex 6.0 15.0 2.8
    vertex 6.0 21.0 0.0
    vertex 6.0 15.0 3.2999999999999994
  endloop
endfacet
facet normal 1.0 -0.0 -0.0
  outer loop
    vertex 6.0 15.0 3.2999999999999994
    vertex 6.0 21.0 0.0
    vertex 6.0 15.0 8.1
  endloop
endfacet
facet normal 1.0 -0.0 -0.0
  outer loop
    vertex 6.0 15.0 8.1
    vertex 6.0 21.0 0.0
    vertex 6.000000000000005 16.53543078169565 6.436844738882177
  endloop
endfacet
facet normal 1.0 -0.0 -0.0
  outer loop
    vertex 6.0 15.0 8.1
    vertex 6.000000000000005 16.53543078169565 6.436844738882177
    vertex 6.0 15.083203922298239 8.62532889043741
  endloop
endfacet
facet normal 1.0 -0.0 -0.0
  outer loop
    vertex 6.0 15.083203922298239 8.62532889043741
    vertex 6.000000000000005 16.53543078169565 6.436844738882177
    vertex 6.0 15.32467110956259 9.099234928897204
  endloop
endfacet
facet normal 1.0 -0.0 -0.0
  outer loop
    vertex 6.0 15.32467110956259 9.099234928897204
    vertex 6.000000000000005 16.53543078169565 6.436844738882177
    vertex 6.000000000000005 16.3619337471941 6.845314447757087
  endloop
endfacet
facet normal 1.0 -0.0 -0.0
  outer loop
    vertex 6.0 15.32467110956259 9.099234928897204
    vertex 6.000000000000005 16.3619337471941 6.845314447757087
    vertex 6.0 15.700765071102795 9.47532889043741
  endloop
endfacet
facet normal 1.0 -0.0 -0.0
  outer loop
    vertex 6.0 15.700765071102795 9.47532889043741
    vertex 6.000000000000005 16.3619337471941 6.845314447757087
    vertex 6.000000000000005 16.300068220788802 7.28477022561395
  endloop
endfacet
facet normal 1.0 -0.0 -0.0
  outer loop
    vertex 6.0 15.700765071102795 9.47532889043741
    vertex 6.000000000000005 16.300068220788802 7.28477022561395
    vertex 6.0 16.174671109562592 9.71679607770176
  endloop
endfacet
facet normal 1.0 -0.0 -0.0
  outer loop
    vertex 6.000000000000005 16.53543078169565 6.436844738882177
    vertex 6.0 21.0 0.0
    vertex 6.000000000000005 16.808735788109566 6.0871976346209316
  endloop
endfacet
facet normal 1.0 -0.0 -0.0
  outer loop
    vertex 6.000000000000005 16.808735788109566 6.0871976346209316
    vertex 6.0 21.0 0.0
    vertex 6.000000000000005 17.163223481906623 5.820201007309597
  endloop
endfacet
facet normal 1.0 -0.0 -0.0
  outer loop
    vertex 6.000000000000005 17.163223481906623 5.820201007309597
    vertex 6.0 21.0 0.0
    vertex 6.000000000000005 17.57473611257317 5.654050235866652
  endloop
endfacet
facet normal 1.0 -0.0 -0.0
  outer loop
    vertex 6.000000000000005 17.57473611257317 5.654050235866652
    vertex 6.0 21.0 0.0
    vertex 6.000000000000005 18.01522977438605 5.600068220788801
  endloop
endfacet
facet normal 1.0 -0.0 -0.0
  outer loop
    vertex 6.000000000000005 18.01522977438605 5.600068220788801
    vertex 6.0 21.0 0.0
    vertex 6.000000000000005 18.454685552242914 5.661933747194101
  endloop
endfacet
facet normal 1.0 -0.0 -0.0
  outer loop
    vertex 6.000000000000005 18.454685552242914 5.661933747194101
    vertex 6.0 21.0 0.0
    vertex 6.000000000000005 18.863155261117825 5.8354307816956466
  endloop
endfacet
facet normal 1.0 -0.0 -0.0
  outer loop
    vertex 6.000000000000005 18.863155261117825 5.8354307816956466
    vertex 6.0 21.0 0.0
    vertex 6.000000000000005 19.21280236537907 6.108735788109565
  endloop
endfacet
facet normal 1.0 -0.0 -0.0
  outer loop
    vertex 6.000000000000005 19.21280236537907 6.108735788109565
    vertex 6.0 21.0 0.0
    vertex 6.000000000000005 19.4797989926904 6.463223481906625
  endloop
endfacet
facet normal 1.0 -0.0 -0.0
  outer loop
    vertex 6.000000000000005 19.4797989926904 6.463223481906625
    vertex 6.0 21.0 0.0
    vertex 6.000000000000005 19.64594976413335 6.874736112573169
  endloop
endfacet
facet normal 1.0 -0.0 -0.0
  outer loop
    vertex 6.000000000000005 19.64594976413335 6.874736112573169
    vertex 6.0 21.0 0.0
    vertex 6.000000000000005 19.699931779211198 7.315229774386049
  endloop
endfacet
facet normal 1.0 -0.0 -0.0
  outer loop
    vertex 6.000000000000005 19.699931779211198 7.315229774386049
    vertex 6.0 21.0 0.0
    vertex 6.0 19.82532889043741 9.71679607770176
  endloop
endfacet
facet normal 1.0 -0.0 -0.0
  outer loop
    vertex 6.0 19.82532889043741 9.71679607770176
    vertex 6.0 21.0 0.0
    vertex 6.0 20.299234928897206 9.47532889043741
  endloop
endfacet
facet normal 1.0 -0.0 -0.0
  outer loop
    vertex 6.0 20.299234928897206 9.47532889043741
    vertex 6.0 21.0 0.0
    vertex 6.0 20.675328890437413 9.099234928897204
  endloop
endfacet
facet normal 1.0 -0.0 -0.0
  outer loop
    vertex 6.0 20.675328890437413 9.099234928897204
    vertex 6.0 21.0 0.0
    vertex 6.0 20.91679607770176 8.62532889043741
  endloop
endfacet
facet normal 1.0 -0.0 -0.0
  outer loop
    vertex 6.0 20.91679607770176 8.62532889043741
    vertex 6.0 21.0 0.0
    vertex 6.0 21.0 8.1
  endloop
endfacet
facet normal 1.0 -0.0 -0.0
  outer loop
    vertex 6.0 16.174671109562592 9.71679607770176
    vertex 6.000000000000005 16.35405023586665 7.725263887426832
    vertex 6.0 16.7 9.799999999999999
  endloop
endfacet
facet normal 1.0 -0.0 -0.0
  outer loop
    vertex 6.000000000000005 16.35405023586665 7.725263887426832
    vertex 6.0 16.174671109562592 9.71679607770176
    vertex 6.000000000000005 16.300068220788802 7.28477022561395
  endloop
endfacet
facet normal 1.0 -0.0 -0.0
  outer loop
    vertex 6.0 16.7 9.799999999999999
    vertex 6.000000000000005 16.35405023586665 7.725263887426832
    vertex 6.000000000000005 16.5202010073096 8.136776518093374
  endloop
endfacet
facet normal 1.0 -0.0 -0.0
  outer loop
    vertex 6.0 16.7 9.799999999999999
    vertex 6.000000000000005 16.5202010073096 8.136776518093374
    vertex 6.000000000000005 16.787197634620934 8.491264211890433
  endloop
endfacet
facet normal 1.0 -0.0 -0.0
  outer loop
    vertex 6.0 16.7 9.799999999999999
    vertex 6.000000000000005 16.787197634620934 8.491264211890433
    vertex 6.000000000000005 17.13684473888218 8.764569218304352
  endloop
endfacet
facet normal 1.0 -0.0 -0.0
  outer loop
    vertex 6.0 16.7 9.799999999999999
    vertex 6.000000000000005 17.13684473888218 8.764569218304352
    vertex 6.0 19.3 9.799999999999999
  endloop
endfacet
facet normal 1.0 -0.0 -0.0
  outer loop
    vertex 6.0 19.3 9.799999999999999
    vertex 6.000000000000005 17.13684473888218 8.764569218304352
    vertex 6.000000000000005 17.54531444775709 8.938066252805898
  endloop
endfacet
facet normal 1.0 -0.0 -0.0
  outer loop
    vertex 6.0 19.3 9.799999999999999
    vertex 6.000000000000005 17.54531444775709 8.938066252805898
    vertex 6.000000000000005 17.98477022561395 8.999931779211199
  endloop
endfacet
facet normal 1.0 -0.0 -0.0
  outer loop
    vertex 6.0 19.3 9.799999999999999
    vertex 6.000000000000005 17.98477022561395 8.999931779211199
    vertex 6.000000000000005 18.425263887426834 8.945949764133346
  endloop
endfacet
facet normal 1.0 -0.0 -0.0
  outer loop
    vertex 6.0 19.3 9.799999999999999
    vertex 6.000000000000005 18.425263887426834 8.945949764133346
    vertex 6.000000000000005 18.836776518093377 8.779798992690402
  endloop
endfacet
facet normal 1.0 -0.0 -0.0
  outer loop
    vertex 6.0 19.3 9.799999999999999
    vertex 6.000000000000005 18.836776518093377 8.779798992690402
    vertex 6.000000000000005 19.191264211890434 8.512802365379066
  endloop
endfacet
facet normal 1.0 -0.0 -0.0
  outer loop
    vertex 6.0 19.3 9.799999999999999
    vertex 6.000000000000005 19.191264211890434 8.512802365379066
    vertex 6.000000000000005 19.46456921830435 8.163155261117822
  endloop
endfacet
facet normal 1.0 -0.0 -0.0
  outer loop
    vertex 6.0 19.3 9.799999999999999
    vertex 6.000000000000005 19.46456921830435 8.163155261117822
    vertex 6.0 19.82532889043741 9.71679607770176
  endloop
endfacet
facet normal 1.0 -0.0 -0.0
  outer loop
    vertex 6.0 19.82532889043741 9.71679607770176
    vertex 6.000000000000005 19.46456921830435 8.163155261117822
    vertex 6.000000000000005 19.6380662528059 7.754685552242911
  endloop
endfacet
facet normal 1.0 -0.0 -0.0
  outer loop
    vertex 6.0 19.82532889043741 9.71679607770176
    vertex 6.000000000000005 19.6380662528059 7.754685552242911
    vertex 6.000000000000005 19.699931779211198 7.315229774386049
  endloop
endfacet
facet normal 1.0 -0.0 -0.0
  outer loop
    vertex 6.0 15.0 3.2999999999999994
    vertex 6.0 14.500000000000002 2.8
    vertex 6.0 15.0 2.8
  endloop
endfacet
facet normal -1.0 0.0 0.0
  outer loop
    vertex 0.0 13.3 2.8
    vertex 0.0 1.6999999999999997 0.0
    vertex 0.0 1.6999999999999997 2.8
  endloop
endfacet
facet normal -1.0 0.0 0.0
  outer loop
    vertex 0.0 1.6999999999999997 0.0
    vertex 0.0 13.3 2.8
    vertex 0.0 13.3 0.0
  endloop
endfacet
facet normal -0.9876883405951375 0.15643446504023126 0.0
  outer loop
    vertex 0.0832039222982389 13.82532889043741 2.8
    vertex 0.0 13.3 0.0
    vertex 0.0 13.3 2.8
  endloop
endfacet
facet normal -0.9876883405951375 0.15643446504023126 0.0
  outer loop
    vertex 0.0 13.3 0.0
    vertex 0.0832039222982389 13.82532889043741 2.8
    vertex 0.0832039222982389 13.82532889043741 0.0
  endloop
endfacet
facet normal -0.7071067811865469 0.7071067811865481 -0.0
  outer loop
    vertex 0.3246711095625893 14.299234928897206 2.8
    vertex 0.7007650711027955 14.675328890437411 0.0
    vertex 0.3246711095625893 14.299234928897206 0.0
  endloop
endfacet
facet normal -0.7071067811865469 0.7071067811865481 -0.0
  outer loop
    vertex 0.7007650711027955 14.675328890437411 0.0
    vertex 0.3246711095625893 14.299234928897206 2.8
    vertex 0.7007650711027955 14.675328890437411 2.8
  endloop
endfacet
facet normal -0.15643446504023018 0.9876883405951378 -0.0
  outer loop
    vertex 1.1746711095625895 14.916796077701763 2.8
    vertex 1.7 15.0 0.0
    vertex 1.1746711095625895 14.916796077701763 0.0
  endloop
endfacet
facet normal -0.15643446504023018 0.9876883405951378 -0.0
  outer loop
    vertex 1.7 15.0 0.0
    vertex 1.1746711095625895 14.916796077701763 2.8
    vertex 1.7 15.0 2.8
  endloop
endfacet
facet normal -0.8910065241883686 0.45399049973954514 0.0
  outer loop
    vertex 0.3246711095625893 14.299234928897206 2.8
    vertex 0.0832039222982389 13.82532889043741 0.0
    vertex 0.0832039222982389 13.82532889043741 2.8
  endloop
endfacet
facet normal -0.8910065241883686 0.45399049973954514 0.0
  outer loop
    vertex 0.0832039222982389 13.82532889043741 0.0
    vertex 0.3246711095625893 14.299234928897206 2.8
    vertex 0.3246711095625893 14.299234928897206 0.0
  endloop
endfacet
facet normal -0.45399049973954697 0.8910065241883677 -0.0
  outer loop
    vertex 0.7007650711027955 14.675328890437411 2.8
    vertex 1.1746711095625895 14.916796077701763 0.0
    vertex 0.7007650711027955 14.675328890437411 0.0
  endloop
endfacet
facet normal -0.45399049973954697 0.8910065241883677 -0.0
  outer loop
    vertex 1.1746711095625895 14.916796077701763 0.0
    vertex 0.7007650711027955 14.675328890437411 2.8
    vertex 1.1746711095625895 14.916796077701763 2.8
  endloop
endfacet
facet normal 0.0 -1.0 0.0
  outer loop
    vertex 6.3 0.0 2.8
    vertex 1.7 0.0 0.0
    vertex 6.3 0.0 0.0
  endloop
endfacet
facet normal 0.0 -1.0 0.0
  outer loop
    vertex 1.7 0.0 0.0
    vertex 6.3 0.0 2.8
    vertex 1.7 0.0 2.8
  endloop
endfacet
facet normal -0.9876883405951378 -0.1564344650402309 0.0
  outer loop
    vertex 0.0 1.6999999999999997 2.8
    vertex 0.0832039222982389 1.1746711095625892 0.0
    vertex 0.0832039222982389 1.1746711095625892 2.8
  endloop
endfacet
facet normal -0.9876883405951378 -0.1564344650402309 0.0
  outer loop
    vertex 0.0832039222982389 1.1746711095625892 0.0
    vertex 0.0 1.6999999999999997 2.8
    vertex 0.0 1.6999999999999997 0.0
  endloop
endfacet
facet normal -0.7071067811865474 -0.7071067811865477 0.0
  outer loop
    vertex 0.7007650711027955 0.3246711095625895 2.8
    vertex 0.3246711095625893 0.7007650711027955 0.0
    vertex 0.7007650711027955 0.3246711095625895 0.0
  endloop
endfacet
facet normal -0.7071067811865474 -0.7071067811865477 0.0
  outer loop
    vertex 0.3246711095625893 0.7007650711027955 0.0
    vertex 0.7007650711027955 0.3246711095625895 2.8
    vertex 0.3246711095625893 0.7007650711027955 2.8
  endloop
endfacet
facet normal -0.45399049973954697 -0.8910065241883677 0.0
  outer loop
    vertex 1.1746711095625895 0.0832039222982389 2.8
    vertex 0.7007650711027955 0.3246711095625895 0.0
    vertex 1.1746711095625895 0.0832039222982389 0.0
  endloop
endfacet
facet normal -0.45399049973954697 -0.8910065241883677 0.0
  outer loop
    vertex 0.7007650711027955 0.3246711095625895 0.0
    vertex 1.1746711095625895 0.0832039222982389 2.8
    vertex 0.7007650711027955 0.3246711095625895 2.8
  endloop
endfacet
facet normal -0.8910065241883679 -0.45399049973954686 0.0
  outer loop
    vertex 0.0832039222982389 1.1746711095625892 2.8
    vertex 0.3246711095625893 0.7007650711027955 0.0
    vertex 0.3246711095625893 0.7007650711027955 2.8
  endloop
endfacet
facet normal -0.8910065241883679 -0.45399049973954686 0.0
  outer loop
    vertex 0.3246711095625893 0.7007650711027955 0.0
    vertex 0.0832039222982389 1.1746711095625892 2.8
    vertex 0.0832039222982389 1.1746711095625892 0.0
  endloop
endfacet
facet normal -0.15643446504023084 -0.9876883405951378 0.0
  outer loop
    vertex 1.7 0.0 2.8
    vertex 1.1746711095625895 0.0832039222982389 0.0
    vertex 1.7 0.0 0.0
  endloop
endfacet
facet normal -0.15643446504023084 -0.9876883405951378 0.0
  outer loop
    vertex 1.1746711095625895 0.0832039222982389 0.0
    vertex 1.7 0.0 2.8
    vertex 1.1746711095625895 0.0832039222982389 2.8
  endloop
endfacet
facet normal -0.0 1.0 -0.0
  outer loop
    vertex 6.0 15.0 2.8
    vertex 6.3 15.0 0.0
    vertex 6.0 15.0 0.0
  endloop
endfacet
facet normal -0.0 1.0 -0.0
  outer loop
    vertex 6.3 15.0 0.0
    vertex 6.0 15.0 2.8
    vertex 6.3 15.0 2.8
  endloop
endfacet
facet normal 0.8910065241883686 0.45399049973954547 -0.0
  outer loop
    vertex 7.67532889043741 14.299234928897206 0.0
    vertex 7.916796077701761 13.82532889043741 2.8
    vertex 7.916796077701761 13.82532889043741 0.0
  endloop
endfacet
facet normal 0.8910065241883686 0.45399049973954547 -0.0
  outer loop
    vertex 7.916796077701761 13.82532889043741 2.8
    vertex 7.67532889043741 14.299234928897206 0.0
    vertex 7.67532889043741 14.299234928897206 2.8
  endloop
endfacet
facet normal 0.9876883405951378 0.15643446504023062 -0.0
  outer loop
    vertex 7.916796077701761 13.82532889043741 0.0
    vertex 7.999999999999999 13.3 2.8
    vertex 7.999999999999999 13.3 0.0
  endloop
endfacet
facet normal 0.9876883405951378 0.15643446504023062 -0.0
  outer loop
    vertex 7.999999999999999 13.3 2.8
    vertex 7.916796077701761 13.82532889043741 0.0
    vertex 7.916796077701761 13.82532889043741 2.8
  endloop
endfacet
facet normal 0.15643446504023018 0.9876883405951378 -0.0
  outer loop
    vertex 6.3 15.0 2.8
    vertex 6.825328890437411 14.916796077701763 0.0
    vertex 6.3 15.0 0.0
  endloop
endfacet
facet normal 0.15643446504023018 0.9876883405951378 -0.0
  outer loop
    vertex 6.825328890437411 14.916796077701763 0.0
    vertex 6.3 15.0 2.8
    vertex 6.825328890437411 14.916796077701763 2.8
  endloop
endfacet
facet normal 0.7071067811865461 0.7071067811865488 -0.0
  outer loop
    vertex 7.299234928897204 14.675328890437411 2.8
    vertex 7.67532889043741 14.299234928897206 0.0
    vertex 7.299234928897204 14.675328890437411 0.0
  endloop
endfacet
facet normal 0.7071067811865461 0.7071067811865488 -0.0
  outer loop
    vertex 7.67532889043741 14.299234928897206 0.0
    vertex 7.299234928897204 14.675328890437411 2.8
    vertex 7.67532889043741 14.299234928897206 2.8
  endloop
endfacet
facet normal 0.4539904997395476 0.8910065241883673 -0.0
  outer loop
    vertex 6.825328890437411 14.916796077701763 2.8
    vertex 7.299234928897204 14.675328890437411 0.0
    vertex 6.825328890437411 14.916796077701763 0.0
  endloop
endfacet
facet normal 0.4539904997395476 0.8910065241883673 -0.0
  outer loop
    vertex 7.299234928897204 14.675328890437411 0.0
    vertex 6.825328890437411 14.916796077701763 2.8
    vertex 7.299234928897204 14.675328890437411 2.8
  endloop
endfacet
facet normal 1.0 -0.0 -0.0
  outer loop
    vertex 7.999999999999999 13.3 0.0
    vertex 7.999999999999999 1.7 2.8
    vertex 7.999999999999999 1.7 0.0
  endloop
endfacet
facet normal 1.0 -0.0 -0.0
  outer loop
    vertex 7.999999999999999 1.7 2.8
    vertex 7.999999999999999 13.3 0.0
    vertex 7.999999999999999 13.3 2.8
  endloop
endfacet
facet normal 0.4539904997395466 -0.8910065241883679 0.0
  outer loop
    vertex 7.299234928897205 0.3246711095625895 2.8
    vertex 6.825328890437411 0.0832039222982389 0.0
    vertex 7.299234928897205 0.3246711095625895 0.0
  endloop
endfacet
facet normal 0.4539904997395466 -0.8910065241883679 0.0
  outer loop
    vertex 6.825328890437411 0.0832039222982389 0.0
    vertex 7.299234928897205 0.3246711095625895 2.8
    vertex 6.825328890437411 0.0832039222982389 2.8
  endloop
endfacet
facet normal 0.8910065241883677 -0.4539904997395471 -0.0
  outer loop
    vertex 7.916796077701761 1.1746711095625895 0.0
    vertex 7.67532889043741 0.7007650711027957 2.8
    vertex 7.67532889043741 0.7007650711027957 0.0
  endloop
endfacet
facet normal 0.8910065241883677 -0.4539904997395471 -0.0
  outer loop
    vertex 7.67532889043741 0.7007650711027957 2.8
    vertex 7.916796077701761 1.1746711095625895 0.0
    vertex 7.916796077701761 1.1746711095625895 2.8
  endloop
endfacet
facet normal 0.9876883405951378 -0.15643446504023018 -0.0
  outer loop
    vertex 7.999999999999999 1.7 0.0
    vertex 7.916796077701761 1.1746711095625895 2.8
    vertex 7.916796077701761 1.1746711095625895 0.0
  endloop
endfacet
facet normal 0.9876883405951378 -0.15643446504023018 -0.0
  outer loop
    vertex 7.916796077701761 1.1746711095625895 2.8
    vertex 7.999999999999999 1.7 0.0
    vertex 7.999999999999999 1.7 2.8
  endloop
endfacet
facet normal 0.15643446504023087 -0.9876883405951378 0.0
  outer loop
    vertex 6.825328890437411 0.0832039222982389 2.8
    vertex 6.3 0.0 0.0
    vertex 6.825328890437411 0.0832039222982389 0.0
  endloop
endfacet
facet normal 0.15643446504023087 -0.9876883405951378 0.0
  outer loop
    vertex 6.3 0.0 0.0
    vertex 6.825328890437411 0.0832039222982389 2.8
    vertex 6.3 0.0 2.8
  endloop
endfacet
facet normal 0.7071067811865481 -0.7071067811865469 -0.0
  outer loop
    vertex 7.67532889043741 0.7007650711027957 0.0
    vertex 7.299234928897205 0.3246711095625895 2.8
    vertex 7.299234928897205 0.3246711095625895 0.0
  endloop
endfacet
facet normal 0.7071067811865481 -0.7071067811865469 -0.0
  outer loop
    vertex 7.299234928897205 0.3246711095625895 2.8
    vertex 7.67532889043741 0.7007650711027957 0.0
    vertex 7.67532889043741 0.7007650711027957 2.8
  endloop
endfacet
facet normal 0.0 0.0 -1.0
  outer loop
    vertex 6.0 21.0 0.0
    vertex 2.0000000000000027 15.0 0.0
    vertex 2.0000000000000013 21.0 0.0
  endloop
endfacet
facet normal 0.0 0.0 -1.0
  outer loop
    vertex 2.0000000000000027 15.0 0.0
    vertex 6.0 21.0 0.0
    vertex 2.3347261362488507 3.3418522468952325 0.0
  endloop
endfacet
facet normal 0.0 0.0 -1.0
  outer loop
    vertex 2.0000000000000027 15.0 0.0
    vertex 2.3347261362488507 3.3418522468952325 0.0
    vertex 2.302991095051006 2.899199322800794 0.0
  endloop
endfacet
facet normal 0.0 0.0 -1.0
  outer loop
    vertex 2.3347261362488507 3.3418522468952325 0.0
    vertex 6.0 21.0 0.0
    vertex 2.4799468392661566 3.761208505301309 0.0
  endloop
endfacet
facet normal 0.0 0.0 -1.0
  outer loop
    vertex 2.4799468392661566 3.761208505301309 0.0
    vertex 6.0 21.0 0.0
    vertex 2.7287566531808545 4.128689662027636 0.0
  endloop
endfacet
facet normal 0.0 0.0 -1.0
  outer loop
    vertex 2.7287566531808545 4.128689662027636 0.0
    vertex 6.0 21.0 0.0
    vertex 3.0641996003523158 4.419252483534637 0.0
  endloop
endfacet
facet normal 0.0 0.0 -1.0
  outer loop
    vertex 3.0641996003523158 4.419252483534637 0.0
    vertex 6.0 21.0 0.0
    vertex 3.4634157982764857 4.613095593714378 0.0
  endloop
endfacet
facet normal 0.0 0.0 -1.0
  outer loop
    vertex 3.4634157982764857 4.613095593714378 0.0
    vertex 6.0 21.0 0.0
    vertex 3.8991993228007935 4.697008904948993 0.0
  endloop
endfacet
facet normal 0.0 0.0 -1.0
  outer loop
    vertex 3.8991993228007935 4.697008904948993 0.0
    vertex 6.0 21.0 0.0
    vertex 4.341852246895232 4.66527386375115 0.0
  endloop
endfacet
facet normal 0.0 0.0 -1.0
  outer loop
    vertex 4.341852246895232 4.66527386375115 0.0
    vertex 6.0 21.0 0.0
    vertex 4.761208505301308 4.520053160733843 0.0
  endloop
endfacet
facet normal 0.0 0.0 -1.0
  outer loop
    vertex 4.761208505301308 4.520053160733843 0.0
    vertex 6.0 21.0 0.0
    vertex 5.128689662027635 4.271243346819145 0.0
  endloop
endfacet
facet normal 0.0 0.0 -1.0
  outer loop
    vertex 5.128689662027635 4.271243346819145 0.0
    vertex 6.0 21.0 0.0
    vertex 5.4192524835346365 3.9358003996476847 0.0
  endloop
endfacet
facet normal 0.0 0.0 -1.0
  outer loop
    vertex 5.4192524835346365 3.9358003996476847 0.0
    vertex 6.0 21.0 0.0
    vertex 5.613095593714378 3.5365842017235143 0.0
  endloop
endfacet
facet normal 0.0 0.0 -1.0
  outer loop
    vertex 5.613095593714378 3.5365842017235143 0.0
    vertex 6.0 21.0 0.0
    vertex 5.697008904948993 3.1008006771992065 0.0
  endloop
endfacet
facet normal 0.0 0.0 -1.0
  outer loop
    vertex 0.0832039222982389 13.82532889043741 0.0
    vertex 0.0 1.6999999999999997 0.0
    vertex 0.0 13.3 0.0
  endloop
endfacet
facet normal 0.0 0.0 -1.0
  outer loop
    vertex 0.0 1.6999999999999997 0.0
    vertex 0.0832039222982389 13.82532889043741 0.0
    vertex 0.0832039222982389 1.1746711095625892 0.0
  endloop
endfacet
facet normal 0.0 0.0 -1.0
  outer loop
    vertex 0.0832039222982389 1.1746711095625892 0.0
    vertex 0.0832039222982389 13.82532889043741 0.0
    vertex 0.3246711095625893 14.299234928897206 0.0
  endloop
endfacet
facet normal 0.0 0.0 -1.0
  outer loop
    vertex 0.0832039222982389 1.1746711095625892 0.0
    vertex 0.3246711095625893 14.299234928897206 0.0
    vertex 0.3246711095625893 0.7007650711027955 0.0
  endloop
endfacet
facet normal 0.0 0.0 -1.0
  outer loop
    vertex 0.3246711095625893 0.7007650711027955 0.0
    vertex 0.3246711095625893 14.299234928897206 0.0
    vertex 0.7007650711027955 14.675328890437411 0.0
  endloop
endfacet
facet normal 0.0 0.0 -1.0
  outer loop
    vertex 0.3246711095625893 0.7007650711027955 0.0
    vertex 0.7007650711027955 14.675328890437411 0.0
    vertex 0.7007650711027955 0.3246711095625895 0.0
  endloop
endfacet
facet normal 0.0 0.0 -1.0
  outer loop
    vertex 0.7007650711027955 0.3246711095625895 0.0
    vertex 0.7007650711027955 14.675328890437411 0.0
    vertex 1.1746711095625895 14.916796077701763 0.0
  endloop
endfacet
facet normal 0.0 0.0 -1.0
  outer loop
    vertex 0.7007650711027955 0.3246711095625895 0.0
    vertex 1.1746711095625895 14.916796077701763 0.0
    vertex 1.1746711095625895 0.0832039222982389 0.0
  endloop
endfacet
facet normal 0.0 0.0 -1.0
  outer loop
    vertex 1.1746711095625895 0.0832039222982389 0.0
    vertex 1.1746711095625895 14.916796077701763 0.0
    vertex 1.7 15.0 0.0
  endloop
endfacet
facet normal 0.0 0.0 -1.0
  outer loop
    vertex 1.1746711095625895 0.0832039222982389 0.0
    vertex 1.7 15.0 0.0
    vertex 1.7 0.0 0.0
  endloop
endfacet
facet normal 0.0 0.0 -1.0
  outer loop
    vertex 1.7 0.0 0.0
    vertex 1.7 15.0 0.0
    vertex 2.0000000000000027 15.0 0.0
  endloop
endfacet
facet normal 0.0 0.0 -1.0
  outer loop
    vertex 1.7 0.0 0.0
    vertex 2.0000000000000027 15.0 0.0
    vertex 2.302991095051006 2.899199322800794 0.0
  endloop
endfacet
facet normal 0.0 0.0 -1.0
  outer loop
    vertex 1.7 0.0 0.0
    vertex 2.302991095051006 2.899199322800794 0.0
    vertex 2.3869044062856224 2.4634157982764866 0.0
  endloop
endfacet
facet normal 0.0 0.0 -1.0
  outer loop
    vertex 1.7 0.0 0.0
    vertex 2.3869044062856224 2.4634157982764866 0.0
    vertex 2.5807475164653626 2.064199600352316 0.0
  endloop
endfacet
facet normal 0.0 0.0 -1.0
  outer loop
    vertex 1.7 0.0 0.0
    vertex 2.5807475164653626 2.064199600352316 0.0
    vertex 2.8713103379723632 1.7287566531808551 0.0
  endloop
endfacet
facet normal 0.0 0.0 -1.0
  outer loop
    vertex 1.7 0.0 0.0
    vertex 2.8713103379723632 1.7287566531808551 0.0
    vertex 3.238791494698691 1.4799468392661568 0.0
  endloop
endfacet
facet normal 0.0 0.0 -1.0
  outer loop
    vertex 1.7 0.0 0.0
    vertex 3.238791494698691 1.4799468392661568 0.0
    vertex 6.3 0.0 0.0
  endloop
endfacet
facet normal 0.0 0.0 -1.0
  outer loop
    vertex 6.3 0.0 0.0
    vertex 3.238791494698691 1.4799468392661568 0.0
    vertex 3.6581477531047675 1.334726136248851 0.0
  endloop
endfacet
facet normal 0.0 0.0 -1.0
  outer loop
    vertex 6.3 0.0 0.0
    vertex 3.6581477531047675 1.334726136248851 0.0
    vertex 4.100800677199206 1.3029910950510066 0.0
  endloop
endfacet
facet normal 0.0 0.0 -1.0
  outer loop
    vertex 6.3 0.0 0.0
    vertex 4.100800677199206 1.3029910950510066 0.0
    vertex 4.536584201723514 1.3869044062856226 0.0
  endloop
endfacet
facet normal 0.0 0.0 -1.0
  outer loop
    vertex 6.3 0.0 0.0
    vertex 4.536584201723514 1.3869044062856226 0.0
    vertex 4.935800399647683 1.5807475164653628 0.0
  endloop
endfacet
facet normal 0.0 0.0 -1.0
  outer loop
    vertex 6.3 0.0 0.0
    vertex 4.935800399647683 1.5807475164653628 0.0
    vertex 5.271243346819145 1.8713103379723637 0.0
  endloop
endfacet
facet normal 0.0 0.0 -1.0
  outer loop
    vertex 6.3 0.0 0.0
    vertex 5.271243346819145 1.8713103379723637 0.0
    vertex 5.520053160733843 2.2387914946986913 0.0
  endloop
endfacet
facet normal 0.0 0.0 -1.0
  outer loop
    vertex 6.3 0.0 0.0
    vertex 5.520053160733843 2.2387914946986913 0.0
    vertex 5.66527386375115 2.6581477531047684 0.0
  endloop
endfacet
facet normal 0.0 0.0 -1.0
  outer loop
    vertex 6.3 0.0 0.0
    vertex 5.66527386375115 2.6581477531047684 0.0
    vertex 5.697008904948993 3.1008006771992065 0.0
  endloop
endfacet
facet normal 0.0 0.0 -1.0
  outer loop
    vertex 6.3 0.0 0.0
    vertex 5.697008904948993 3.1008006771992065 0.0
    vertex 6.0 15.0 0.0
  endloop
endfacet
facet normal 0.0 0.0 -1.0
  outer loop
    vertex 6.0 15.0 0.0
    vertex 5.697008904948993 3.1008006771992065 0.0
    vertex 6.0 21.0 0.0
  endloop
endfacet
facet normal 0.0 0.0 -1.0
  outer loop
    vertex 6.3 0.0 0.0
    vertex 6.0 15.0 0.0
    vertex 6.3 15.0 0.0
  endloop
endfacet
facet normal 0.0 0.0 -1.0
  outer loop
    vertex 6.3 0.0 0.0
    vertex 6.3 15.0 0.0
    vertex 6.825328890437411 14.916796077701763 0.0
  endloop
endfacet
facet normal 0.0 0.0 -1.0
  outer loop
    vertex 6.3 0.0 0.0
    vertex 6.825328890437411 14.916796077701763 0.0
    vertex 6.825328890437411 0.0832039222982389 0.0
  endloop
endfacet
facet normal 0.0 0.0 -1.0
  outer loop
    vertex 6.825328890437411 0.0832039222982389 0.0
    vertex 6.825328890437411 14.916796077701763 0.0
    vertex 7.299234928897204 14.675328890437411 0.0
  endloop
endfacet
facet normal 0.0 0.0 -1.0
  outer loop
    vertex 6.825328890437411 0.0832039222982389 0.0
    vertex 7.299234928897204 14.675328890437411 0.0
    vertex 7.299234928897205 0.3246711095625895 0.0
  endloop
endfacet
facet normal 0.0 0.0 -1.0
  outer loop
    vertex 7.299234928897205 0.3246711095625895 0.0
    vertex 7.299234928897204 14.675328890437411 0.0
    vertex 7.67532889043741 14.299234928897206 0.0
  endloop
endfacet
facet normal 0.0 0.0 -1.0
  outer loop
    vertex 7.299234928897205 0.3246711095625895 0.0
    vertex 7.67532889043741 14.299234928897206 0.0
    vertex 7.67532889043741 0.7007650711027957 0.0
  endloop
endfacet
facet normal 0.0 0.0 -1.0
  outer loop
    vertex 7.67532889043741 0.7007650711027957 0.0
    vertex 7.67532889043741 14.299234928897206 0.0
    vertex 7.916796077701761 13.82532889043741 0.0
  endloop
endfacet
facet normal 0.0 0.0 -1.0
  outer loop
    vertex 7.67532889043741 0.7007650711027957 0.0
    vertex 7.916796077701761 13.82532889043741 0.0
    vertex 7.916796077701761 1.1746711095625895 0.0
  endloop
endfacet
facet normal 0.0 0.0 -1.0
  outer loop
    vertex 7.916796077701761 1.1746711095625895 0.0
    vertex 7.916796077701761 13.82532889043741 0.0
    vertex 7.999999999999999 13.3 0.0
  endloop
endfacet
facet normal 0.0 0.0 -1.0
  outer loop
    vertex 7.916796077701761 1.1746711095625895 0.0
    vertex 7.999999999999999 13.3 0.0
    vertex 7.999999999999999 1.7 0.0
  endloop
endfacet
facet normal -0.0 -0.0 1.0
  outer loop
    vertex 6.0 14.500000000000002 2.8
    vertex 2.0000000000000027 15.0 2.8
    vertex 2.0000000000000027 14.500000000000002 2.8
  endloop
endfacet
facet normal -0.0 -0.0 1.0
  outer loop
    vertex 2.0000000000000027 15.0 2.8
    vertex 6.0 14.500000000000002 2.8
    vertex 6.0 15.0 2.8
  endloop
endfacet
facet normal -0.0 -0.0 1.0
  outer loop
    vertex 0.0832039222982389 1.1746711095625892 2.8
    vertex 0.0 13.3 2.8
    vertex 0.0 1.6999999999999997 2.8
  endloop
endfacet
facet normal -0.0 -0.0 1.0
  outer loop
    vertex 0.0 13.3 2.8
    vertex 0.0832039222982389 1.1746711095625892 2.8
    vertex 0.0832039222982389 13.82532889043741 2.8
  endloop
endfacet
facet normal -0.0 -0.0 1.0
  outer loop
    vertex 0.0832039222982389 13.82532889043741 2.8
    vertex 0.0832039222982389 1.1746711095625892 2.8
    vertex 0.3246711095625893 0.7007650711027955 2.8
  endloop
endfacet
facet normal -0.0 -0.0 1.0
  outer loop
    vertex 0.0832039222982389 13.82532889043741 2.8
    vertex 0.3246711095625893 0.7007650711027955 2.8
    vertex 0.3246711095625893 14.299234928897206 2.8
  endloop
endfacet
facet normal -0.0 -0.0 1.0
  outer loop
    vertex 0.3246711095625893 14.299234928897206 2.8
    vertex 0.3246711095625893 0.7007650711027955 2.8
    vertex 0.7007650711027955 0.3246711095625895 2.8
  endloop
endfacet
facet normal -0.0 -0.0 1.0
  outer loop
    vertex 0.3246711095625893 14.299234928897206 2.8
    vertex 0.7007650711027955 0.3246711095625895 2.8
    vertex 0.7007650711027955 14.675328890437411 2.8
  endloop
endfacet
facet normal -0.0 -0.0 1.0
  outer loop
    vertex 0.7007650711027955 14.675328890437411 2.8
    vertex 0.7007650711027955 0.3246711095625895 2.8
    vertex 1.1746711095625895 0.0832039222982389 2.8
  endloop
endfacet
facet normal -0.0 -0.0 1.0
  outer loop
    vertex 0.7007650711027955 14.675328890437411 2.8
    vertex 1.1746711095625895 0.0832039222982389 2.8
    vertex 1.1746711095625895 14.916796077701763 2.8
  endloop
endfacet
facet normal -0.0 -0.0 1.0
  outer loop
    vertex 1.1746711095625895 14.916796077701763 2.8
    vertex 1.1746711095625895 0.0832039222982389 2.8
    vertex 1.7 0.0 2.8
  endloop
endfacet
facet normal -0.0 -0.0 1.0
  outer loop
    vertex 1.1746711095625895 14.916796077701763 2.8
    vertex 1.7 0.0 2.8
    vertex 1.7 15.0 2.8
  endloop
endfacet
facet normal -0.0 -0.0 1.0
  outer loop
    vertex 1.7 15.0 2.8
    vertex 1.7 0.0 2.8
    vertex 2.302991095051006 2.899199322800794 2.8
  endloop
endfacet
facet normal -0.0 -0.0 1.0
  outer loop
    vertex 2.302991095051006 2.899199322800794 2.8
    vertex 1.7 0.0 2.8
    vertex 2.3869044062856224 2.4634157982764866 2.8
  endloop
endfacet
facet normal -0.0 -0.0 1.0
  outer loop
    vertex 2.3869044062856224 2.4634157982764866 2.8
    vertex 1.7 0.0 2.8
    vertex 2.5807475164653626 2.064199600352316 2.8
  endloop
endfacet
facet normal -0.0 -0.0 1.0
  outer loop
    vertex 2.5807475164653626 2.064199600352316 2.8
    vertex 1.7 0.0 2.8
    vertex 2.8713103379723632 1.7287566531808551 2.8
  endloop
endfacet
facet normal -0.0 -0.0 1.0
  outer loop
    vertex 2.8713103379723632 1.7287566531808551 2.8
    vertex 1.7 0.0 2.8
    vertex 3.238791494698691 1.4799468392661568 2.8
  endloop
endfacet
facet normal -0.0 -0.0 1.0
  outer loop
    vertex 3.238791494698691 1.4799468392661568 2.8
    vertex 1.7 0.0 2.8
    vertex 6.3 0.0 2.8
  endloop
endfacet
facet normal -0.0 -0.0 1.0
  outer loop
    vertex 1.7 15.0 2.8
    vertex 2.302991095051006 2.899199322800794 2.8
    vertex 2.0000000000000027 14.500000000000002 2.8
  endloop
endfacet
facet normal -0.0 -0.0 1.0
  outer loop
    vertex 3.238791494698691 1.4799468392661568 2.8
    vertex 6.3 0.0 2.8
    vertex 3.6581477531047675 1.334726136248851 2.8
  endloop
endfacet
facet normal -0.0 -0.0 1.0
  outer loop
    vertex 3.6581477531047675 1.334726136248851 2.8
    vertex 6.3 0.0 2.8
    vertex 4.100800677199206 1.3029910950510066 2.8
  endloop
endfacet
facet normal -0.0 -0.0 1.0
  outer loop
    vertex 4.100800677199206 1.3029910950510066 2.8
    vertex 6.3 0.0 2.8
    vertex 4.536584201723514 1.3869044062856226 2.8
  endloop
endfacet
facet normal -0.0 -0.0 1.0
  outer loop
    vertex 4.536584201723514 1.3869044062856226 2.8
    vertex 6.3 0.0 2.8
    vertex 4.935800399647683 1.5807475164653628 2.8
  endloop
endfacet
facet normal -0.0 -0.0 1.0
  outer loop
    vertex 4.935800399647683 1.5807475164653628 2.8
    vertex 6.3 0.0 2.8
    vertex 5.271243346819145 1.8713103379723637 2.8
  endloop
endfacet
facet normal -0.0 -0.0 1.0
  outer loop
    vertex 5.271243346819145 1.8713103379723637 2.8
    vertex 6.3 0.0 2.8
    vertex 5.520053160733843 2.2387914946986913 2.8
  endloop
endfacet
facet normal -0.0 -0.0 1.0
  outer loop
    vertex 5.520053160733843 2.2387914946986913 2.8
    vertex 6.3 0.0 2.8
    vertex 5.66527386375115 2.6581477531047684 2.8
  endloop
endfacet
facet normal -0.0 -0.0 1.0
  outer loop
    vertex 5.66527386375115 2.6581477531047684 2.8
    vertex 6.3 0.0 2.8
    vertex 5.697008904948993 3.1008006771992065 2.8
  endloop
endfacet
facet normal -0.0 -0.0 1.0
  outer loop
    vertex 5.697008904948993 3.1008006771992065 2.8
    vertex 6.3 0.0 2.8
    vertex 6.0 14.500000000000002 2.8
  endloop
endfacet
facet normal -0.0 -0.0 1.0
  outer loop
    vertex 6.0 14.500000000000002 2.8
    vertex 6.3 0.0 2.8
    vertex 6.0 15.0 2.8
  endloop
endfacet
facet normal -0.0 -0.0 1.0
  outer loop
    vertex 6.0 15.0 2.8
    vertex 6.3 0.0 2.8
    vertex 6.3 15.0 2.8
  endloop
endfacet
facet normal -0.0 -0.0 1.0
  outer loop
    vertex 6.3 15.0 2.8
    vertex 6.3 0.0 2.8
    vertex 6.825328890437411 0.0832039222982389 2.8
  endloop
endfacet
facet normal -0.0 -0.0 1.0
  outer loop
    vertex 6.3 15.0 2.8
    vertex 6.825328890437411 0.0832039222982389 2.8
    vertex 6.825328890437411 14.916796077701763 2.8
  endloop
endfacet
facet normal -0.0 -0.0 1.0
  outer loop
    vertex 6.825328890437411 14.916796077701763 2.8
    vertex 6.825328890437411 0.0832039222982389 2.8
    vertex 7.299234928897205 0.3246711095625895 2.8
  endloop
endfacet
facet normal -0.0 -0.0 1.0
  outer loop
    vertex 6.825328890437411 14.916796077701763 2.8
    vertex 7.299234928897205 0.3246711095625895 2.8
    vertex 7.299234928897204 14.675328890437411 2.8
  endloop
endfacet
facet normal -0.0 -0.0 1.0
  outer loop
    vertex 7.299234928897204 14.675328890437411 2.8
    vertex 7.299234928897205 0.3246711095625895 2.8
    vertex 7.67532889043741 14.299234928897206 2.8
  endloop
endfacet
facet normal -0.0 -0.0 1.0
  outer loop
    vertex 7.67532889043741 14.299234928897206 2.8
    vertex 7.299234928897205 0.3246711095625895 2.8
    vertex 7.67532889043741 0.7007650711027957 2.8
  endloop
endfacet
facet normal -0.0 -0.0 1.0
  outer loop
    vertex 7.67532889043741 14.299234928897206 2.8
    vertex 7.67532889043741 0.7007650711027957 2.8
    vertex 7.916796077701761 1.1746711095625895 2.8
  endloop
endfacet
facet normal -0.0 -0.0 1.0
  outer loop
    vertex 7.67532889043741 14.299234928897206 2.8
    vertex 7.916796077701761 1.1746711095625895 2.8
    vertex 7.916796077701761 13.82532889043741 2.8
  endloop
endfacet
facet normal -0.0 -0.0 1.0
  outer loop
    vertex 7.916796077701761 13.82532889043741 2.8
    vertex 7.916796077701761 1.1746711095625895 2.8
    vertex 7.999999999999999 1.7 2.8
  endloop
endfacet
facet normal -0.0 -0.0 1.0
  outer loop
    vertex 7.916796077701761 13.82532889043741 2.8
    vertex 7.999999999999999 1.7 2.8
    vertex 7.999999999999999 13.3 2.8
  endloop
endfacet
facet normal -0.0 -0.0 1.0
  outer loop
    vertex 2.0000000000000027 14.500000000000002 2.8
    vertex 2.3347261362488507 3.3418522468952325 2.8
    vertex 6.0 14.500000000000002 2.8
  endloop
endfacet
facet normal -0.0 -0.0 1.0
  outer loop
    vertex 2.3347261362488507 3.3418522468952325 2.8
    vertex 2.0000000000000027 14.500000000000002 2.8
    vertex 2.302991095051006 2.899199322800794 2.8
  endloop
endfacet
facet normal -0.0 -0.0 1.0
  outer loop
    vertex 6.0 14.500000000000002 2.8
    vertex 2.3347261362488507 3.3418522468952325 2.8
    vertex 2.4799468392661566 3.761208505301309 2.8
  endloop
endfacet
facet normal -0.0 -0.0 1.0
  outer loop
    vertex 6.0 14.500000000000002 2.8
    vertex 2.4799468392661566 3.761208505301309 2.8
    vertex 2.7287566531808545 4.128689662027636 2.8
  endloop
endfacet
facet normal -0.0 -0.0 1.0
  outer loop
    vertex 6.0 14.500000000000002 2.8
    vertex 2.7287566531808545 4.128689662027636 2.8
    vertex 3.0641996003523158 4.419252483534637 2.8
  endloop
endfacet
facet normal -0.0 -0.0 1.0
  outer loop
    vertex 6.0 14.500000000000002 2.8
    vertex 3.0641996003523158 4.419252483534637 2.8
    vertex 3.4634157982764857 4.613095593714378 2.8
  endloop
endfacet
facet normal -0.0 -0.0 1.0
  outer loop
    vertex 6.0 14.500000000000002 2.8
    vertex 3.4634157982764857 4.613095593714378 2.8
    vertex 3.8991993228007935 4.697008904948993 2.8
  endloop
endfacet
facet normal -0.0 -0.0 1.0
  outer loop
    vertex 6.0 14.500000000000002 2.8
    vertex 3.8991993228007935 4.697008904948993 2.8
    vertex 4.341852246895232 4.66527386375115 2.8
  endloop
endfacet
facet normal -0.0 -0.0 1.0
  outer loop
    vertex 6.0 14.500000000000002 2.8
    vertex 4.341852246895232 4.66527386375115 2.8
    vertex 4.761208505301308 4.520053160733843 2.8
  endloop
endfacet
facet normal -0.0 -0.0 1.0
  outer loop
    vertex 6.0 14.500000000000002 2.8
    vertex 4.761208505301308 4.520053160733843 2.8
    vertex 5.128689662027635 4.271243346819145 2.8
  endloop
endfacet
facet normal -0.0 -0.0 1.0
  outer loop
    vertex 6.0 14.500000000000002 2.8
    vertex 5.128689662027635 4.271243346819145 2.8
    vertex 5.4192524835346365 3.9358003996476847 2.8
  endloop
endfacet
facet normal -0.0 -0.0 1.0
  outer loop
    vertex 6.0 14.500000000000002 2.8
    vertex 5.4192524835346365 3.9358003996476847 2.8
    vertex 5.613095593714378 3.5365842017235143 2.8
  endloop
endfacet
facet normal -0.0 -0.0 1.0
  outer loop
    vertex 6.0 14.500000000000002 2.8
    vertex 5.613095593714378 3.5365842017235143 2.8
    vertex 5.697008904948993 3.1008006771992065 2.8
  endloop
endfacet
facet normal -0.0 -0.0 1.0
  outer loop
    vertex 2.0000000000000027 15.0 2.8
    vertex 1.7 15.0 2.8
    vertex 2.0000000000000027 14.500000000000002 2.8
  endloop
endfacet
facet normal -2.1965087098228995e-32 -0.7071067811865479 0.707106781186547
  outer loop
    vertex 6.0 15.0 3.2999999999999994
    vertex 2.0000000000000027 14.500000000000002 2.8
    vertex 6.0 14.500000000000002 2.8
  endloop
endfacet
facet normal -2.1965087098228995e-32 -0.7071067811865479 0.707106781186547
  outer loop
    vertex 2.0000000000000027 14.500000000000002 2.8
    vertex 6.0 15.0 3.2999999999999994
    vertex 2.0000000000000027 15.0 3.2999999999999994
  endloop
endfacet
facet normal 0.0 -1.0 0.0
  outer loop
    vertex 6.0 15.0 8.1
    vertex 2.0000000000000027 15.0 3.2999999999999994
    vertex 6.0 15.0 3.2999999999999994
  endloop
endfacet
facet normal 0.0 -1.0 0.0
  outer loop
    vertex 2.0000000000000027 15.0 3.2999999999999994
    vertex 6.0 15.0 8.1
    vertex 2.0000000000000027 15.0 8.1
  endloop
endfacet
endsolid DuctedFanAdapter4
