solid Untitled-56fc7a93
facet normal 0.0 0.0 -1.0
  outer loop
    vertex 0.0535898384862245 19.8 0.0
    vertex 0.0 0.39999999999999963 0.0
    vertex 0.0 19.6 0.0
  endloop
endfacet
facet normal 0.0 0.0 -1.0
  outer loop
    vertex 0.0 0.39999999999999963 0.0
    vertex 0.0535898384862245 19.8 0.0
    vertex 0.05358983848622459 0.19999999999999976 0.0
  endloop
endfacet
facet normal 0.0 0.0 -1.0
  outer loop
    vertex 0.05358983848622459 0.19999999999999976 0.0
    vertex 0.0535898384862245 19.8 0.0
    vertex 0.19999999999999996 19.946410161513775 0.0
  endloop
endfacet
facet normal 0.0 0.0 -1.0
  outer loop
    vertex 0.05358983848622459 0.19999999999999976 0.0
    vertex 0.19999999999999996 19.946410161513775 0.0
    vertex 0.20000000000000007 0.05358983848622446 0.0
  endloop
endfacet
facet normal 0.0 0.0 -1.0
  outer loop
    vertex 0.20000000000000007 0.05358983848622446 0.0
    vertex 0.19999999999999996 19.946410161513775 0.0
    vertex 0.39999999999999997 20.0 0.0
  endloop
endfacet
facet normal 0.0 0.0 -1.0
  outer loop
    vertex 0.20000000000000007 0.05358983848622446 0.0
    vertex 0.39999999999999997 20.0 0.0
    vertex 0.4000000000000001 0.0 0.0
  endloop
endfacet
facet normal 0.0 0.0 -1.0
  outer loop
    vertex 0.4000000000000001 0.0 0.0
    vertex 0.39999999999999997 20.0 0.0
    vertex 1.5500000000000007 20.0 0.0
  endloop
endfacet
facet normal 0.0 0.0 -1.0
  outer loop
    vertex 0.4000000000000001 0.0 0.0
    vertex 1.5500000000000007 20.0 0.0
    vertex 1.4 3.0 0.0
  endloop
endfacet
facet normal 0.0 0.0 -1.0
  outer loop
    vertex 1.4 3.0 0.0
    vertex 1.5500000000000007 20.0 0.0
    vertex 1.4545186779374908 3.4141104721640336 0.0
  endloop
endfacet
facet normal 0.0 0.0 -1.0
  outer loop
    vertex 1.4545186779374908 3.4141104721640336 0.0
    vertex 1.5500000000000007 20.0 0.0
    vertex 1.6143593539448982 3.8000000000000003 0.0
  endloop
endfacet
facet normal 0.0 0.0 -1.0
  outer loop
    vertex 1.6143593539448982 3.8000000000000003 0.0
    vertex 1.5500000000000007 20.0 0.0
    vertex 4.449999999999999 20.0 0.0
  endloop
endfacet
facet normal 0.0 0.0 -1.0
  outer loop
    vertex 1.6143593539448982 3.8000000000000003 0.0
    vertex 4.449999999999999 20.0 0.0
    vertex 1.868629150101524 4.1313708498984765 0.0
  endloop
endfacet
facet normal 0.0 0.0 -1.0
  outer loop
    vertex 1.868629150101524 4.1313708498984765 0.0
    vertex 4.449999999999999 20.0 0.0
    vertex 2.2 4.385640646055102 0.0
  endloop
endfacet
facet normal 0.0 0.0 -1.0
  outer loop
    vertex 2.2 4.385640646055102 0.0
    vertex 4.449999999999999 20.0 0.0
    vertex 2.585889527835967 4.54548132206251 0.0
  endloop
endfacet
facet normal 0.0 0.0 -1.0
  outer loop
    vertex 2.585889527835967 4.54548132206251 0.0
    vertex 4.449999999999999 20.0 0.0
    vertex 3.0 4.6 0.0
  endloop
endfacet
facet normal 0.0 0.0 -1.0
  outer loop
    vertex 3.0 4.6 0.0
    vertex 4.449999999999999 20.0 0.0
    vertex 3.414110472164035 4.545481322062509 0.0
  endloop
endfacet
facet normal 0.0 0.0 -1.0
  outer loop
    vertex 3.414110472164035 4.545481322062509 0.0
    vertex 4.449999999999999 20.0 0.0
    vertex 3.8000000000000007 4.385640646055101 0.0
  endloop
endfacet
facet normal 0.0 0.0 -1.0
  outer loop
    vertex 3.8000000000000007 4.385640646055101 0.0
    vertex 4.449999999999999 20.0 0.0
    vertex 4.131370849898477 4.1313708498984765 0.0
  endloop
endfacet
facet normal 0.0 0.0 -1.0
  outer loop
    vertex 4.131370849898477 4.1313708498984765 0.0
    vertex 4.449999999999999 20.0 0.0
    vertex 4.385640646055103 3.7999999999999985 0.0
  endloop
endfacet
facet normal 0.0 0.0 -1.0
  outer loop
    vertex 4.385640646055103 3.7999999999999985 0.0
    vertex 4.449999999999999 20.0 0.0
    vertex 4.54548132206251 3.4141104721640327 0.0
  endloop
endfacet
facet normal 0.0 0.0 -1.0
  outer loop
    vertex 4.54548132206251 3.4141104721640327 0.0
    vertex 4.449999999999999 20.0 0.0
    vertex 5.6000000000000005 20.0 0.0
  endloop
endfacet
facet normal 0.0 0.0 -1.0
  outer loop
    vertex 4.54548132206251 3.4141104721640327 0.0
    vertex 5.6000000000000005 20.0 0.0
    vertex 4.6 3.0 0.0
  endloop
endfacet
facet normal 0.0 0.0 -1.0
  outer loop
    vertex 0.4000000000000001 0.0 0.0
    vertex 2.1999999999999993 1.6143593539448986 0.0
    vertex 5.6000000000000005 0.0 0.0
  endloop
endfacet
facet normal 0.0 0.0 -1.0
  outer loop
    vertex 2.1999999999999993 1.6143593539448986 0.0
    vertex 0.4000000000000001 0.0 0.0
    vertex 1.868629150101524 1.868629150101524 0.0
  endloop
endfacet
facet normal 0.0 0.0 -1.0
  outer loop
    vertex 1.868629150101524 1.868629150101524 0.0
    vertex 0.4000000000000001 0.0 0.0
    vertex 1.614359353944898 2.2 0.0
  endloop
endfacet
facet normal 0.0 0.0 -1.0
  outer loop
    vertex 1.614359353944898 2.2 0.0
    vertex 0.4000000000000001 0.0 0.0
    vertex 1.4545186779374906 2.5858895278359673 0.0
  endloop
endfacet
facet normal 0.0 0.0 -1.0
  outer loop
    vertex 1.4545186779374906 2.5858895278359673 0.0
    vertex 0.4000000000000001 0.0 0.0
    vertex 1.4 3.0 0.0
  endloop
endfacet
facet normal 0.0 0.0 -1.0
  outer loop
    vertex 5.6000000000000005 0.0 0.0
    vertex 2.1999999999999993 1.6143593539448986 0.0
    vertex 2.5858895278359664 1.4545186779374908 0.0
  endloop
endfacet
facet normal 0.0 0.0 -1.0
  outer loop
    vertex 5.6000000000000005 0.0 0.0
    vertex 2.5858895278359664 1.4545186779374908 0.0
    vertex 3.0 1.4 0.0
  endloop
endfacet
facet normal 0.0 0.0 -1.0
  outer loop
    vertex 5.6000000000000005 0.0 0.0
    vertex 3.0 1.4 0.0
    vertex 3.4141104721640327 1.4545186779374906 0.0
  endloop
endfacet
facet normal 0.0 0.0 -1.0
  outer loop
    vertex 5.6000000000000005 0.0 0.0
    vertex 3.4141104721640327 1.4545186779374906 0.0
    vertex 3.8000000000000003 1.614359353944898 0.0
  endloop
endfacet
facet normal 0.0 0.0 -1.0
  outer loop
    vertex 5.6000000000000005 0.0 0.0
    vertex 3.8000000000000003 1.614359353944898 0.0
    vertex 4.131370849898476 1.8686291501015233 0.0
  endloop
endfacet
facet normal 0.0 0.0 -1.0
  outer loop
    vertex 5.6000000000000005 0.0 0.0
    vertex 4.131370849898476 1.8686291501015233 0.0
    vertex 4.385640646055101 2.1999999999999993 0.0
  endloop
endfacet
facet normal 0.0 0.0 -1.0
  outer loop
    vertex 5.6000000000000005 0.0 0.0
    vertex 4.385640646055101 2.1999999999999993 0.0
    vertex 4.545481322062509 2.585889527835966 0.0
  endloop
endfacet
facet normal 0.0 0.0 -1.0
  outer loop
    vertex 5.6000000000000005 0.0 0.0
    vertex 4.545481322062509 2.585889527835966 0.0
    vertex 4.6 3.0 0.0
  endloop
endfacet
facet normal 0.0 0.0 -1.0
  outer loop
    vertex 5.6000000000000005 0.0 0.0
    vertex 4.6 3.0 0.0
    vertex 5.6000000000000005 20.0 0.0
  endloop
endfacet
facet normal 0.0 0.0 -1.0
  outer loop
    vertex 5.6000000000000005 0.0 0.0
    vertex 5.6000000000000005 20.0 0.0
    vertex 5.8 19.946410161513775 0.0
  endloop
endfacet
facet normal 0.0 0.0 -1.0
  outer loop
    vertex 5.6000000000000005 0.0 0.0
    vertex 5.8 19.946410161513775 0.0
    vertex 5.8 0.05358983848622454 0.0
  endloop
endfacet
facet normal 0.0 0.0 -1.0
  outer loop
    vertex 5.8 0.05358983848622454 0.0
    vertex 5.8 19.946410161513775 0.0
    vertex 5.946410161513776 19.8 0.0
  endloop
endfacet
facet normal 0.0 0.0 -1.0
  outer loop
    vertex 5.8 0.05358983848622454 0.0
    vertex 5.946410161513776 19.8 0.0
    vertex 5.946410161513776 0.19999999999999998 0.0
  endloop
endfacet
facet normal 0.0 0.0 -1.0
  outer loop
    vertex 5.946410161513776 0.19999999999999998 0.0
    vertex 5.946410161513776 19.8 0.0
    vertex 6.0 19.6 0.0
  endloop
endfacet
facet normal 0.0 0.0 -1.0
  outer loop
    vertex 5.946410161513776 0.19999999999999998 0.0
    vertex 6.0 19.6 0.0
    vertex 6.0 0.4000000000000001 0.0
  endloop
endfacet
facet normal -0.0 -0.0 1.0
  outer loop
    vertex 0.4000000000000001 0.0 2.8
    vertex 1.4545186779374906 2.5858895278359673 2.8
    vertex 1.4 3.0 2.8
  endloop
endfacet
facet normal -0.0 -0.0 1.0
  outer loop
    vertex 1.4545186779374906 2.5858895278359673 2.8
    vertex 0.4000000000000001 0.0 2.8
    vertex 1.614359353944898 2.2 2.8
  endloop
endfacet
facet normal -0.0 -0.0 1.0
  outer loop
    vertex 1.614359353944898 2.2 2.8
    vertex 0.4000000000000001 0.0 2.8
    vertex 1.868629150101524 1.868629150101524 2.8
  endloop
endfacet
facet normal -0.0 -0.0 1.0
  outer loop
    vertex 1.868629150101524 1.868629150101524 2.8
    vertex 0.4000000000000001 0.0 2.8
    vertex 2.1999999999999993 1.6143593539448986 2.8
  endloop
endfacet
facet normal -0.0 -0.0 1.0
  outer loop
    vertex 2.1999999999999993 1.6143593539448986 2.8
    vertex 0.4000000000000001 0.0 2.8
    vertex 5.6000000000000005 0.0 2.8
  endloop
endfacet
facet normal -0.0 -0.0 1.0
  outer loop
    vertex 2.1999999999999993 1.6143593539448986 2.8
    vertex 5.6000000000000005 0.0 2.8
    vertex 2.5858895278359664 1.4545186779374908 2.8
  endloop
endfacet
facet normal -0.0 -0.0 1.0
  outer loop
    vertex 2.5858895278359664 1.4545186779374908 2.8
    vertex 5.6000000000000005 0.0 2.8
    vertex 3.0 1.4 2.8
  endloop
endfacet
facet normal -0.0 -0.0 1.0
  outer loop
    vertex 3.0 1.4 2.8
    vertex 5.6000000000000005 0.0 2.8
    vertex 3.4141104721640327 1.4545186779374906 2.8
  endloop
endfacet
facet normal -0.0 -0.0 1.0
  outer loop
    vertex 3.4141104721640327 1.4545186779374906 2.8
    vertex 5.6000000000000005 0.0 2.8
    vertex 3.8000000000000003 1.614359353944898 2.8
  endloop
endfacet
facet normal -0.0 -0.0 1.0
  outer loop
    vertex 3.8000000000000003 1.614359353944898 2.8
    vertex 5.6000000000000005 0.0 2.8
    vertex 4.131370849898476 1.8686291501015233 2.8
  endloop
endfacet
facet normal -0.0 -0.0 1.0
  outer loop
    vertex 4.131370849898476 1.8686291501015233 2.8
    vertex 5.6000000000000005 0.0 2.8
    vertex 4.385640646055101 2.1999999999999993 2.8
  endloop
endfacet
facet normal -0.0 -0.0 1.0
  outer loop
    vertex 4.385640646055101 2.1999999999999993 2.8
    vertex 5.6000000000000005 0.0 2.8
    vertex 4.545481322062509 2.585889527835966 2.8
  endloop
endfacet
facet normal -0.0 -0.0 1.0
  outer loop
    vertex 4.545481322062509 2.585889527835966 2.8
    vertex 5.6000000000000005 0.0 2.8
    vertex 4.6 3.0 2.8
  endloop
endfacet
facet normal -0.0 -0.0 1.0
  outer loop
    vertex 0.05358983848622459 0.19999999999999976 2.8
    vertex 0.0 19.6 2.8
    vertex 0.0 0.39999999999999963 2.8
  endloop
endfacet
facet normal -0.0 -0.0 1.0
  outer loop
    vertex 0.0 19.6 2.8
    vertex 0.05358983848622459 0.19999999999999976 2.8
    vertex 0.0535898384862245 19.8 2.8
  endloop
endfacet
facet normal -0.0 -0.0 1.0
  outer loop
    vertex 0.0535898384862245 19.8 2.8
    vertex 0.05358983848622459 0.19999999999999976 2.8
    vertex 0.19999999999999996 19.946410161513775 2.8
  endloop
endfacet
facet normal -0.0 -0.0 1.0
  outer loop
    vertex 0.19999999999999996 19.946410161513775 2.8
    vertex 0.05358983848622459 0.19999999999999976 2.8
    vertex 0.20000000000000007 0.05358983848622446 2.8
  endloop
endfacet
facet normal -0.0 -0.0 1.0
  outer loop
    vertex 0.19999999999999996 19.946410161513775 2.8
    vertex 0.20000000000000007 0.05358983848622446 2.8
    vertex 0.39999999999999997 20.0 2.8
  endloop
endfacet
facet normal -0.0 -0.0 1.0
  outer loop
    vertex 0.39999999999999997 20.0 2.8
    vertex 0.20000000000000007 0.05358983848622446 2.8
    vertex 0.4000000000000001 0.0 2.8
  endloop
endfacet
facet normal -0.0 -0.0 1.0
  outer loop
    vertex 0.39999999999999997 20.0 2.8
    vertex 0.4000000000000001 0.0 2.8
    vertex 1.5500000000000007 20.0 2.8
  endloop
endfacet
facet normal -0.0 -0.0 1.0
  outer loop
    vertex 1.5500000000000007 20.0 2.8
    vertex 0.4000000000000001 0.0 2.8
    vertex 1.4 3.0 2.8
  endloop
endfacet
facet normal -0.0 -0.0 1.0
  outer loop
    vertex 1.5500000000000007 20.0 2.8
    vertex 1.4 3.0 2.8
    vertex 1.4545186779374908 3.4141104721640336 2.8
  endloop
endfacet
facet normal -0.0 -0.0 1.0
  outer loop
    vertex 1.5500000000000007 20.0 2.8
    vertex 1.4545186779374908 3.4141104721640336 2.8
    vertex 1.6143593539448982 3.8000000000000003 2.8
  endloop
endfacet
facet normal -0.0 -0.0 1.0
  outer loop
    vertex 1.5500000000000007 20.0 2.8
    vertex 1.6143593539448982 3.8000000000000003 2.8
    vertex 4.449999999999999 20.0 2.8
  endloop
endfacet
facet normal -0.0 -0.0 1.0
  outer loop
    vertex 4.449999999999999 20.0 2.8
    vertex 1.6143593539448982 3.8000000000000003 2.8
    vertex 1.868629150101524 4.1313708498984765 2.8
  endloop
endfacet
facet normal -0.0 -0.0 1.0
  outer loop
    vertex 4.449999999999999 20.0 2.8
    vertex 1.868629150101524 4.1313708498984765 2.8
    vertex 2.2 4.385640646055102 2.8
  endloop
endfacet
facet normal -0.0 -0.0 1.0
  outer loop
    vertex 4.449999999999999 20.0 2.8
    vertex 2.2 4.385640646055102 2.8
    vertex 2.585889527835967 4.54548132206251 2.8
  endloop
endfacet
facet normal -0.0 -0.0 1.0
  outer loop
    vertex 4.449999999999999 20.0 2.8
    vertex 2.585889527835967 4.54548132206251 2.8
    vertex 3.0 4.6 2.8
  endloop
endfacet
facet normal -0.0 -0.0 1.0
  outer loop
    vertex 4.449999999999999 20.0 2.8
    vertex 3.0 4.6 2.8
    vertex 3.414110472164035 4.545481322062509 2.8
  endloop
endfacet
facet normal -0.0 -0.0 1.0
  outer loop
    vertex 4.449999999999999 20.0 2.8
    vertex 3.414110472164035 4.545481322062509 2.8
    vertex 3.8000000000000007 4.385640646055101 2.8
  endloop
endfacet
facet normal -0.0 -0.0 1.0
  outer loop
    vertex 4.449999999999999 20.0 2.8
    vertex 3.8000000000000007 4.385640646055101 2.8
    vertex 4.131370849898477 4.1313708498984765 2.8
  endloop
endfacet
facet normal -0.0 -0.0 1.0
  outer loop
    vertex 4.449999999999999 20.0 2.8
    vertex 4.131370849898477 4.1313708498984765 2.8
    vertex 4.385640646055103 3.7999999999999985 2.8
  endloop
endfacet
facet normal -0.0 -0.0 1.0
  outer loop
    vertex 4.449999999999999 20.0 2.8
    vertex 4.385640646055103 3.7999999999999985 2.8
    vertex 4.54548132206251 3.4141104721640327 2.8
  endloop
endfacet
facet normal -0.0 -0.0 1.0
  outer loop
    vertex 4.449999999999999 20.0 2.8
    vertex 4.54548132206251 3.4141104721640327 2.8
    vertex 5.6000000000000005 20.0 2.8
  endloop
endfacet
facet normal -0.0 -0.0 1.0
  outer loop
    vertex 5.6000000000000005 20.0 2.8
    vertex 4.54548132206251 3.4141104721640327 2.8
    vertex 4.6 3.0 2.8
  endloop
endfacet
facet normal -0.0 -0.0 1.0
  outer loop
    vertex 5.6000000000000005 20.0 2.8
    vertex 4.6 3.0 2.8
    vertex 5.6000000000000005 0.0 2.8
  endloop
endfacet
facet normal -0.0 -0.0 1.0
  outer loop
    vertex 5.6000000000000005 20.0 2.8
    vertex 5.6000000000000005 0.0 2.8
    vertex 5.8 0.05358983848622454 2.8
  endloop
endfacet
facet normal -0.0 -0.0 1.0
  outer loop
    vertex 5.6000000000000005 20.0 2.8
    vertex 5.8 0.05358983848622454 2.8
    vertex 5.8 19.946410161513775 2.8
  endloop
endfacet
facet normal -0.0 -0.0 1.0
  outer loop
    vertex 5.8 19.946410161513775 2.8
    vertex 5.8 0.05358983848622454 2.8
    vertex 5.946410161513776 0.19999999999999998 2.8
  endloop
endfacet
facet normal -0.0 -0.0 1.0
  outer loop
    vertex 5.8 19.946410161513775 2.8
    vertex 5.946410161513776 0.19999999999999998 2.8
    vertex 5.946410161513776 19.8 2.8
  endloop
endfacet
facet normal -0.0 -0.0 1.0
  outer loop
    vertex 5.946410161513776 19.8 2.8
    vertex 5.946410161513776 0.19999999999999998 2.8
    vertex 6.0 0.4000000000000001 2.8
  endloop
endfacet
facet normal -0.0 -0.0 1.0
  outer loop
    vertex 5.946410161513776 19.8 2.8
    vertex 6.0 0.4000000000000001 2.8
    vertex 6.0 19.6 2.8
  endloop
endfacet
facet normal 0.2588190451025202 -0.9659258262890684 0.0
  outer loop
    vertex 2.585889527835967 4.54548132206251 2.8
    vertex 2.2 4.385640646055102 0.0
    vertex 2.585889527835967 4.54548132206251 0.0
  endloop
endfacet
facet normal 0.5 -0.8660254037844387 0.0
  outer loop
    vertex 2.2 4.385640646055102 0.0
    vertex 2.585889527835967 4.54548132206251 2.8
    vertex 2.2 4.385640646055102 2.8
  endloop
endfacet
facet normal 0.5 -0.8660254037844387 0.0
  outer loop
    vertex 2.2 4.385640646055102 2.8
    vertex 1.868629150101524 4.1313708498984765 0.0
    vertex 2.2 4.385640646055102 0.0
  endloop
endfacet
facet normal 0.7071067811865477 -0.7071067811865474 0.0
  outer loop
    vertex 1.868629150101524 4.1313708498984765 0.0
    vertex 2.2 4.385640646055102 2.8
    vertex 1.868629150101524 4.1313708498984765 2.8
  endloop
endfacet
facet normal 0.7071067811865477 -0.7071067811865474 0.0
  outer loop
    vertex 1.868629150101524 4.1313708498984765 0.0
    vertex 1.6143593539448982 3.8000000000000003 2.8
    vertex 1.6143593539448982 3.8000000000000003 0.0
  endloop
endfacet
facet normal 0.8660254037844387 -0.4999999999999999 0.0
  outer loop
    vertex 1.6143593539448982 3.8000000000000003 2.8
    vertex 1.868629150101524 4.1313708498984765 0.0
    vertex 1.868629150101524 4.1313708498984765 2.8
  endloop
endfacet
facet normal 0.8660254037844387 -0.4999999999999999 0.0
  outer loop
    vertex 1.6143593539448982 3.8000000000000003 0.0
    vertex 1.4545186779374908 3.4141104721640336 2.8
    vertex 1.4545186779374908 3.4141104721640336 0.0
  endloop
endfacet
facet normal 0.9659258262890682 -0.258819045102521 0.0
  outer loop
    vertex 1.4545186779374908 3.4141104721640336 2.8
    vertex 1.6143593539448982 3.8000000000000003 0.0
    vertex 1.6143593539448982 3.8000000000000003 2.8
  endloop
endfacet
facet normal 0.9659258262890682 -0.258819045102521 0.0
  outer loop
    vertex 1.4545186779374908 3.4141104721640336 0.0
    vertex 1.4 3.0 2.8
    vertex 1.4 3.0 0.0
  endloop
endfacet
facet normal 1.0 -1.603999781216443e-16 0.0
  outer loop
    vertex 1.4 3.0 2.8
    vertex 1.4545186779374908 3.4141104721640336 0.0
    vertex 1.4545186779374908 3.4141104721640336 2.8
  endloop
endfacet
facet normal 1.0 -1.603999781216443e-16 0.0
  outer loop
    vertex 1.4 3.0 0.0
    vertex 1.4545186779374906 2.5858895278359673 2.8
    vertex 1.4545186779374906 2.5858895278359673 0.0
  endloop
endfacet
facet normal 0.9659258262890683 0.2588190451025205 0.0
  outer loop
    vertex 1.4545186779374906 2.5858895278359673 2.8
    vertex 1.4 3.0 0.0
    vertex 1.4 3.0 2.8
  endloop
endfacet
facet normal 0.9659258262890683 0.2588190451025205 0.0
  outer loop
    vertex 1.4545186779374906 2.5858895278359673 0.0
    vertex 1.614359353944898 2.2 2.8
    vertex 1.614359353944898 2.2 0.0
  endloop
endfacet
facet normal 0.8660254037844387 0.4999999999999999 0.0
  outer loop
    vertex 1.614359353944898 2.2 2.8
    vertex 1.4545186779374906 2.5858895278359673 0.0
    vertex 1.4545186779374906 2.5858895278359673 2.8
  endloop
endfacet
facet normal 0.8660254037844387 0.4999999999999999 0.0
  outer loop
    vertex 1.614359353944898 2.2 0.0
    vertex 1.868629150101524 1.868629150101524 2.8
    vertex 1.868629150101524 1.868629150101524 0.0
  endloop
endfacet
facet normal 0.7071067811865475 0.7071067811865477 0.0
  outer loop
    vertex 1.868629150101524 1.868629150101524 2.8
    vertex 1.614359353944898 2.2 0.0
    vertex 1.614359353944898 2.2 2.8
  endloop
endfacet
facet normal 0.7071067811865475 0.7071067811865477 0.0
  outer loop
    vertex 1.868629150101524 1.868629150101524 2.8
    vertex 2.1999999999999993 1.6143593539448986 0.0
    vertex 1.868629150101524 1.868629150101524 0.0
  endloop
endfacet
facet normal 0.5000000000000001 0.8660254037844386 0.0
  outer loop
    vertex 2.1999999999999993 1.6143593539448986 0.0
    vertex 1.868629150101524 1.868629150101524 2.8
    vertex 2.1999999999999993 1.6143593539448986 2.8
  endloop
endfacet
facet normal 0.5000000000000001 0.8660254037844386 0.0
  outer loop
    vertex 2.1999999999999993 1.6143593539448986 2.8
    vertex 2.5858895278359664 1.4545186779374908 0.0
    vertex 2.1999999999999993 1.6143593539448986 0.0
  endloop
endfacet
facet normal 0.2588190451025212 0.9659258262890682 0.0
  outer loop
    vertex 2.5858895278359664 1.4545186779374908 0.0
    vertex 2.1999999999999993 1.6143593539448986 2.8
    vertex 2.5858895278359664 1.4545186779374908 2.8
  endloop
endfacet
facet normal 0.2588190451025212 0.9659258262890682 0.0
  outer loop
    vertex 2.5858895278359664 1.4545186779374908 2.8
    vertex 3.0 1.4 0.0
    vertex 2.5858895278359664 1.4545186779374908 0.0
  endloop
endfacet
facet normal 3.8317772551281694e-16 1.0 0.0
  outer loop
    vertex 3.0 1.4 0.0
    vertex 2.5858895278359664 1.4545186779374908 2.8
    vertex 3.0 1.4 2.8
  endloop
endfacet
facet normal 3.8317772551281694e-16 1.0 0.0
  outer loop
    vertex 3.0 1.4 2.8
    vertex 3.4141104721640327 1.4545186779374906 0.0
    vertex 3.0 1.4 0.0
  endloop
endfacet
facet normal -0.25881904510252035 0.9659258262890684 0.0
  outer loop
    vertex 3.4141104721640327 1.4545186779374906 0.0
    vertex 3.0 1.4 2.8
    vertex 3.4141104721640327 1.4545186779374906 2.8
  endloop
endfacet
facet normal -0.25881904510252035 0.9659258262890684 0.0
  outer loop
    vertex 3.4141104721640327 1.4545186779374906 2.8
    vertex 3.8000000000000003 1.614359353944898 0.0
    vertex 3.4141104721640327 1.4545186779374906 0.0
  endloop
endfacet
facet normal -0.4999999999999998 0.8660254037844387 0.0
  outer loop
    vertex 3.8000000000000003 1.614359353944898 0.0
    vertex 3.4141104721640327 1.4545186779374906 2.8
    vertex 3.8000000000000003 1.614359353944898 2.8
  endloop
endfacet
facet normal -0.4999999999999998 0.8660254037844387 0.0
  outer loop
    vertex 3.8000000000000003 1.614359353944898 2.8
    vertex 4.131370849898476 1.8686291501015233 0.0
    vertex 3.8000000000000003 1.614359353944898 0.0
  endloop
endfacet
facet normal -0.7071067811865475 0.7071067811865477 0.0
  outer loop
    vertex 4.131370849898476 1.8686291501015233 0.0
    vertex 3.8000000000000003 1.614359353944898 2.8
    vertex 4.131370849898476 1.8686291501015233 2.8
  endloop
endfacet
facet normal -0.8660254037844386 0.5000000000000001 0.0
  outer loop
    vertex 4.385640646055101 2.1999999999999993 2.8
    vertex 4.131370849898476 1.8686291501015233 0.0
    vertex 4.131370849898476 1.8686291501015233 2.8
  endloop
endfacet
facet normal -0.7071067811865475 0.7071067811865477 0.0
  outer loop
    vertex 4.131370849898476 1.8686291501015233 0.0
    vertex 4.385640646055101 2.1999999999999993 2.8
    vertex 4.385640646055101 2.1999999999999993 0.0
  endloop
endfacet
facet normal -0.9659258262890682 0.258819045102521 0.0
  outer loop
    vertex 4.545481322062509 2.585889527835966 2.8
    vertex 4.385640646055101 2.1999999999999993 0.0
    vertex 4.385640646055101 2.1999999999999993 2.8
  endloop
endfacet
facet normal -0.8660254037844386 0.5000000000000001 0.0
  outer loop
    vertex 4.385640646055101 2.1999999999999993 0.0
    vertex 4.545481322062509 2.585889527835966 2.8
    vertex 4.545481322062509 2.585889527835966 0.0
  endloop
endfacet
facet normal -1.0 6.772443520691646e-16 0.0
  outer loop
    vertex 4.6 3.0 2.8
    vertex 4.545481322062509 2.585889527835966 0.0
    vertex 4.545481322062509 2.585889527835966 2.8
  endloop
endfacet
facet normal -0.9659258262890682 0.258819045102521 0.0
  outer loop
    vertex 4.545481322062509 2.585889527835966 0.0
    vertex 4.6 3.0 2.8
    vertex 4.6 3.0 0.0
  endloop
endfacet
facet normal -0.9659258262890686 -0.2588190451025199 0.0
  outer loop
    vertex 4.54548132206251 3.4141104721640327 2.8
    vertex 4.6 3.0 0.0
    vertex 4.6 3.0 2.8
  endloop
endfacet
facet normal -1.0 6.772443520691646e-16 0.0
  outer loop
    vertex 4.6 3.0 0.0
    vertex 4.54548132206251 3.4141104721640327 2.8
    vertex 4.54548132206251 3.4141104721640327 0.0
  endloop
endfacet
facet normal -0.8660254037844394 -0.4999999999999988 0.0
  outer loop
    vertex 4.385640646055103 3.7999999999999985 2.8
    vertex 4.54548132206251 3.4141104721640327 0.0
    vertex 4.54548132206251 3.4141104721640327 2.8
  endloop
endfacet
facet normal -0.9659258262890686 -0.2588190451025199 0.0
  outer loop
    vertex 4.54548132206251 3.4141104721640327 0.0
    vertex 4.385640646055103 3.7999999999999985 2.8
    vertex 4.385640646055103 3.7999999999999985 0.0
  endloop
endfacet
facet normal -0.7071067811865479 -0.7071067811865474 0.0
  outer loop
    vertex 4.131370849898477 4.1313708498984765 2.8
    vertex 4.385640646055103 3.7999999999999985 0.0
    vertex 4.385640646055103 3.7999999999999985 2.8
  endloop
endfacet
facet normal -0.8660254037844394 -0.4999999999999988 0.0
  outer loop
    vertex 4.385640646055103 3.7999999999999985 0.0
    vertex 4.131370849898477 4.1313708498984765 2.8
    vertex 4.131370849898477 4.1313708498984765 0.0
  endloop
endfacet
facet normal -0.7071067811865479 -0.7071067811865474 0.0
  outer loop
    vertex 4.131370849898477 4.1313708498984765 2.8
    vertex 3.8000000000000007 4.385640646055101 0.0
    vertex 4.131370849898477 4.1313708498984765 0.0
  endloop
endfacet
facet normal -0.4999999999999998 -0.8660254037844388 0.0
  outer loop
    vertex 3.8000000000000007 4.385640646055101 0.0
    vertex 4.131370849898477 4.1313708498984765 2.8
    vertex 3.8000000000000007 4.385640646055101 2.8
  endloop
endfacet
facet normal -0.4999999999999998 -0.8660254037844388 0.0
  outer loop
    vertex 3.8000000000000007 4.385640646055101 2.8
    vertex 3.414110472164035 4.545481322062509 0.0
    vertex 3.8000000000000007 4.385640646055101 0.0
  endloop
endfacet
facet normal -0.25881904510252113 -0.9659258262890681 0.0
  outer loop
    vertex 3.414110472164035 4.545481322062509 0.0
    vertex 3.8000000000000007 4.385640646055101 2.8
    vertex 3.414110472164035 4.545481322062509 2.8
  endloop
endfacet
facet normal -0.25881904510252113 -0.9659258262890681 0.0
  outer loop
    vertex 3.414110472164035 4.545481322062509 2.8
    vertex 3.0 4.6 0.0
    vertex 3.414110472164035 4.545481322062509 0.0
  endloop
endfacet
facet normal -5.970443630083427e-16 -1.0 0.0
  outer loop
    vertex 3.0 4.6 0.0
    vertex 3.414110472164035 4.545481322062509 2.8
    vertex 3.0 4.6 2.8
  endloop
endfacet
facet normal -5.970443630083427e-16 -1.0 0.0
  outer loop
    vertex 3.0 4.6 2.8
    vertex 2.585889527835967 4.54548132206251 0.0
    vertex 3.0 4.6 0.0
  endloop
endfacet
facet normal 0.2588190451025202 -0.9659258262890684 0.0
  outer loop
    vertex 2.585889527835967 4.54548132206251 0.0
    vertex 3.0 4.6 2.8
    vertex 2.585889527835967 4.54548132206251 2.8
  endloop
endfacet
facet normal 0.0 0.0 -1.0
  outer loop
    vertex 4.45 27.0 0.0
    vertex 1.5500000000000007 20.0 0.0
    vertex 1.5500000000000007 27.0 0.0
  endloop
endfacet
facet normal 0.0 0.0 -1.0
  outer loop
    vertex 1.5500000000000007 20.0 0.0
    vertex 4.45 27.0 0.0
    vertex 4.449999999999999 20.0 0.0
  endloop
endfacet
facet normal 1.0 -1.0359887011443524e-16 -3.43793413987747e-19
  outer loop
    vertex 4.449999999999999 20.0 0.0
    vertex 4.429663 23.13336974271528 1.1550271388765416
    vertex 4.449999999999999 20.0 2.8
  endloop
endfacet
facet normal 1.0 -1.0359887011443524e-16 -3.43793413987747e-19
  outer loop
    vertex 4.429663 23.13336974271528 1.1550271388765416
    vertex 4.449999999999999 20.0 0.0
    vertex 4.429663 23.51100404424993 0.9765555621355683
  endloop
endfacet
facet normal 1.0 -1.0359887011443524e-16 -3.43793413987747e-19
  outer loop
    vertex 4.429663 23.51100404424993 0.9765555621355683
    vertex 4.449999999999999 20.0 0.0
    vertex 4.45 27.0 0.0
  endloop
endfacet
facet normal 1.0 -1.0359887011443524e-16 -3.43793413987747e-19
  outer loop
    vertex 4.449999999999999 20.0 2.8
    vertex 4.429663 23.13336974271528 1.1550271388765416
    vertex 4.429663 22.814794861040372 1.4251563934303337
  endloop
endfacet
facet normal 1.0 -1.0359887011443524e-16 -3.43793413987747e-19
  outer loop
    vertex 4.449999999999999 20.0 2.8
    vertex 4.429663 22.814794861040372 1.4251563934303337
    vertex 4.449999999999999 20.0 4.6
  endloop
endfacet
facet normal 1.0 -1.0359887011443524e-16 -3.43793413987747e-19
  outer loop
    vertex 4.449999999999999 20.0 4.6
    vertex 4.429663 22.814794861040372 1.4251563934303337
    vertex 4.449999999999999 20.053589838486225 4.800000000000001
  endloop
endfacet
facet normal 1.0 -1.0359887011443524e-16 -3.43793413987747e-19
  outer loop
    vertex 4.449999999999999 20.053589838486225 4.800000000000001
    vertex 4.429663 22.814794861040372 1.4251563934303337
    vertex 4.449999999999999 20.2 4.946410161513775
  endloop
endfacet
facet normal 1.0 -1.0359887011443524e-16 -3.43793413987747e-19
  outer loop
    vertex 4.449999999999999 20.2 4.946410161513775
    vertex 4.429663 22.814794861040372 1.4251563934303337
    vertex 4.429663 22.57698975094146 1.7685344635088043
  endloop
endfacet
facet normal 1.0 -1.0359887011443524e-16 -3.43793413987747e-19
  outer loop
    vertex 4.449999999999999 20.2 4.946410161513775
    vertex 4.429663 22.57698975094146 1.7685344635088043
    vertex 4.449999999999999 20.4 5.0
  endloop
endfacet
facet normal 1.0 -1.0359887011443524e-16 -3.43793413987747e-19
  outer loop
    vertex 4.449999999999999 20.4 5.0
    vertex 4.429663 22.57698975094146 1.7685344635088043
    vertex 4.429663 22.43616043768026 2.1617607010951976
  endloop
endfacet
facet normal 1.0 -1.0359887011443524e-16 -3.43793413987747e-19
  outer loop
    vertex 4.449999999999999 20.4 5.0
    vertex 4.429663 22.43616043768026 2.1617607010951976
    vertex 4.429663 22.401904206224085 2.578037387935082
  endloop
endfacet
facet normal 1.0 -1.0359887011443524e-16 -3.43793413987747e-19
  outer loop
    vertex 4.429663 23.51100404424993 0.9765555621355683
    vertex 4.45 27.0 0.0
    vertex 4.429663 23.92196261206492 0.9019042062240857
  endloop
endfacet
facet normal 1.0 -1.0359887011443524e-16 -3.43793413987747e-19
  outer loop
    vertex 4.429663 23.92196261206492 0.9019042062240857
    vertex 4.45 27.0 0.0
    vertex 4.429663 24.338239298904803 0.9361604376802631
  endloop
endfacet
facet normal 1.0 -1.0359887011443524e-16 -3.43793413987747e-19
  outer loop
    vertex 4.429663 24.338239298904803 0.9361604376802631
    vertex 4.45 27.0 0.0
    vertex 4.429663 24.731465536491196 1.0769897509414608
  endloop
endfacet
facet normal 1.0 -1.0359887011443524e-16 -3.43793413987747e-19
  outer loop
    vertex 4.429663 24.731465536491196 1.0769897509414608
    vertex 4.45 27.0 0.0
    vertex 4.429663 25.074843606569665 1.314794861040372
  endloop
endfacet
facet normal 1.0 -1.0359887011443524e-16 -3.43793413987747e-19
  outer loop
    vertex 4.429663 25.074843606569665 1.314794861040372
    vertex 4.45 27.0 0.0
    vertex 4.429663 25.34497286112346 1.6333697427152816
  endloop
endfacet
facet normal 1.0 -1.0359887011443524e-16 -3.43793413987747e-19
  outer loop
    vertex 4.429663 25.34497286112346 1.6333697427152816
    vertex 4.45 27.0 0.0
    vertex 4.429663 25.52344443786443 2.0110040442499297
  endloop
endfacet
facet normal 1.0 -1.0359887011443524e-16 -3.43793413987747e-19
  outer loop
    vertex 4.429663 25.52344443786443 2.0110040442499297
    vertex 4.45 27.0 0.0
    vertex 4.429663 25.598095793775915 2.421962612064919
  endloop
endfacet
facet normal 1.0 -1.0359887011443524e-16 -3.43793413987747e-19
  outer loop
    vertex 4.429663 25.598095793775915 2.421962612064919
    vertex 4.45 27.0 0.0
    vertex 4.45 26.6 5.0
  endloop
endfacet
facet normal 1.0 -1.0359887011443524e-16 -3.43793413987747e-19
  outer loop
    vertex 4.45 26.6 5.0
    vertex 4.45 27.0 0.0
    vertex 4.45 26.8 4.946410161513775
  endloop
endfacet
facet normal 1.0 -1.0359887011443524e-16 -3.43793413987747e-19
  outer loop
    vertex 4.45 26.8 4.946410161513775
    vertex 4.45 27.0 0.0
    vertex 4.45 26.94641016151378 4.800000000000001
  endloop
endfacet
facet normal 1.0 -1.0359887011443524e-16 -3.43793413987747e-19
  outer loop
    vertex 4.45 26.94641016151378 4.800000000000001
    vertex 4.45 27.0 0.0
    vertex 4.45 27.0 4.6
  endloop
endfacet
facet normal 1.0 -1.0359887011443524e-16 -3.43793413987747e-19
  outer loop
    vertex 4.449999999999999 20.4 5.0
    vertex 4.429663 23.661760701095197 4.063839562319737
    vertex 4.45 26.6 5.0
  endloop
endfacet
facet normal 1.0 -1.0359887011443524e-16 -3.43793413987747e-19
  outer loop
    vertex 4.429663 23.661760701095197 4.063839562319737
    vertex 4.449999999999999 20.4 5.0
    vertex 4.429663 23.268534463508804 3.92301024905854
  endloop
endfacet
facet normal 1.0 -1.0359887011443524e-16 -3.43793413987747e-19
  outer loop
    vertex 4.429663 23.268534463508804 3.92301024905854
    vertex 4.449999999999999 20.4 5.0
    vertex 4.429663 22.925156393430335 3.6852051389596294
  endloop
endfacet
facet normal 1.0 -1.0359887011443524e-16 -3.43793413987747e-19
  outer loop
    vertex 4.429663 22.925156393430335 3.6852051389596294
    vertex 4.449999999999999 20.4 5.0
    vertex 4.429663 22.65502713887654 3.36663025728472
  endloop
endfacet
facet normal 1.0 -1.0359887011443524e-16 -3.43793413987747e-19
  outer loop
    vertex 4.429663 22.65502713887654 3.36663025728472
    vertex 4.449999999999999 20.4 5.0
    vertex 4.429663 22.47655556213557 2.9889959557500716
  endloop
endfacet
facet normal 1.0 -1.0359887011443524e-16 -3.43793413987747e-19
  outer loop
    vertex 4.429663 22.47655556213557 2.9889959557500716
    vertex 4.449999999999999 20.4 5.0
    vertex 4.429663 22.401904206224085 2.578037387935082
  endloop
endfacet
facet normal 1.0 -1.0359887011443524e-16 -3.43793413987747e-19
  outer loop
    vertex 4.45 26.6 5.0
    vertex 4.429663 23.661760701095197 4.063839562319737
    vertex 4.429663 24.078037387935083 4.098095793775915
  endloop
endfacet
facet normal 1.0 -1.0359887011443524e-16 -3.43793413987747e-19
  outer loop
    vertex 4.45 26.6 5.0
    vertex 4.429663 24.078037387935083 4.098095793775915
    vertex 4.429663 24.48899595575007 4.023444437864432
  endloop
endfacet
facet normal 1.0 -1.0359887011443524e-16 -3.43793413987747e-19
  outer loop
    vertex 4.45 26.6 5.0
    vertex 4.429663 24.48899595575007 4.023444437864432
    vertex 4.429663 24.86663025728472 3.8449728611234595
  endloop
endfacet
facet normal 1.0 -1.0359887011443524e-16 -3.43793413987747e-19
  outer loop
    vertex 4.45 26.6 5.0
    vertex 4.429663 24.86663025728472 3.8449728611234595
    vertex 4.429663 25.18520513895963 3.5748436065696665
  endloop
endfacet
facet normal 1.0 -1.0359887011443524e-16 -3.43793413987747e-19
  outer loop
    vertex 4.45 26.6 5.0
    vertex 4.429663 25.18520513895963 3.5748436065696665
    vertex 4.429663 25.423010249058542 3.2314655364911964
  endloop
endfacet
facet normal 1.0 -1.0359887011443524e-16 -3.43793413987747e-19
  outer loop
    vertex 4.45 26.6 5.0
    vertex 4.429663 25.423010249058542 3.2314655364911964
    vertex 4.429663 25.56383956231974 2.8382392989048038
  endloop
endfacet
facet normal 1.0 -1.0359887011443524e-16 -3.43793413987747e-19
  outer loop
    vertex 4.45 26.6 5.0
    vertex 4.429663 25.56383956231974 2.8382392989048038
    vertex 4.429663 25.598095793775915 2.421962612064919
  endloop
endfacet
facet normal -0.0 1.0 -0.0
  outer loop
    vertex 0.39999999999999997 20.0 2.8
    vertex 1.5500000000000007 20.0 0.0
    vertex 0.39999999999999997 20.0 0.0
  endloop
endfacet
facet normal -0.0 1.0 -0.0
  outer loop
    vertex 1.5500000000000007 20.0 0.0
    vertex 0.39999999999999997 20.0 2.8
    vertex 1.5500000000000007 20.0 2.8
  endloop
endfacet
facet normal -0.0 1.0 -0.0
  outer loop
    vertex 1.5500000000000007 20.0 2.8
    vertex 4.449999999999999 20.0 0.0
    vertex 1.5500000000000007 20.0 0.0
  endloop
endfacet
facet normal -0.0 1.0 -0.0
  outer loop
    vertex 4.449999999999999 20.0 0.0
    vertex 1.5500000000000007 20.0 2.8
    vertex 4.449999999999999 20.0 2.8
  endloop
endfacet
facet normal 0.0 0.3056224723437943 0.9521527736652698
  outer loop
    vertex 4.429663 23.51100404424993 0.9765555621355683
    vertex 1.5500000000000007 23.92196261206492 0.9019042062240857
    vertex 1.5500000000000007 23.51100404424993 0.9765555621355683
  endloop
endfacet
facet normal 0.0 0.04877336745942561 0.9988098711099465
  outer loop
    vertex 1.5500000000000007 23.92196261206492 0.9019042062240857
    vertex 4.429663 23.51100404424993 0.9765555621355683
    vertex 4.429663 23.92196261206492 0.9019042062240857
  endloop
endfacet
facet normal 0.0 0.5416439108029486 0.8406080382021621
  outer loop
    vertex 4.429663 23.13336974271528 1.1550271388765416
    vertex 1.5500000000000007 23.51100404424993 0.9765555621355683
    vertex 1.5500000000000007 23.13336974271528 1.1550271388765416
  endloop
endfacet
facet normal 0.0 0.3056224723437943 0.9521527736652698
  outer loop
    vertex 1.5500000000000007 23.51100404424993 0.9765555621355683
    vertex 4.429663 23.13336974271528 1.1550271388765416
    vertex 4.429663 23.51100404424993 0.9765555621355683
  endloop
endfacet
facet normal 0.0 0.7407532118497673 0.6717772541060419
  outer loop
    vertex 4.429663 22.814794861040372 1.4251563934303337
    vertex 1.5500000000000007 23.13336974271528 1.1550271388765416
    vertex 1.5500000000000007 22.814794861040372 1.4251563934303337
  endloop
endfacet
facet normal 0.0 0.5416439108029486 0.8406080382021621
  outer loop
    vertex 1.5500000000000007 23.13336974271528 1.1550271388765416
    vertex 4.429663 22.814794861040372 1.4251563934303337
    vertex 4.429663 23.13336974271528 1.1550271388765416
  endloop
endfacet
facet normal 0.0 0.889381405661587 0.4571659603069978
  outer loop
    vertex 1.5500000000000007 22.57698975094146 1.7685344635088043
    vertex 4.429663 22.814794861040372 1.4251563934303337
    vertex 1.5500000000000007 22.814794861040372 1.4251563934303337
  endloop
endfacet
facet normal 0.0 0.7407532118497673 0.6717772541060419
  outer loop
    vertex 4.429663 22.814794861040372 1.4251563934303337
    vertex 1.5500000000000007 22.57698975094146 1.7685344635088043
    vertex 4.429663 22.57698975094146 1.7685344635088043
  endloop
endfacet
facet normal 0.0 0.9773997264498357 0.21139956181550162
  outer loop
    vertex 1.5500000000000007 22.43616043768026 2.1617607010951976
    vertex 4.429663 22.57698975094146 1.7685344635088043
    vertex 1.5500000000000007 22.57698975094146 1.7685344635088043
  endloop
endfacet
facet normal 0.0 0.889381405661587 0.4571659603069978
  outer loop
    vertex 4.429663 22.57698975094146 1.7685344635088043
    vertex 1.5500000000000007 22.43616043768026 2.1617607010951976
    vertex 4.429663 22.43616043768026 2.1617607010951976
  endloop
endfacet
facet normal 0.0 0.9988098711099465 -0.04877336745942665
  outer loop
    vertex 1.5500000000000007 22.401904206224085 2.578037387935082
    vertex 4.429663 22.43616043768026 2.1617607010951976
    vertex 1.5500000000000007 22.43616043768026 2.1617607010951976
  endloop
endfacet
facet normal 0.0 0.9773997264498357 0.21139956181550162
  outer loop
    vertex 4.429663 22.43616043768026 2.1617607010951976
    vertex 1.5500000000000007 22.401904206224085 2.578037387935082
    vertex 4.429663 22.401904206224085 2.578037387935082
  endloop
endfacet
facet normal 0.0 0.9521527736652698 -0.3056224723437943
  outer loop
    vertex 1.5500000000000007 22.47655556213557 2.9889959557500716
    vertex 4.429663 22.401904206224085 2.578037387935082
    vertex 1.5500000000000007 22.401904206224085 2.578037387935082
  endloop
endfacet
facet normal 0.0 0.9988098711099465 -0.04877336745942665
  outer loop
    vertex 4.429663 22.401904206224085 2.578037387935082
    vertex 1.5500000000000007 22.47655556213557 2.9889959557500716
    vertex 4.429663 22.47655556213557 2.9889959557500716
  endloop
endfacet
facet normal 0.0 0.8406080382021609 -0.5416439108029502
  outer loop
    vertex 1.5500000000000007 22.65502713887654 3.36663025728472
    vertex 4.429663 22.47655556213557 2.9889959557500716
    vertex 1.5500000000000007 22.47655556213557 2.9889959557500716
  endloop
endfacet
facet normal 0.0 0.9521527736652698 -0.3056224723437943
  outer loop
    vertex 4.429663 22.47655556213557 2.9889959557500716
    vertex 1.5500000000000007 22.65502713887654 3.36663025728472
    vertex 4.429663 22.65502713887654 3.36663025728472
  endloop
endfacet
facet normal 0.0 0.6717772541060407 -0.7407532118497686
  outer loop
    vertex 1.5500000000000007 22.925156393430335 3.6852051389596294
    vertex 4.429663 22.65502713887654 3.36663025728472
    vertex 1.5500000000000007 22.65502713887654 3.36663025728472
  endloop
endfacet
facet normal 0.0 0.8406080382021609 -0.5416439108029502
  outer loop
    vertex 4.429663 22.65502713887654 3.36663025728472
    vertex 1.5500000000000007 22.925156393430335 3.6852051389596294
    vertex 4.429663 22.925156393430335 3.6852051389596294
  endloop
endfacet
facet normal 0.0 0.45716596030699747 -0.8893814056615872
  outer loop
    vertex 4.429663 23.268534463508804 3.92301024905854
    vertex 1.5500000000000007 22.925156393430335 3.6852051389596294
    vertex 1.5500000000000007 23.268534463508804 3.92301024905854
  endloop
endfacet
facet normal 0.0 0.6717772541060407 -0.7407532118497686
  outer loop
    vertex 1.5500000000000007 22.925156393430335 3.6852051389596294
    vertex 4.429663 23.268534463508804 3.92301024905854
    vertex 4.429663 22.925156393430335 3.6852051389596294
  endloop
endfacet
facet normal 0.0 0.21139956181550193 -0.9773997264498357
  outer loop
    vertex 4.429663 23.661760701095197 4.063839562319737
    vertex 1.5500000000000007 23.268534463508804 3.92301024905854
    vertex 1.5500000000000007 23.661760701095197 4.063839562319737
  endloop
endfacet
facet normal 0.0 0.45716596030699747 -0.8893814056615872
  outer loop
    vertex 1.5500000000000007 23.268534463508804 3.92301024905854
    vertex 4.429663 23.661760701095197 4.063839562319737
    vertex 4.429663 23.268534463508804 3.92301024905854
  endloop
endfacet
facet normal 0.0 -0.04877336745942603 -0.9988098711099465
  outer loop
    vertex 4.429663 24.078037387935083 4.098095793775915
    vertex 1.5500000000000007 23.661760701095197 4.063839562319737
    vertex 1.5500000000000007 24.078037387935083 4.098095793775915
  endloop
endfacet
facet normal 0.0 0.21139956181550193 -0.9773997264498357
  outer loop
    vertex 1.5500000000000007 23.661760701095197 4.063839562319737
    vertex 4.429663 24.078037387935083 4.098095793775915
    vertex 4.429663 23.661760701095197 4.063839562319737
  endloop
endfacet
facet normal 0.0 -0.30562247234379375 -0.9521527736652701
  outer loop
    vertex 4.429663 24.48899595575007 4.023444437864432
    vertex 1.5500000000000007 24.078037387935083 4.098095793775915
    vertex 1.5500000000000007 24.48899595575007 4.023444437864432
  endloop
endfacet
facet normal 0.0 -0.04877336745942603 -0.9988098711099465
  outer loop
    vertex 1.5500000000000007 24.078037387935083 4.098095793775915
    vertex 4.429663 24.48899595575007 4.023444437864432
    vertex 4.429663 24.078037387935083 4.098095793775915
  endloop
endfacet
facet normal 0.0 -0.5416439108029486 -0.8406080382021619
  outer loop
    vertex 4.429663 24.86663025728472 3.8449728611234595
    vertex 1.5500000000000007 24.48899595575007 4.023444437864432
    vertex 1.5500000000000007 24.86663025728472 3.8449728611234595
  endloop
endfacet
facet normal 0.0 -0.30562247234379375 -0.9521527736652701
  outer loop
    vertex 1.5500000000000007 24.48899595575007 4.023444437864432
    vertex 4.429663 24.86663025728472 3.8449728611234595
    vertex 4.429663 24.48899595575007 4.023444437864432
  endloop
endfacet
facet normal 0.0 -0.7407532118497675 -0.6717772541060418
  outer loop
    vertex 4.429663 25.18520513895963 3.5748436065696665
    vertex 1.5500000000000007 24.86663025728472 3.8449728611234595
    vertex 1.5500000000000007 25.18520513895963 3.5748436065696665
  endloop
endfacet
facet normal 0.0 -0.5416439108029486 -0.8406080382021619
  outer loop
    vertex 1.5500000000000007 24.86663025728472 3.8449728611234595
    vertex 4.429663 25.18520513895963 3.5748436065696665
    vertex 4.429663 24.86663025728472 3.8449728611234595
  endloop
endfacet
facet normal 0.0 -0.7407532118497675 -0.6717772541060418
  outer loop
    vertex 4.429663 25.18520513895963 3.5748436065696665
    vertex 1.5500000000000007 25.423010249058542 3.2314655364911964
    vertex 4.429663 25.423010249058542 3.2314655364911964
  endloop
endfacet
facet normal 0.0 -0.8893814056615869 -0.4571659603069984
  outer loop
    vertex 1.5500000000000007 25.423010249058542 3.2314655364911964
    vertex 4.429663 25.18520513895963 3.5748436065696665
    vertex 1.5500000000000007 25.18520513895963 3.5748436065696665
  endloop
endfacet
facet normal 0.0 -0.8893814056615869 -0.4571659603069984
  outer loop
    vertex 4.429663 25.423010249058542 3.2314655364911964
    vertex 1.5500000000000007 25.56383956231974 2.8382392989048038
    vertex 4.429663 25.56383956231974 2.8382392989048038
  endloop
endfacet
facet normal 0.0 -0.9773997264498357 -0.2113995618155018
  outer loop
    vertex 1.5500000000000007 25.56383956231974 2.8382392989048038
    vertex 4.429663 25.423010249058542 3.2314655364911964
    vertex 1.5500000000000007 25.423010249058542 3.2314655364911964
  endloop
endfacet
facet normal 0.0 -0.9773997264498357 -0.2113995618155018
  outer loop
    vertex 4.429663 25.56383956231974 2.8382392989048038
    vertex 1.5500000000000007 25.598095793775915 2.421962612064919
    vertex 4.429663 25.598095793775915 2.421962612064919
  endloop
endfacet
facet normal 0.0 -0.9988098711099463 0.0487733674594301
  outer loop
    vertex 1.5500000000000007 25.598095793775915 2.421962612064919
    vertex 4.429663 25.56383956231974 2.8382392989048038
    vertex 1.5500000000000007 25.56383956231974 2.8382392989048038
  endloop
endfacet
facet normal 0.0 -0.9988098711099463 0.0487733674594301
  outer loop
    vertex 4.429663 25.598095793775915 2.421962612064919
    vertex 1.5500000000000007 25.52344443786443 2.0110040442499297
    vertex 4.429663 25.52344443786443 2.0110040442499297
  endloop
endfacet
facet normal 0.0 -0.9521527736652698 0.30562247234379486
  outer loop
    vertex 1.5500000000000007 25.52344443786443 2.0110040442499297
    vertex 4.429663 25.598095793775915 2.421962612064919
    vertex 1.5500000000000007 25.598095793775915 2.421962612064919
  endloop
endfacet
facet normal 0.0 -0.9521527736652698 0.30562247234379486
  outer loop
    vertex 4.429663 25.52344443786443 2.0110040442499297
    vertex 1.5500000000000007 25.34497286112346 1.6333697427152816
    vertex 4.429663 25.34497286112346 1.6333697427152816
  endloop
endfacet
facet normal 0.0 -0.8406080382021626 0.5416439108029478
  outer loop
    vertex 1.5500000000000007 25.34497286112346 1.6333697427152816
    vertex 4.429663 25.52344443786443 2.0110040442499297
    vertex 1.5500000000000007 25.52344443786443 2.0110040442499297
  endloop
endfacet
facet normal 0.0 -0.8406080382021626 0.5416439108029478
  outer loop
    vertex 4.429663 25.34497286112346 1.6333697427152816
    vertex 1.5500000000000007 25.074843606569665 1.314794861040372
    vertex 4.429663 25.074843606569665 1.314794861040372
  endloop
endfacet
facet normal 0.0 -0.6717772541060412 0.7407532118497682
  outer loop
    vertex 1.5500000000000007 25.074843606569665 1.314794861040372
    vertex 4.429663 25.34497286112346 1.6333697427152816
    vertex 1.5500000000000007 25.34497286112346 1.6333697427152816
  endloop
endfacet
facet normal 0.0 -0.4571659603069982 0.889381405661587
  outer loop
    vertex 4.429663 24.731465536491196 1.0769897509414608
    vertex 1.5500000000000007 25.074843606569665 1.314794861040372
    vertex 1.5500000000000007 24.731465536491196 1.0769897509414608
  endloop
endfacet
facet normal 0.0 -0.6717772541060412 0.7407532118497682
  outer loop
    vertex 1.5500000000000007 25.074843606569665 1.314794861040372
    vertex 4.429663 24.731465536491196 1.0769897509414608
    vertex 4.429663 25.074843606569665 1.314794861040372
  endloop
endfacet
facet normal 0.0 -0.2113995618155024 0.9773997264498357
  outer loop
    vertex 4.429663 24.338239298904803 0.9361604376802631
    vertex 1.5500000000000007 24.731465536491196 1.0769897509414608
    vertex 1.5500000000000007 24.338239298904803 0.9361604376802631
  endloop
endfacet
facet normal 0.0 -0.4571659603069982 0.889381405661587
  outer loop
    vertex 1.5500000000000007 24.731465536491196 1.0769897509414608
    vertex 4.429663 24.338239298904803 0.9361604376802631
    vertex 4.429663 24.731465536491196 1.0769897509414608
  endloop
endfacet
facet normal 0.0 0.04877336745942561 0.9988098711099465
  outer loop
    vertex 4.429663 23.92196261206492 0.9019042062240857
    vertex 1.5500000000000007 24.338239298904803 0.9361604376802631
    vertex 1.5500000000000007 23.92196261206492 0.9019042062240857
  endloop
endfacet
facet normal 0.0 -0.2113995618155024 0.9773997264498357
  outer loop
    vertex 1.5500000000000007 24.338239298904803 0.9361604376802631
    vertex 4.429663 23.92196261206492 0.9019042062240857
    vertex 4.429663 24.338239298904803 0.9361604376802631
  endloop
endfacet
facet normal -0.0 1.0 -0.0
  outer loop
    vertex 1.5500000000000007 27.0 4.6
    vertex 4.45 27.0 0.0
    vertex 1.5500000000000007 27.0 0.0
  endloop
endfacet
facet normal -0.0 1.0 -0.0
  outer loop
    vertex 4.45 27.0 0.0
    vertex 1.5500000000000007 27.0 4.6
    vertex 4.45 27.0 4.6
  endloop
endfacet
facet normal 5.0211767136168e-19 0.9659258262890709 0.258819045102511
  outer loop
    vertex 1.5500000000000007 26.94641016151378 4.800000000000001
    vertex 4.45 27.0 4.6
    vertex 1.5500000000000007 27.0 4.6
  endloop
endfacet
facet normal 5.0211767136168e-19 0.9659258262890709 0.258819045102511
  outer loop
    vertex 4.45 27.0 4.6
    vertex 1.5500000000000007 26.94641016151378 4.800000000000001
    vertex 4.45 26.94641016151378 4.800000000000001
  endloop
endfacet
facet normal 2.9251959036880196e-31 0.7071067811865425 0.7071067811865526
  outer loop
    vertex 4.45 26.8 4.946410161513775
    vertex 1.5500000000000007 26.94641016151378 4.800000000000001
    vertex 1.5500000000000007 26.8 4.946410161513775
  endloop
endfacet
facet normal 2.9251959036880196e-31 0.7071067811865425 0.7071067811865526
  outer loop
    vertex 1.5500000000000007 26.94641016151378 4.800000000000001
    vertex 4.45 26.8 4.946410161513775
    vertex 4.45 26.94641016151378 4.800000000000001
  endloop
endfacet
facet normal 5.021176713611801e-19 0.25881904510252146 0.9659258262890682
  outer loop
    vertex 4.45 26.6 5.0
    vertex 1.5500000000000007 26.8 4.946410161513775
    vertex 1.5500000000000007 26.6 5.0
  endloop
endfacet
facet normal 5.021176713611801e-19 0.25881904510252146 0.9659258262890682
  outer loop
    vertex 1.5500000000000007 26.8 4.946410161513775
    vertex 4.45 26.6 5.0
    vertex 4.45 26.8 4.946410161513775
  endloop
endfacet
facet normal 0.0 -1.0 0.0
  outer loop
    vertex 4.449999999999999 20.0 4.6
    vertex 1.5500000000000007 20.0 2.8
    vertex 4.449999999999999 20.0 2.8
  endloop
endfacet
facet normal 0.0 -1.0 0.0
  outer loop
    vertex 1.5500000000000007 20.0 2.8
    vertex 4.449999999999999 20.0 4.6
    vertex 1.5500000000000007 20.0 4.6
  endloop
endfacet
facet normal -1.0 0.0 0.0
  outer loop
    vertex 1.5500000000000007 20.4 5.0
    vertex 1.5500000000000007 22.47655556213557 2.9889959557500716
    vertex 1.5500000000000007 22.401904206224085 2.578037387935082
  endloop
endfacet
facet normal -1.0 0.0 0.0
  outer loop
    vertex 1.5500000000000007 22.47655556213557 2.9889959557500716
    vertex 1.5500000000000007 20.4 5.0
    vertex 1.5500000000000007 22.65502713887654 3.36663025728472
  endloop
endfacet
facet normal -1.0 0.0 0.0
  outer loop
    vertex 1.5500000000000007 22.65502713887654 3.36663025728472
    vertex 1.5500000000000007 20.4 5.0
    vertex 1.5500000000000007 22.925156393430335 3.6852051389596294
  endloop
endfacet
facet normal -1.0 0.0 0.0
  outer loop
    vertex 1.5500000000000007 22.925156393430335 3.6852051389596294
    vertex 1.5500000000000007 20.4 5.0
    vertex 1.5500000000000007 23.268534463508804 3.92301024905854
  endloop
endfacet
facet normal -1.0 0.0 0.0
  outer loop
    vertex 1.5500000000000007 23.268534463508804 3.92301024905854
    vertex 1.5500000000000007 20.4 5.0
    vertex 1.5500000000000007 23.661760701095197 4.063839562319737
  endloop
endfacet
facet normal -1.0 0.0 0.0
  outer loop
    vertex 1.5500000000000007 23.661760701095197 4.063839562319737
    vertex 1.5500000000000007 20.4 5.0
    vertex 1.5500000000000007 26.6 5.0
  endloop
endfacet
facet normal -1.0 0.0 0.0
  outer loop
    vertex 1.5500000000000007 23.661760701095197 4.063839562319737
    vertex 1.5500000000000007 26.6 5.0
    vertex 1.5500000000000007 24.078037387935083 4.098095793775915
  endloop
endfacet
facet normal -1.0 0.0 0.0
  outer loop
    vertex 1.5500000000000007 24.078037387935083 4.098095793775915
    vertex 1.5500000000000007 26.6 5.0
    vertex 1.5500000000000007 24.48899595575007 4.023444437864432
  endloop
endfacet
facet normal -1.0 0.0 0.0
  outer loop
    vertex 1.5500000000000007 24.48899595575007 4.023444437864432
    vertex 1.5500000000000007 26.6 5.0
    vertex 1.5500000000000007 24.86663025728472 3.8449728611234595
  endloop
endfacet
facet normal -1.0 0.0 0.0
  outer loop
    vertex 1.5500000000000007 24.86663025728472 3.8449728611234595
    vertex 1.5500000000000007 26.6 5.0
    vertex 1.5500000000000007 25.18520513895963 3.5748436065696665
  endloop
endfacet
facet normal -1.0 0.0 0.0
  outer loop
    vertex 1.5500000000000007 25.18520513895963 3.5748436065696665
    vertex 1.5500000000000007 26.6 5.0
    vertex 1.5500000000000007 25.423010249058542 3.2314655364911964
  endloop
endfacet
facet normal -1.0 0.0 0.0
  outer loop
    vertex 1.5500000000000007 25.423010249058542 3.2314655364911964
    vertex 1.5500000000000007 26.6 5.0
    vertex 1.5500000000000007 25.56383956231974 2.8382392989048038
  endloop
endfacet
facet normal -1.0 0.0 0.0
  outer loop
    vertex 1.5500000000000007 25.56383956231974 2.8382392989048038
    vertex 1.5500000000000007 26.6 5.0
    vertex 1.5500000000000007 25.598095793775915 2.421962612064919
  endloop
endfacet
facet normal -1.0 0.0 0.0
  outer loop
    vertex 1.5500000000000007 20.053589838486225 4.800000000000001
    vertex 1.5500000000000007 20.0 2.8
    vertex 1.5500000000000007 20.0 4.6
  endloop
endfacet
facet normal -1.0 0.0 0.0
  outer loop
    vertex 1.5500000000000007 20.0 2.8
    vertex 1.5500000000000007 20.053589838486225 4.800000000000001
    vertex 1.5500000000000007 20.0 0.0
  endloop
endfacet
facet normal -1.0 0.0 0.0
  outer loop
    vertex 1.5500000000000007 20.0 0.0
    vertex 1.5500000000000007 20.053589838486225 4.800000000000001
    vertex 1.5500000000000007 22.814794861040372 1.4251563934303337
  endloop
endfacet
facet normal -1.0 0.0 0.0
  outer loop
    vertex 1.5500000000000007 20.0 0.0
    vertex 1.5500000000000007 22.814794861040372 1.4251563934303337
    vertex 1.5500000000000007 23.13336974271528 1.1550271388765416
  endloop
endfacet
facet normal -1.0 0.0 0.0
  outer loop
    vertex 1.5500000000000007 20.0 0.0
    vertex 1.5500000000000007 23.13336974271528 1.1550271388765416
    vertex 1.5500000000000007 23.51100404424993 0.9765555621355683
  endloop
endfacet
facet normal -1.0 0.0 0.0
  outer loop
    vertex 1.5500000000000007 20.0 0.0
    vertex 1.5500000000000007 23.51100404424993 0.9765555621355683
    vertex 1.5500000000000007 27.0 0.0
  endloop
endfacet
facet normal -1.0 0.0 0.0
  outer loop
    vertex 1.5500000000000007 22.814794861040372 1.4251563934303337
    vertex 1.5500000000000007 20.053589838486225 4.800000000000001
    vertex 1.5500000000000007 20.2 4.946410161513775
  endloop
endfacet
facet normal -1.0 0.0 0.0
  outer loop
    vertex 1.5500000000000007 22.814794861040372 1.4251563934303337
    vertex 1.5500000000000007 20.2 4.946410161513775
    vertex 1.5500000000000007 22.57698975094146 1.7685344635088043
  endloop
endfacet
facet normal -1.0 0.0 0.0
  outer loop
    vertex 1.5500000000000007 22.57698975094146 1.7685344635088043
    vertex 1.5500000000000007 20.2 4.946410161513775
    vertex 1.5500000000000007 20.4 5.0
  endloop
endfacet
facet normal -1.0 0.0 0.0
  outer loop
    vertex 1.5500000000000007 22.57698975094146 1.7685344635088043
    vertex 1.5500000000000007 20.4 5.0
    vertex 1.5500000000000007 22.43616043768026 2.1617607010951976
  endloop
endfacet
facet normal -1.0 0.0 0.0
  outer loop
    vertex 1.5500000000000007 22.43616043768026 2.1617607010951976
    vertex 1.5500000000000007 20.4 5.0
    vertex 1.5500000000000007 22.401904206224085 2.578037387935082
  endloop
endfacet
facet normal -1.0 0.0 0.0
  outer loop
    vertex 1.5500000000000007 27.0 0.0
    vertex 1.5500000000000007 23.51100404424993 0.9765555621355683
    vertex 1.5500000000000007 23.92196261206492 0.9019042062240857
  endloop
endfacet
facet normal -1.0 0.0 0.0
  outer loop
    vertex 1.5500000000000007 27.0 0.0
    vertex 1.5500000000000007 23.92196261206492 0.9019042062240857
    vertex 1.5500000000000007 24.338239298904803 0.9361604376802631
  endloop
endfacet
facet normal -1.0 0.0 0.0
  outer loop
    vertex 1.5500000000000007 27.0 0.0
    vertex 1.5500000000000007 24.338239298904803 0.9361604376802631
    vertex 1.5500000000000007 24.731465536491196 1.0769897509414608
  endloop
endfacet
facet normal -1.0 0.0 0.0
  outer loop
    vertex 1.5500000000000007 27.0 0.0
    vertex 1.5500000000000007 24.731465536491196 1.0769897509414608
    vertex 1.5500000000000007 25.074843606569665 1.314794861040372
  endloop
endfacet
facet normal -1.0 0.0 0.0
  outer loop
    vertex 1.5500000000000007 27.0 0.0
    vertex 1.5500000000000007 25.074843606569665 1.314794861040372
    vertex 1.5500000000000007 25.34497286112346 1.6333697427152816
  endloop
endfacet
facet normal -1.0 0.0 0.0
  outer loop
    vertex 1.5500000000000007 27.0 0.0
    vertex 1.5500000000000007 25.34497286112346 1.6333697427152816
    vertex 1.5500000000000007 25.52344443786443 2.0110040442499297
  endloop
endfacet
facet normal -1.0 0.0 0.0
  outer loop
    vertex 1.5500000000000007 27.0 0.0
    vertex 1.5500000000000007 25.52344443786443 2.0110040442499297
    vertex 1.5500000000000007 25.598095793775915 2.421962612064919
  endloop
endfacet
facet normal -1.0 0.0 0.0
  outer loop
    vertex 1.5500000000000007 27.0 0.0
    vertex 1.5500000000000007 25.598095793775915 2.421962612064919
    vertex 1.5500000000000007 26.6 5.0
  endloop
endfacet
facet normal -1.0 0.0 0.0
  outer loop
    vertex 1.5500000000000007 27.0 0.0
    vertex 1.5500000000000007 26.6 5.0
    vertex 1.5500000000000007 26.8 4.946410161513775
  endloop
endfacet
facet normal -1.0 0.0 0.0
  outer loop
    vertex 1.5500000000000007 27.0 0.0
    vertex 1.5500000000000007 26.8 4.946410161513775
    vertex 1.5500000000000007 26.94641016151378 4.800000000000001
  endloop
endfacet
facet normal -1.0 0.0 0.0
  outer loop
    vertex 1.5500000000000007 27.0 0.0
    vertex 1.5500000000000007 26.94641016151378 4.800000000000001
    vertex 1.5500000000000007 27.0 4.6
  endloop
endfacet
facet normal -0.0 -0.0 1.0
  outer loop
    vertex 4.449999999999999 20.4 5.0
    vertex 1.5500000000000007 26.6 5.0
    vertex 1.5500000000000007 20.4 5.0
  endloop
endfacet
facet normal -0.0 -0.0 1.0
  outer loop
    vertex 1.5500000000000007 26.6 5.0
    vertex 4.449999999999999 20.4 5.0
    vertex 4.45 26.6 5.0
  endloop
endfacet
facet normal 0.0 -0.7071067811865491 0.7071067811865458
  outer loop
    vertex 4.449999999999999 20.2 4.946410161513775
    vertex 1.5500000000000007 20.053589838486225 4.800000000000001
    vertex 4.449999999999999 20.053589838486225 4.800000000000001
  endloop
endfacet
facet normal 0.0 -0.7071067811865491 0.7071067811865458
  outer loop
    vertex 1.5500000000000007 20.053589838486225 4.800000000000001
    vertex 4.449999999999999 20.2 4.946410161513775
    vertex 1.5500000000000007 20.2 4.946410161513775
  endloop
endfacet
facet normal 0.0 -0.9659258262890675 0.2588190451025238
  outer loop
    vertex 4.449999999999999 20.053589838486225 4.800000000000001
    vertex 1.5500000000000007 20.0 4.6
    vertex 4.449999999999999 20.0 4.6
  endloop
endfacet
facet normal 0.0 -0.9659258262890675 0.2588190451025238
  outer loop
    vertex 1.5500000000000007 20.0 4.6
    vertex 4.449999999999999 20.053589838486225 4.800000000000001
    vertex 1.5500000000000007 20.053589838486225 4.800000000000001
  endloop
endfacet
facet normal -0.0 -0.25881904510252146 0.9659258262890682
  outer loop
    vertex 4.449999999999999 20.2 4.946410161513775
    vertex 1.5500000000000007 20.4 5.0
    vertex 1.5500000000000007 20.2 4.946410161513775
  endloop
endfacet
facet normal -0.0 -0.25881904510252146 0.9659258262890682
  outer loop
    vertex 1.5500000000000007 20.4 5.0
    vertex 4.449999999999999 20.2 4.946410161513775
    vertex 4.449999999999999 20.4 5.0
  endloop
endfacet
facet normal -1.0 0.0 0.0
  outer loop
    vertex 0.0 19.6 2.8
    vertex 0.0 0.39999999999999963 0.0
    vertex 0.0 0.39999999999999963 2.8
  endloop
endfacet
facet normal -1.0 0.0 0.0
  outer loop
    vertex 0.0 0.39999999999999963 0.0
    vertex 0.0 19.6 2.8
    vertex 0.0 19.6 0.0
  endloop
endfacet
facet normal -0.7071067811865449 0.7071067811865501 -0.0
  outer loop
    vertex 0.0535898384862245 19.8 2.8
    vertex 0.19999999999999996 19.946410161513775 0.0
    vertex 0.0535898384862245 19.8 0.0
  endloop
endfacet
facet normal -0.7071067811865449 0.7071067811865501 -0.0
  outer loop
    vertex 0.19999999999999996 19.946410161513775 0.0
    vertex 0.0535898384862245 19.8 2.8
    vertex 0.19999999999999996 19.946410161513775 2.8
  endloop
endfacet
facet normal -0.2588190451025241 0.9659258262890673 -0.0
  outer loop
    vertex 0.19999999999999996 19.946410161513775 2.8
    vertex 0.39999999999999997 20.0 0.0
    vertex 0.19999999999999996 19.946410161513775 0.0
  endloop
endfacet
facet normal -0.2588190451025241 0.9659258262890673 -0.0
  outer loop
    vertex 0.39999999999999997 20.0 0.0
    vertex 0.19999999999999996 19.946410161513775 2.8
    vertex 0.39999999999999997 20.0 2.8
  endloop
endfacet
facet normal -0.9659258262890682 0.258819045102521 0.0
  outer loop
    vertex 0.0535898384862245 19.8 2.8
    vertex 0.0 19.6 0.0
    vertex 0.0 19.6 2.8
  endloop
endfacet
facet normal -0.9659258262890682 0.258819045102521 0.0
  outer loop
    vertex 0.0 19.6 0.0
    vertex 0.0535898384862245 19.8 2.8
    vertex 0.0535898384862245 19.8 0.0
  endloop
endfacet
facet normal -0.0 1.0 -0.0
  outer loop
    vertex 4.449999999999999 20.0 2.8
    vertex 5.6000000000000005 20.0 0.0
    vertex 4.449999999999999 20.0 0.0
  endloop
endfacet
facet normal -0.0 1.0 -0.0
  outer loop
    vertex 5.6000000000000005 20.0 0.0
    vertex 4.449999999999999 20.0 2.8
    vertex 5.6000000000000005 20.0 2.8
  endloop
endfacet
facet normal 0.707106781186544 0.707106781186551 -0.0
  outer loop
    vertex 5.8 19.946410161513775 2.8
    vertex 5.946410161513776 19.8 0.0
    vertex 5.8 19.946410161513775 0.0
  endloop
endfacet
facet normal 0.707106781186544 0.707106781186551 -0.0
  outer loop
    vertex 5.946410161513776 19.8 0.0
    vertex 5.8 19.946410161513775 2.8
    vertex 5.946410161513776 19.8 2.8
  endloop
endfacet
facet normal 0.9659258262890682 0.25881904510252146 -0.0
  outer loop
    vertex 5.946410161513776 19.8 0.0
    vertex 6.0 19.6 2.8
    vertex 6.0 19.6 0.0
  endloop
endfacet
facet normal 0.9659258262890682 0.25881904510252146 -0.0
  outer loop
    vertex 6.0 19.6 2.8
    vertex 5.946410161513776 19.8 0.0
    vertex 5.946410161513776 19.8 2.8
  endloop
endfacet
facet normal 0.2588190451025246 0.9659258262890673 -0.0
  outer loop
    vertex 5.6000000000000005 20.0 2.8
    vertex 5.8 19.946410161513775 0.0
    vertex 5.6000000000000005 20.0 0.0
  endloop
endfacet
facet normal 0.2588190451025246 0.9659258262890673 -0.0
  outer loop
    vertex 5.8 19.946410161513775 0.0
    vertex 5.6000000000000005 20.0 2.8
    vertex 5.8 19.946410161513775 2.8
  endloop
endfacet
facet normal 0.0 -1.0 0.0
  outer loop
    vertex 5.6000000000000005 0.0 2.8
    vertex 0.4000000000000001 0.0 0.0
    vertex 5.6000000000000005 0.0 0.0
  endloop
endfacet
facet normal 0.0 -1.0 0.0
  outer loop
    vertex 0.4000000000000001 0.0 0.0
    vertex 5.6000000000000005 0.0 2.8
    vertex 0.4000000000000001 0.0 2.8
  endloop
endfacet
facet normal 1.0 -0.0 -0.0
  outer loop
    vertex 6.0 19.6 0.0
    vertex 6.0 0.4000000000000001 2.8
    vertex 6.0 0.4000000000000001 0.0
  endloop
endfacet
facet normal 1.0 -0.0 -0.0
  outer loop
    vertex 6.0 0.4000000000000001 2.8
    vertex 6.0 19.6 0.0
    vertex 6.0 19.6 2.8
  endloop
endfacet
facet normal -0.707106781186547 -0.7071067811865479 0.0
  outer loop
    vertex 0.20000000000000007 0.05358983848622446 2.8
    vertex 0.05358983848622459 0.19999999999999976 0.0
    vertex 0.20000000000000007 0.05358983848622446 0.0
  endloop
endfacet
facet normal -0.707106781186547 -0.7071067811865479 0.0
  outer loop
    vertex 0.05358983848622459 0.19999999999999976 0.0
    vertex 0.20000000000000007 0.05358983848622446 2.8
    vertex 0.05358983848622459 0.19999999999999976 2.8
  endloop
endfacet
facet normal 0.7071067811865468 -0.7071067811865482 0.0
  outer loop
    vertex 5.946410161513776 0.19999999999999998 2.8
    vertex 5.8 0.05358983848622454 0.0
    vertex 5.946410161513776 0.19999999999999998 0.0
  endloop
endfacet
facet normal 0.7071067811865468 -0.7071067811865482 0.0
  outer loop
    vertex 5.8 0.05358983848622454 0.0
    vertex 5.946410161513776 0.19999999999999998 2.8
    vertex 5.8 0.05358983848622454 2.8
  endloop
endfacet
facet normal 0.9659258262890682 -0.25881904510252096 -0.0
  outer loop
    vertex 6.0 0.4000000000000001 0.0
    vertex 5.946410161513776 0.19999999999999998 2.8
    vertex 5.946410161513776 0.19999999999999998 0.0
  endloop
endfacet
facet normal 0.9659258262890682 -0.25881904510252096 -0.0
  outer loop
    vertex 5.946410161513776 0.19999999999999998 2.8
    vertex 6.0 0.4000000000000001 0.0
    vertex 6.0 0.4000000000000001 2.8
  endloop
endfacet
facet normal 0.2588190451025212 -0.9659258262890682 0.0
  outer loop
    vertex 5.8 0.05358983848622454 2.8
    vertex 5.6000000000000005 0.0 0.0
    vertex 5.8 0.05358983848622454 0.0
  endloop
endfacet
facet normal 0.2588190451025212 -0.9659258262890682 0.0
  outer loop
    vertex 5.6000000000000005 0.0 0.0
    vertex 5.8 0.05358983848622454 2.8
    vertex 5.6000000000000005 0.0 2.8
  endloop
endfacet
facet normal -0.9659258262890682 -0.2588190451025212 0.0
  outer loop
    vertex 0.0 0.39999999999999963 2.8
    vertex 0.05358983848622459 0.19999999999999976 0.0
    vertex 0.05358983848622459 0.19999999999999976 2.8
  endloop
endfacet
facet normal -0.9659258262890682 -0.2588190451025212 0.0
  outer loop
    vertex 0.05358983848622459 0.19999999999999976 0.0
    vertex 0.0 0.39999999999999963 2.8
    vertex 0.0 0.39999999999999963 0.0
  endloop
endfacet
facet normal -0.25881904510252046 -0.9659258262890684 0.0
  outer loop
    vertex 0.4000000000000001 0.0 2.8
    vertex 0.20000000000000007 0.05358983848622446 0.0
    vertex 0.4000000000000001 0.0 0.0
  endloop
endfacet
facet normal -0.25881904510252046 -0.9659258262890684 0.0
  outer loop
    vertex 0.20000000000000007 0.05358983848622446 0.0
    vertex 0.4000000000000001 0.0 2.8
    vertex 0.20000000000000007 0.05358983848622446 2.8
  endloop
endfacet
endsolid Untitled-56fc7a93
